%TF.GenerationSoftware,KiCad,Pcbnew,7.0.6*%
%TF.CreationDate,2024-03-24T10:59:23+08:00*%
%TF.ProjectId,USB3 Hub,55534233-2048-4756-922e-6b696361645f,rev?*%
%TF.SameCoordinates,Original*%
%TF.FileFunction,Paste,Bot*%
%TF.FilePolarity,Positive*%
%FSLAX46Y46*%
G04 Gerber Fmt 4.6, Leading zero omitted, Abs format (unit mm)*
G04 Created by KiCad (PCBNEW 7.0.6) date 2024-03-24 10:59:23*
%MOMM*%
%LPD*%
G01*
G04 APERTURE LIST*
G04 Aperture macros list*
%AMRoundRect*
0 Rectangle with rounded corners*
0 $1 Rounding radius*
0 $2 $3 $4 $5 $6 $7 $8 $9 X,Y pos of 4 corners*
0 Add a 4 corners polygon primitive as box body*
4,1,4,$2,$3,$4,$5,$6,$7,$8,$9,$2,$3,0*
0 Add four circle primitives for the rounded corners*
1,1,$1+$1,$2,$3*
1,1,$1+$1,$4,$5*
1,1,$1+$1,$6,$7*
1,1,$1+$1,$8,$9*
0 Add four rect primitives between the rounded corners*
20,1,$1+$1,$2,$3,$4,$5,0*
20,1,$1+$1,$4,$5,$6,$7,0*
20,1,$1+$1,$6,$7,$8,$9,0*
20,1,$1+$1,$8,$9,$2,$3,0*%
G04 Aperture macros list end*
%ADD10RoundRect,0.079500X-0.079500X-0.100500X0.079500X-0.100500X0.079500X0.100500X-0.079500X0.100500X0*%
%ADD11RoundRect,0.147500X0.172500X-0.147500X0.172500X0.147500X-0.172500X0.147500X-0.172500X-0.147500X0*%
%ADD12RoundRect,0.225000X-0.250000X0.225000X-0.250000X-0.225000X0.250000X-0.225000X0.250000X0.225000X0*%
%ADD13RoundRect,0.225000X0.250000X-0.225000X0.250000X0.225000X-0.250000X0.225000X-0.250000X-0.225000X0*%
%ADD14RoundRect,0.079500X0.079500X0.100500X-0.079500X0.100500X-0.079500X-0.100500X0.079500X-0.100500X0*%
%ADD15RoundRect,0.079500X0.100500X-0.079500X0.100500X0.079500X-0.100500X0.079500X-0.100500X-0.079500X0*%
%ADD16RoundRect,0.218750X0.381250X-0.218750X0.381250X0.218750X-0.381250X0.218750X-0.381250X-0.218750X0*%
%ADD17RoundRect,0.225000X-0.225000X-0.250000X0.225000X-0.250000X0.225000X0.250000X-0.225000X0.250000X0*%
%ADD18R,0.250000X0.400000*%
%ADD19RoundRect,0.050000X-0.750000X0.050000X-0.750000X-0.050000X0.750000X-0.050000X0.750000X0.050000X0*%
%ADD20RoundRect,0.225000X0.225000X0.250000X-0.225000X0.250000X-0.225000X-0.250000X0.225000X-0.250000X0*%
%ADD21RoundRect,0.218750X-0.218750X-0.381250X0.218750X-0.381250X0.218750X0.381250X-0.218750X0.381250X0*%
%ADD22RoundRect,0.079500X-0.100500X0.079500X-0.100500X-0.079500X0.100500X-0.079500X0.100500X0.079500X0*%
%ADD23RoundRect,0.147500X-0.147500X-0.172500X0.147500X-0.172500X0.147500X0.172500X-0.147500X0.172500X0*%
G04 APERTURE END LIST*
D10*
%TO.C,R14*%
X144835000Y-86060000D03*
X145525000Y-86060000D03*
%TD*%
D11*
%TO.C,D13*%
X143650000Y-82835000D03*
X143650000Y-81865000D03*
%TD*%
D10*
%TO.C,R12*%
X148665000Y-87600000D03*
X149355000Y-87600000D03*
%TD*%
D11*
%TO.C,L3*%
X156380000Y-83885000D03*
X156380000Y-82915000D03*
%TD*%
D12*
%TO.C,C42*%
X130280000Y-100630000D03*
X130280000Y-102180000D03*
%TD*%
D13*
%TO.C,C23*%
X154840000Y-85015000D03*
X154840000Y-83465000D03*
%TD*%
D14*
%TO.C,C24*%
X150285000Y-93600000D03*
X149595000Y-93600000D03*
%TD*%
D13*
%TO.C,C48*%
X148030000Y-102115000D03*
X148030000Y-100565000D03*
%TD*%
D10*
%TO.C,C22*%
X146695000Y-83870000D03*
X147385000Y-83870000D03*
%TD*%
D11*
%TO.C,D10*%
X157900000Y-94675000D03*
X157900000Y-93705000D03*
%TD*%
D10*
%TO.C,C38*%
X148975000Y-86030000D03*
X149665000Y-86030000D03*
%TD*%
D15*
%TO.C,C28*%
X144880000Y-94845000D03*
X144880000Y-94155000D03*
%TD*%
D16*
%TO.C,L6*%
X145500000Y-102162500D03*
X145500000Y-100037500D03*
%TD*%
D17*
%TO.C,C15*%
X153725000Y-96280000D03*
X155275000Y-96280000D03*
%TD*%
D10*
%TO.C,C4*%
X124875000Y-81060000D03*
X125565000Y-81060000D03*
%TD*%
D18*
%TO.C,U4*%
X152070000Y-84580000D03*
X152570000Y-84580000D03*
X153070000Y-84580000D03*
X153570000Y-84580000D03*
X153570000Y-87080000D03*
X153070000Y-87080000D03*
X152570000Y-87080000D03*
X152070000Y-87080000D03*
D19*
X152820000Y-85830000D03*
%TD*%
D14*
%TO.C,R11*%
X145265000Y-87010000D03*
X144575000Y-87010000D03*
%TD*%
%TO.C,C30*%
X151735000Y-90030000D03*
X151045000Y-90030000D03*
%TD*%
D15*
%TO.C,C3*%
X125990000Y-87075000D03*
X125990000Y-86385000D03*
%TD*%
D14*
%TO.C,R24*%
X153105000Y-83470000D03*
X152415000Y-83470000D03*
%TD*%
D17*
%TO.C,C41*%
X156485000Y-81770000D03*
X158035000Y-81770000D03*
%TD*%
D20*
%TO.C,C44*%
X134245000Y-85540000D03*
X132695000Y-85540000D03*
%TD*%
D17*
%TO.C,C12*%
X153715000Y-97590000D03*
X155265000Y-97590000D03*
%TD*%
%TO.C,C40*%
X156515000Y-85110000D03*
X158065000Y-85110000D03*
%TD*%
D10*
%TO.C,C21*%
X146595000Y-81270000D03*
X147285000Y-81270000D03*
%TD*%
D14*
%TO.C,C27*%
X141435000Y-88860000D03*
X140745000Y-88860000D03*
%TD*%
D20*
%TO.C,C5*%
X124225000Y-86760000D03*
X122675000Y-86760000D03*
%TD*%
D13*
%TO.C,C11*%
X139320000Y-83265000D03*
X139320000Y-81715000D03*
%TD*%
D21*
%TO.C,L8*%
X140487500Y-83220000D03*
X142612500Y-83220000D03*
%TD*%
%TO.C,L7*%
X134297500Y-98480000D03*
X136422500Y-98480000D03*
%TD*%
D14*
%TO.C,C34*%
X150045000Y-92450000D03*
X149355000Y-92450000D03*
%TD*%
D15*
%TO.C,C29*%
X145400000Y-94845000D03*
X145400000Y-94155000D03*
%TD*%
D14*
%TO.C,R3*%
X125575000Y-81610000D03*
X124885000Y-81610000D03*
%TD*%
D17*
%TO.C,C49*%
X134275000Y-99960000D03*
X135825000Y-99960000D03*
%TD*%
D14*
%TO.C,C25*%
X150265000Y-94260000D03*
X149575000Y-94260000D03*
%TD*%
D10*
%TO.C,R4*%
X124875000Y-82360000D03*
X125565000Y-82360000D03*
%TD*%
D22*
%TO.C,C31*%
X147250000Y-87045000D03*
X147250000Y-87735000D03*
%TD*%
D13*
%TO.C,C47*%
X137870000Y-83235000D03*
X137870000Y-81685000D03*
%TD*%
D14*
%TO.C,R13*%
X147655000Y-88470000D03*
X146965000Y-88470000D03*
%TD*%
D15*
%TO.C,R2*%
X126760000Y-87115000D03*
X126760000Y-86425000D03*
%TD*%
D13*
%TO.C,C6*%
X127210000Y-83145000D03*
X127210000Y-81595000D03*
%TD*%
D21*
%TO.C,L5*%
X153657500Y-94870000D03*
X155782500Y-94870000D03*
%TD*%
D20*
%TO.C,C45*%
X134205000Y-86980000D03*
X132655000Y-86980000D03*
%TD*%
D15*
%TO.C,C35*%
X147560000Y-94815000D03*
X147560000Y-94125000D03*
%TD*%
D14*
%TO.C,R15*%
X149815000Y-86940000D03*
X149125000Y-86940000D03*
%TD*%
D23*
%TO.C,D11*%
X145932500Y-99050000D03*
X146902500Y-99050000D03*
%TD*%
D13*
%TO.C,C18*%
X146890000Y-102135000D03*
X146890000Y-100585000D03*
%TD*%
D22*
%TO.C,R1*%
X127470000Y-86475000D03*
X127470000Y-87165000D03*
%TD*%
D10*
%TO.C,C26*%
X143065000Y-91760000D03*
X143755000Y-91760000D03*
%TD*%
%TO.C,C37*%
X144495000Y-88060000D03*
X145185000Y-88060000D03*
%TD*%
D17*
%TO.C,C50*%
X134315000Y-101410000D03*
X135865000Y-101410000D03*
%TD*%
M02*
