%TF.GenerationSoftware,KiCad,Pcbnew,7.0.6*%
%TF.CreationDate,2024-03-24T10:59:23+08:00*%
%TF.ProjectId,USB3 Hub,55534233-2048-4756-922e-6b696361645f,rev?*%
%TF.SameCoordinates,Original*%
%TF.FileFunction,Paste,Top*%
%TF.FilePolarity,Positive*%
%FSLAX46Y46*%
G04 Gerber Fmt 4.6, Leading zero omitted, Abs format (unit mm)*
G04 Created by KiCad (PCBNEW 7.0.6) date 2024-03-24 10:59:23*
%MOMM*%
%LPD*%
G01*
G04 APERTURE LIST*
G04 Aperture macros list*
%AMRoundRect*
0 Rectangle with rounded corners*
0 $1 Rounding radius*
0 $2 $3 $4 $5 $6 $7 $8 $9 X,Y pos of 4 corners*
0 Add a 4 corners polygon primitive as box body*
4,1,4,$2,$3,$4,$5,$6,$7,$8,$9,$2,$3,0*
0 Add four circle primitives for the rounded corners*
1,1,$1+$1,$2,$3*
1,1,$1+$1,$4,$5*
1,1,$1+$1,$6,$7*
1,1,$1+$1,$8,$9*
0 Add four rect primitives between the rounded corners*
20,1,$1+$1,$2,$3,$4,$5,0*
20,1,$1+$1,$4,$5,$6,$7,0*
20,1,$1+$1,$6,$7,$8,$9,0*
20,1,$1+$1,$8,$9,$2,$3,0*%
G04 Aperture macros list end*
%ADD10RoundRect,0.079500X0.100500X-0.079500X0.100500X0.079500X-0.100500X0.079500X-0.100500X-0.079500X0*%
%ADD11RoundRect,0.079500X0.079500X0.100500X-0.079500X0.100500X-0.079500X-0.100500X0.079500X-0.100500X0*%
%ADD12R,0.300000X0.800000*%
%ADD13R,0.400000X0.800000*%
%ADD14R,1.400000X1.200000*%
%ADD15R,0.550000X0.300000*%
%ADD16R,1.750000X2.600000*%
%ADD17RoundRect,0.079500X-0.079500X-0.100500X0.079500X-0.100500X0.079500X0.100500X-0.079500X0.100500X0*%
%ADD18RoundRect,0.225000X0.250000X-0.225000X0.250000X0.225000X-0.250000X0.225000X-0.250000X-0.225000X0*%
%ADD19R,0.800000X0.300000*%
%ADD20R,0.800000X0.400000*%
%ADD21RoundRect,0.147500X0.172500X-0.147500X0.172500X0.147500X-0.172500X0.147500X-0.172500X-0.147500X0*%
%ADD22RoundRect,0.079500X-0.100500X0.079500X-0.100500X-0.079500X0.100500X-0.079500X0.100500X0.079500X0*%
%ADD23R,0.500000X0.200000*%
%ADD24R,0.200000X0.500000*%
%ADD25R,2.000000X3.000000*%
%ADD26R,0.200000X0.450000*%
%ADD27R,0.450000X0.200000*%
%ADD28R,5.700000X5.700000*%
%ADD29RoundRect,0.100000X-0.200000X-0.700000X0.200000X-0.700000X0.200000X0.700000X-0.200000X0.700000X0*%
%ADD30RoundRect,0.085714X-0.214286X-0.714286X0.214286X-0.714286X0.214286X0.714286X-0.214286X0.714286X0*%
%ADD31R,0.700000X0.300000*%
%ADD32RoundRect,0.225000X-0.250000X0.225000X-0.250000X-0.225000X0.250000X-0.225000X0.250000X0.225000X0*%
%ADD33RoundRect,0.100000X-0.700000X0.200000X-0.700000X-0.200000X0.700000X-0.200000X0.700000X0.200000X0*%
%ADD34RoundRect,0.085714X-0.714286X0.214286X-0.714286X-0.214286X0.714286X-0.214286X0.714286X0.214286X0*%
%ADD35R,0.700000X1.200000*%
%ADD36R,1.900000X2.400000*%
%ADD37RoundRect,0.147500X-0.147500X-0.172500X0.147500X-0.172500X0.147500X0.172500X-0.147500X0.172500X0*%
G04 APERTURE END LIST*
D10*
%TO.C,C10*%
X137950000Y-86340000D03*
X137950000Y-85650000D03*
%TD*%
D11*
%TO.C,C20*%
X141695000Y-98370000D03*
X141005000Y-98370000D03*
%TD*%
D12*
%TO.C,J5*%
X135260000Y-99310000D03*
X135760000Y-99310000D03*
X136260000Y-99310000D03*
X136760000Y-99310000D03*
X137260000Y-99310000D03*
X137760000Y-99310000D03*
X138260000Y-99310000D03*
X138760000Y-99310000D03*
X139260000Y-99310000D03*
X139760000Y-99310000D03*
X140260000Y-99310000D03*
X140760000Y-99310000D03*
D13*
X134210000Y-101810000D03*
X141810000Y-101810000D03*
%TD*%
D14*
%TO.C,Y1*%
X148540000Y-82330000D03*
X146340000Y-82330000D03*
X146340000Y-84030000D03*
X148540000Y-84030000D03*
%TD*%
D11*
%TO.C,R9*%
X140145000Y-91500000D03*
X139455000Y-91500000D03*
%TD*%
%TO.C,C33*%
X141645000Y-90150000D03*
X140955000Y-90150000D03*
%TD*%
D15*
%TO.C,U3*%
X128690000Y-85390000D03*
X128690000Y-84890000D03*
X128690000Y-84390000D03*
X128690000Y-83890000D03*
X128690000Y-83390000D03*
X125990000Y-83390000D03*
X125990000Y-83890000D03*
X125990000Y-84390000D03*
X125990000Y-84890000D03*
X125990000Y-85390000D03*
D16*
X127340000Y-84390000D03*
%TD*%
D17*
%TO.C,C8*%
X140175000Y-93490000D03*
X140865000Y-93490000D03*
%TD*%
D10*
%TO.C,C9*%
X138600000Y-86345000D03*
X138600000Y-85655000D03*
%TD*%
%TO.C,C13*%
X153860000Y-93855000D03*
X153860000Y-93165000D03*
%TD*%
D18*
%TO.C,C1*%
X130130000Y-86085000D03*
X130130000Y-84535000D03*
%TD*%
D11*
%TO.C,C19*%
X141695000Y-97820000D03*
X141005000Y-97820000D03*
%TD*%
%TO.C,C36*%
X141555000Y-94440000D03*
X140865000Y-94440000D03*
%TD*%
D19*
%TO.C,J3*%
X155630000Y-94960000D03*
X155630000Y-94460000D03*
X155630000Y-93960000D03*
X155630000Y-93460000D03*
X155630000Y-92960000D03*
X155630000Y-92460000D03*
X155630000Y-91960000D03*
X155630000Y-91460000D03*
X155630000Y-90960000D03*
X155630000Y-90460000D03*
X155630000Y-89960000D03*
X155630000Y-89460000D03*
D20*
X158130000Y-96010000D03*
X158130000Y-88410000D03*
%TD*%
D11*
%TO.C,R7*%
X138335000Y-90730000D03*
X137645000Y-90730000D03*
%TD*%
D10*
%TO.C,C14*%
X153150000Y-93845000D03*
X153150000Y-93155000D03*
%TD*%
D11*
%TO.C,C7*%
X140865000Y-92830000D03*
X140175000Y-92830000D03*
%TD*%
%TO.C,R10*%
X144905000Y-85420000D03*
X144215000Y-85420000D03*
%TD*%
D17*
%TO.C,C46*%
X137645000Y-89980000D03*
X138335000Y-89980000D03*
%TD*%
D21*
%TO.C,D12*%
X134730000Y-97705000D03*
X134730000Y-96735000D03*
%TD*%
D22*
%TO.C,R25*%
X153510000Y-86925000D03*
X153510000Y-87615000D03*
%TD*%
D23*
%TO.C,U1*%
X135400000Y-91770000D03*
X135400000Y-92170000D03*
X135400000Y-92570000D03*
X135400000Y-92970000D03*
X135400000Y-93370000D03*
X135400000Y-93770000D03*
X135400000Y-94170000D03*
X135400000Y-94570000D03*
X135400000Y-94970000D03*
X135400000Y-95370000D03*
D24*
X136400000Y-95670000D03*
X136800000Y-95670000D03*
X137200000Y-95670000D03*
X137600000Y-95670000D03*
D23*
X138600000Y-95370000D03*
X138600000Y-94970000D03*
X138600000Y-94570000D03*
X138600000Y-94170000D03*
X138600000Y-93770000D03*
X138600000Y-93370000D03*
X138600000Y-92970000D03*
X138600000Y-92570000D03*
X138600000Y-92170000D03*
X138600000Y-91770000D03*
D24*
X137600000Y-91470000D03*
X137200000Y-91470000D03*
X136800000Y-91470000D03*
X136400000Y-91470000D03*
D25*
X137000000Y-93570000D03*
%TD*%
D17*
%TO.C,R6*%
X136385000Y-96400000D03*
X137075000Y-96400000D03*
%TD*%
D26*
%TO.C,U2*%
X143270000Y-95635000D03*
X143670000Y-95635000D03*
X144070000Y-95635000D03*
X144470000Y-95635000D03*
X144870000Y-95635000D03*
X145270000Y-95635000D03*
X145670000Y-95635000D03*
X146070000Y-95635000D03*
X146470000Y-95635000D03*
X146870000Y-95635000D03*
X147270000Y-95635000D03*
X147670000Y-95635000D03*
X148070000Y-95635000D03*
X148470000Y-95635000D03*
X148870000Y-95635000D03*
X149270000Y-95635000D03*
X149670000Y-95635000D03*
X150070000Y-95635000D03*
X150470000Y-95635000D03*
D27*
X151195000Y-94910000D03*
X151195000Y-94510000D03*
X151195000Y-94110000D03*
X151195000Y-93710000D03*
X151195000Y-93310000D03*
X151195000Y-92910000D03*
X151195000Y-92510000D03*
X151195000Y-92110000D03*
X151195000Y-91710000D03*
X151195000Y-91310000D03*
X151195000Y-90910000D03*
X151195000Y-90510000D03*
X151195000Y-90110000D03*
X151195000Y-89710000D03*
X151195000Y-89310000D03*
X151195000Y-88910000D03*
X151195000Y-88510000D03*
X151195000Y-88110000D03*
X151195000Y-87710000D03*
D26*
X150470000Y-86985000D03*
X150070000Y-86985000D03*
X149670000Y-86985000D03*
X149270000Y-86985000D03*
X148870000Y-86985000D03*
X148470000Y-86985000D03*
X148070000Y-86985000D03*
X147670000Y-86985000D03*
X147270000Y-86985000D03*
X146870000Y-86985000D03*
X146470000Y-86985000D03*
X146070000Y-86985000D03*
X145670000Y-86985000D03*
X145270000Y-86985000D03*
X144870000Y-86985000D03*
X144470000Y-86985000D03*
X144070000Y-86985000D03*
X143670000Y-86985000D03*
X143270000Y-86985000D03*
D27*
X142545000Y-87710000D03*
X142545000Y-88110000D03*
X142545000Y-88510000D03*
X142545000Y-88910000D03*
X142545000Y-89310000D03*
X142545000Y-89710000D03*
X142545000Y-90110000D03*
X142545000Y-90510000D03*
X142545000Y-90910000D03*
X142545000Y-91310000D03*
X142545000Y-91710000D03*
X142545000Y-92110000D03*
X142545000Y-92510000D03*
X142545000Y-92910000D03*
X142545000Y-93310000D03*
X142545000Y-93710000D03*
X142545000Y-94110000D03*
X142545000Y-94510000D03*
X142545000Y-94910000D03*
D28*
X146870000Y-91310000D03*
%TD*%
D29*
%TO.C,L2*%
X128500000Y-81790000D03*
D30*
X129900000Y-81790000D03*
%TD*%
D31*
%TO.C,J1*%
X132000000Y-89830000D03*
X132000000Y-90330000D03*
X132000000Y-90830000D03*
X132000000Y-91330000D03*
X132000000Y-91830000D03*
X132000000Y-92330000D03*
X132000000Y-92830000D03*
X132000000Y-93330000D03*
X132000000Y-93830000D03*
X132000000Y-94330000D03*
X132000000Y-94830000D03*
X132000000Y-95330000D03*
%TD*%
D11*
%TO.C,R8*%
X140145000Y-90740000D03*
X139455000Y-90740000D03*
%TD*%
D21*
%TO.C,L4*%
X128720000Y-100215000D03*
X128720000Y-99245000D03*
%TD*%
D32*
%TO.C,C32*%
X134900000Y-82765000D03*
X134900000Y-84315000D03*
%TD*%
D33*
%TO.C,L1*%
X123620000Y-84240000D03*
D34*
X123620000Y-85640000D03*
%TD*%
D35*
%TO.C,J6*%
X156015000Y-85280000D03*
X154765000Y-85280000D03*
D36*
X158340000Y-82240000D03*
D35*
X153515000Y-85280000D03*
D36*
X151190000Y-82240000D03*
%TD*%
D37*
%TO.C,D1*%
X132785000Y-83190000D03*
X133755000Y-83190000D03*
%TD*%
D22*
%TO.C,C17*%
X149350000Y-96525000D03*
X149350000Y-97215000D03*
%TD*%
D12*
%TO.C,J4*%
X145580000Y-99290000D03*
X146080000Y-99290000D03*
X146580000Y-99290000D03*
X147080000Y-99290000D03*
X147580000Y-99290000D03*
X148080000Y-99290000D03*
X148580000Y-99290000D03*
X149080000Y-99290000D03*
X149580000Y-99290000D03*
X150080000Y-99290000D03*
X150580000Y-99290000D03*
X151080000Y-99290000D03*
D13*
X144530000Y-101790000D03*
X152130000Y-101790000D03*
%TD*%
D17*
%TO.C,R5*%
X134015000Y-95490000D03*
X134705000Y-95490000D03*
%TD*%
D22*
%TO.C,C16*%
X148790000Y-96525000D03*
X148790000Y-97215000D03*
%TD*%
D18*
%TO.C,C2*%
X131610000Y-86105000D03*
X131610000Y-84555000D03*
%TD*%
D10*
%TO.C,C51*%
X152780000Y-88285000D03*
X152780000Y-87595000D03*
%TD*%
D32*
%TO.C,C43*%
X130500000Y-99205000D03*
X130500000Y-100755000D03*
%TD*%
D12*
%TO.C,J2*%
X143020000Y-84160000D03*
X142520000Y-84160000D03*
X142020000Y-84160000D03*
X141520000Y-84160000D03*
X141020000Y-84160000D03*
X140520000Y-84160000D03*
X140020000Y-84160000D03*
X139520000Y-84160000D03*
X139020000Y-84160000D03*
X138520000Y-84160000D03*
X138020000Y-84160000D03*
X137520000Y-84160000D03*
D13*
X144070000Y-81660000D03*
X136470000Y-81660000D03*
%TD*%
M02*
