%TF.GenerationSoftware,KiCad,Pcbnew,7.0.6*%
%TF.CreationDate,2024-03-24T10:59:23+08:00*%
%TF.ProjectId,USB3 Hub,55534233-2048-4756-922e-6b696361645f,rev?*%
%TF.SameCoordinates,Original*%
%TF.FileFunction,Copper,L3,Inr*%
%TF.FilePolarity,Positive*%
%FSLAX46Y46*%
G04 Gerber Fmt 4.6, Leading zero omitted, Abs format (unit mm)*
G04 Created by KiCad (PCBNEW 7.0.6) date 2024-03-24 10:59:23*
%MOMM*%
%LPD*%
G01*
G04 APERTURE LIST*
%TA.AperFunction,ComponentPad*%
%ADD10C,3.800000*%
%TD*%
%TA.AperFunction,ComponentPad*%
%ADD11C,0.650000*%
%TD*%
%TA.AperFunction,ComponentPad*%
%ADD12O,1.400000X0.800000*%
%TD*%
%TA.AperFunction,ViaPad*%
%ADD13C,0.500000*%
%TD*%
%TA.AperFunction,ViaPad*%
%ADD14C,0.390000*%
%TD*%
%TA.AperFunction,ViaPad*%
%ADD15C,0.450000*%
%TD*%
%TA.AperFunction,ViaPad*%
%ADD16C,0.800000*%
%TD*%
%TA.AperFunction,ViaPad*%
%ADD17C,0.750000*%
%TD*%
%TA.AperFunction,Conductor*%
%ADD18C,0.800000*%
%TD*%
%TA.AperFunction,Conductor*%
%ADD19C,0.600000*%
%TD*%
%TA.AperFunction,Conductor*%
%ADD20C,0.250000*%
%TD*%
%TA.AperFunction,Conductor*%
%ADD21C,1.200000*%
%TD*%
%TA.AperFunction,Conductor*%
%ADD22C,0.300000*%
%TD*%
G04 APERTURE END LIST*
D10*
%TO.N,N/C*%
%TO.C,H1*%
X124340000Y-100800000D03*
%TD*%
%TO.N,N/C*%
%TO.C,H2*%
X157260000Y-100860000D03*
%TD*%
D11*
%TO.N,GND*%
%TO.C,J1*%
X130690000Y-95380000D03*
%TO.N,/USB_TX2+*%
X129990000Y-94980000D03*
%TO.N,/USB_TX2-*%
X129990000Y-94180000D03*
%TO.N,/5V*%
X130690000Y-93780000D03*
%TO.N,/CC2*%
X129990000Y-93380000D03*
%TO.N,/D+*%
X130690000Y-92980000D03*
%TO.N,/D-*%
X130690000Y-92180000D03*
%TO.N,unconnected-(J1-SBU2-PadB8)*%
X129990000Y-91780000D03*
%TO.N,/5V*%
X130690000Y-91380000D03*
%TO.N,/USB_RX1-*%
X129990000Y-90980000D03*
%TO.N,/USB_RX1+*%
X129990000Y-90180000D03*
%TO.N,GND*%
X130690000Y-89780000D03*
D12*
X125630000Y-88090000D03*
X130090000Y-88450000D03*
X130090000Y-96710000D03*
X125630000Y-97070000D03*
%TD*%
D13*
%TO.N,GND*%
X157940000Y-93190000D03*
X122510000Y-89090000D03*
X153067094Y-85479508D03*
X126960000Y-100500000D03*
X148370000Y-94590000D03*
X149810000Y-83527000D03*
X158900000Y-97260000D03*
X158820000Y-89330000D03*
D14*
X154350000Y-89700000D03*
D13*
X132600000Y-102769500D03*
D14*
X143260000Y-96760000D03*
D13*
X148530000Y-80960000D03*
X135365332Y-97015332D03*
X123990000Y-80840000D03*
D14*
X139760000Y-101430000D03*
X152570000Y-93990000D03*
X142441187Y-96699380D03*
X143320000Y-85660000D03*
D13*
X147470000Y-92860000D03*
X126780000Y-84130000D03*
X125060000Y-95250000D03*
X149160000Y-90230000D03*
X147450000Y-91210000D03*
X133790000Y-90670000D03*
D14*
X154400000Y-93900000D03*
D13*
X157880000Y-98220000D03*
D14*
X139080000Y-96870000D03*
D13*
X152030000Y-99370000D03*
X152110000Y-88320000D03*
X129070000Y-91990000D03*
X124390000Y-93860000D03*
X144560000Y-90250000D03*
X158370000Y-90150000D03*
X136220000Y-96850000D03*
D14*
X141350000Y-92410000D03*
D13*
X127930000Y-87210000D03*
X125140000Y-89000000D03*
X127400000Y-84090000D03*
X129550000Y-102340000D03*
D14*
X140310000Y-85860000D03*
D13*
X145420000Y-89340000D03*
X122500000Y-91840000D03*
X149110000Y-92040000D03*
D14*
X144250000Y-96240000D03*
D13*
X157850000Y-83510000D03*
X154650000Y-88800000D03*
D14*
X154690000Y-92360000D03*
D13*
X149140000Y-91170000D03*
X130010000Y-86990000D03*
X127960000Y-83390000D03*
X126730000Y-83480000D03*
X148340000Y-90230000D03*
X145020000Y-82870000D03*
D14*
X141810000Y-100080000D03*
D13*
X134340000Y-91080000D03*
X126180000Y-91730000D03*
X146500000Y-92000000D03*
D14*
X145730220Y-96204502D03*
D13*
X136690000Y-86130000D03*
D14*
X150990000Y-98510000D03*
D13*
X157520000Y-82550000D03*
X132990000Y-95190000D03*
D15*
X137970000Y-94400000D03*
D14*
X137720000Y-101430000D03*
D13*
X127400000Y-92760000D03*
X159090000Y-102630000D03*
X126170000Y-102690000D03*
X127980000Y-84070000D03*
D14*
X139390000Y-94950000D03*
X136780000Y-101180000D03*
D13*
X144000000Y-94420000D03*
D14*
X137690000Y-85090000D03*
D13*
X154017091Y-84644366D03*
D14*
X138710000Y-100190000D03*
X148300000Y-97710000D03*
D13*
X132970000Y-80870000D03*
X148280000Y-92010000D03*
X146580000Y-93640000D03*
X144190000Y-84584500D03*
X149040000Y-89440000D03*
X156810000Y-98180000D03*
X126430000Y-80840000D03*
X133610000Y-92630000D03*
X137420000Y-89920000D03*
D14*
X138870000Y-101410000D03*
D13*
X147420000Y-92050000D03*
X153430000Y-101000000D03*
X143430000Y-94950000D03*
D14*
X153690000Y-90190000D03*
D15*
X145400000Y-88520000D03*
D13*
X133460500Y-98619656D03*
X126840000Y-84710000D03*
D14*
X154660000Y-90770000D03*
D13*
X145630000Y-92810000D03*
X150990000Y-102390000D03*
X128870000Y-97400000D03*
D14*
X141520000Y-101400000D03*
X139310000Y-98390000D03*
X153180000Y-90700000D03*
D13*
X130910000Y-80940000D03*
X122449810Y-97285938D03*
D14*
X139477005Y-100131721D03*
D13*
X135540000Y-100680000D03*
X136010000Y-87990000D03*
X122470000Y-95820000D03*
D15*
X146850000Y-88890000D03*
D13*
X148520000Y-93610000D03*
X149790000Y-102420000D03*
D14*
X140830000Y-96740000D03*
D13*
X145630000Y-91250000D03*
X127920000Y-84750000D03*
D14*
X143240000Y-100770000D03*
D13*
X141520000Y-80750000D03*
D14*
X140640000Y-101420000D03*
D13*
X150350000Y-100380000D03*
D14*
X146550000Y-96930000D03*
D13*
X122700000Y-80980000D03*
X137040000Y-84260000D03*
X126080000Y-82390000D03*
D14*
X138170000Y-88230000D03*
D13*
X130310000Y-83510000D03*
D14*
X149640000Y-98640000D03*
D13*
X135770000Y-80660000D03*
X158810000Y-91130000D03*
D15*
X147100000Y-88060000D03*
D13*
X146560000Y-92850000D03*
X155350000Y-102670000D03*
X149110000Y-92850000D03*
X159010000Y-84120000D03*
D14*
X139790000Y-97800000D03*
D13*
X131310000Y-83150000D03*
D14*
X140350000Y-92180000D03*
D13*
X147439502Y-84470000D03*
X122360000Y-85850000D03*
X125220000Y-98390000D03*
D14*
X137730000Y-87030000D03*
X141420000Y-87300000D03*
X138330000Y-97590000D03*
D13*
X147370000Y-90230000D03*
D14*
X142410000Y-99680000D03*
D13*
X126800000Y-98080000D03*
D14*
X140340000Y-85210000D03*
X139430000Y-93770000D03*
X139230000Y-86070000D03*
D13*
X133840000Y-84570000D03*
X145660000Y-92070000D03*
D14*
X141310000Y-93850000D03*
D13*
X145430000Y-90270000D03*
X136250000Y-92320000D03*
X126760000Y-101600000D03*
X144300000Y-101160000D03*
D14*
X151890000Y-91980000D03*
D13*
X155840000Y-80970500D03*
D14*
X140270000Y-100080000D03*
D15*
X147560000Y-93780000D03*
D14*
X140010000Y-96700000D03*
D13*
X140400000Y-89660000D03*
X147450000Y-89420000D03*
X152430000Y-96660000D03*
D14*
X147940000Y-98270000D03*
X152590000Y-95470000D03*
D13*
X131300000Y-95310000D03*
X126420000Y-99270000D03*
X150310000Y-80790000D03*
X135500000Y-90830000D03*
D14*
X143130000Y-98980000D03*
D13*
X150470000Y-88000000D03*
D14*
X154800000Y-91150000D03*
D13*
X147000000Y-98470000D03*
X138090000Y-80890000D03*
D14*
X139090000Y-88510000D03*
D13*
X153840000Y-86080000D03*
X138920000Y-80930000D03*
X149840000Y-84690000D03*
X131440000Y-86860000D03*
X150210000Y-91240000D03*
X149094664Y-88791032D03*
D14*
X144000000Y-100430000D03*
D13*
X155990000Y-97720000D03*
X148320000Y-88780000D03*
D14*
X141070000Y-100050000D03*
D13*
X122570000Y-87540000D03*
X155411032Y-88169896D03*
X127380000Y-83490000D03*
X158800000Y-95520000D03*
X146480000Y-91230000D03*
X127320000Y-84960000D03*
D15*
X137440000Y-94960000D03*
D13*
X122510000Y-93260000D03*
X122400000Y-84470000D03*
D14*
X143960000Y-93300000D03*
D13*
X150230000Y-90070000D03*
X152270000Y-97990000D03*
D14*
X140930000Y-86510000D03*
D13*
X158900000Y-87890000D03*
X148300000Y-89440000D03*
X122530000Y-90510000D03*
X131140000Y-102720000D03*
X154570000Y-101550000D03*
X122450000Y-82260000D03*
X159010000Y-98870000D03*
X154550000Y-100290000D03*
D14*
X152580000Y-91190000D03*
X143910000Y-96740000D03*
D13*
X127650000Y-88770000D03*
D14*
X143980000Y-89740000D03*
X140170000Y-88940000D03*
X150850000Y-96170000D03*
X141950000Y-85700000D03*
D13*
X143560000Y-80910000D03*
X122560000Y-94710000D03*
X148310000Y-91200000D03*
X155360000Y-98950000D03*
X149590000Y-81030000D03*
X152670000Y-80910000D03*
D14*
X141030000Y-91640000D03*
D13*
X136310000Y-100670000D03*
X158780000Y-92640000D03*
D14*
X142620000Y-101330000D03*
D13*
X152880000Y-102400000D03*
D14*
X151800000Y-95480000D03*
D13*
X122470000Y-102490000D03*
X155940000Y-96330000D03*
D14*
X139290000Y-85410000D03*
D13*
X122580000Y-98980000D03*
X146230000Y-89360000D03*
X149820000Y-93080000D03*
D14*
X137880000Y-100190000D03*
D13*
X158750000Y-85630000D03*
X146140000Y-81060500D03*
X148800000Y-100420000D03*
X129120000Y-93540000D03*
D14*
X140550000Y-87020000D03*
X137730000Y-98240000D03*
D13*
X158930000Y-86840000D03*
X134340000Y-88610000D03*
X125140000Y-90520000D03*
X128160000Y-102580000D03*
X134990000Y-85040000D03*
D15*
X145710000Y-93660000D03*
D13*
X144700000Y-91200000D03*
D14*
X151180000Y-96780000D03*
D13*
X133580000Y-82690000D03*
X127190000Y-90290000D03*
X154130000Y-80950000D03*
X146360000Y-90230000D03*
X140550000Y-95010000D03*
D14*
X139210000Y-86860000D03*
D13*
X123710000Y-98360000D03*
D14*
X141580000Y-96730000D03*
D13*
X148340000Y-92830000D03*
X126820500Y-95750000D03*
X126810000Y-96600000D03*
D14*
X150680000Y-97830000D03*
X145590000Y-85190000D03*
D13*
X158140000Y-80830000D03*
X144520000Y-89340000D03*
D14*
X139720000Y-88380000D03*
D13*
X134930000Y-86950000D03*
D14*
X138850000Y-85070000D03*
X142690000Y-85960000D03*
D13*
%TO.N,/5V*%
X136610000Y-89840000D03*
D16*
X132710000Y-83840000D03*
D13*
X133230000Y-101980000D03*
X132750000Y-101960000D03*
X153400000Y-97650000D03*
X153850000Y-82820000D03*
X148810000Y-101900000D03*
D16*
X132670000Y-88480000D03*
D17*
X125322858Y-84391680D03*
D13*
X148840000Y-102380000D03*
D16*
X132670000Y-87790000D03*
D13*
X136430000Y-83340000D03*
X128940000Y-85780000D03*
D16*
X132670000Y-84460000D03*
D13*
X154202500Y-82827500D03*
X125820000Y-83020000D03*
X153400000Y-98340000D03*
X136050000Y-83590000D03*
%TO.N,/3.3V*%
X148583173Y-86344500D03*
D16*
X131820000Y-98870000D03*
X123770000Y-86350000D03*
D13*
X151700000Y-87080000D03*
X144510000Y-87640000D03*
D16*
X127830000Y-99120000D03*
X124700000Y-86250000D03*
D13*
X151560000Y-83930000D03*
%TO.N,Net-(U3-FB1)*%
X129350000Y-85090000D03*
%TO.N,Net-(U3-FB2)*%
X124805000Y-83130000D03*
%TO.N,/1.2V*%
X127970000Y-81700000D03*
X155360000Y-81770000D03*
X128050000Y-81250000D03*
X154910000Y-81770000D03*
D14*
X147300000Y-86490000D03*
D13*
X152080000Y-90060000D03*
D14*
%TO.N,/TX+*%
X143271403Y-92411403D03*
X141660000Y-92865000D03*
X143271403Y-92411403D03*
%TO.N,/TX-*%
X141660000Y-93455000D03*
X143688597Y-92828597D03*
X143688597Y-92828597D03*
%TO.N,/D_TX_1-*%
X138858597Y-87331403D03*
X141910000Y-87545000D03*
%TO.N,/D_TX_1+*%
X141910000Y-88135000D03*
X138441403Y-87748597D03*
%TO.N,/D_TX_4-*%
X143250000Y-97800000D03*
X144735000Y-96560000D03*
%TO.N,/D_TX_4+*%
X143250000Y-98390000D03*
X145325000Y-96560000D03*
D13*
%TO.N,Net-(D10-A1)*%
X157210000Y-94850000D03*
X156640000Y-94780000D03*
%TO.N,Net-(D11-A1)*%
X145880000Y-98660000D03*
D14*
%TO.N,/CC1*%
X131300000Y-91890000D03*
X134870000Y-91720000D03*
X133470000Y-91960000D03*
%TO.N,/D+*%
X131440000Y-92440000D03*
X141520000Y-90795000D03*
%TO.N,/D-*%
X141520000Y-91385000D03*
%TO.N,/USB_TX2+*%
X134620000Y-93465000D03*
%TO.N,/USB_TX2-*%
X134620000Y-92875000D03*
%TO.N,/CC2*%
X136360000Y-91000000D03*
%TO.N,/USB_RX1-*%
X132961403Y-93678597D03*
%TO.N,/USB_RX1+*%
X133378597Y-93261403D03*
%TO.N,/D_RX_2-*%
X154290000Y-91985000D03*
X152878597Y-92128597D03*
%TO.N,/D_RX_2+*%
X152461403Y-91711403D03*
X154290000Y-91395000D03*
%TO.N,/D_RX_3-*%
X149975000Y-96810000D03*
X148535000Y-98427590D03*
%TO.N,/D_RX_3+*%
X149125000Y-98427590D03*
X150565000Y-96810000D03*
%TO.N,Net-(U2-RESETJ)*%
X146460000Y-87970000D03*
%TO.N,Net-(U2-CHIPEN)*%
X148360000Y-87700000D03*
%TO.N,Net-(U2-RTERM)*%
X147820000Y-87600000D03*
%TO.N,Net-(U2-PGANG)*%
X144843760Y-86480303D03*
%TO.N,Net-(U2-VDDP)*%
X150110341Y-86415918D03*
%TO.N,Net-(U4-HOLD)*%
X152508368Y-86579500D03*
%TO.N,/RX-*%
X139880000Y-94675000D03*
X143680000Y-93830000D03*
%TO.N,/RX+*%
X143135000Y-93820000D03*
X139880000Y-94085000D03*
%TO.N,/SPI_DO*%
X146530000Y-86510000D03*
%TO.N,/SPI_CLK*%
X146140000Y-87530000D03*
D13*
%TO.N,/SPI_DI*%
X152540000Y-85100000D03*
%TO.N,/SPI_CS*%
X150996371Y-84930495D03*
D14*
%TO.N,/DP4_P*%
X146775000Y-96260000D03*
X143161403Y-99551403D03*
%TO.N,/DP2_P*%
X154780000Y-92925000D03*
X151730000Y-93000000D03*
%TO.N,/DP1_P*%
X143125000Y-89200000D03*
X140975000Y-85310000D03*
%TO.N,/DP1_N*%
X141565000Y-85310000D03*
X143680000Y-89200000D03*
%TO.N,/DP2_N*%
X154780000Y-93515000D03*
X151700000Y-92510000D03*
%TO.N,/DP4_N*%
X147365000Y-96260000D03*
X143578597Y-99968597D03*
D16*
%TO.N,/A3.3V*%
X128770000Y-101280000D03*
D13*
X141210000Y-95530000D03*
X143189078Y-90496831D03*
X150310000Y-92240000D03*
X147120000Y-94660000D03*
D16*
X131850000Y-100360000D03*
D13*
%TO.N,/X1*%
X147650000Y-81060500D03*
%TO.N,/X2*%
X146280000Y-84060000D03*
%TO.N,/A1.2V*%
X143500000Y-91120000D03*
X144550000Y-94964750D03*
X150440000Y-94770000D03*
D14*
X141520000Y-88560000D03*
D13*
X156700000Y-86690000D03*
X145700000Y-94860000D03*
D14*
X141900000Y-92130000D03*
D13*
X156810000Y-86220000D03*
%TO.N,Net-(D12-A1)*%
X135280000Y-97770000D03*
X135674419Y-97754916D03*
D14*
%TO.N,Net-(D13-A1)*%
X143300000Y-82800000D03*
X143310000Y-83240000D03*
%TD*%
D18*
%TO.N,/1.2V*%
X128130000Y-81860000D02*
X155270000Y-81860000D01*
X127970000Y-81700000D02*
X128130000Y-81860000D01*
%TO.N,/5V*%
X148840000Y-101350000D02*
X148830000Y-101360000D01*
X153400000Y-99460000D02*
X151510000Y-101350000D01*
X151510000Y-101350000D02*
X148840000Y-101350000D01*
X153400000Y-97650000D02*
X153400000Y-99460000D01*
%TO.N,/3.3V*%
X147783173Y-85440000D02*
X148583173Y-86240000D01*
X146540000Y-85440000D02*
X147783173Y-85440000D01*
X145620000Y-86360000D02*
X146540000Y-85440000D01*
X145620000Y-86800000D02*
X145620000Y-86360000D01*
X142830000Y-88420000D02*
X144000000Y-88420000D01*
X132080000Y-98870000D02*
X134180000Y-96770000D01*
X131820000Y-98870000D02*
X132080000Y-98870000D01*
X134180000Y-96770000D02*
X134480000Y-96770000D01*
X144000000Y-88420000D02*
X145620000Y-86800000D01*
X134480000Y-96770000D02*
X142830000Y-88420000D01*
%TO.N,/5V*%
X132670000Y-88480000D02*
X132670000Y-89830000D01*
X132670000Y-87110000D02*
X132670000Y-85740000D01*
X132670000Y-89830000D02*
X136600000Y-89830000D01*
X125322858Y-84552858D02*
X126690000Y-85920000D01*
D19*
X142050000Y-83340000D02*
X142595000Y-83885000D01*
D18*
X136210000Y-83560000D02*
X136430000Y-83340000D01*
X132670000Y-86210000D02*
X132670000Y-85740000D01*
X136600000Y-89830000D02*
X136610000Y-89840000D01*
X132710000Y-83840000D02*
X132990000Y-83560000D01*
X132740000Y-101970000D02*
X132750000Y-101960000D01*
X148830000Y-101360000D02*
X148830000Y-102370000D01*
X148830000Y-102370000D02*
X148840000Y-102380000D01*
X132670000Y-83880000D02*
X132670000Y-85310000D01*
X131760000Y-101970000D02*
X132740000Y-101970000D01*
D19*
X145405000Y-83885000D02*
X146462500Y-82827500D01*
D18*
X147980000Y-102210000D02*
X148830000Y-101360000D01*
X132190000Y-94040000D02*
X132190000Y-96850000D01*
X132670000Y-85740000D02*
X132670000Y-85700000D01*
X132670000Y-88480000D02*
X132670000Y-87110000D01*
X132490000Y-85920000D02*
X132670000Y-85740000D01*
X131840000Y-93690000D02*
X132190000Y-94040000D01*
D19*
X146462500Y-82827500D02*
X154202500Y-82827500D01*
X142595000Y-83885000D02*
X145405000Y-83885000D01*
D18*
X132670000Y-85310000D02*
X132670000Y-86210000D01*
X130650000Y-98390000D02*
X130650000Y-100860000D01*
X132710000Y-83840000D02*
X132670000Y-83880000D01*
X132670000Y-84460000D02*
X132670000Y-83880000D01*
X132990000Y-83560000D02*
X136210000Y-83560000D01*
X132190000Y-96850000D02*
X130650000Y-98390000D01*
X133460000Y-102210000D02*
X147980000Y-102210000D01*
X126690000Y-85920000D02*
X132490000Y-85920000D01*
D19*
X136430000Y-83340000D02*
X142050000Y-83340000D01*
D18*
X125322858Y-84391680D02*
X125322858Y-84552858D01*
X133210000Y-101960000D02*
X133460000Y-102210000D01*
X132670000Y-92860000D02*
X131840000Y-93690000D01*
X132670000Y-89830000D02*
X132670000Y-92860000D01*
X132670000Y-85740000D02*
X132670000Y-84460000D01*
X130650000Y-100860000D02*
X131760000Y-101970000D01*
X132750000Y-101960000D02*
X133210000Y-101960000D01*
D20*
%TO.N,/3.3V*%
X151640000Y-87020000D02*
X151700000Y-87080000D01*
D21*
X127820000Y-95260000D02*
X127820000Y-99080000D01*
X124700000Y-86250000D02*
X123870000Y-86250000D01*
X123810000Y-87080000D02*
X123810000Y-91250000D01*
D20*
X151640000Y-84010000D02*
X151640000Y-87020000D01*
X151700000Y-87080000D02*
X149318673Y-87080000D01*
X151560000Y-83930000D02*
X151640000Y-84010000D01*
X144510000Y-87640000D02*
X144530000Y-87660000D01*
X149318673Y-87080000D02*
X148583173Y-86344500D01*
D21*
X123810000Y-91250000D02*
X127820000Y-95260000D01*
X124640000Y-86250000D02*
X123810000Y-87080000D01*
X124700000Y-86250000D02*
X124640000Y-86250000D01*
D18*
%TO.N,/1.2V*%
X128050000Y-81620000D02*
X127970000Y-81700000D01*
X155360000Y-81770000D02*
X154910000Y-81770000D01*
D20*
X147300000Y-86490000D02*
X147899265Y-87089265D01*
D18*
X155360000Y-81770000D02*
X155270000Y-81860000D01*
D20*
X147899265Y-87089265D02*
X148569265Y-87089265D01*
D18*
X152080000Y-89980000D02*
X152080000Y-90060000D01*
D20*
X151920000Y-89900000D02*
X152080000Y-90060000D01*
X148569265Y-87089265D02*
X151380000Y-89900000D01*
D18*
X155270000Y-86790000D02*
X152080000Y-89980000D01*
D20*
X151380000Y-89900000D02*
X151920000Y-89900000D01*
D18*
X155270000Y-81860000D02*
X155270000Y-86790000D01*
X128050000Y-81250000D02*
X128050000Y-81620000D01*
D20*
%TO.N,/A3.3V*%
X142560000Y-91125909D02*
X142560000Y-94180000D01*
X142560000Y-94180000D02*
X141210000Y-95530000D01*
D18*
X134200000Y-100360000D02*
X138605000Y-95955000D01*
D20*
X143189078Y-90496831D02*
X142560000Y-91125909D01*
D18*
X131850000Y-100360000D02*
X134200000Y-100360000D01*
X138605000Y-95955000D02*
X140785000Y-95955000D01*
X140785000Y-95955000D02*
X141210000Y-95530000D01*
%TO.N,/A1.2V*%
X144750000Y-93880000D02*
X145305000Y-94435000D01*
D22*
X145035000Y-94435000D02*
X145305000Y-94435000D01*
D18*
X154598590Y-94750000D02*
X156810000Y-92538590D01*
X149680000Y-94750000D02*
X154598590Y-94750000D01*
X143530000Y-91220000D02*
X143530000Y-91230000D01*
D22*
X144550000Y-94964750D02*
X144550000Y-94920000D01*
D18*
X146330000Y-95460000D02*
X148970000Y-95460000D01*
X145305000Y-94435000D02*
X146330000Y-95460000D01*
X143530000Y-91230000D02*
X144750000Y-92450000D01*
X156810000Y-92538590D02*
X156810000Y-86220000D01*
X144750000Y-92450000D02*
X144750000Y-93880000D01*
D22*
X144550000Y-94920000D02*
X145035000Y-94435000D01*
D18*
X148970000Y-95460000D02*
X149680000Y-94750000D01*
%TD*%
%TA.AperFunction,Conductor*%
%TO.N,GND*%
G36*
X141178965Y-90952071D02*
G01*
X141234898Y-90993943D01*
X141243015Y-91006248D01*
X141251249Y-91020509D01*
X141255575Y-91028002D01*
X141272045Y-91095903D01*
X141255574Y-91151999D01*
X141190328Y-91265008D01*
X141190327Y-91265011D01*
X141169170Y-91384999D01*
X141169170Y-91385000D01*
X141190327Y-91504988D01*
X141190329Y-91504993D01*
X141251246Y-91610505D01*
X141251251Y-91610511D01*
X141294084Y-91646452D01*
X141344585Y-91688828D01*
X141344589Y-91688829D01*
X141344590Y-91688830D01*
X141442198Y-91724356D01*
X141459079Y-91730500D01*
X141459081Y-91730500D01*
X141516928Y-91730500D01*
X141583967Y-91750185D01*
X141629722Y-91802989D01*
X141639666Y-91872147D01*
X141624315Y-91916499D01*
X141570330Y-92010003D01*
X141570327Y-92010011D01*
X141549170Y-92129999D01*
X141549170Y-92130000D01*
X141570327Y-92249988D01*
X141570328Y-92249991D01*
X141630013Y-92353369D01*
X141646485Y-92421269D01*
X141623632Y-92487296D01*
X141568710Y-92530486D01*
X141565035Y-92531890D01*
X141484589Y-92561169D01*
X141484583Y-92561173D01*
X141391251Y-92639488D01*
X141391246Y-92639494D01*
X141330329Y-92745006D01*
X141330327Y-92745011D01*
X141309170Y-92864999D01*
X141309170Y-92865000D01*
X141330327Y-92984988D01*
X141330328Y-92984991D01*
X141395574Y-93098001D01*
X141412046Y-93165901D01*
X141395574Y-93221999D01*
X141330328Y-93335008D01*
X141330327Y-93335011D01*
X141309170Y-93454999D01*
X141309170Y-93455000D01*
X141330327Y-93574988D01*
X141330329Y-93574993D01*
X141391246Y-93680505D01*
X141391251Y-93680511D01*
X141403166Y-93690509D01*
X141484585Y-93758828D01*
X141484589Y-93758829D01*
X141484590Y-93758830D01*
X141599076Y-93800499D01*
X141599079Y-93800500D01*
X141599081Y-93800500D01*
X141720919Y-93800500D01*
X141720921Y-93800500D01*
X141835415Y-93758828D01*
X141928751Y-93680509D01*
X141989672Y-93574991D01*
X142010830Y-93455000D01*
X141989672Y-93335009D01*
X141928751Y-93229491D01*
X141928750Y-93229490D01*
X141924426Y-93222000D01*
X141907953Y-93154100D01*
X141924426Y-93098000D01*
X141949769Y-93054104D01*
X141989672Y-92984991D01*
X142010830Y-92865000D01*
X142007514Y-92846197D01*
X142001641Y-92812887D01*
X141989672Y-92745009D01*
X141949727Y-92675822D01*
X141929987Y-92641631D01*
X141913514Y-92573730D01*
X141936367Y-92507704D01*
X141991288Y-92464513D01*
X141994965Y-92463109D01*
X142005084Y-92459426D01*
X142075415Y-92433828D01*
X142080793Y-92429314D01*
X142144799Y-92401301D01*
X142213791Y-92412338D01*
X142265864Y-92458924D01*
X142284500Y-92524303D01*
X142284500Y-94014521D01*
X142264815Y-94081560D01*
X142248181Y-94102202D01*
X141403964Y-94946418D01*
X141342641Y-94979903D01*
X141312049Y-94982665D01*
X141304416Y-94982404D01*
X141153174Y-94977237D01*
X141153171Y-94977237D01*
X141006149Y-95013066D01*
X141006147Y-95013067D01*
X140874242Y-95087232D01*
X140874237Y-95087236D01*
X140593294Y-95368181D01*
X140531971Y-95401666D01*
X140505613Y-95404500D01*
X138614415Y-95404500D01*
X138548175Y-95402237D01*
X138548174Y-95402237D01*
X138505165Y-95412717D01*
X138498931Y-95413902D01*
X138455080Y-95419930D01*
X138438615Y-95427081D01*
X138418585Y-95433817D01*
X138412701Y-95435251D01*
X138401148Y-95438067D01*
X138381413Y-95449163D01*
X138362566Y-95459759D01*
X138356880Y-95462584D01*
X138316278Y-95480220D01*
X138316276Y-95480221D01*
X138302356Y-95491546D01*
X138284886Y-95503436D01*
X138269241Y-95512233D01*
X138269240Y-95512234D01*
X138237934Y-95543539D01*
X138233221Y-95547792D01*
X138198896Y-95575717D01*
X138198891Y-95575722D01*
X138188542Y-95590383D01*
X138174923Y-95606550D01*
X136211732Y-97569741D01*
X136150409Y-97603226D01*
X136080717Y-97598242D01*
X136024784Y-97556370D01*
X136013568Y-97538358D01*
X136002469Y-97516574D01*
X136002464Y-97516568D01*
X135912766Y-97426870D01*
X135912763Y-97426868D01*
X135912761Y-97426866D01*
X135799723Y-97369270D01*
X135799722Y-97369269D01*
X135799719Y-97369268D01*
X135674422Y-97349424D01*
X135674417Y-97349424D01*
X135549116Y-97369269D01*
X135549114Y-97369269D01*
X135518700Y-97384766D01*
X135450030Y-97397661D01*
X135414622Y-97387264D01*
X135414588Y-97387370D01*
X135410887Y-97386167D01*
X135406117Y-97384767D01*
X135405308Y-97384355D01*
X135405302Y-97384353D01*
X135280002Y-97364508D01*
X135279997Y-97364508D01*
X135154699Y-97384352D01*
X135154698Y-97384352D01*
X135097594Y-97413449D01*
X135041658Y-97441950D01*
X135041657Y-97441950D01*
X135041657Y-97441951D01*
X135041652Y-97441954D01*
X134951954Y-97531652D01*
X134951951Y-97531657D01*
X134951950Y-97531658D01*
X134939359Y-97556370D01*
X134894352Y-97644698D01*
X134894352Y-97644699D01*
X134874508Y-97769996D01*
X134874508Y-97770003D01*
X134894352Y-97895300D01*
X134894352Y-97895301D01*
X134894354Y-97895304D01*
X134951950Y-98008342D01*
X134951952Y-98008344D01*
X134951954Y-98008347D01*
X135041652Y-98098045D01*
X135041654Y-98098046D01*
X135041658Y-98098050D01*
X135154696Y-98155646D01*
X135154697Y-98155646D01*
X135154699Y-98155647D01*
X135279997Y-98175492D01*
X135280000Y-98175492D01*
X135280001Y-98175492D01*
X135282934Y-98175027D01*
X135290391Y-98173846D01*
X135359683Y-98182797D01*
X135413137Y-98227791D01*
X135433780Y-98294542D01*
X135415058Y-98361856D01*
X135397474Y-98383999D01*
X134008294Y-99773181D01*
X133946971Y-99806666D01*
X133920613Y-99809500D01*
X131890146Y-99809500D01*
X131882046Y-99808969D01*
X131864553Y-99806666D01*
X131850001Y-99804750D01*
X131849998Y-99804750D01*
X131817555Y-99809021D01*
X131813693Y-99809407D01*
X131812346Y-99809499D01*
X131784845Y-99813279D01*
X131776450Y-99814433D01*
X131706291Y-99823670D01*
X131705691Y-99823749D01*
X131700704Y-99824755D01*
X131700075Y-99824931D01*
X131634964Y-99853214D01*
X131572370Y-99879141D01*
X131566604Y-99882469D01*
X131561934Y-99884822D01*
X131561281Y-99885219D01*
X131508658Y-99928030D01*
X131457375Y-99967382D01*
X131451633Y-99973124D01*
X131451178Y-99972669D01*
X131449521Y-99974372D01*
X131449682Y-99974522D01*
X131443892Y-99980721D01*
X131425803Y-100006348D01*
X131371061Y-100049764D01*
X131301536Y-100056693D01*
X131239301Y-100024933D01*
X131204117Y-99964569D01*
X131200500Y-99934838D01*
X131200500Y-99332239D01*
X131220185Y-99265200D01*
X131272989Y-99219445D01*
X131342147Y-99209501D01*
X131405703Y-99238526D01*
X131422876Y-99256753D01*
X131427379Y-99262621D01*
X131440616Y-99272779D01*
X131455746Y-99286511D01*
X131469318Y-99301043D01*
X131505644Y-99323133D01*
X131511179Y-99326923D01*
X131542375Y-99350861D01*
X131561358Y-99358724D01*
X131578332Y-99367336D01*
X131598620Y-99379673D01*
X131636193Y-99390200D01*
X131643199Y-99392623D01*
X131676291Y-99406330D01*
X131700491Y-99409515D01*
X131717756Y-99413052D01*
X131735328Y-99417976D01*
X131744334Y-99420500D01*
X131744335Y-99420500D01*
X131779854Y-99420500D01*
X131787953Y-99421030D01*
X131801095Y-99422761D01*
X131819999Y-99425250D01*
X131820000Y-99425250D01*
X131820001Y-99425250D01*
X131838905Y-99422761D01*
X131852046Y-99421030D01*
X131860146Y-99420500D01*
X132070603Y-99420500D01*
X132136826Y-99422762D01*
X132179832Y-99412280D01*
X132186051Y-99411098D01*
X132229920Y-99405070D01*
X132246383Y-99397918D01*
X132266416Y-99391181D01*
X132283852Y-99386933D01*
X132322465Y-99365221D01*
X132328090Y-99362427D01*
X132368720Y-99344780D01*
X132382632Y-99333460D01*
X132400123Y-99321557D01*
X132415755Y-99312768D01*
X132415753Y-99312768D01*
X132415759Y-99312766D01*
X132447059Y-99281464D01*
X132451771Y-99277211D01*
X132486108Y-99249278D01*
X132496456Y-99234616D01*
X132510074Y-99218449D01*
X134371704Y-97356819D01*
X134433028Y-97323334D01*
X134459386Y-97320500D01*
X134470603Y-97320500D01*
X134536826Y-97322762D01*
X134579832Y-97312280D01*
X134586051Y-97311098D01*
X134629920Y-97305070D01*
X134646383Y-97297918D01*
X134666416Y-97291181D01*
X134683852Y-97286933D01*
X134722465Y-97265221D01*
X134728090Y-97262427D01*
X134768720Y-97244780D01*
X134782632Y-97233460D01*
X134800123Y-97221557D01*
X134815755Y-97212768D01*
X134815753Y-97212768D01*
X134815759Y-97212766D01*
X134847059Y-97181464D01*
X134851771Y-97177211D01*
X134886108Y-97149278D01*
X134896456Y-97134616D01*
X134910074Y-97118449D01*
X137353523Y-94675000D01*
X139529170Y-94675000D01*
X139550327Y-94794988D01*
X139550329Y-94794993D01*
X139611246Y-94900505D01*
X139611251Y-94900511D01*
X139647900Y-94931263D01*
X139704585Y-94978828D01*
X139704589Y-94978829D01*
X139704590Y-94978830D01*
X139819076Y-95020499D01*
X139819079Y-95020500D01*
X139819081Y-95020500D01*
X139940919Y-95020500D01*
X139940921Y-95020500D01*
X140055415Y-94978828D01*
X140148751Y-94900509D01*
X140209672Y-94794991D01*
X140230830Y-94675000D01*
X140209672Y-94555009D01*
X140187460Y-94516536D01*
X140144426Y-94441999D01*
X140127953Y-94374098D01*
X140144426Y-94317999D01*
X140148749Y-94310510D01*
X140148751Y-94310509D01*
X140209672Y-94204991D01*
X140230830Y-94085000D01*
X140230223Y-94081560D01*
X140220091Y-94024096D01*
X140209672Y-93965009D01*
X140148751Y-93859491D01*
X140148749Y-93859489D01*
X140148748Y-93859488D01*
X140055416Y-93781173D01*
X140055415Y-93781172D01*
X140055412Y-93781171D01*
X140055409Y-93781169D01*
X139940923Y-93739500D01*
X139940921Y-93739500D01*
X139819079Y-93739500D01*
X139819076Y-93739500D01*
X139704590Y-93781169D01*
X139704583Y-93781173D01*
X139611251Y-93859488D01*
X139611246Y-93859494D01*
X139550329Y-93965006D01*
X139550327Y-93965011D01*
X139529170Y-94084999D01*
X139529170Y-94085000D01*
X139550327Y-94204988D01*
X139550328Y-94204991D01*
X139615574Y-94318001D01*
X139632046Y-94385901D01*
X139615574Y-94441999D01*
X139550328Y-94555008D01*
X139550327Y-94555011D01*
X139529170Y-94674999D01*
X139529170Y-94675000D01*
X137353523Y-94675000D01*
X141047952Y-90980570D01*
X141109273Y-90947087D01*
X141178965Y-90952071D01*
G37*
%TD.AperFunction*%
%TA.AperFunction,Conductor*%
G36*
X154643148Y-83132079D02*
G01*
X154697476Y-83176013D01*
X154719428Y-83242344D01*
X154719500Y-83246559D01*
X154719500Y-86510612D01*
X154699815Y-86577651D01*
X154683181Y-86598293D01*
X151697382Y-89584092D01*
X151689854Y-89591123D01*
X151627423Y-89622495D01*
X151605216Y-89624500D01*
X151545478Y-89624500D01*
X151478439Y-89604815D01*
X151457797Y-89588181D01*
X149436797Y-87567181D01*
X149403312Y-87505858D01*
X149408296Y-87436166D01*
X149450168Y-87380233D01*
X149515632Y-87355816D01*
X149524478Y-87355500D01*
X151357745Y-87355500D01*
X151424784Y-87375185D01*
X151445426Y-87391819D01*
X151461652Y-87408045D01*
X151461654Y-87408046D01*
X151461658Y-87408050D01*
X151574696Y-87465646D01*
X151574697Y-87465646D01*
X151574699Y-87465647D01*
X151699997Y-87485492D01*
X151700000Y-87485492D01*
X151700003Y-87485492D01*
X151825300Y-87465647D01*
X151825301Y-87465647D01*
X151825302Y-87465646D01*
X151825304Y-87465646D01*
X151938342Y-87408050D01*
X152028050Y-87318342D01*
X152085646Y-87205304D01*
X152085646Y-87205302D01*
X152085647Y-87205301D01*
X152085647Y-87205300D01*
X152105492Y-87080003D01*
X152105492Y-87079998D01*
X152086587Y-86960638D01*
X152095541Y-86891345D01*
X152140538Y-86837893D01*
X152207289Y-86817253D01*
X152274603Y-86835978D01*
X152288763Y-86846247D01*
X152332953Y-86883328D01*
X152332956Y-86883329D01*
X152332958Y-86883330D01*
X152438012Y-86921566D01*
X152447447Y-86925000D01*
X152447449Y-86925000D01*
X152569287Y-86925000D01*
X152569289Y-86925000D01*
X152683783Y-86883328D01*
X152777119Y-86805009D01*
X152838040Y-86699491D01*
X152859198Y-86579500D01*
X152853869Y-86549281D01*
X152843416Y-86490000D01*
X152838040Y-86459509D01*
X152780770Y-86360314D01*
X152777121Y-86353994D01*
X152777116Y-86353988D01*
X152694292Y-86284490D01*
X152683783Y-86275672D01*
X152683780Y-86275671D01*
X152683777Y-86275669D01*
X152569291Y-86234000D01*
X152569289Y-86234000D01*
X152447447Y-86234000D01*
X152447444Y-86234000D01*
X152332958Y-86275669D01*
X152332951Y-86275673D01*
X152239619Y-86353988D01*
X152239614Y-86353994D01*
X152178697Y-86459506D01*
X152178695Y-86459511D01*
X152161616Y-86556372D01*
X152130589Y-86618975D01*
X152070642Y-86654865D01*
X152000807Y-86652648D01*
X151943257Y-86613027D01*
X151916264Y-86548582D01*
X151915500Y-86534839D01*
X151915500Y-85273023D01*
X151935185Y-85205984D01*
X151987989Y-85160229D01*
X152057147Y-85150285D01*
X152120703Y-85179310D01*
X152149985Y-85216728D01*
X152154353Y-85225301D01*
X152154354Y-85225304D01*
X152211950Y-85338342D01*
X152211952Y-85338344D01*
X152211954Y-85338347D01*
X152301652Y-85428045D01*
X152301654Y-85428046D01*
X152301658Y-85428050D01*
X152414696Y-85485646D01*
X152414697Y-85485646D01*
X152414699Y-85485647D01*
X152539997Y-85505492D01*
X152540000Y-85505492D01*
X152540003Y-85505492D01*
X152665300Y-85485647D01*
X152665301Y-85485647D01*
X152665302Y-85485646D01*
X152665304Y-85485646D01*
X152778342Y-85428050D01*
X152868050Y-85338342D01*
X152925646Y-85225304D01*
X152925646Y-85225302D01*
X152925647Y-85225301D01*
X152925647Y-85225300D01*
X152945492Y-85100003D01*
X152945492Y-85099996D01*
X152925647Y-84974699D01*
X152925647Y-84974698D01*
X152920451Y-84964500D01*
X152868050Y-84861658D01*
X152868046Y-84861654D01*
X152868045Y-84861652D01*
X152778347Y-84771954D01*
X152778344Y-84771952D01*
X152778342Y-84771950D01*
X152665304Y-84714354D01*
X152665303Y-84714353D01*
X152665300Y-84714352D01*
X152540003Y-84694508D01*
X152539997Y-84694508D01*
X152414699Y-84714352D01*
X152414698Y-84714352D01*
X152339337Y-84752751D01*
X152301658Y-84771950D01*
X152301656Y-84771951D01*
X152301657Y-84771951D01*
X152301652Y-84771954D01*
X152211954Y-84861652D01*
X152211951Y-84861657D01*
X152211950Y-84861658D01*
X152154908Y-84973609D01*
X152149985Y-84983271D01*
X152102010Y-85034067D01*
X152034189Y-85050862D01*
X151968054Y-85028324D01*
X151924603Y-84973609D01*
X151915500Y-84926976D01*
X151915500Y-84144237D01*
X151929016Y-84087941D01*
X151945646Y-84055304D01*
X151945647Y-84055300D01*
X151965492Y-83930003D01*
X151965492Y-83929996D01*
X151945647Y-83804699D01*
X151945647Y-83804698D01*
X151926074Y-83766284D01*
X151888050Y-83691658D01*
X151888046Y-83691654D01*
X151888045Y-83691652D01*
X151798347Y-83601954D01*
X151798344Y-83601952D01*
X151798342Y-83601950D01*
X151685304Y-83544354D01*
X151685303Y-83544353D01*
X151685300Y-83544352D01*
X151560000Y-83524507D01*
X151434699Y-83544352D01*
X151434698Y-83544352D01*
X151379676Y-83572388D01*
X151321658Y-83601950D01*
X151321657Y-83601950D01*
X151321657Y-83601951D01*
X151321652Y-83601954D01*
X151231954Y-83691652D01*
X151231951Y-83691657D01*
X151231950Y-83691658D01*
X151225508Y-83704302D01*
X151174352Y-83804698D01*
X151174352Y-83804699D01*
X151154508Y-83929996D01*
X151154508Y-83930003D01*
X151174352Y-84055300D01*
X151174352Y-84055301D01*
X151188818Y-84083692D01*
X151231950Y-84168342D01*
X151231952Y-84168344D01*
X151231954Y-84168347D01*
X151328181Y-84264574D01*
X151361666Y-84325897D01*
X151364500Y-84352255D01*
X151364500Y-84466225D01*
X151344815Y-84533264D01*
X151292011Y-84579019D01*
X151222853Y-84588963D01*
X151184205Y-84576710D01*
X151121671Y-84544847D01*
X150996374Y-84525003D01*
X150996368Y-84525003D01*
X150871070Y-84544847D01*
X150871069Y-84544847D01*
X150804005Y-84579019D01*
X150758029Y-84602445D01*
X150758028Y-84602445D01*
X150758028Y-84602446D01*
X150758023Y-84602449D01*
X150668325Y-84692147D01*
X150668322Y-84692152D01*
X150668321Y-84692153D01*
X150657010Y-84714352D01*
X150610723Y-84805193D01*
X150610723Y-84805194D01*
X150590879Y-84930491D01*
X150590879Y-84930498D01*
X150610723Y-85055795D01*
X150610723Y-85055796D01*
X150625121Y-85084052D01*
X150668321Y-85168837D01*
X150668323Y-85168839D01*
X150668325Y-85168842D01*
X150758023Y-85258540D01*
X150758025Y-85258541D01*
X150758029Y-85258545D01*
X150871067Y-85316141D01*
X150871068Y-85316141D01*
X150871070Y-85316142D01*
X150996368Y-85335987D01*
X150996371Y-85335987D01*
X150996374Y-85335987D01*
X151121671Y-85316142D01*
X151121673Y-85316141D01*
X151121675Y-85316141D01*
X151184206Y-85284279D01*
X151252873Y-85271383D01*
X151317614Y-85297658D01*
X151357871Y-85354764D01*
X151364500Y-85394764D01*
X151364500Y-86680500D01*
X151344815Y-86747539D01*
X151292011Y-86793294D01*
X151240500Y-86804500D01*
X150499716Y-86804500D01*
X150432677Y-86784815D01*
X150386922Y-86732011D01*
X150376978Y-86662853D01*
X150392329Y-86618500D01*
X150409924Y-86588024D01*
X150440013Y-86535909D01*
X150461171Y-86415918D01*
X150459141Y-86404408D01*
X150449731Y-86351042D01*
X150440013Y-86295927D01*
X150379092Y-86190409D01*
X150379090Y-86190407D01*
X150379089Y-86190406D01*
X150293739Y-86118789D01*
X150285756Y-86112090D01*
X150285753Y-86112089D01*
X150285750Y-86112087D01*
X150171264Y-86070418D01*
X150171262Y-86070418D01*
X150049420Y-86070418D01*
X150049417Y-86070418D01*
X149934931Y-86112087D01*
X149934924Y-86112091D01*
X149841592Y-86190406D01*
X149841587Y-86190412D01*
X149780670Y-86295924D01*
X149780668Y-86295929D01*
X149759511Y-86415917D01*
X149759511Y-86415918D01*
X149780668Y-86535906D01*
X149780670Y-86535911D01*
X149828353Y-86618500D01*
X149844826Y-86686400D01*
X149821973Y-86752427D01*
X149767052Y-86795618D01*
X149720966Y-86804500D01*
X149484151Y-86804500D01*
X149417112Y-86784815D01*
X149396470Y-86768181D01*
X149143599Y-86515310D01*
X149110114Y-86453987D01*
X149113090Y-86390117D01*
X149130769Y-86334416D01*
X149135935Y-86183174D01*
X149132335Y-86168403D01*
X149118612Y-86112087D01*
X149100106Y-86036148D01*
X149052072Y-85950719D01*
X149025940Y-85904242D01*
X149025936Y-85904237D01*
X148179079Y-85057381D01*
X148178356Y-85056607D01*
X148133853Y-85008956D01*
X148114571Y-84997230D01*
X148096034Y-84985957D01*
X148090783Y-84982383D01*
X148055514Y-84955638D01*
X148055515Y-84955638D01*
X148038815Y-84949052D01*
X148019889Y-84939652D01*
X148009350Y-84933243D01*
X148004555Y-84930328D01*
X148004554Y-84930327D01*
X148004553Y-84930327D01*
X147961931Y-84918384D01*
X147955913Y-84916360D01*
X147914738Y-84900124D01*
X147914729Y-84900122D01*
X147896889Y-84898288D01*
X147876124Y-84894342D01*
X147858842Y-84889500D01*
X147858838Y-84889500D01*
X147814579Y-84889500D01*
X147808237Y-84889175D01*
X147780600Y-84886333D01*
X147764202Y-84884648D01*
X147764197Y-84884648D01*
X147746517Y-84887697D01*
X147725449Y-84889500D01*
X146549397Y-84889500D01*
X146483174Y-84887238D01*
X146483173Y-84887238D01*
X146483171Y-84887238D01*
X146440170Y-84897717D01*
X146433930Y-84898902D01*
X146390079Y-84904930D01*
X146373616Y-84912081D01*
X146353575Y-84918820D01*
X146336150Y-84923066D01*
X146336145Y-84923068D01*
X146297567Y-84944758D01*
X146291881Y-84947582D01*
X146251279Y-84965220D01*
X146237357Y-84976546D01*
X146219883Y-84988438D01*
X146204246Y-84997230D01*
X146204239Y-84997235D01*
X146172939Y-85028535D01*
X146168225Y-85032789D01*
X146133891Y-85060722D01*
X146123541Y-85075385D01*
X146109920Y-85091554D01*
X145237382Y-85964092D01*
X145188957Y-86009317D01*
X145165956Y-86047139D01*
X145162384Y-86052388D01*
X145135639Y-86087658D01*
X145135636Y-86087663D01*
X145134687Y-86090071D01*
X145133229Y-86091943D01*
X145131482Y-86095052D01*
X145131015Y-86094789D01*
X145091779Y-86145213D01*
X145025870Y-86168403D01*
X144976926Y-86161097D01*
X144904683Y-86134803D01*
X144904681Y-86134803D01*
X144782839Y-86134803D01*
X144782836Y-86134803D01*
X144668350Y-86176472D01*
X144668345Y-86176475D01*
X144575011Y-86254791D01*
X144575006Y-86254797D01*
X144514089Y-86360309D01*
X144514087Y-86360314D01*
X144492930Y-86480302D01*
X144492930Y-86480303D01*
X144514087Y-86600291D01*
X144514089Y-86600296D01*
X144575006Y-86705808D01*
X144575011Y-86705814D01*
X144667449Y-86783379D01*
X144706151Y-86841550D01*
X144707259Y-86911411D01*
X144675424Y-86966049D01*
X144403526Y-87237947D01*
X144372141Y-87260750D01*
X144271659Y-87311949D01*
X144271652Y-87311954D01*
X144181954Y-87401652D01*
X144181949Y-87401659D01*
X144130750Y-87502141D01*
X144107947Y-87533526D01*
X143808292Y-87833182D01*
X143746972Y-87866666D01*
X143720613Y-87869500D01*
X142839397Y-87869500D01*
X142773174Y-87867238D01*
X142773173Y-87867238D01*
X142773171Y-87867238D01*
X142730170Y-87877717D01*
X142723930Y-87878902D01*
X142680079Y-87884930D01*
X142663616Y-87892081D01*
X142643575Y-87898820D01*
X142626150Y-87903066D01*
X142626145Y-87903068D01*
X142587567Y-87924758D01*
X142581881Y-87927582D01*
X142541279Y-87945220D01*
X142527357Y-87956546D01*
X142509883Y-87968438D01*
X142494246Y-87977230D01*
X142494239Y-87977235D01*
X142462940Y-88008534D01*
X142458225Y-88012788D01*
X142421532Y-88042642D01*
X142357106Y-88069681D01*
X142288289Y-88057597D01*
X142236930Y-88010226D01*
X142235888Y-88008455D01*
X142189196Y-87927582D01*
X142178751Y-87909491D01*
X142178750Y-87909490D01*
X142174426Y-87902000D01*
X142157953Y-87834100D01*
X142174426Y-87778000D01*
X142178751Y-87770509D01*
X142239672Y-87664991D01*
X142260830Y-87545000D01*
X142255486Y-87514696D01*
X142246838Y-87465647D01*
X142239672Y-87425009D01*
X142190312Y-87339515D01*
X142178753Y-87319494D01*
X142178748Y-87319488D01*
X142108747Y-87260750D01*
X142085415Y-87241172D01*
X142085412Y-87241171D01*
X142085409Y-87241169D01*
X141970923Y-87199500D01*
X141970921Y-87199500D01*
X141849079Y-87199500D01*
X141849076Y-87199500D01*
X141734590Y-87241169D01*
X141734583Y-87241173D01*
X141641251Y-87319488D01*
X141641246Y-87319494D01*
X141580329Y-87425006D01*
X141580327Y-87425011D01*
X141559170Y-87544999D01*
X141559170Y-87545000D01*
X141580327Y-87664988D01*
X141580328Y-87664991D01*
X141645574Y-87778001D01*
X141662046Y-87845901D01*
X141645574Y-87901999D01*
X141580328Y-88015008D01*
X141580327Y-88015011D01*
X141562991Y-88113330D01*
X141531964Y-88175933D01*
X141472017Y-88211823D01*
X141462410Y-88213913D01*
X141459075Y-88214500D01*
X141344590Y-88256169D01*
X141344583Y-88256173D01*
X141251251Y-88334488D01*
X141251246Y-88334494D01*
X141190329Y-88440006D01*
X141190327Y-88440011D01*
X141169170Y-88559999D01*
X141169170Y-88560000D01*
X141190327Y-88679988D01*
X141190329Y-88679993D01*
X141251246Y-88785505D01*
X141251248Y-88785507D01*
X141251249Y-88785509D01*
X141344585Y-88863828D01*
X141354545Y-88867453D01*
X141410810Y-88908878D01*
X141435747Y-88974146D01*
X141421439Y-89042535D01*
X141399818Y-89071657D01*
X134288294Y-96183181D01*
X134226971Y-96216666D01*
X134200613Y-96219500D01*
X134189397Y-96219500D01*
X134123174Y-96217238D01*
X134123173Y-96217238D01*
X134123171Y-96217238D01*
X134080170Y-96227717D01*
X134073930Y-96228902D01*
X134030079Y-96234930D01*
X134013616Y-96242081D01*
X133993575Y-96248820D01*
X133976150Y-96253066D01*
X133976145Y-96253068D01*
X133937567Y-96274758D01*
X133931881Y-96277582D01*
X133891279Y-96295220D01*
X133877357Y-96306546D01*
X133859883Y-96318438D01*
X133844246Y-96327230D01*
X133844239Y-96327235D01*
X133812940Y-96358534D01*
X133808226Y-96362788D01*
X133773893Y-96390720D01*
X133763541Y-96405385D01*
X133749920Y-96421554D01*
X132805153Y-97366320D01*
X132795425Y-97371631D01*
X132780164Y-97391309D01*
X131892055Y-98279418D01*
X131830732Y-98312903D01*
X131820545Y-98314678D01*
X131817983Y-98315015D01*
X131748949Y-98304241D01*
X131696699Y-98257856D01*
X131677821Y-98190584D01*
X131698309Y-98123786D01*
X131714128Y-98104396D01*
X132572618Y-97245906D01*
X132607846Y-97213005D01*
X132615337Y-97209241D01*
X132620636Y-97201351D01*
X132623872Y-97196029D01*
X132644049Y-97162847D01*
X132647606Y-97157622D01*
X132674361Y-97122342D01*
X132680943Y-97105648D01*
X132690344Y-97086719D01*
X132699672Y-97071382D01*
X132711619Y-97028739D01*
X132713632Y-97022753D01*
X132729876Y-96981564D01*
X132731711Y-96963716D01*
X132735658Y-96942944D01*
X132740500Y-96925665D01*
X132740500Y-96881404D01*
X132740825Y-96875060D01*
X132741273Y-96870703D01*
X132745352Y-96831028D01*
X132742303Y-96813343D01*
X132740500Y-96792275D01*
X132740500Y-94142958D01*
X132760185Y-94075919D01*
X132812989Y-94030164D01*
X132882147Y-94020220D01*
X132890758Y-94022382D01*
X132900480Y-94024096D01*
X132900482Y-94024097D01*
X132900484Y-94024097D01*
X133022322Y-94024097D01*
X133022324Y-94024097D01*
X133136818Y-93982425D01*
X133230154Y-93904106D01*
X133291075Y-93798588D01*
X133306806Y-93709370D01*
X133337834Y-93646767D01*
X133397782Y-93610877D01*
X133428923Y-93606903D01*
X133439516Y-93606903D01*
X133439518Y-93606903D01*
X133554012Y-93565231D01*
X133647348Y-93486912D01*
X133659999Y-93465000D01*
X134269170Y-93465000D01*
X134290327Y-93584988D01*
X134290329Y-93584993D01*
X134351246Y-93690505D01*
X134351248Y-93690507D01*
X134351249Y-93690509D01*
X134444585Y-93768828D01*
X134444589Y-93768829D01*
X134444590Y-93768830D01*
X134531601Y-93800499D01*
X134559079Y-93810500D01*
X134559081Y-93810500D01*
X134680919Y-93810500D01*
X134680921Y-93810500D01*
X134795415Y-93768828D01*
X134888751Y-93690509D01*
X134949672Y-93584991D01*
X134970830Y-93465000D01*
X134968289Y-93450592D01*
X134950674Y-93350692D01*
X134949672Y-93345009D01*
X134888751Y-93239491D01*
X134888750Y-93239490D01*
X134884426Y-93232000D01*
X134867953Y-93164100D01*
X134884426Y-93108000D01*
X134890199Y-93098001D01*
X134949672Y-92994991D01*
X134970830Y-92875000D01*
X134949672Y-92755009D01*
X134900681Y-92670154D01*
X134888753Y-92649494D01*
X134888748Y-92649488D01*
X134795416Y-92571173D01*
X134795415Y-92571172D01*
X134795412Y-92571171D01*
X134795409Y-92571169D01*
X134680923Y-92529500D01*
X134680921Y-92529500D01*
X134559079Y-92529500D01*
X134559076Y-92529500D01*
X134444590Y-92571169D01*
X134444583Y-92571173D01*
X134351251Y-92649488D01*
X134351246Y-92649494D01*
X134290329Y-92755006D01*
X134290327Y-92755011D01*
X134269170Y-92874999D01*
X134269170Y-92875000D01*
X134290327Y-92994988D01*
X134290328Y-92994991D01*
X134355574Y-93108001D01*
X134372046Y-93175901D01*
X134355574Y-93231999D01*
X134290328Y-93345008D01*
X134290327Y-93345011D01*
X134269170Y-93464999D01*
X134269170Y-93465000D01*
X133659999Y-93465000D01*
X133708269Y-93381394D01*
X133729427Y-93261403D01*
X133708269Y-93141412D01*
X133657862Y-93054104D01*
X133647350Y-93035897D01*
X133647345Y-93035891D01*
X133554013Y-92957576D01*
X133554012Y-92957575D01*
X133554009Y-92957574D01*
X133554006Y-92957572D01*
X133439520Y-92915903D01*
X133439518Y-92915903D01*
X133344500Y-92915903D01*
X133277461Y-92896218D01*
X133231706Y-92843414D01*
X133220500Y-92791903D01*
X133220500Y-92413952D01*
X133240185Y-92346913D01*
X133292989Y-92301158D01*
X133362147Y-92291214D01*
X133386901Y-92297428D01*
X133409079Y-92305500D01*
X133409081Y-92305500D01*
X133530919Y-92305500D01*
X133530921Y-92305500D01*
X133645415Y-92263828D01*
X133738751Y-92185509D01*
X133799672Y-92079991D01*
X133820830Y-91960000D01*
X133799672Y-91840009D01*
X133738751Y-91734491D01*
X133738749Y-91734489D01*
X133738748Y-91734488D01*
X133721482Y-91720000D01*
X134519170Y-91720000D01*
X134540327Y-91839988D01*
X134540329Y-91839993D01*
X134601246Y-91945505D01*
X134601251Y-91945511D01*
X134647916Y-91984668D01*
X134694585Y-92023828D01*
X134694589Y-92023829D01*
X134694590Y-92023830D01*
X134794605Y-92060232D01*
X134809079Y-92065500D01*
X134809081Y-92065500D01*
X134930919Y-92065500D01*
X134930921Y-92065500D01*
X135045415Y-92023828D01*
X135138751Y-91945509D01*
X135199672Y-91839991D01*
X135220830Y-91720000D01*
X135199672Y-91600009D01*
X135153643Y-91520285D01*
X135138753Y-91494494D01*
X135138748Y-91494488D01*
X135066485Y-91433852D01*
X135045415Y-91416172D01*
X135045412Y-91416171D01*
X135045409Y-91416169D01*
X134930923Y-91374500D01*
X134930921Y-91374500D01*
X134809079Y-91374500D01*
X134809076Y-91374500D01*
X134694590Y-91416169D01*
X134694583Y-91416173D01*
X134601251Y-91494488D01*
X134601246Y-91494494D01*
X134540329Y-91600006D01*
X134540327Y-91600011D01*
X134519170Y-91719999D01*
X134519170Y-91720000D01*
X133721482Y-91720000D01*
X133645416Y-91656173D01*
X133645415Y-91656172D01*
X133645412Y-91656171D01*
X133645409Y-91656169D01*
X133530923Y-91614500D01*
X133530921Y-91614500D01*
X133409079Y-91614500D01*
X133409076Y-91614500D01*
X133386907Y-91622569D01*
X133317178Y-91626998D01*
X133256123Y-91593026D01*
X133223128Y-91531438D01*
X133220500Y-91506046D01*
X133220500Y-91000000D01*
X136009170Y-91000000D01*
X136030327Y-91119988D01*
X136030329Y-91119993D01*
X136091246Y-91225505D01*
X136091251Y-91225511D01*
X136108182Y-91239718D01*
X136184585Y-91303828D01*
X136299079Y-91345500D01*
X136299081Y-91345500D01*
X136420919Y-91345500D01*
X136420921Y-91345500D01*
X136535415Y-91303828D01*
X136628751Y-91225509D01*
X136689672Y-91119991D01*
X136710830Y-91000000D01*
X136689672Y-90880009D01*
X136628751Y-90774491D01*
X136628749Y-90774489D01*
X136628748Y-90774488D01*
X136535416Y-90696173D01*
X136535415Y-90696172D01*
X136535412Y-90696171D01*
X136535409Y-90696169D01*
X136420923Y-90654500D01*
X136420921Y-90654500D01*
X136299079Y-90654500D01*
X136299076Y-90654500D01*
X136184590Y-90696169D01*
X136184583Y-90696173D01*
X136091251Y-90774488D01*
X136091246Y-90774494D01*
X136030329Y-90880006D01*
X136030327Y-90880011D01*
X136009170Y-90999999D01*
X136009170Y-91000000D01*
X133220500Y-91000000D01*
X133220500Y-90504500D01*
X133240185Y-90437461D01*
X133292989Y-90391706D01*
X133344500Y-90380500D01*
X136481324Y-90380500D01*
X136487665Y-90380824D01*
X136628972Y-90395352D01*
X136744958Y-90375354D01*
X136778095Y-90369641D01*
X136778095Y-90369640D01*
X136778100Y-90369640D01*
X136914762Y-90304647D01*
X137028821Y-90205192D01*
X137111817Y-90078653D01*
X137157596Y-89934416D01*
X137162762Y-89783174D01*
X137157688Y-89762351D01*
X137126933Y-89636147D01*
X137075963Y-89545499D01*
X137052765Y-89504241D01*
X136995912Y-89447387D01*
X136975481Y-89425511D01*
X136950683Y-89398958D01*
X136950677Y-89398954D01*
X136912861Y-89375957D01*
X136907610Y-89372383D01*
X136872341Y-89345638D01*
X136872342Y-89345638D01*
X136855642Y-89339052D01*
X136836716Y-89329652D01*
X136821380Y-89320327D01*
X136778758Y-89308384D01*
X136772740Y-89306360D01*
X136731565Y-89290124D01*
X136731556Y-89290122D01*
X136713716Y-89288288D01*
X136692951Y-89284342D01*
X136675669Y-89279500D01*
X136675665Y-89279500D01*
X136631406Y-89279500D01*
X136625064Y-89279175D01*
X136597427Y-89276333D01*
X136581029Y-89274648D01*
X136581024Y-89274648D01*
X136563344Y-89277697D01*
X136542276Y-89279500D01*
X133344500Y-89279500D01*
X133277461Y-89259815D01*
X133231706Y-89207011D01*
X133220500Y-89155500D01*
X133220500Y-88862764D01*
X133220500Y-88520130D01*
X133221028Y-88512064D01*
X133225250Y-88480000D01*
X133221030Y-88447952D01*
X133220500Y-88439852D01*
X133220500Y-87830146D01*
X133221031Y-87822045D01*
X133221302Y-87819991D01*
X133225250Y-87790000D01*
X133221030Y-87757952D01*
X133220500Y-87749852D01*
X133220500Y-87748597D01*
X138090573Y-87748597D01*
X138111730Y-87868585D01*
X138111732Y-87868590D01*
X138172649Y-87974102D01*
X138172654Y-87974108D01*
X138208073Y-88003828D01*
X138265988Y-88052425D01*
X138265992Y-88052426D01*
X138265993Y-88052427D01*
X138369206Y-88089993D01*
X138380482Y-88094097D01*
X138380484Y-88094097D01*
X138502322Y-88094097D01*
X138502324Y-88094097D01*
X138616818Y-88052425D01*
X138710154Y-87974106D01*
X138771075Y-87868588D01*
X138784932Y-87790004D01*
X138786807Y-87779370D01*
X138817834Y-87716767D01*
X138877782Y-87680877D01*
X138908923Y-87676903D01*
X138919516Y-87676903D01*
X138919518Y-87676903D01*
X139034012Y-87635231D01*
X139127348Y-87556912D01*
X139188269Y-87451394D01*
X139209427Y-87331403D01*
X139188269Y-87211412D01*
X139147431Y-87140679D01*
X139127350Y-87105897D01*
X139127345Y-87105891D01*
X139034013Y-87027576D01*
X139034012Y-87027575D01*
X139034009Y-87027574D01*
X139034006Y-87027572D01*
X138919520Y-86985903D01*
X138919518Y-86985903D01*
X138797676Y-86985903D01*
X138797673Y-86985903D01*
X138683187Y-87027572D01*
X138683180Y-87027576D01*
X138589848Y-87105891D01*
X138589843Y-87105897D01*
X138528926Y-87211409D01*
X138528924Y-87211414D01*
X138513193Y-87300630D01*
X138482166Y-87363233D01*
X138422218Y-87399123D01*
X138391077Y-87403097D01*
X138380479Y-87403097D01*
X138265993Y-87444766D01*
X138265986Y-87444770D01*
X138172654Y-87523085D01*
X138172649Y-87523091D01*
X138111732Y-87628603D01*
X138111730Y-87628608D01*
X138090573Y-87748596D01*
X138090573Y-87748597D01*
X133220500Y-87748597D01*
X133220500Y-85771398D01*
X133220825Y-85765054D01*
X133225351Y-85721029D01*
X133222303Y-85703353D01*
X133220499Y-85682280D01*
X133220500Y-85310000D01*
X140624170Y-85310000D01*
X140645327Y-85429988D01*
X140645329Y-85429993D01*
X140706246Y-85535505D01*
X140706251Y-85535511D01*
X140739477Y-85563391D01*
X140799585Y-85613828D01*
X140799589Y-85613829D01*
X140799590Y-85613830D01*
X140812965Y-85618698D01*
X140914079Y-85655500D01*
X140914081Y-85655500D01*
X141035919Y-85655500D01*
X141035921Y-85655500D01*
X141150415Y-85613828D01*
X141190295Y-85580363D01*
X141254301Y-85552352D01*
X141323293Y-85563391D01*
X141349701Y-85580361D01*
X141389585Y-85613828D01*
X141389588Y-85613829D01*
X141389590Y-85613830D01*
X141402965Y-85618698D01*
X141504079Y-85655500D01*
X141504081Y-85655500D01*
X141625919Y-85655500D01*
X141625921Y-85655500D01*
X141740415Y-85613828D01*
X141833751Y-85535509D01*
X141894672Y-85429991D01*
X141915830Y-85310000D01*
X141894672Y-85190009D01*
X141837034Y-85090177D01*
X141833753Y-85084494D01*
X141833748Y-85084488D01*
X141743733Y-85008956D01*
X141740415Y-85006172D01*
X141740412Y-85006171D01*
X141740409Y-85006169D01*
X141625923Y-84964500D01*
X141625921Y-84964500D01*
X141504079Y-84964500D01*
X141504076Y-84964500D01*
X141389590Y-85006169D01*
X141389583Y-85006172D01*
X141349703Y-85039636D01*
X141285695Y-85067648D01*
X141216703Y-85056607D01*
X141190293Y-85039634D01*
X141153733Y-85008956D01*
X141150415Y-85006172D01*
X141150412Y-85006171D01*
X141150409Y-85006169D01*
X141035923Y-84964500D01*
X141035921Y-84964500D01*
X140914079Y-84964500D01*
X140914076Y-84964500D01*
X140799590Y-85006169D01*
X140799583Y-85006173D01*
X140706251Y-85084488D01*
X140706246Y-85084494D01*
X140645329Y-85190006D01*
X140645327Y-85190011D01*
X140624170Y-85309999D01*
X140624170Y-85310000D01*
X133220500Y-85310000D01*
X133220500Y-85272342D01*
X133220500Y-85272341D01*
X133220500Y-84887238D01*
X133220500Y-84500130D01*
X133221028Y-84492064D01*
X133225250Y-84460000D01*
X133221030Y-84427952D01*
X133220500Y-84419852D01*
X133220500Y-84234500D01*
X133240185Y-84167461D01*
X133292989Y-84121706D01*
X133344500Y-84110500D01*
X136200603Y-84110500D01*
X136266826Y-84112762D01*
X136309832Y-84102280D01*
X136316051Y-84101098D01*
X136359920Y-84095070D01*
X136376383Y-84087918D01*
X136396416Y-84081181D01*
X136413852Y-84076933D01*
X136452465Y-84055221D01*
X136458090Y-84052427D01*
X136498720Y-84034780D01*
X136512632Y-84023460D01*
X136530123Y-84011557D01*
X136545755Y-84002768D01*
X136545753Y-84002768D01*
X136545759Y-84002766D01*
X136577059Y-83971464D01*
X136581771Y-83967211D01*
X136616108Y-83939278D01*
X136626454Y-83924619D01*
X136640078Y-83908446D01*
X136721708Y-83826818D01*
X136783031Y-83793333D01*
X136809388Y-83790500D01*
X141812034Y-83790500D01*
X141879073Y-83810185D01*
X141899715Y-83826819D01*
X142256094Y-84183198D01*
X142260730Y-84188386D01*
X142285121Y-84218970D01*
X142285122Y-84218971D01*
X142334264Y-84252476D01*
X142382116Y-84287792D01*
X142389672Y-84291785D01*
X142397321Y-84295468D01*
X142397327Y-84295472D01*
X142430321Y-84305649D01*
X142454179Y-84313009D01*
X142510300Y-84332646D01*
X142518688Y-84334232D01*
X142527095Y-84335500D01*
X142527098Y-84335500D01*
X142586573Y-84335500D01*
X142646009Y-84337724D01*
X142646009Y-84337723D01*
X142646010Y-84337724D01*
X142646010Y-84337723D01*
X142655243Y-84336684D01*
X142655336Y-84337513D01*
X142670636Y-84335500D01*
X145376217Y-84335500D01*
X145383155Y-84335889D01*
X145415050Y-84339483D01*
X145422034Y-84340270D01*
X145422034Y-84340269D01*
X145422035Y-84340270D01*
X145480479Y-84329211D01*
X145539287Y-84320348D01*
X145539290Y-84320346D01*
X145547447Y-84317830D01*
X145555469Y-84315023D01*
X145555472Y-84315023D01*
X145608072Y-84287222D01*
X145661642Y-84261425D01*
X145661642Y-84261424D01*
X145661644Y-84261424D01*
X145668695Y-84256616D01*
X145675538Y-84251566D01*
X145717595Y-84209508D01*
X145719138Y-84208075D01*
X145725669Y-84202015D01*
X145788197Y-84170844D01*
X145857654Y-84178427D01*
X145911986Y-84222356D01*
X145920494Y-84236607D01*
X145951950Y-84298342D01*
X145951952Y-84298344D01*
X145951954Y-84298347D01*
X146041652Y-84388045D01*
X146041654Y-84388046D01*
X146041658Y-84388050D01*
X146154696Y-84445646D01*
X146154697Y-84445646D01*
X146154699Y-84445647D01*
X146279997Y-84465492D01*
X146280000Y-84465492D01*
X146280003Y-84465492D01*
X146405300Y-84445647D01*
X146405301Y-84445647D01*
X146405302Y-84445646D01*
X146405304Y-84445646D01*
X146518342Y-84388050D01*
X146608050Y-84298342D01*
X146665646Y-84185304D01*
X146665646Y-84185302D01*
X146665647Y-84185301D01*
X146665647Y-84185300D01*
X146685492Y-84060003D01*
X146685492Y-84059996D01*
X146665647Y-83934699D01*
X146665647Y-83934698D01*
X146661782Y-83927113D01*
X146608050Y-83821658D01*
X146608046Y-83821654D01*
X146608045Y-83821652D01*
X146518347Y-83731954D01*
X146518343Y-83731951D01*
X146518342Y-83731950D01*
X146517149Y-83731342D01*
X146456310Y-83700342D01*
X146405514Y-83652367D01*
X146388720Y-83584546D01*
X146411258Y-83518411D01*
X146424919Y-83502183D01*
X146612784Y-83314319D01*
X146674107Y-83280834D01*
X146700465Y-83278000D01*
X151540821Y-83278000D01*
X151555683Y-83282364D01*
X151563286Y-83279023D01*
X151579179Y-83278000D01*
X154236262Y-83278000D01*
X154336787Y-83262848D01*
X154459142Y-83203925D01*
X154511160Y-83155659D01*
X154573691Y-83124492D01*
X154643148Y-83132079D01*
G37*
%TD.AperFunction*%
%TA.AperFunction,Conductor*%
G36*
X143039205Y-92667584D02*
G01*
X143095988Y-92715231D01*
X143095992Y-92715232D01*
X143095993Y-92715233D01*
X143210479Y-92756902D01*
X143210482Y-92756903D01*
X143210484Y-92756903D01*
X143221077Y-92756903D01*
X143288116Y-92776588D01*
X143333871Y-92829392D01*
X143343193Y-92859370D01*
X143358924Y-92948585D01*
X143358926Y-92948590D01*
X143419843Y-93054102D01*
X143419845Y-93054104D01*
X143419846Y-93054106D01*
X143513182Y-93132425D01*
X143513186Y-93132426D01*
X143513187Y-93132427D01*
X143583452Y-93158001D01*
X143627676Y-93174097D01*
X143627678Y-93174097D01*
X143749516Y-93174097D01*
X143749518Y-93174097D01*
X143864012Y-93132425D01*
X143957348Y-93054106D01*
X143968113Y-93035459D01*
X144018678Y-92987245D01*
X144087285Y-92974021D01*
X144152150Y-92999988D01*
X144192680Y-93056902D01*
X144199500Y-93097460D01*
X144199500Y-93576026D01*
X144179815Y-93643065D01*
X144127011Y-93688820D01*
X144057853Y-93698764D01*
X143994297Y-93669739D01*
X143968113Y-93638027D01*
X143961729Y-93626970D01*
X143948751Y-93604491D01*
X143948748Y-93604489D01*
X143948748Y-93604488D01*
X143855416Y-93526173D01*
X143855415Y-93526172D01*
X143855412Y-93526171D01*
X143855409Y-93526169D01*
X143740923Y-93484500D01*
X143740921Y-93484500D01*
X143619079Y-93484500D01*
X143619076Y-93484500D01*
X143504590Y-93526169D01*
X143504583Y-93526173D01*
X143493161Y-93535757D01*
X143429151Y-93563768D01*
X143360160Y-93552726D01*
X143333752Y-93535754D01*
X143310416Y-93516173D01*
X143310415Y-93516172D01*
X143310412Y-93516171D01*
X143310409Y-93516169D01*
X143195923Y-93474500D01*
X143195921Y-93474500D01*
X143074079Y-93474500D01*
X143001908Y-93500767D01*
X142932179Y-93505197D01*
X142871124Y-93471225D01*
X142838128Y-93409638D01*
X142835500Y-93384244D01*
X142835500Y-92762573D01*
X142855185Y-92695534D01*
X142907989Y-92649779D01*
X142977147Y-92639835D01*
X143039205Y-92667584D01*
G37*
%TD.AperFunction*%
%TA.AperFunction,Conductor*%
G36*
X146010072Y-82430185D02*
G01*
X146055827Y-82482989D01*
X146065771Y-82552147D01*
X146036746Y-82615703D01*
X146030714Y-82622181D01*
X145829830Y-82823066D01*
X145441347Y-83211550D01*
X145254716Y-83398181D01*
X145193393Y-83431666D01*
X145167035Y-83434500D01*
X143774312Y-83434500D01*
X143707273Y-83414815D01*
X143661518Y-83362011D01*
X143651574Y-83292853D01*
X143652196Y-83288968D01*
X143660830Y-83240001D01*
X143660830Y-83239999D01*
X143650857Y-83183442D01*
X143639672Y-83120009D01*
X143612727Y-83073339D01*
X143596254Y-83005439D01*
X143612726Y-82949340D01*
X143629672Y-82919991D01*
X143650830Y-82800000D01*
X143629672Y-82680009D01*
X143581458Y-82596500D01*
X143564985Y-82528600D01*
X143587838Y-82462573D01*
X143642759Y-82419382D01*
X143688845Y-82410500D01*
X145943033Y-82410500D01*
X146010072Y-82430185D01*
G37*
%TD.AperFunction*%
%TA.AperFunction,Conductor*%
G36*
X159552539Y-80315185D02*
G01*
X159598294Y-80367989D01*
X159609500Y-80419500D01*
X159609500Y-103060500D01*
X159589815Y-103127539D01*
X159537011Y-103173294D01*
X159485500Y-103184500D01*
X121974500Y-103184500D01*
X121907461Y-103164815D01*
X121861706Y-103112011D01*
X121850500Y-103060500D01*
X121850500Y-100800000D01*
X122284709Y-100800000D01*
X122303851Y-101079862D01*
X122303852Y-101079864D01*
X122360921Y-101354499D01*
X122360926Y-101354516D01*
X122454863Y-101618828D01*
X122454864Y-101618830D01*
X122583919Y-101867896D01*
X122745688Y-102097069D01*
X122745692Y-102097073D01*
X122745692Y-102097074D01*
X122909861Y-102272856D01*
X122937155Y-102302081D01*
X123154754Y-102479111D01*
X123154756Y-102479112D01*
X123154757Y-102479113D01*
X123394433Y-102624863D01*
X123575892Y-102703681D01*
X123651725Y-102736620D01*
X123921839Y-102812303D01*
X124166159Y-102845884D01*
X124199741Y-102850500D01*
X124199742Y-102850500D01*
X124480259Y-102850500D01*
X124510219Y-102846381D01*
X124758161Y-102812303D01*
X125028275Y-102736620D01*
X125285568Y-102624862D01*
X125525246Y-102479111D01*
X125742845Y-102302081D01*
X125934312Y-102097069D01*
X126096081Y-101867896D01*
X126225136Y-101618830D01*
X126319075Y-101354511D01*
X126319076Y-101354504D01*
X126319078Y-101354499D01*
X126334559Y-101280000D01*
X128214750Y-101280000D01*
X128232813Y-101417203D01*
X128233670Y-101423708D01*
X128233671Y-101423712D01*
X128289137Y-101557622D01*
X128289138Y-101557624D01*
X128289139Y-101557625D01*
X128377379Y-101672621D01*
X128492375Y-101760861D01*
X128626291Y-101816330D01*
X128753280Y-101833048D01*
X128769999Y-101835250D01*
X128770000Y-101835250D01*
X128770001Y-101835250D01*
X128784977Y-101833278D01*
X128913709Y-101816330D01*
X129047625Y-101760861D01*
X129162621Y-101672621D01*
X129250861Y-101557625D01*
X129306330Y-101423709D01*
X129325250Y-101280000D01*
X129306330Y-101136291D01*
X129257119Y-101017483D01*
X129250862Y-101002377D01*
X129250861Y-101002376D01*
X129250861Y-101002375D01*
X129162621Y-100887379D01*
X129047625Y-100799139D01*
X129047624Y-100799138D01*
X129047622Y-100799137D01*
X128913712Y-100743671D01*
X128913710Y-100743670D01*
X128913709Y-100743670D01*
X128841854Y-100734210D01*
X128770001Y-100724750D01*
X128769999Y-100724750D01*
X128626291Y-100743670D01*
X128626287Y-100743671D01*
X128492377Y-100799137D01*
X128377379Y-100887379D01*
X128289137Y-101002377D01*
X128233671Y-101136287D01*
X128233670Y-101136291D01*
X128214750Y-101280000D01*
X126334559Y-101280000D01*
X126352064Y-101195759D01*
X126376148Y-101079862D01*
X126395291Y-100800000D01*
X126376148Y-100520138D01*
X126333332Y-100314096D01*
X126319078Y-100245500D01*
X126319073Y-100245483D01*
X126225136Y-99981171D01*
X126225136Y-99981170D01*
X126096081Y-99732104D01*
X125934312Y-99502931D01*
X125934307Y-99502925D01*
X125742845Y-99297919D01*
X125654383Y-99225950D01*
X125525246Y-99120889D01*
X125525244Y-99120888D01*
X125525242Y-99120886D01*
X125285566Y-98975136D01*
X125028276Y-98863380D01*
X124758166Y-98787698D01*
X124758162Y-98787697D01*
X124758161Y-98787697D01*
X124619209Y-98768598D01*
X124480259Y-98749500D01*
X124480258Y-98749500D01*
X124199742Y-98749500D01*
X124199741Y-98749500D01*
X123921839Y-98787697D01*
X123921833Y-98787698D01*
X123651723Y-98863380D01*
X123394433Y-98975136D01*
X123154757Y-99120886D01*
X122937154Y-99297919D01*
X122745692Y-99502925D01*
X122745692Y-99502926D01*
X122745689Y-99502928D01*
X122745688Y-99502931D01*
X122701385Y-99565694D01*
X122583919Y-99732103D01*
X122454863Y-99981171D01*
X122360926Y-100245483D01*
X122360921Y-100245500D01*
X122303852Y-100520135D01*
X122303851Y-100520137D01*
X122284709Y-100800000D01*
X121850500Y-100800000D01*
X121850500Y-91228025D01*
X123054710Y-91228025D01*
X123059264Y-91280064D01*
X123059500Y-91285470D01*
X123059500Y-91293709D01*
X123063306Y-91326274D01*
X123070000Y-91402791D01*
X123071461Y-91409867D01*
X123071403Y-91409878D01*
X123073034Y-91417237D01*
X123073092Y-91417224D01*
X123074757Y-91424250D01*
X123101025Y-91496424D01*
X123125185Y-91569331D01*
X123128236Y-91575874D01*
X123128182Y-91575898D01*
X123131470Y-91582688D01*
X123131521Y-91582663D01*
X123134761Y-91589113D01*
X123134762Y-91589114D01*
X123134763Y-91589117D01*
X123160337Y-91628001D01*
X123176965Y-91653283D01*
X123217287Y-91718655D01*
X123221766Y-91724319D01*
X123221719Y-91724356D01*
X123226482Y-91730202D01*
X123226528Y-91730164D01*
X123231173Y-91735700D01*
X123260547Y-91763412D01*
X123287018Y-91788386D01*
X125177229Y-93678597D01*
X127033181Y-95534548D01*
X127066666Y-95595871D01*
X127069500Y-95622229D01*
X127069500Y-99123709D01*
X127079528Y-99209501D01*
X127084759Y-99254256D01*
X127084760Y-99254259D01*
X127144762Y-99419115D01*
X127144764Y-99419119D01*
X127241167Y-99565693D01*
X127241168Y-99565694D01*
X127368778Y-99686089D01*
X127368780Y-99686090D01*
X127368782Y-99686092D01*
X127520719Y-99773812D01*
X127688790Y-99824130D01*
X127863935Y-99834331D01*
X128036711Y-99803865D01*
X128197804Y-99734377D01*
X128338530Y-99629610D01*
X128451302Y-99495214D01*
X128530040Y-99338433D01*
X128570500Y-99167721D01*
X128570500Y-95323704D01*
X128571809Y-95305735D01*
X128572576Y-95300500D01*
X128575289Y-95281977D01*
X128574934Y-95277923D01*
X128572075Y-95245240D01*
X128570735Y-95229933D01*
X128570500Y-95224532D01*
X128570500Y-95216297D01*
X128570500Y-95216296D01*
X128570500Y-95216291D01*
X128566691Y-95183707D01*
X128559998Y-95107202D01*
X128559996Y-95107197D01*
X128558538Y-95100133D01*
X128558597Y-95100120D01*
X128556967Y-95092764D01*
X128556908Y-95092779D01*
X128555242Y-95085753D01*
X128555241Y-95085745D01*
X128528973Y-95013573D01*
X128523719Y-94997717D01*
X128504815Y-94940666D01*
X128501763Y-94934121D01*
X128501817Y-94934095D01*
X128498533Y-94927312D01*
X128498480Y-94927340D01*
X128495238Y-94920885D01*
X128487750Y-94909500D01*
X128453029Y-94856709D01*
X128412711Y-94791344D01*
X128412710Y-94791343D01*
X128412709Y-94791341D01*
X128408233Y-94785681D01*
X128408280Y-94785643D01*
X128403519Y-94779799D01*
X128403474Y-94779838D01*
X128398834Y-94774308D01*
X128342964Y-94721596D01*
X124596819Y-90975450D01*
X124563334Y-90914127D01*
X124560500Y-90887769D01*
X124560500Y-87442228D01*
X124580185Y-87375189D01*
X124596815Y-87354551D01*
X124999259Y-86952106D01*
X125033561Y-86930264D01*
X125032664Y-86928477D01*
X125039106Y-86925240D01*
X125039117Y-86925237D01*
X125185696Y-86828830D01*
X125306092Y-86701218D01*
X125393812Y-86549281D01*
X125444130Y-86381210D01*
X125454331Y-86206065D01*
X125423865Y-86033289D01*
X125354377Y-85872196D01*
X125352234Y-85869318D01*
X125276968Y-85768218D01*
X125249610Y-85731470D01*
X125177747Y-85671170D01*
X125115214Y-85618698D01*
X125115212Y-85618697D01*
X124958437Y-85539961D01*
X124939661Y-85535511D01*
X124787721Y-85499500D01*
X124787718Y-85499500D01*
X124703705Y-85499500D01*
X124685735Y-85498191D01*
X124661972Y-85494710D01*
X124616890Y-85498655D01*
X124609933Y-85499264D01*
X124604532Y-85499500D01*
X123826291Y-85499500D01*
X123721854Y-85511707D01*
X123695743Y-85514759D01*
X123695740Y-85514760D01*
X123530884Y-85574762D01*
X123530880Y-85574764D01*
X123384306Y-85671167D01*
X123384305Y-85671168D01*
X123263910Y-85798778D01*
X123176188Y-85950718D01*
X123125870Y-86118789D01*
X123125869Y-86118794D01*
X123115668Y-86293933D01*
X123145445Y-86462796D01*
X123146135Y-86466711D01*
X123184242Y-86555054D01*
X123192720Y-86624406D01*
X123181178Y-86659847D01*
X123179409Y-86663367D01*
X123170630Y-86677147D01*
X123170679Y-86677177D01*
X123166889Y-86683321D01*
X123134424Y-86752941D01*
X123099960Y-86821566D01*
X123097488Y-86828357D01*
X123097432Y-86828336D01*
X123094960Y-86835450D01*
X123095015Y-86835469D01*
X123092742Y-86842327D01*
X123088153Y-86864555D01*
X123077207Y-86917565D01*
X123065075Y-86968756D01*
X123059498Y-86992286D01*
X123058661Y-86999454D01*
X123058601Y-86999447D01*
X123057835Y-87006945D01*
X123057895Y-87006951D01*
X123057265Y-87014140D01*
X123059500Y-87090916D01*
X123059500Y-91186294D01*
X123058191Y-91204263D01*
X123054710Y-91228025D01*
X121850500Y-91228025D01*
X121850500Y-84609687D01*
X124770096Y-84609687D01*
X124780573Y-84652677D01*
X124781759Y-84658919D01*
X124787787Y-84702778D01*
X124794937Y-84719237D01*
X124801676Y-84739277D01*
X124805925Y-84756710D01*
X124808873Y-84761954D01*
X124827621Y-84795297D01*
X124830440Y-84800973D01*
X124832274Y-84805194D01*
X124848079Y-84841580D01*
X124859399Y-84855494D01*
X124871297Y-84872975D01*
X124880092Y-84888618D01*
X124880094Y-84888619D01*
X124911390Y-84919915D01*
X124915641Y-84924624D01*
X124943580Y-84958966D01*
X124958239Y-84969313D01*
X124974410Y-84982935D01*
X126294093Y-86302618D01*
X126339320Y-86351044D01*
X126377144Y-86374045D01*
X126382374Y-86377604D01*
X126417658Y-86404361D01*
X126425930Y-86407623D01*
X126434353Y-86410945D01*
X126453290Y-86420351D01*
X126468618Y-86429672D01*
X126511247Y-86441616D01*
X126517263Y-86443639D01*
X126558436Y-86459876D01*
X126576287Y-86461711D01*
X126597052Y-86465657D01*
X126614335Y-86470500D01*
X126658594Y-86470500D01*
X126664935Y-86470824D01*
X126708972Y-86475352D01*
X126726655Y-86472303D01*
X126747724Y-86470500D01*
X131995500Y-86470500D01*
X132062539Y-86490185D01*
X132108294Y-86542989D01*
X132119499Y-86594498D01*
X132119499Y-86841550D01*
X132119499Y-87085688D01*
X132119500Y-87085698D01*
X132119500Y-87749852D01*
X132118969Y-87757954D01*
X132114750Y-87789999D01*
X132114750Y-87790004D01*
X132118968Y-87822046D01*
X132119499Y-87830146D01*
X132119499Y-88009225D01*
X132099814Y-88076264D01*
X132083180Y-88096906D01*
X131569013Y-88611074D01*
X131566150Y-88614373D01*
X131565372Y-88613697D01*
X131513135Y-88652622D01*
X131448528Y-88658460D01*
X131369357Y-88644500D01*
X131369355Y-88644500D01*
X131310645Y-88644500D01*
X131310642Y-88644500D01*
X131223484Y-88659868D01*
X131223479Y-88659870D01*
X131121021Y-88719024D01*
X131121015Y-88719029D01*
X131044967Y-88809660D01*
X131044964Y-88809665D01*
X131004500Y-88920840D01*
X131004500Y-89039158D01*
X131014671Y-89067102D01*
X131019102Y-89136831D01*
X130985132Y-89197886D01*
X130972469Y-89208772D01*
X130967889Y-89212200D01*
X130967871Y-89212216D01*
X130966269Y-89213819D01*
X130948489Y-89235094D01*
X130948489Y-89235093D01*
X130923382Y-89271253D01*
X130897195Y-89337810D01*
X130887251Y-89406968D01*
X130886372Y-89414318D01*
X130886372Y-89414319D01*
X130899720Y-89493698D01*
X130911919Y-89520409D01*
X130928745Y-89557253D01*
X130928747Y-89557256D01*
X130952675Y-89594487D01*
X130955326Y-89598028D01*
X130954652Y-89598532D01*
X130969372Y-89621426D01*
X130976096Y-89636148D01*
X130992788Y-89672699D01*
X131002731Y-89706561D01*
X131010753Y-89762351D01*
X131010753Y-89797646D01*
X131002732Y-89853432D01*
X130992789Y-89887296D01*
X130969375Y-89938566D01*
X130950293Y-89968258D01*
X130913384Y-90010853D01*
X130886710Y-90033966D01*
X130839297Y-90064436D01*
X130807195Y-90079096D01*
X130753117Y-90094976D01*
X130718180Y-90100000D01*
X130657976Y-90100000D01*
X130631616Y-90097166D01*
X130620437Y-90094734D01*
X130620438Y-90094734D01*
X130585500Y-90089710D01*
X130560985Y-90091464D01*
X130492712Y-90076611D01*
X130443308Y-90027205D01*
X130439347Y-90019292D01*
X130416040Y-89968258D01*
X130394130Y-89920282D01*
X130304589Y-89816945D01*
X130304586Y-89816942D01*
X130189559Y-89743021D01*
X130058368Y-89704500D01*
X130058367Y-89704500D01*
X129921633Y-89704500D01*
X129921632Y-89704500D01*
X129790440Y-89743021D01*
X129675413Y-89816942D01*
X129675409Y-89816946D01*
X129585872Y-89920278D01*
X129585867Y-89920285D01*
X129529070Y-90044654D01*
X129529068Y-90044662D01*
X129509610Y-90180000D01*
X129529068Y-90315337D01*
X129529070Y-90315345D01*
X129585867Y-90439714D01*
X129585870Y-90439718D01*
X129637062Y-90498798D01*
X129666086Y-90562354D01*
X129656142Y-90631513D01*
X129637062Y-90661202D01*
X129585870Y-90720281D01*
X129585867Y-90720285D01*
X129529070Y-90844654D01*
X129529068Y-90844662D01*
X129509610Y-90980000D01*
X129529068Y-91115337D01*
X129529070Y-91115345D01*
X129585867Y-91239714D01*
X129585870Y-91239718D01*
X129637062Y-91298798D01*
X129666086Y-91362354D01*
X129656142Y-91431513D01*
X129637062Y-91461202D01*
X129585870Y-91520281D01*
X129585867Y-91520285D01*
X129529070Y-91644654D01*
X129529068Y-91644662D01*
X129509610Y-91780000D01*
X129529068Y-91915337D01*
X129529070Y-91915345D01*
X129585867Y-92039714D01*
X129585872Y-92039721D01*
X129675409Y-92143053D01*
X129675413Y-92143057D01*
X129720754Y-92172195D01*
X129790439Y-92216978D01*
X129827667Y-92227909D01*
X129921632Y-92255500D01*
X129921633Y-92255500D01*
X130058366Y-92255500D01*
X130058367Y-92255500D01*
X130081692Y-92248650D01*
X130151559Y-92248649D01*
X130210338Y-92286421D01*
X130229422Y-92316115D01*
X130285869Y-92439716D01*
X130285870Y-92439718D01*
X130337062Y-92498798D01*
X130366086Y-92562354D01*
X130356142Y-92631513D01*
X130337062Y-92661202D01*
X130285870Y-92720281D01*
X130285869Y-92720283D01*
X130229422Y-92843884D01*
X130183667Y-92896688D01*
X130116627Y-92916372D01*
X130081693Y-92911349D01*
X130058368Y-92904500D01*
X130058367Y-92904500D01*
X129921633Y-92904500D01*
X129921632Y-92904500D01*
X129790440Y-92943021D01*
X129675413Y-93016942D01*
X129675409Y-93016946D01*
X129585872Y-93120278D01*
X129585867Y-93120285D01*
X129529070Y-93244654D01*
X129529068Y-93244662D01*
X129509610Y-93380000D01*
X129529068Y-93515337D01*
X129529070Y-93515345D01*
X129585867Y-93639714D01*
X129585870Y-93639718D01*
X129637062Y-93698798D01*
X129666086Y-93762354D01*
X129656142Y-93831513D01*
X129637062Y-93861202D01*
X129585870Y-93920281D01*
X129585867Y-93920285D01*
X129529070Y-94044654D01*
X129529068Y-94044662D01*
X129509610Y-94180000D01*
X129529068Y-94315337D01*
X129529070Y-94315345D01*
X129585867Y-94439714D01*
X129585870Y-94439718D01*
X129637062Y-94498798D01*
X129666086Y-94562354D01*
X129656142Y-94631513D01*
X129637062Y-94661202D01*
X129585870Y-94720281D01*
X129585867Y-94720285D01*
X129529070Y-94844654D01*
X129529068Y-94844662D01*
X129509610Y-94980000D01*
X129529068Y-95115337D01*
X129529070Y-95115345D01*
X129585867Y-95239714D01*
X129585872Y-95239721D01*
X129675409Y-95343053D01*
X129675413Y-95343057D01*
X129735979Y-95381979D01*
X129790439Y-95416978D01*
X129856035Y-95436238D01*
X129921632Y-95455500D01*
X129921633Y-95455500D01*
X130058367Y-95455500D01*
X130189561Y-95416978D01*
X130304589Y-95343055D01*
X130394130Y-95239718D01*
X130400953Y-95224779D01*
X130418894Y-95185492D01*
X130450931Y-95115342D01*
X130470390Y-94980000D01*
X130450931Y-94844658D01*
X130421404Y-94780003D01*
X130394132Y-94720285D01*
X130394127Y-94720278D01*
X130342937Y-94661201D01*
X130313912Y-94597646D01*
X130323856Y-94528487D01*
X130342929Y-94498807D01*
X130345907Y-94495370D01*
X130404680Y-94457599D01*
X130474550Y-94457599D01*
X130474553Y-94457600D01*
X130481076Y-94459515D01*
X130481077Y-94459516D01*
X130548116Y-94479201D01*
X130591927Y-94485500D01*
X131515500Y-94485500D01*
X131582539Y-94505185D01*
X131628294Y-94557989D01*
X131639500Y-94609500D01*
X131639500Y-95604886D01*
X131619815Y-95671925D01*
X131567011Y-95717680D01*
X131497853Y-95727624D01*
X131473091Y-95721408D01*
X131399161Y-95694501D01*
X131399160Y-95694500D01*
X131399158Y-95694500D01*
X131280842Y-95694500D01*
X131280840Y-95694500D01*
X131169665Y-95734964D01*
X131169660Y-95734967D01*
X131079029Y-95811015D01*
X131079024Y-95811021D01*
X131019870Y-95913479D01*
X131019868Y-95913484D01*
X131004500Y-96000642D01*
X131004500Y-96359357D01*
X131019868Y-96446515D01*
X131019870Y-96446520D01*
X131079024Y-96548978D01*
X131079029Y-96548984D01*
X131096722Y-96563830D01*
X131169662Y-96625034D01*
X131280842Y-96665500D01*
X131280844Y-96665500D01*
X131296613Y-96665500D01*
X131363652Y-96685185D01*
X131409407Y-96737989D01*
X131419351Y-96807147D01*
X131390326Y-96870703D01*
X131384296Y-96877178D01*
X130819524Y-97441950D01*
X130267381Y-97994093D01*
X130218957Y-98039317D01*
X130195956Y-98077139D01*
X130192384Y-98082388D01*
X130165639Y-98117658D01*
X130165636Y-98117663D01*
X130159055Y-98134352D01*
X130149653Y-98153283D01*
X130140327Y-98168619D01*
X130128385Y-98211237D01*
X130126362Y-98217255D01*
X130110122Y-98258440D01*
X130108288Y-98276284D01*
X130104342Y-98297048D01*
X130099501Y-98314328D01*
X130099500Y-98314337D01*
X130099500Y-98358594D01*
X130099175Y-98364939D01*
X130094648Y-98408970D01*
X130094648Y-98408975D01*
X130097697Y-98426660D01*
X130099499Y-98447724D01*
X130099499Y-100850602D01*
X130097238Y-100916824D01*
X130097238Y-100916826D01*
X130107715Y-100959821D01*
X130108901Y-100966061D01*
X130114929Y-101009920D01*
X130122079Y-101026379D01*
X130128819Y-101046420D01*
X130133067Y-101063852D01*
X130154763Y-101102439D01*
X130157582Y-101108115D01*
X130171373Y-101139864D01*
X130175221Y-101148722D01*
X130186541Y-101162636D01*
X130198439Y-101180117D01*
X130207234Y-101195760D01*
X130207236Y-101195761D01*
X130238532Y-101227057D01*
X130242783Y-101231766D01*
X130270722Y-101266108D01*
X130285381Y-101276455D01*
X130301552Y-101290077D01*
X131364079Y-102352603D01*
X131409320Y-102401044D01*
X131447140Y-102424042D01*
X131452379Y-102427607D01*
X131487658Y-102454361D01*
X131504353Y-102460944D01*
X131523290Y-102470351D01*
X131538618Y-102479672D01*
X131581247Y-102491616D01*
X131587263Y-102493639D01*
X131628436Y-102509876D01*
X131646287Y-102511711D01*
X131667052Y-102515657D01*
X131684335Y-102520500D01*
X131728594Y-102520500D01*
X131734935Y-102520824D01*
X131778972Y-102525352D01*
X131796655Y-102522303D01*
X131817724Y-102520500D01*
X132730603Y-102520500D01*
X132796826Y-102522762D01*
X132827229Y-102515352D01*
X132832672Y-102514026D01*
X132862032Y-102510500D01*
X132930614Y-102510500D01*
X132997653Y-102530185D01*
X133018295Y-102546819D01*
X133064080Y-102592604D01*
X133109320Y-102641044D01*
X133128597Y-102652766D01*
X133147140Y-102664042D01*
X133152379Y-102667607D01*
X133187658Y-102694361D01*
X133204353Y-102700944D01*
X133223290Y-102710351D01*
X133238618Y-102719672D01*
X133264530Y-102726932D01*
X133281237Y-102731613D01*
X133287254Y-102733636D01*
X133294821Y-102736620D01*
X133316245Y-102745069D01*
X133328435Y-102749876D01*
X133346284Y-102751710D01*
X133367056Y-102755658D01*
X133376414Y-102758280D01*
X133384334Y-102760500D01*
X133384335Y-102760500D01*
X133428601Y-102760500D01*
X133434942Y-102760824D01*
X133478971Y-102765351D01*
X133496650Y-102762302D01*
X133517718Y-102760500D01*
X147970603Y-102760500D01*
X148036826Y-102762762D01*
X148079832Y-102752280D01*
X148086051Y-102751098D01*
X148129920Y-102745070D01*
X148146383Y-102737918D01*
X148166416Y-102731181D01*
X148183852Y-102726933D01*
X148222450Y-102705229D01*
X148228098Y-102702424D01*
X148259315Y-102688864D01*
X148328646Y-102680213D01*
X148391649Y-102710418D01*
X148396394Y-102714919D01*
X148418530Y-102737055D01*
X148422786Y-102741771D01*
X148429380Y-102749876D01*
X148450722Y-102776108D01*
X148468897Y-102788937D01*
X148473892Y-102792861D01*
X148477356Y-102795882D01*
X148477364Y-102795888D01*
X148477366Y-102795890D01*
X148567658Y-102864361D01*
X148708436Y-102919876D01*
X148858972Y-102935352D01*
X148974958Y-102915354D01*
X149008095Y-102909641D01*
X149008095Y-102909640D01*
X149008100Y-102909640D01*
X149144762Y-102844647D01*
X149258821Y-102745192D01*
X149341817Y-102618653D01*
X149387596Y-102474416D01*
X149392762Y-102323174D01*
X149384025Y-102287324D01*
X149380500Y-102257966D01*
X149380500Y-102024500D01*
X149400185Y-101957461D01*
X149452989Y-101911706D01*
X149504500Y-101900500D01*
X151500603Y-101900500D01*
X151566826Y-101902762D01*
X151609832Y-101892280D01*
X151616051Y-101891098D01*
X151659920Y-101885070D01*
X151676383Y-101877918D01*
X151696416Y-101871181D01*
X151713852Y-101866933D01*
X151752465Y-101845221D01*
X151758090Y-101842427D01*
X151798720Y-101824780D01*
X151812632Y-101813460D01*
X151830123Y-101801557D01*
X151845755Y-101792768D01*
X151845753Y-101792768D01*
X151845759Y-101792766D01*
X151877059Y-101761464D01*
X151881771Y-101757211D01*
X151916108Y-101729278D01*
X151926456Y-101714616D01*
X151940074Y-101698449D01*
X152778523Y-100860000D01*
X155204709Y-100860000D01*
X155223851Y-101139862D01*
X155223852Y-101139864D01*
X155280921Y-101414499D01*
X155280926Y-101414516D01*
X155353539Y-101618828D01*
X155374864Y-101678830D01*
X155503919Y-101927896D01*
X155665688Y-102157069D01*
X155665692Y-102157073D01*
X155665692Y-102157074D01*
X155848303Y-102352603D01*
X155857155Y-102362081D01*
X156074754Y-102539111D01*
X156074756Y-102539112D01*
X156074757Y-102539113D01*
X156314433Y-102684863D01*
X156493776Y-102762762D01*
X156571725Y-102796620D01*
X156841839Y-102872303D01*
X157086159Y-102905884D01*
X157119741Y-102910500D01*
X157119742Y-102910500D01*
X157400259Y-102910500D01*
X157430219Y-102906381D01*
X157678161Y-102872303D01*
X157948275Y-102796620D01*
X158165162Y-102702413D01*
X158205566Y-102684863D01*
X158205568Y-102684862D01*
X158445246Y-102539111D01*
X158662845Y-102362081D01*
X158854312Y-102157069D01*
X159016081Y-101927896D01*
X159145136Y-101678830D01*
X159239075Y-101414511D01*
X159239076Y-101414504D01*
X159239078Y-101414499D01*
X159269914Y-101266108D01*
X159296148Y-101139862D01*
X159315291Y-100860000D01*
X159296148Y-100580138D01*
X159258283Y-100397921D01*
X159239078Y-100305500D01*
X159239073Y-100305483D01*
X159145136Y-100041171D01*
X159145136Y-100041170D01*
X159016081Y-99792104D01*
X158854312Y-99562931D01*
X158854307Y-99562925D01*
X158662845Y-99357919D01*
X158607347Y-99312768D01*
X158445246Y-99180889D01*
X158445244Y-99180888D01*
X158445242Y-99180886D01*
X158205566Y-99035136D01*
X157948276Y-98923380D01*
X157678166Y-98847698D01*
X157678162Y-98847697D01*
X157678161Y-98847697D01*
X157539209Y-98828598D01*
X157400259Y-98809500D01*
X157400258Y-98809500D01*
X157119742Y-98809500D01*
X157119741Y-98809500D01*
X156841839Y-98847697D01*
X156841833Y-98847698D01*
X156571723Y-98923380D01*
X156314433Y-99035136D01*
X156074757Y-99180886D01*
X155857154Y-99357919D01*
X155665692Y-99562925D01*
X155665692Y-99562926D01*
X155665689Y-99562928D01*
X155665688Y-99562931D01*
X155616417Y-99632732D01*
X155503919Y-99792103D01*
X155374863Y-100041171D01*
X155280926Y-100305483D01*
X155280921Y-100305500D01*
X155223852Y-100580135D01*
X155223851Y-100580137D01*
X155204709Y-100860000D01*
X152778523Y-100860000D01*
X153782618Y-99855906D01*
X153831044Y-99810680D01*
X153854049Y-99772847D01*
X153857606Y-99767622D01*
X153884361Y-99732342D01*
X153890943Y-99715648D01*
X153900344Y-99696719D01*
X153909672Y-99681382D01*
X153921619Y-99638739D01*
X153923632Y-99632753D01*
X153939876Y-99591564D01*
X153941711Y-99573716D01*
X153945658Y-99552944D01*
X153950500Y-99535665D01*
X153950500Y-99491404D01*
X153950825Y-99485060D01*
X153955352Y-99441028D01*
X153952303Y-99423343D01*
X153950500Y-99402275D01*
X153950500Y-97612341D01*
X153942807Y-97556370D01*
X153935070Y-97500080D01*
X153903268Y-97426866D01*
X153874782Y-97361283D01*
X153874780Y-97361280D01*
X153779278Y-97243892D01*
X153779276Y-97243891D01*
X153779275Y-97243889D01*
X153655647Y-97156623D01*
X153655644Y-97156621D01*
X153513058Y-97105946D01*
X153362081Y-97095619D01*
X153362074Y-97095619D01*
X153213921Y-97126405D01*
X153213915Y-97126408D01*
X153079553Y-97196029D01*
X153079551Y-97196030D01*
X153079552Y-97196030D01*
X153079548Y-97196032D01*
X152968956Y-97299318D01*
X152890329Y-97428615D01*
X152890328Y-97428617D01*
X152890328Y-97428618D01*
X152859582Y-97538354D01*
X152849500Y-97574336D01*
X152849500Y-99180612D01*
X152829815Y-99247651D01*
X152813181Y-99268293D01*
X151318294Y-100763181D01*
X151256971Y-100796666D01*
X151230613Y-100799500D01*
X148849397Y-100799500D01*
X148783174Y-100797238D01*
X148783173Y-100797238D01*
X148783171Y-100797238D01*
X148740170Y-100807717D01*
X148733930Y-100808902D01*
X148690079Y-100814930D01*
X148673616Y-100822081D01*
X148653575Y-100828820D01*
X148636150Y-100833066D01*
X148636145Y-100833068D01*
X148597567Y-100854758D01*
X148591881Y-100857582D01*
X148551278Y-100875220D01*
X148537359Y-100886545D01*
X148519882Y-100898440D01*
X148504242Y-100907234D01*
X148504241Y-100907234D01*
X148504241Y-100907235D01*
X148494243Y-100917232D01*
X148494241Y-100917234D01*
X148484073Y-100927400D01*
X148472938Y-100938535D01*
X148468225Y-100942788D01*
X148433896Y-100970717D01*
X148433891Y-100970722D01*
X148428875Y-100977829D01*
X148412215Y-100996936D01*
X148398957Y-101009318D01*
X148393606Y-101015896D01*
X148393225Y-101015586D01*
X148383463Y-101028010D01*
X147788294Y-101623181D01*
X147726971Y-101656666D01*
X147700613Y-101659500D01*
X133739387Y-101659500D01*
X133672348Y-101639815D01*
X133651706Y-101623181D01*
X133647353Y-101618828D01*
X133605908Y-101577383D01*
X133560680Y-101528956D01*
X133560677Y-101528954D01*
X133522861Y-101505957D01*
X133517610Y-101502383D01*
X133482341Y-101475638D01*
X133482342Y-101475638D01*
X133465642Y-101469052D01*
X133446716Y-101459652D01*
X133431380Y-101450327D01*
X133388758Y-101438384D01*
X133382740Y-101436360D01*
X133341565Y-101420124D01*
X133341556Y-101420122D01*
X133323716Y-101418288D01*
X133302951Y-101414342D01*
X133285669Y-101409500D01*
X133285665Y-101409500D01*
X133241406Y-101409500D01*
X133235064Y-101409175D01*
X133207427Y-101406333D01*
X133191029Y-101404648D01*
X133191024Y-101404648D01*
X133173344Y-101407697D01*
X133152276Y-101409500D01*
X132759397Y-101409500D01*
X132693174Y-101407238D01*
X132693173Y-101407238D01*
X132693172Y-101407238D01*
X132657320Y-101415975D01*
X132627962Y-101419500D01*
X132039386Y-101419500D01*
X131972347Y-101399815D01*
X131951705Y-101383181D01*
X131690705Y-101122181D01*
X131657220Y-101060858D01*
X131662204Y-100991166D01*
X131704076Y-100935233D01*
X131769540Y-100910816D01*
X131778386Y-100910500D01*
X131809854Y-100910500D01*
X131817953Y-100911030D01*
X131831095Y-100912761D01*
X131849999Y-100915250D01*
X131850000Y-100915250D01*
X131850001Y-100915250D01*
X131868905Y-100912761D01*
X131882046Y-100911030D01*
X131890146Y-100910500D01*
X134190603Y-100910500D01*
X134256826Y-100912762D01*
X134299832Y-100902280D01*
X134306051Y-100901098D01*
X134349920Y-100895070D01*
X134366383Y-100887918D01*
X134386416Y-100881181D01*
X134403852Y-100876933D01*
X134442465Y-100855221D01*
X134448090Y-100852427D01*
X134488720Y-100834780D01*
X134502632Y-100823460D01*
X134520123Y-100811557D01*
X134535755Y-100802768D01*
X134535753Y-100802768D01*
X134535759Y-100802766D01*
X134567059Y-100771464D01*
X134571771Y-100767211D01*
X134606108Y-100739278D01*
X134616456Y-100724616D01*
X134630074Y-100708449D01*
X135787120Y-99551403D01*
X142810573Y-99551403D01*
X142831730Y-99671391D01*
X142831732Y-99671396D01*
X142892649Y-99776908D01*
X142892654Y-99776914D01*
X142932895Y-99810680D01*
X142985988Y-99855231D01*
X142985992Y-99855232D01*
X142985993Y-99855233D01*
X143067289Y-99884822D01*
X143100482Y-99896903D01*
X143100484Y-99896903D01*
X143111077Y-99896903D01*
X143178116Y-99916588D01*
X143223871Y-99969392D01*
X143233193Y-99999370D01*
X143248924Y-100088585D01*
X143248926Y-100088590D01*
X143309843Y-100194102D01*
X143309845Y-100194104D01*
X143309846Y-100194106D01*
X143403182Y-100272425D01*
X143403186Y-100272426D01*
X143403187Y-100272427D01*
X143517673Y-100314096D01*
X143517676Y-100314097D01*
X143517678Y-100314097D01*
X143639516Y-100314097D01*
X143639518Y-100314097D01*
X143754012Y-100272425D01*
X143847348Y-100194106D01*
X143908269Y-100088588D01*
X143929427Y-99968597D01*
X143908269Y-99848606D01*
X143875647Y-99792103D01*
X143847350Y-99743091D01*
X143847345Y-99743085D01*
X143754013Y-99664770D01*
X143754012Y-99664769D01*
X143754009Y-99664768D01*
X143754006Y-99664766D01*
X143639520Y-99623097D01*
X143639518Y-99623097D01*
X143628923Y-99623097D01*
X143561884Y-99603412D01*
X143516129Y-99550608D01*
X143506807Y-99520630D01*
X143500535Y-99485060D01*
X143491075Y-99431412D01*
X143454081Y-99367336D01*
X143430156Y-99325897D01*
X143430151Y-99325891D01*
X143347756Y-99256753D01*
X143336818Y-99247575D01*
X143336815Y-99247574D01*
X143336812Y-99247572D01*
X143222326Y-99205903D01*
X143222324Y-99205903D01*
X143100482Y-99205903D01*
X143100479Y-99205903D01*
X142985993Y-99247572D01*
X142985986Y-99247576D01*
X142892654Y-99325891D01*
X142892649Y-99325897D01*
X142831732Y-99431409D01*
X142831730Y-99431414D01*
X142810573Y-99551402D01*
X142810573Y-99551403D01*
X135787120Y-99551403D01*
X136948523Y-98390000D01*
X142899170Y-98390000D01*
X142920327Y-98509988D01*
X142920329Y-98509993D01*
X142981246Y-98615505D01*
X142981248Y-98615507D01*
X142981249Y-98615509D01*
X143074585Y-98693828D01*
X143074589Y-98693829D01*
X143074590Y-98693830D01*
X143177869Y-98731420D01*
X143189079Y-98735500D01*
X143189081Y-98735500D01*
X143310919Y-98735500D01*
X143310921Y-98735500D01*
X143425415Y-98693828D01*
X143465726Y-98660003D01*
X145474508Y-98660003D01*
X145494352Y-98785300D01*
X145494352Y-98785301D01*
X145509614Y-98815254D01*
X145551950Y-98898342D01*
X145551952Y-98898344D01*
X145551954Y-98898347D01*
X145641652Y-98988045D01*
X145641654Y-98988046D01*
X145641658Y-98988050D01*
X145754696Y-99045646D01*
X145754697Y-99045646D01*
X145754699Y-99045647D01*
X145879997Y-99065492D01*
X145880000Y-99065492D01*
X145880003Y-99065492D01*
X146005300Y-99045647D01*
X146005301Y-99045647D01*
X146005302Y-99045646D01*
X146005304Y-99045646D01*
X146118342Y-98988050D01*
X146208050Y-98898342D01*
X146265646Y-98785304D01*
X146265646Y-98785302D01*
X146265647Y-98785301D01*
X146265647Y-98785300D01*
X146285492Y-98660003D01*
X146285492Y-98659996D01*
X146265647Y-98534699D01*
X146265647Y-98534698D01*
X146253058Y-98509991D01*
X146211073Y-98427590D01*
X148184170Y-98427590D01*
X148205327Y-98547578D01*
X148205329Y-98547583D01*
X148266246Y-98653095D01*
X148266251Y-98653101D01*
X148299477Y-98680981D01*
X148359585Y-98731418D01*
X148359589Y-98731419D01*
X148359590Y-98731420D01*
X148474076Y-98773089D01*
X148474079Y-98773090D01*
X148474081Y-98773090D01*
X148595919Y-98773090D01*
X148595921Y-98773090D01*
X148710415Y-98731418D01*
X148750295Y-98697953D01*
X148814301Y-98669942D01*
X148883293Y-98680981D01*
X148909701Y-98697951D01*
X148949585Y-98731418D01*
X148949588Y-98731419D01*
X148949590Y-98731420D01*
X149064076Y-98773089D01*
X149064079Y-98773090D01*
X149064081Y-98773090D01*
X149185919Y-98773090D01*
X149185921Y-98773090D01*
X149300415Y-98731418D01*
X149393751Y-98653099D01*
X149454672Y-98547581D01*
X149475830Y-98427590D01*
X149454672Y-98307599D01*
X149393751Y-98202081D01*
X149393749Y-98202079D01*
X149393748Y-98202078D01*
X149320436Y-98140562D01*
X149300415Y-98123762D01*
X149300412Y-98123761D01*
X149300409Y-98123759D01*
X149185923Y-98082090D01*
X149185921Y-98082090D01*
X149064079Y-98082090D01*
X149064076Y-98082090D01*
X148949590Y-98123759D01*
X148949583Y-98123763D01*
X148909705Y-98157225D01*
X148845697Y-98185237D01*
X148776705Y-98174198D01*
X148750295Y-98157225D01*
X148718490Y-98130538D01*
X148710415Y-98123762D01*
X148710412Y-98123761D01*
X148710409Y-98123759D01*
X148595923Y-98082090D01*
X148595921Y-98082090D01*
X148474079Y-98082090D01*
X148474076Y-98082090D01*
X148359590Y-98123759D01*
X148359583Y-98123763D01*
X148266251Y-98202078D01*
X148266246Y-98202084D01*
X148205329Y-98307596D01*
X148205327Y-98307601D01*
X148184170Y-98427589D01*
X148184170Y-98427590D01*
X146211073Y-98427590D01*
X146208050Y-98421658D01*
X146208046Y-98421654D01*
X146208045Y-98421652D01*
X146118347Y-98331954D01*
X146118344Y-98331952D01*
X146118342Y-98331950D01*
X146005304Y-98274354D01*
X146005303Y-98274353D01*
X146005300Y-98274352D01*
X145880003Y-98254508D01*
X145879997Y-98254508D01*
X145754699Y-98274352D01*
X145754698Y-98274352D01*
X145689455Y-98307596D01*
X145641658Y-98331950D01*
X145641657Y-98331951D01*
X145641652Y-98331954D01*
X145551954Y-98421652D01*
X145551951Y-98421657D01*
X145551950Y-98421658D01*
X145543608Y-98438030D01*
X145494352Y-98534698D01*
X145494352Y-98534699D01*
X145474508Y-98659996D01*
X145474508Y-98660003D01*
X143465726Y-98660003D01*
X143518751Y-98615509D01*
X143579672Y-98509991D01*
X143600830Y-98390000D01*
X143579672Y-98270009D01*
X143518751Y-98164491D01*
X143518750Y-98164490D01*
X143514426Y-98157000D01*
X143497953Y-98089100D01*
X143514426Y-98033000D01*
X143518751Y-98025509D01*
X143579672Y-97919991D01*
X143600830Y-97800000D01*
X143579672Y-97680009D01*
X143518751Y-97574491D01*
X143518749Y-97574489D01*
X143518748Y-97574488D01*
X143425416Y-97496173D01*
X143425415Y-97496172D01*
X143425412Y-97496171D01*
X143425409Y-97496169D01*
X143310923Y-97454500D01*
X143310921Y-97454500D01*
X143189079Y-97454500D01*
X143189076Y-97454500D01*
X143074590Y-97496169D01*
X143074583Y-97496173D01*
X142981251Y-97574488D01*
X142981246Y-97574494D01*
X142920329Y-97680006D01*
X142920327Y-97680011D01*
X142899170Y-97799999D01*
X142899170Y-97800000D01*
X142920327Y-97919988D01*
X142920329Y-97919993D01*
X142985573Y-98032999D01*
X143002046Y-98100899D01*
X142985574Y-98156998D01*
X142920328Y-98270008D01*
X142920327Y-98270011D01*
X142899170Y-98389999D01*
X142899170Y-98390000D01*
X136948523Y-98390000D01*
X138778524Y-96560000D01*
X144384170Y-96560000D01*
X144405327Y-96679988D01*
X144405329Y-96679993D01*
X144466246Y-96785505D01*
X144466251Y-96785511D01*
X144486958Y-96802886D01*
X144559585Y-96863828D01*
X144559589Y-96863829D01*
X144559590Y-96863830D01*
X144674076Y-96905499D01*
X144674079Y-96905500D01*
X144674081Y-96905500D01*
X144795919Y-96905500D01*
X144795921Y-96905500D01*
X144910415Y-96863828D01*
X144950295Y-96830363D01*
X145014301Y-96802352D01*
X145083293Y-96813391D01*
X145109701Y-96830361D01*
X145149585Y-96863828D01*
X145149588Y-96863829D01*
X145149590Y-96863830D01*
X145264076Y-96905499D01*
X145264079Y-96905500D01*
X145264081Y-96905500D01*
X145385919Y-96905500D01*
X145385921Y-96905500D01*
X145500415Y-96863828D01*
X145564564Y-96810000D01*
X149624170Y-96810000D01*
X149645327Y-96929988D01*
X149645329Y-96929993D01*
X149706246Y-97035505D01*
X149706251Y-97035511D01*
X149739477Y-97063391D01*
X149799585Y-97113828D01*
X149799589Y-97113829D01*
X149799590Y-97113830D01*
X149896981Y-97149277D01*
X149914079Y-97155500D01*
X149914081Y-97155500D01*
X150035919Y-97155500D01*
X150035921Y-97155500D01*
X150150415Y-97113828D01*
X150190295Y-97080363D01*
X150254301Y-97052352D01*
X150323293Y-97063391D01*
X150349701Y-97080361D01*
X150389585Y-97113828D01*
X150389588Y-97113829D01*
X150389590Y-97113830D01*
X150486981Y-97149277D01*
X150504079Y-97155500D01*
X150504081Y-97155500D01*
X150625919Y-97155500D01*
X150625921Y-97155500D01*
X150740415Y-97113828D01*
X150833751Y-97035509D01*
X150894672Y-96929991D01*
X150915830Y-96810000D01*
X150914481Y-96802352D01*
X150894672Y-96690011D01*
X150894672Y-96690009D01*
X150857157Y-96625032D01*
X150833753Y-96584494D01*
X150833748Y-96584488D01*
X150749018Y-96513391D01*
X150740415Y-96506172D01*
X150740412Y-96506171D01*
X150740409Y-96506169D01*
X150625923Y-96464500D01*
X150625921Y-96464500D01*
X150504079Y-96464500D01*
X150504076Y-96464500D01*
X150389590Y-96506169D01*
X150389583Y-96506173D01*
X150349705Y-96539635D01*
X150285697Y-96567647D01*
X150216705Y-96556608D01*
X150190295Y-96539635D01*
X150158490Y-96512948D01*
X150150415Y-96506172D01*
X150150412Y-96506171D01*
X150150409Y-96506169D01*
X150035923Y-96464500D01*
X150035921Y-96464500D01*
X149914079Y-96464500D01*
X149914076Y-96464500D01*
X149799590Y-96506169D01*
X149799583Y-96506173D01*
X149706251Y-96584488D01*
X149706246Y-96584494D01*
X149645329Y-96690006D01*
X149645327Y-96690011D01*
X149624170Y-96809999D01*
X149624170Y-96810000D01*
X145564564Y-96810000D01*
X145593751Y-96785509D01*
X145654672Y-96679991D01*
X145675830Y-96560000D01*
X145673886Y-96548978D01*
X145666339Y-96506173D01*
X145654672Y-96440009D01*
X145608928Y-96360778D01*
X145593753Y-96334494D01*
X145593748Y-96334488D01*
X145500416Y-96256173D01*
X145500415Y-96256172D01*
X145500412Y-96256171D01*
X145500409Y-96256169D01*
X145385923Y-96214500D01*
X145385921Y-96214500D01*
X145264079Y-96214500D01*
X145264076Y-96214500D01*
X145149590Y-96256169D01*
X145149583Y-96256173D01*
X145109705Y-96289635D01*
X145045697Y-96317647D01*
X144976705Y-96306608D01*
X144950295Y-96289635D01*
X144910416Y-96256173D01*
X144910415Y-96256172D01*
X144910412Y-96256171D01*
X144910409Y-96256169D01*
X144795923Y-96214500D01*
X144795921Y-96214500D01*
X144674079Y-96214500D01*
X144674076Y-96214500D01*
X144559590Y-96256169D01*
X144559583Y-96256173D01*
X144466251Y-96334488D01*
X144466246Y-96334494D01*
X144405329Y-96440006D01*
X144405327Y-96440011D01*
X144384170Y-96559999D01*
X144384170Y-96560000D01*
X138778524Y-96560000D01*
X138796705Y-96541819D01*
X138858029Y-96508334D01*
X138884387Y-96505500D01*
X140775603Y-96505500D01*
X140841826Y-96507762D01*
X140884832Y-96497280D01*
X140891051Y-96496098D01*
X140934920Y-96490070D01*
X140951383Y-96482918D01*
X140971416Y-96476181D01*
X140988852Y-96471933D01*
X141027465Y-96450221D01*
X141033090Y-96447427D01*
X141073720Y-96429780D01*
X141087632Y-96418460D01*
X141105123Y-96406557D01*
X141120755Y-96397768D01*
X141120753Y-96397768D01*
X141120759Y-96397766D01*
X141152059Y-96366464D01*
X141156771Y-96362211D01*
X141191108Y-96334278D01*
X141201456Y-96319616D01*
X141215069Y-96303454D01*
X141625891Y-95892634D01*
X141694361Y-95802342D01*
X141749876Y-95661564D01*
X141765352Y-95511028D01*
X141754685Y-95449162D01*
X141762692Y-95379754D01*
X141789198Y-95340416D01*
X142726990Y-94402624D01*
X142745774Y-94387209D01*
X142758624Y-94378624D01*
X142784160Y-94340408D01*
X142819515Y-94287495D01*
X142825879Y-94255500D01*
X142831129Y-94229105D01*
X142863513Y-94167195D01*
X142924229Y-94132621D01*
X142993999Y-94136360D01*
X142995155Y-94136775D01*
X143074076Y-94165499D01*
X143074079Y-94165500D01*
X143074081Y-94165500D01*
X143195919Y-94165500D01*
X143195921Y-94165500D01*
X143310415Y-94123828D01*
X143321835Y-94114244D01*
X143385841Y-94086232D01*
X143454833Y-94097270D01*
X143481247Y-94114245D01*
X143504585Y-94133828D01*
X143504589Y-94133829D01*
X143504590Y-94133830D01*
X143585232Y-94163181D01*
X143619079Y-94175500D01*
X143619081Y-94175500D01*
X143740919Y-94175500D01*
X143740921Y-94175500D01*
X143855415Y-94133828D01*
X143948751Y-94055509D01*
X143985636Y-93991621D01*
X144036201Y-93943408D01*
X144104808Y-93930184D01*
X144169673Y-93956152D01*
X144210202Y-94013066D01*
X144212303Y-94021846D01*
X144212641Y-94021752D01*
X144214929Y-94029918D01*
X144222079Y-94046379D01*
X144228818Y-94066419D01*
X144233067Y-94083852D01*
X144243384Y-94102202D01*
X144254763Y-94122439D01*
X144257582Y-94128115D01*
X144261344Y-94136775D01*
X144275221Y-94168722D01*
X144286541Y-94182636D01*
X144298439Y-94200117D01*
X144307234Y-94215760D01*
X144307236Y-94215761D01*
X144338532Y-94247057D01*
X144342783Y-94251766D01*
X144370722Y-94286108D01*
X144385381Y-94296455D01*
X144401552Y-94310077D01*
X144467196Y-94375721D01*
X144500681Y-94437044D01*
X144495697Y-94506736D01*
X144453825Y-94562669D01*
X144432825Y-94573563D01*
X144433391Y-94574674D01*
X144424697Y-94579103D01*
X144424696Y-94579104D01*
X144311658Y-94636700D01*
X144311657Y-94636701D01*
X144311652Y-94636704D01*
X144221954Y-94726402D01*
X144221951Y-94726407D01*
X144164352Y-94839448D01*
X144164352Y-94839449D01*
X144144508Y-94964746D01*
X144144508Y-94964753D01*
X144164352Y-95090050D01*
X144164352Y-95090051D01*
X144177236Y-95115337D01*
X144221950Y-95203092D01*
X144221952Y-95203094D01*
X144221954Y-95203097D01*
X144311652Y-95292795D01*
X144311654Y-95292796D01*
X144311658Y-95292800D01*
X144424696Y-95350396D01*
X144424697Y-95350396D01*
X144424699Y-95350397D01*
X144549997Y-95370242D01*
X144550000Y-95370242D01*
X144550003Y-95370242D01*
X144675300Y-95350397D01*
X144675301Y-95350397D01*
X144675302Y-95350396D01*
X144675304Y-95350396D01*
X144788342Y-95292800D01*
X144878050Y-95203092D01*
X144935646Y-95090054D01*
X144935646Y-95090052D01*
X144940076Y-95081359D01*
X144943027Y-95082862D01*
X144972842Y-95039249D01*
X145037198Y-95012044D01*
X145106046Y-95023950D01*
X145139028Y-95047553D01*
X145934093Y-95842618D01*
X145979320Y-95891044D01*
X146017144Y-95914045D01*
X146022374Y-95917604D01*
X146057658Y-95944361D01*
X146065930Y-95947623D01*
X146074353Y-95950945D01*
X146093290Y-95960351D01*
X146108618Y-95969672D01*
X146151247Y-95981616D01*
X146157261Y-95983639D01*
X146163086Y-95985935D01*
X146198436Y-95999876D01*
X146216287Y-96001711D01*
X146237052Y-96005657D01*
X146254335Y-96010500D01*
X146298594Y-96010500D01*
X146304936Y-96010824D01*
X146332622Y-96013671D01*
X146397297Y-96040108D01*
X146437413Y-96097314D01*
X146442058Y-96158554D01*
X146424170Y-96259999D01*
X146424170Y-96260000D01*
X146445327Y-96379988D01*
X146445329Y-96379993D01*
X146506246Y-96485505D01*
X146506251Y-96485511D01*
X146532769Y-96507762D01*
X146599585Y-96563828D01*
X146599589Y-96563829D01*
X146599590Y-96563830D01*
X146656365Y-96584494D01*
X146714079Y-96605500D01*
X146714081Y-96605500D01*
X146835919Y-96605500D01*
X146835921Y-96605500D01*
X146950415Y-96563828D01*
X146990295Y-96530363D01*
X147054301Y-96502352D01*
X147123293Y-96513391D01*
X147149701Y-96530361D01*
X147189585Y-96563828D01*
X147189588Y-96563829D01*
X147189590Y-96563830D01*
X147246365Y-96584494D01*
X147304079Y-96605500D01*
X147304081Y-96605500D01*
X147425919Y-96605500D01*
X147425921Y-96605500D01*
X147540415Y-96563828D01*
X147633751Y-96485509D01*
X147694672Y-96379991D01*
X147715830Y-96260000D01*
X147715154Y-96256169D01*
X147707807Y-96214500D01*
X147697497Y-96156031D01*
X147705241Y-96086594D01*
X147749297Y-96032365D01*
X147815678Y-96010562D01*
X147819613Y-96010500D01*
X148960603Y-96010500D01*
X149026826Y-96012762D01*
X149069832Y-96002280D01*
X149076051Y-96001098D01*
X149119920Y-95995070D01*
X149136383Y-95987918D01*
X149156416Y-95981181D01*
X149173852Y-95976933D01*
X149212465Y-95955221D01*
X149218090Y-95952427D01*
X149258720Y-95934780D01*
X149272632Y-95923460D01*
X149290123Y-95911557D01*
X149305755Y-95902768D01*
X149305753Y-95902768D01*
X149305759Y-95902766D01*
X149337059Y-95871464D01*
X149341771Y-95867211D01*
X149376108Y-95839278D01*
X149386456Y-95824616D01*
X149400074Y-95808449D01*
X149871705Y-95336819D01*
X149933029Y-95303334D01*
X149959387Y-95300500D01*
X154589193Y-95300500D01*
X154655416Y-95302762D01*
X154698422Y-95292280D01*
X154704641Y-95291098D01*
X154748510Y-95285070D01*
X154764973Y-95277918D01*
X154785006Y-95271181D01*
X154802442Y-95266933D01*
X154841055Y-95245221D01*
X154846680Y-95242427D01*
X154887310Y-95224780D01*
X154901222Y-95213460D01*
X154918713Y-95201557D01*
X154934345Y-95192768D01*
X154934343Y-95192768D01*
X154934349Y-95192766D01*
X154965649Y-95161464D01*
X154970361Y-95157211D01*
X155004698Y-95129278D01*
X155015046Y-95114616D01*
X155028664Y-95098449D01*
X155347110Y-94780003D01*
X156234508Y-94780003D01*
X156254352Y-94905300D01*
X156254352Y-94905301D01*
X156256492Y-94909500D01*
X156311950Y-95018342D01*
X156311952Y-95018344D01*
X156311954Y-95018347D01*
X156401652Y-95108045D01*
X156401654Y-95108046D01*
X156401658Y-95108050D01*
X156514696Y-95165646D01*
X156514697Y-95165646D01*
X156514699Y-95165647D01*
X156639997Y-95185492D01*
X156640000Y-95185492D01*
X156640003Y-95185492D01*
X156765300Y-95165647D01*
X156765302Y-95165646D01*
X156765304Y-95165646D01*
X156813516Y-95141080D01*
X156882183Y-95128184D01*
X156946924Y-95154459D01*
X156957491Y-95163884D01*
X156971652Y-95178045D01*
X156971654Y-95178046D01*
X156971658Y-95178050D01*
X157084696Y-95235646D01*
X157084697Y-95235646D01*
X157084699Y-95235647D01*
X157209997Y-95255492D01*
X157210000Y-95255492D01*
X157210003Y-95255492D01*
X157335300Y-95235647D01*
X157335301Y-95235647D01*
X157335302Y-95235646D01*
X157335304Y-95235646D01*
X157448342Y-95178050D01*
X157538050Y-95088342D01*
X157595646Y-94975304D01*
X157595646Y-94975302D01*
X157595647Y-94975301D01*
X157595647Y-94975300D01*
X157615492Y-94850003D01*
X157615492Y-94849996D01*
X157595647Y-94724699D01*
X157595647Y-94724698D01*
X157593395Y-94720278D01*
X157538050Y-94611658D01*
X157538046Y-94611654D01*
X157538045Y-94611652D01*
X157448347Y-94521954D01*
X157448344Y-94521952D01*
X157448342Y-94521950D01*
X157335304Y-94464354D01*
X157335303Y-94464353D01*
X157335300Y-94464352D01*
X157210003Y-94444508D01*
X157209997Y-94444508D01*
X157084699Y-94464352D01*
X157084695Y-94464353D01*
X157036483Y-94488919D01*
X156967814Y-94501815D01*
X156903073Y-94475538D01*
X156892510Y-94466117D01*
X156878343Y-94451951D01*
X156878342Y-94451950D01*
X156765304Y-94394354D01*
X156765303Y-94394353D01*
X156765300Y-94394352D01*
X156640003Y-94374508D01*
X156639997Y-94374508D01*
X156514699Y-94394352D01*
X156514698Y-94394352D01*
X156461111Y-94421657D01*
X156401658Y-94451950D01*
X156401657Y-94451951D01*
X156401652Y-94451954D01*
X156311954Y-94541652D01*
X156311951Y-94541657D01*
X156311950Y-94541658D01*
X156296824Y-94571345D01*
X156254352Y-94654698D01*
X156254352Y-94654699D01*
X156234508Y-94779996D01*
X156234508Y-94780003D01*
X155347110Y-94780003D01*
X157192618Y-92934496D01*
X157241044Y-92889270D01*
X157264049Y-92851437D01*
X157267606Y-92846212D01*
X157294361Y-92810932D01*
X157300943Y-92794238D01*
X157310344Y-92775309D01*
X157319672Y-92759972D01*
X157331619Y-92717329D01*
X157333632Y-92711343D01*
X157349876Y-92670154D01*
X157350199Y-92667018D01*
X157351711Y-92652306D01*
X157355658Y-92631534D01*
X157360500Y-92614255D01*
X157360500Y-92569995D01*
X157360825Y-92563650D01*
X157361201Y-92559991D01*
X157365352Y-92519618D01*
X157362303Y-92501933D01*
X157360500Y-92480865D01*
X157360500Y-86182341D01*
X157353601Y-86132147D01*
X157345070Y-86070080D01*
X157310503Y-85990500D01*
X157284782Y-85931283D01*
X157262782Y-85904241D01*
X157189278Y-85813892D01*
X157189276Y-85813891D01*
X157189275Y-85813889D01*
X157065647Y-85726623D01*
X157065644Y-85726621D01*
X156923058Y-85675946D01*
X156772081Y-85665619D01*
X156772074Y-85665619D01*
X156623921Y-85696405D01*
X156623915Y-85696408D01*
X156489553Y-85766029D01*
X156489551Y-85766030D01*
X156489552Y-85766030D01*
X156489548Y-85766032D01*
X156378956Y-85869318D01*
X156300329Y-85998615D01*
X156300328Y-85998617D01*
X156300328Y-85998618D01*
X156266657Y-86118794D01*
X156259500Y-86144336D01*
X156259500Y-92259202D01*
X156239815Y-92326241D01*
X156223181Y-92346883D01*
X155247872Y-93322191D01*
X155186549Y-93355676D01*
X155116857Y-93350692D01*
X155060924Y-93308820D01*
X155052804Y-93296510D01*
X155044426Y-93281999D01*
X155027953Y-93214099D01*
X155044426Y-93157999D01*
X155048749Y-93150510D01*
X155048751Y-93150509D01*
X155109672Y-93044991D01*
X155130830Y-92925000D01*
X155109672Y-92805009D01*
X155057839Y-92715231D01*
X155048753Y-92699494D01*
X155048748Y-92699488D01*
X154977250Y-92639494D01*
X154955415Y-92621172D01*
X154955412Y-92621171D01*
X154955409Y-92621169D01*
X154840923Y-92579500D01*
X154840921Y-92579500D01*
X154719079Y-92579500D01*
X154719076Y-92579500D01*
X154604590Y-92621169D01*
X154604583Y-92621173D01*
X154511251Y-92699488D01*
X154511246Y-92699494D01*
X154450329Y-92805006D01*
X154450327Y-92805011D01*
X154429170Y-92924999D01*
X154429170Y-92925000D01*
X154450327Y-93044988D01*
X154450328Y-93044991D01*
X154515574Y-93158001D01*
X154532046Y-93225901D01*
X154515574Y-93281999D01*
X154450328Y-93395008D01*
X154450327Y-93395011D01*
X154429170Y-93514999D01*
X154429170Y-93515000D01*
X154450327Y-93634988D01*
X154450329Y-93634993D01*
X154511246Y-93740505D01*
X154511251Y-93740511D01*
X154580663Y-93798755D01*
X154619365Y-93856927D01*
X154620473Y-93926787D01*
X154588638Y-93981425D01*
X154406882Y-94163182D01*
X154345562Y-94196666D01*
X154319203Y-94199500D01*
X149689415Y-94199500D01*
X149676166Y-94199047D01*
X149623174Y-94197237D01*
X149623173Y-94197237D01*
X149623170Y-94197237D01*
X149580164Y-94207717D01*
X149573926Y-94208902D01*
X149530082Y-94214929D01*
X149530079Y-94214930D01*
X149513618Y-94222080D01*
X149493585Y-94228816D01*
X149476152Y-94233064D01*
X149476143Y-94233068D01*
X149437552Y-94254766D01*
X149431865Y-94257590D01*
X149391281Y-94275218D01*
X149391277Y-94275220D01*
X149377363Y-94286541D01*
X149359888Y-94298435D01*
X149344241Y-94307233D01*
X149312934Y-94338539D01*
X149308221Y-94342792D01*
X149273896Y-94370717D01*
X149273891Y-94370722D01*
X149263542Y-94385383D01*
X149249923Y-94401550D01*
X148778294Y-94873181D01*
X148716971Y-94906666D01*
X148690613Y-94909500D01*
X147631161Y-94909500D01*
X147564122Y-94889815D01*
X147518367Y-94837011D01*
X147508423Y-94767853D01*
X147508688Y-94766103D01*
X147525492Y-94660003D01*
X147525492Y-94659996D01*
X147505647Y-94534699D01*
X147505647Y-94534698D01*
X147502482Y-94528487D01*
X147448050Y-94421658D01*
X147448046Y-94421654D01*
X147448045Y-94421652D01*
X147358347Y-94331954D01*
X147358344Y-94331952D01*
X147358342Y-94331950D01*
X147245304Y-94274354D01*
X147245303Y-94274353D01*
X147245300Y-94274352D01*
X147120003Y-94254508D01*
X147119997Y-94254508D01*
X146994699Y-94274352D01*
X146994698Y-94274352D01*
X146924586Y-94310077D01*
X146881658Y-94331950D01*
X146881656Y-94331951D01*
X146881657Y-94331951D01*
X146881652Y-94331954D01*
X146791954Y-94421652D01*
X146791951Y-94421657D01*
X146791950Y-94421658D01*
X146782750Y-94439714D01*
X146734352Y-94534698D01*
X146734352Y-94534699D01*
X146714508Y-94659996D01*
X146714508Y-94660003D01*
X146731209Y-94765452D01*
X146722254Y-94834745D01*
X146677258Y-94888197D01*
X146610506Y-94908836D01*
X146543193Y-94890111D01*
X146521055Y-94872530D01*
X145667634Y-94019109D01*
X145336819Y-93688293D01*
X145303334Y-93626970D01*
X145300500Y-93600612D01*
X145300500Y-92459426D01*
X145302485Y-92401301D01*
X145302763Y-92393174D01*
X145292278Y-92350151D01*
X145291098Y-92343944D01*
X145285070Y-92300080D01*
X145277922Y-92283625D01*
X145271182Y-92263585D01*
X145266934Y-92246149D01*
X145263478Y-92240003D01*
X149904508Y-92240003D01*
X149924352Y-92365300D01*
X149924352Y-92365301D01*
X149942695Y-92401301D01*
X149981950Y-92478342D01*
X149981952Y-92478344D01*
X149981954Y-92478347D01*
X150071652Y-92568045D01*
X150071654Y-92568046D01*
X150071658Y-92568050D01*
X150184696Y-92625646D01*
X150184697Y-92625646D01*
X150184699Y-92625647D01*
X150309997Y-92645492D01*
X150310000Y-92645492D01*
X150310003Y-92645492D01*
X150435300Y-92625647D01*
X150435301Y-92625647D01*
X150435302Y-92625646D01*
X150435304Y-92625646D01*
X150548342Y-92568050D01*
X150606392Y-92510000D01*
X151349170Y-92510000D01*
X151370327Y-92629988D01*
X151370329Y-92629993D01*
X151421706Y-92718980D01*
X151438179Y-92786880D01*
X151421707Y-92842978D01*
X151400330Y-92880005D01*
X151400327Y-92880011D01*
X151379170Y-92999999D01*
X151379170Y-93000000D01*
X151400327Y-93119988D01*
X151400329Y-93119993D01*
X151461246Y-93225505D01*
X151461251Y-93225511D01*
X151484074Y-93244662D01*
X151554585Y-93303828D01*
X151554589Y-93303829D01*
X151554590Y-93303830D01*
X151667727Y-93345008D01*
X151669079Y-93345500D01*
X151669081Y-93345500D01*
X151790919Y-93345500D01*
X151790921Y-93345500D01*
X151905415Y-93303828D01*
X151998751Y-93225509D01*
X152059672Y-93119991D01*
X152080830Y-93000000D01*
X152078183Y-92984991D01*
X152071765Y-92948590D01*
X152059672Y-92880009D01*
X152008292Y-92791017D01*
X151991820Y-92723119D01*
X152008294Y-92667018D01*
X152018414Y-92649491D01*
X152029672Y-92629991D01*
X152050830Y-92510000D01*
X152029672Y-92390009D01*
X151978374Y-92301158D01*
X151968753Y-92284494D01*
X151968748Y-92284488D01*
X151880586Y-92210511D01*
X151875415Y-92206172D01*
X151875412Y-92206171D01*
X151875409Y-92206169D01*
X151760923Y-92164500D01*
X151760921Y-92164500D01*
X151639079Y-92164500D01*
X151639076Y-92164500D01*
X151524590Y-92206169D01*
X151524583Y-92206173D01*
X151431251Y-92284488D01*
X151431246Y-92284494D01*
X151370329Y-92390006D01*
X151370327Y-92390011D01*
X151349170Y-92509999D01*
X151349170Y-92510000D01*
X150606392Y-92510000D01*
X150638050Y-92478342D01*
X150695646Y-92365304D01*
X150695646Y-92365302D01*
X150695647Y-92365301D01*
X150695647Y-92365300D01*
X150715492Y-92240003D01*
X150715492Y-92239996D01*
X150695647Y-92114699D01*
X150695647Y-92114698D01*
X150690701Y-92104991D01*
X150638050Y-92001658D01*
X150638046Y-92001654D01*
X150638045Y-92001652D01*
X150548347Y-91911954D01*
X150548344Y-91911952D01*
X150548342Y-91911950D01*
X150435304Y-91854354D01*
X150435303Y-91854353D01*
X150435300Y-91854352D01*
X150310003Y-91834508D01*
X150309997Y-91834508D01*
X150184699Y-91854352D01*
X150184698Y-91854352D01*
X150109337Y-91892751D01*
X150071658Y-91911950D01*
X150071656Y-91911951D01*
X150071657Y-91911951D01*
X150071652Y-91911954D01*
X149981954Y-92001652D01*
X149981951Y-92001657D01*
X149981950Y-92001658D01*
X149975034Y-92015231D01*
X149924352Y-92114698D01*
X149924352Y-92114699D01*
X149904508Y-92239996D01*
X149904508Y-92240003D01*
X145263478Y-92240003D01*
X145245237Y-92207561D01*
X145242415Y-92201878D01*
X145224782Y-92161285D01*
X145224780Y-92161280D01*
X145213456Y-92147361D01*
X145201558Y-92129879D01*
X145201284Y-92129392D01*
X145192766Y-92114241D01*
X145161456Y-92082931D01*
X145157210Y-92078225D01*
X145139862Y-92056902D01*
X145129278Y-92043892D01*
X145114612Y-92033539D01*
X145098445Y-92019920D01*
X144789928Y-91711403D01*
X152110573Y-91711403D01*
X152131730Y-91831391D01*
X152131732Y-91831396D01*
X152192649Y-91936908D01*
X152192654Y-91936914D01*
X152220166Y-91959999D01*
X152285988Y-92015231D01*
X152285992Y-92015232D01*
X152285993Y-92015233D01*
X152381156Y-92049869D01*
X152400482Y-92056903D01*
X152400484Y-92056903D01*
X152411077Y-92056903D01*
X152478116Y-92076588D01*
X152523871Y-92129392D01*
X152533193Y-92159370D01*
X152548924Y-92248585D01*
X152548926Y-92248590D01*
X152609843Y-92354102D01*
X152609848Y-92354108D01*
X152652633Y-92390009D01*
X152703182Y-92432425D01*
X152703186Y-92432426D01*
X152703187Y-92432427D01*
X152775988Y-92458924D01*
X152817676Y-92474097D01*
X152817678Y-92474097D01*
X152939516Y-92474097D01*
X152939518Y-92474097D01*
X153054012Y-92432425D01*
X153147348Y-92354106D01*
X153208269Y-92248588D01*
X153229427Y-92128597D01*
X153226895Y-92114240D01*
X153214011Y-92041170D01*
X153208269Y-92008606D01*
X153194640Y-91985000D01*
X153939170Y-91985000D01*
X153960327Y-92104988D01*
X153960329Y-92104993D01*
X154021246Y-92210505D01*
X154021251Y-92210511D01*
X154028958Y-92216978D01*
X154114585Y-92288828D01*
X154114589Y-92288829D01*
X154114590Y-92288830D01*
X154187432Y-92315342D01*
X154229079Y-92330500D01*
X154229081Y-92330500D01*
X154350919Y-92330500D01*
X154350921Y-92330500D01*
X154465415Y-92288828D01*
X154558751Y-92210509D01*
X154619672Y-92104991D01*
X154640830Y-91985000D01*
X154619672Y-91865009D01*
X154558751Y-91759491D01*
X154558750Y-91759490D01*
X154554426Y-91752000D01*
X154537953Y-91684100D01*
X154554426Y-91628000D01*
X154564523Y-91610511D01*
X154619672Y-91514991D01*
X154640830Y-91395000D01*
X154619672Y-91275009D01*
X154558751Y-91169491D01*
X154558749Y-91169489D01*
X154558748Y-91169488D01*
X154465416Y-91091173D01*
X154465415Y-91091172D01*
X154465412Y-91091171D01*
X154465409Y-91091169D01*
X154350923Y-91049500D01*
X154350921Y-91049500D01*
X154229079Y-91049500D01*
X154229076Y-91049500D01*
X154114590Y-91091169D01*
X154114583Y-91091173D01*
X154021251Y-91169488D01*
X154021246Y-91169494D01*
X153960329Y-91275006D01*
X153960327Y-91275011D01*
X153939170Y-91394999D01*
X153939170Y-91395000D01*
X153960327Y-91514988D01*
X153960328Y-91514991D01*
X154025574Y-91628001D01*
X154042046Y-91695901D01*
X154025574Y-91751999D01*
X153960328Y-91865008D01*
X153960327Y-91865011D01*
X153939170Y-91984999D01*
X153939170Y-91985000D01*
X153194640Y-91985000D01*
X153171838Y-91945505D01*
X153147350Y-91903091D01*
X153147345Y-91903085D01*
X153077345Y-91844348D01*
X153054012Y-91824769D01*
X153054009Y-91824768D01*
X153054006Y-91824766D01*
X152939520Y-91783097D01*
X152939518Y-91783097D01*
X152928923Y-91783097D01*
X152861884Y-91763412D01*
X152816129Y-91710608D01*
X152806807Y-91680630D01*
X152797527Y-91628001D01*
X152791075Y-91591412D01*
X152746953Y-91514991D01*
X152730156Y-91485897D01*
X152730151Y-91485891D01*
X152647985Y-91416945D01*
X152636818Y-91407575D01*
X152636815Y-91407574D01*
X152636812Y-91407572D01*
X152522326Y-91365903D01*
X152522324Y-91365903D01*
X152400482Y-91365903D01*
X152400479Y-91365903D01*
X152285993Y-91407572D01*
X152285986Y-91407576D01*
X152192654Y-91485891D01*
X152192649Y-91485897D01*
X152131732Y-91591409D01*
X152131730Y-91591414D01*
X152110573Y-91711402D01*
X152110573Y-91711403D01*
X144789928Y-91711403D01*
X143985102Y-90906577D01*
X143980845Y-90901860D01*
X143909277Y-90813890D01*
X143785647Y-90726623D01*
X143785646Y-90726622D01*
X143667358Y-90684582D01*
X143610782Y-90643583D01*
X143585352Y-90578506D01*
X143586411Y-90548343D01*
X143587886Y-90539035D01*
X143594570Y-90496831D01*
X143594570Y-90496827D01*
X143574725Y-90371530D01*
X143574725Y-90371529D01*
X143573763Y-90369641D01*
X143517128Y-90258489D01*
X143517124Y-90258485D01*
X143517123Y-90258483D01*
X143427425Y-90168785D01*
X143427422Y-90168783D01*
X143427420Y-90168781D01*
X143314382Y-90111185D01*
X143314381Y-90111184D01*
X143314378Y-90111183D01*
X143189081Y-90091339D01*
X143189075Y-90091339D01*
X143063777Y-90111183D01*
X143063776Y-90111183D01*
X142988415Y-90149582D01*
X142950736Y-90168781D01*
X142950735Y-90168781D01*
X142950735Y-90168782D01*
X142950730Y-90168785D01*
X142861032Y-90258483D01*
X142861029Y-90258488D01*
X142861028Y-90258489D01*
X142841829Y-90296168D01*
X142803430Y-90371529D01*
X142803430Y-90371530D01*
X142786900Y-90475900D01*
X142756971Y-90539035D01*
X142752108Y-90544183D01*
X142393010Y-90903281D01*
X142374222Y-90918700D01*
X142361377Y-90927283D01*
X142348144Y-90947087D01*
X142346007Y-90950285D01*
X142346006Y-90950287D01*
X142329092Y-90975601D01*
X142321965Y-90986266D01*
X142300484Y-91018414D01*
X142290725Y-91067483D01*
X142279103Y-91125908D01*
X142282117Y-91141060D01*
X142284500Y-91165253D01*
X142284500Y-91735696D01*
X142264815Y-91802735D01*
X142212011Y-91848490D01*
X142142853Y-91858434D01*
X142080795Y-91830686D01*
X142075416Y-91826173D01*
X142075415Y-91826172D01*
X142075412Y-91826171D01*
X142075409Y-91826169D01*
X141960923Y-91784500D01*
X141960921Y-91784500D01*
X141903072Y-91784500D01*
X141836033Y-91764815D01*
X141790278Y-91712011D01*
X141780334Y-91642853D01*
X141795685Y-91598501D01*
X141849669Y-91504996D01*
X141849668Y-91504996D01*
X141849672Y-91504991D01*
X141870830Y-91385000D01*
X141869948Y-91380000D01*
X141863434Y-91343055D01*
X141849672Y-91265009D01*
X141788751Y-91159491D01*
X141788750Y-91159490D01*
X141784426Y-91152000D01*
X141767953Y-91084100D01*
X141784426Y-91028000D01*
X141788751Y-91020509D01*
X141849672Y-90914991D01*
X141870830Y-90795000D01*
X141849672Y-90675009D01*
X141808706Y-90604054D01*
X141788753Y-90569494D01*
X141788752Y-90569493D01*
X141788751Y-90569491D01*
X141713129Y-90506036D01*
X141674429Y-90447865D01*
X141673321Y-90378004D01*
X141705154Y-90323369D01*
X142649292Y-89379230D01*
X142710613Y-89345747D01*
X142780304Y-89350731D01*
X142836238Y-89392603D01*
X142844354Y-89404907D01*
X142856249Y-89425509D01*
X142949585Y-89503828D01*
X142949589Y-89503829D01*
X142949590Y-89503830D01*
X142950722Y-89504242D01*
X143064079Y-89545500D01*
X143064081Y-89545500D01*
X143185919Y-89545500D01*
X143185921Y-89545500D01*
X143300415Y-89503828D01*
X143322795Y-89485048D01*
X143386800Y-89457036D01*
X143455792Y-89468074D01*
X143482201Y-89485045D01*
X143504585Y-89503828D01*
X143504588Y-89503829D01*
X143504590Y-89503830D01*
X143505722Y-89504242D01*
X143619079Y-89545500D01*
X143619081Y-89545500D01*
X143740919Y-89545500D01*
X143740921Y-89545500D01*
X143855415Y-89503828D01*
X143948751Y-89425509D01*
X144009672Y-89319991D01*
X144030830Y-89200000D01*
X144013846Y-89103683D01*
X144021589Y-89034248D01*
X144065645Y-88980018D01*
X144119076Y-88959308D01*
X144149920Y-88955070D01*
X144166383Y-88947918D01*
X144186416Y-88941181D01*
X144203852Y-88936933D01*
X144242465Y-88915221D01*
X144248090Y-88912427D01*
X144288720Y-88894780D01*
X144302632Y-88883460D01*
X144320123Y-88871557D01*
X144335759Y-88862766D01*
X144367059Y-88831464D01*
X144371771Y-88827211D01*
X144406108Y-88799278D01*
X144416456Y-88784616D01*
X144430074Y-88768449D01*
X145602839Y-87595684D01*
X145664160Y-87562201D01*
X145733852Y-87567185D01*
X145789785Y-87609057D01*
X145807039Y-87640955D01*
X145810327Y-87649989D01*
X145871246Y-87755505D01*
X145871251Y-87755511D01*
X145899685Y-87779370D01*
X145964585Y-87833828D01*
X145964589Y-87833829D01*
X145964590Y-87833830D01*
X146027579Y-87856756D01*
X146083844Y-87898181D01*
X146107205Y-87959330D01*
X146107286Y-87959316D01*
X146107359Y-87959731D01*
X146108780Y-87963450D01*
X146109002Y-87969048D01*
X146130327Y-88089988D01*
X146130329Y-88089993D01*
X146191246Y-88195505D01*
X146191248Y-88195507D01*
X146191249Y-88195509D01*
X146284585Y-88273828D01*
X146399079Y-88315500D01*
X146399081Y-88315500D01*
X146520919Y-88315500D01*
X146520921Y-88315500D01*
X146635415Y-88273828D01*
X146728751Y-88195509D01*
X146789672Y-88089991D01*
X146810830Y-87970000D01*
X146789672Y-87850009D01*
X146751879Y-87784549D01*
X146728753Y-87744494D01*
X146728748Y-87744488D01*
X146652940Y-87680877D01*
X146635415Y-87666172D01*
X146635414Y-87666171D01*
X146635412Y-87666170D01*
X146572419Y-87643243D01*
X146516156Y-87601817D01*
X146492794Y-87540669D01*
X146492714Y-87540684D01*
X146492640Y-87540265D01*
X146491220Y-87536548D01*
X146490997Y-87530951D01*
X146490829Y-87530001D01*
X146490830Y-87530000D01*
X146469672Y-87410009D01*
X146413060Y-87311954D01*
X146408753Y-87304494D01*
X146408748Y-87304488D01*
X146315416Y-87226173D01*
X146315415Y-87226172D01*
X146315413Y-87226171D01*
X146315410Y-87226169D01*
X146202038Y-87184906D01*
X146145774Y-87143480D01*
X146120838Y-87078211D01*
X146128882Y-87029971D01*
X146127383Y-87029551D01*
X146131701Y-87014140D01*
X146141619Y-86978739D01*
X146143632Y-86972753D01*
X146159876Y-86931564D01*
X146160194Y-86928477D01*
X146161711Y-86913716D01*
X146165657Y-86892949D01*
X146167954Y-86884749D01*
X146204990Y-86825506D01*
X146268178Y-86795689D01*
X146337455Y-86804768D01*
X146349359Y-86810811D01*
X146354587Y-86813829D01*
X146469076Y-86855499D01*
X146469079Y-86855500D01*
X146469081Y-86855500D01*
X146590919Y-86855500D01*
X146590921Y-86855500D01*
X146705415Y-86813828D01*
X146798751Y-86735509D01*
X146813387Y-86710157D01*
X146863950Y-86661945D01*
X146932557Y-86648720D01*
X146997423Y-86674687D01*
X147028160Y-86710159D01*
X147031246Y-86715505D01*
X147031251Y-86715511D01*
X147063876Y-86742887D01*
X147124585Y-86793828D01*
X147124589Y-86793829D01*
X147124590Y-86793830D01*
X147239667Y-86835714D01*
X147284939Y-86864555D01*
X147588031Y-87167647D01*
X147621516Y-87228970D01*
X147616532Y-87298662D01*
X147580059Y-87350315D01*
X147551251Y-87374489D01*
X147551246Y-87374494D01*
X147490329Y-87480006D01*
X147490327Y-87480011D01*
X147469170Y-87599999D01*
X147469170Y-87600000D01*
X147490327Y-87719988D01*
X147490329Y-87719993D01*
X147551246Y-87825505D01*
X147551251Y-87825511D01*
X147575551Y-87845901D01*
X147644585Y-87903828D01*
X147644589Y-87903829D01*
X147644590Y-87903830D01*
X147759076Y-87945499D01*
X147759079Y-87945500D01*
X147759081Y-87945500D01*
X147880919Y-87945500D01*
X147880921Y-87945500D01*
X147976963Y-87910543D01*
X148046688Y-87906113D01*
X148099076Y-87932077D01*
X148184585Y-88003828D01*
X148184589Y-88003829D01*
X148184590Y-88003830D01*
X148299076Y-88045499D01*
X148299079Y-88045500D01*
X148299081Y-88045500D01*
X148420919Y-88045500D01*
X148420921Y-88045500D01*
X148535415Y-88003828D01*
X148628751Y-87925509D01*
X148689655Y-87820019D01*
X148740222Y-87771805D01*
X148808829Y-87758581D01*
X148873694Y-87784549D01*
X148884723Y-87794339D01*
X151157370Y-90066986D01*
X151172791Y-90085776D01*
X151181375Y-90098624D01*
X151183435Y-90100000D01*
X151201525Y-90112087D01*
X151201551Y-90112106D01*
X151272504Y-90159515D01*
X151272506Y-90159516D01*
X151380000Y-90180897D01*
X151390546Y-90178799D01*
X151395160Y-90177882D01*
X151419348Y-90175500D01*
X151448648Y-90175500D01*
X151515687Y-90195185D01*
X151561442Y-90247989D01*
X151562382Y-90250098D01*
X151605217Y-90348715D01*
X151605218Y-90348717D01*
X151605220Y-90348720D01*
X151700722Y-90466108D01*
X151700724Y-90466110D01*
X151824352Y-90553376D01*
X151824355Y-90553378D01*
X151909375Y-90583594D01*
X151966944Y-90604054D01*
X152117921Y-90614381D01*
X152167622Y-90604053D01*
X152266078Y-90583594D01*
X152266079Y-90583593D01*
X152266085Y-90583592D01*
X152400447Y-90513971D01*
X152511044Y-90410680D01*
X152589672Y-90281382D01*
X152593572Y-90267458D01*
X152625292Y-90213231D01*
X155652603Y-87185920D01*
X155701044Y-87140680D01*
X155724041Y-87102861D01*
X155727613Y-87097611D01*
X155754361Y-87062342D01*
X155760945Y-87045643D01*
X155770344Y-87026719D01*
X155779672Y-87011382D01*
X155791619Y-86968739D01*
X155793632Y-86962753D01*
X155809876Y-86921564D01*
X155811711Y-86903716D01*
X155815658Y-86882944D01*
X155820500Y-86865665D01*
X155820500Y-86821406D01*
X155820825Y-86815061D01*
X155821858Y-86805011D01*
X155825352Y-86771029D01*
X155822303Y-86753344D01*
X155820500Y-86732276D01*
X155820500Y-82115506D01*
X155840185Y-82048467D01*
X155843933Y-82043102D01*
X155844358Y-82042345D01*
X155844361Y-82042342D01*
X155844362Y-82042338D01*
X155848522Y-82034942D01*
X155848953Y-82035184D01*
X155849910Y-82033411D01*
X155849471Y-82033184D01*
X155853373Y-82025652D01*
X155853377Y-82025647D01*
X155875575Y-81963186D01*
X155899876Y-81901564D01*
X155899876Y-81901556D01*
X155901884Y-81893322D01*
X155902365Y-81893439D01*
X155902810Y-81891466D01*
X155902327Y-81891366D01*
X155904054Y-81883056D01*
X155908577Y-81816923D01*
X155909290Y-81809990D01*
X155915352Y-81751028D01*
X155915350Y-81751020D01*
X155915062Y-81742549D01*
X155915557Y-81742532D01*
X155915453Y-81740507D01*
X155914960Y-81740541D01*
X155914382Y-81732082D01*
X155900897Y-81667196D01*
X155889640Y-81601902D01*
X155889640Y-81601900D01*
X155889638Y-81601895D01*
X155887073Y-81593812D01*
X155887541Y-81593663D01*
X155886896Y-81591744D01*
X155886433Y-81591909D01*
X155883593Y-81583921D01*
X155883592Y-81583915D01*
X155853106Y-81525080D01*
X155824647Y-81465239D01*
X155819995Y-81458147D01*
X155820405Y-81457877D01*
X155819265Y-81456203D01*
X155818865Y-81456487D01*
X155813974Y-81449559D01*
X155813971Y-81449553D01*
X155768748Y-81401132D01*
X155725192Y-81351179D01*
X155725188Y-81351176D01*
X155718798Y-81345603D01*
X155719120Y-81345233D01*
X155717572Y-81343928D01*
X155717262Y-81344310D01*
X155710682Y-81338957D01*
X155654070Y-81304531D01*
X155639874Y-81295220D01*
X155598653Y-81268183D01*
X155598651Y-81268182D01*
X155598649Y-81268181D01*
X155590995Y-81264541D01*
X155591204Y-81264099D01*
X155589354Y-81263258D01*
X155589160Y-81263707D01*
X155581382Y-81260328D01*
X155517581Y-81242451D01*
X155454415Y-81222403D01*
X155446060Y-81220963D01*
X155446143Y-81220480D01*
X155444129Y-81220168D01*
X155444063Y-81220654D01*
X155435666Y-81219500D01*
X155435665Y-81219500D01*
X155369397Y-81219500D01*
X155303174Y-81217238D01*
X155294737Y-81218106D01*
X155294686Y-81217616D01*
X155279002Y-81219500D01*
X154872341Y-81219500D01*
X154760082Y-81234929D01*
X154760080Y-81234930D01*
X154633724Y-81289815D01*
X154613501Y-81298599D01*
X154612247Y-81295714D01*
X154563055Y-81309500D01*
X148161240Y-81309500D01*
X148094201Y-81289815D01*
X148048446Y-81237011D01*
X148038502Y-81167853D01*
X148038767Y-81166103D01*
X148055492Y-81060503D01*
X148055492Y-81060496D01*
X148035647Y-80935199D01*
X148035647Y-80935198D01*
X148017365Y-80899318D01*
X147978050Y-80822158D01*
X147978046Y-80822154D01*
X147978045Y-80822152D01*
X147888347Y-80732454D01*
X147888344Y-80732452D01*
X147888342Y-80732450D01*
X147775304Y-80674854D01*
X147775303Y-80674853D01*
X147775300Y-80674852D01*
X147650003Y-80655008D01*
X147649997Y-80655008D01*
X147524699Y-80674852D01*
X147524698Y-80674852D01*
X147449337Y-80713251D01*
X147411658Y-80732450D01*
X147411656Y-80732451D01*
X147411657Y-80732451D01*
X147411652Y-80732454D01*
X147321954Y-80822152D01*
X147321951Y-80822157D01*
X147321950Y-80822158D01*
X147310876Y-80843892D01*
X147264352Y-80935198D01*
X147264352Y-80935199D01*
X147244508Y-81060496D01*
X147244508Y-81060503D01*
X147261233Y-81166103D01*
X147252278Y-81235396D01*
X147207282Y-81288848D01*
X147140530Y-81309487D01*
X147138760Y-81309500D01*
X128721977Y-81309500D01*
X128654938Y-81289815D01*
X128609183Y-81237011D01*
X128599132Y-81202385D01*
X128585070Y-81100082D01*
X128585070Y-81100080D01*
X128554028Y-81028615D01*
X128524782Y-80961283D01*
X128524780Y-80961280D01*
X128429278Y-80843892D01*
X128429276Y-80843891D01*
X128429275Y-80843889D01*
X128305647Y-80756623D01*
X128305644Y-80756621D01*
X128163058Y-80705946D01*
X128012081Y-80695619D01*
X128012074Y-80695619D01*
X127863921Y-80726405D01*
X127863915Y-80726408D01*
X127729553Y-80796029D01*
X127729551Y-80796030D01*
X127729552Y-80796030D01*
X127729548Y-80796032D01*
X127618956Y-80899318D01*
X127540329Y-81028615D01*
X127540328Y-81028617D01*
X127540328Y-81028618D01*
X127501807Y-81166103D01*
X127499500Y-81174336D01*
X127499500Y-81370536D01*
X127486807Y-81419014D01*
X127488747Y-81419780D01*
X127483312Y-81433557D01*
X127471656Y-81456050D01*
X127468184Y-81461343D01*
X127468183Y-81461345D01*
X127451621Y-81513526D01*
X127450204Y-81517514D01*
X127430123Y-81568436D01*
X127429476Y-81574730D01*
X127424320Y-81599546D01*
X127422404Y-81605583D01*
X127420534Y-81660294D01*
X127420245Y-81664517D01*
X127414648Y-81718966D01*
X127414648Y-81718977D01*
X127415724Y-81725218D01*
X127417453Y-81750494D01*
X127417237Y-81756823D01*
X127417237Y-81756824D01*
X127430194Y-81809990D01*
X127431055Y-81814135D01*
X127440359Y-81868100D01*
X127443078Y-81873816D01*
X127451568Y-81897705D01*
X127453065Y-81903850D01*
X127479892Y-81951560D01*
X127481840Y-81955321D01*
X127505352Y-82004761D01*
X127509509Y-82009528D01*
X127524131Y-82030243D01*
X127527231Y-82035755D01*
X127527231Y-82035756D01*
X127565928Y-82074453D01*
X127568819Y-82077548D01*
X127604804Y-82118818D01*
X127604807Y-82118820D01*
X127604808Y-82118821D01*
X127610095Y-82122289D01*
X127629765Y-82138290D01*
X127681925Y-82190450D01*
X127734080Y-82242606D01*
X127779317Y-82291042D01*
X127817140Y-82314042D01*
X127822379Y-82317607D01*
X127857658Y-82344361D01*
X127874353Y-82350944D01*
X127893290Y-82360351D01*
X127908618Y-82369672D01*
X127951247Y-82381616D01*
X127957263Y-82383639D01*
X127998436Y-82399876D01*
X128016287Y-82401711D01*
X128037052Y-82405657D01*
X128054335Y-82410500D01*
X128098594Y-82410500D01*
X128104935Y-82410824D01*
X128148972Y-82415352D01*
X128166655Y-82412303D01*
X128187724Y-82410500D01*
X142911155Y-82410500D01*
X142978194Y-82430185D01*
X143023949Y-82482989D01*
X143033893Y-82552147D01*
X143018542Y-82596500D01*
X142970329Y-82680006D01*
X142970327Y-82680011D01*
X142949170Y-82799999D01*
X142949170Y-82800000D01*
X142970327Y-82919988D01*
X142970329Y-82919993D01*
X142997272Y-82966659D01*
X143013745Y-83034559D01*
X142997273Y-83090658D01*
X142980329Y-83120005D01*
X142980328Y-83120009D01*
X142959170Y-83239999D01*
X142959170Y-83240001D01*
X142967804Y-83288968D01*
X142960060Y-83358407D01*
X142916003Y-83412636D01*
X142849622Y-83434438D01*
X142845688Y-83434500D01*
X142832965Y-83434500D01*
X142765926Y-83414815D01*
X142745284Y-83398181D01*
X142388908Y-83041805D01*
X142384271Y-83036617D01*
X142378749Y-83029693D01*
X142359879Y-83006030D01*
X142359012Y-83005439D01*
X142310728Y-82972519D01*
X142262882Y-82937207D01*
X142255297Y-82933198D01*
X142247677Y-82929529D01*
X142216745Y-82919988D01*
X142190822Y-82911992D01*
X142170154Y-82904760D01*
X142134695Y-82892352D01*
X142126326Y-82890768D01*
X142117904Y-82889500D01*
X142117902Y-82889500D01*
X142058426Y-82889500D01*
X141998990Y-82887275D01*
X141989756Y-82888316D01*
X141989662Y-82887486D01*
X141974364Y-82889500D01*
X136783930Y-82889500D01*
X136716891Y-82869815D01*
X136716003Y-82869239D01*
X136668653Y-82838183D01*
X136596534Y-82815293D01*
X136524417Y-82792404D01*
X136499209Y-82791543D01*
X136373174Y-82787238D01*
X136373173Y-82787238D01*
X136373169Y-82787238D01*
X136226150Y-82823066D01*
X136226145Y-82823068D01*
X136094242Y-82897232D01*
X136094241Y-82897233D01*
X136071487Y-82919988D01*
X136018292Y-82973182D01*
X135956972Y-83006666D01*
X135930613Y-83009500D01*
X132999397Y-83009500D01*
X132933174Y-83007238D01*
X132933173Y-83007238D01*
X132933171Y-83007238D01*
X132890170Y-83017717D01*
X132883930Y-83018902D01*
X132840079Y-83024930D01*
X132823616Y-83032081D01*
X132803575Y-83038820D01*
X132786150Y-83043066D01*
X132786143Y-83043069D01*
X132747566Y-83064759D01*
X132741879Y-83067584D01*
X132701279Y-83085220D01*
X132701276Y-83085221D01*
X132687356Y-83096546D01*
X132669886Y-83108436D01*
X132654241Y-83117233D01*
X132654240Y-83117234D01*
X132622934Y-83148539D01*
X132618221Y-83152792D01*
X132583896Y-83180717D01*
X132583891Y-83180722D01*
X132573542Y-83195383D01*
X132559923Y-83211550D01*
X132374239Y-83397235D01*
X132349120Y-83422352D01*
X132343021Y-83427701D01*
X132317379Y-83447379D01*
X132297716Y-83473002D01*
X132292401Y-83479066D01*
X132288525Y-83482948D01*
X132287387Y-83484086D01*
X132238957Y-83529317D01*
X132215956Y-83567139D01*
X132212384Y-83572388D01*
X132185639Y-83607658D01*
X132185636Y-83607663D01*
X132179055Y-83624352D01*
X132169653Y-83643283D01*
X132160327Y-83658619D01*
X132148385Y-83701237D01*
X132146362Y-83707255D01*
X132130122Y-83748440D01*
X132128288Y-83766284D01*
X132124342Y-83787048D01*
X132119501Y-83804328D01*
X132119500Y-83804337D01*
X132119500Y-83848593D01*
X132119175Y-83854938D01*
X132114648Y-83898968D01*
X132114648Y-83898975D01*
X132117697Y-83916661D01*
X132119499Y-83937723D01*
X132119500Y-84384335D01*
X132119500Y-84419852D01*
X132118969Y-84427954D01*
X132114750Y-84459999D01*
X132114750Y-84460000D01*
X132118969Y-84492045D01*
X132119500Y-84500146D01*
X132119500Y-85245500D01*
X132099815Y-85312539D01*
X132047011Y-85358294D01*
X131995500Y-85369500D01*
X129856216Y-85369500D01*
X129789177Y-85349815D01*
X129743422Y-85297011D01*
X129733478Y-85227853D01*
X129734153Y-85224949D01*
X129734120Y-85224944D01*
X129755492Y-85090003D01*
X129755492Y-85089996D01*
X129735647Y-84964699D01*
X129735647Y-84964698D01*
X129718221Y-84930498D01*
X129678050Y-84851658D01*
X129678046Y-84851654D01*
X129678045Y-84851652D01*
X129588347Y-84761954D01*
X129588344Y-84761952D01*
X129588342Y-84761950D01*
X129475304Y-84704354D01*
X129475303Y-84704353D01*
X129475300Y-84704352D01*
X129350003Y-84684508D01*
X129349997Y-84684508D01*
X129224699Y-84704352D01*
X129224698Y-84704352D01*
X129156154Y-84739278D01*
X129111658Y-84761950D01*
X129111656Y-84761951D01*
X129111657Y-84761951D01*
X129111652Y-84761954D01*
X129021954Y-84851652D01*
X129021951Y-84851657D01*
X129021950Y-84851658D01*
X129005141Y-84884648D01*
X128964352Y-84964698D01*
X128964352Y-84964699D01*
X128944508Y-85089996D01*
X128944508Y-85090003D01*
X128965880Y-85224944D01*
X128962233Y-85225521D01*
X128963720Y-85276984D01*
X128927659Y-85336829D01*
X128864969Y-85367677D01*
X128843784Y-85369500D01*
X126969387Y-85369500D01*
X126902348Y-85349815D01*
X126881706Y-85333181D01*
X125898192Y-84349667D01*
X125864707Y-84288344D01*
X125863028Y-84278869D01*
X125861063Y-84264574D01*
X125857928Y-84241760D01*
X125826886Y-84170295D01*
X125797640Y-84102963D01*
X125797086Y-84102282D01*
X125702136Y-83985572D01*
X125702134Y-83985571D01*
X125702133Y-83985569D01*
X125578505Y-83898303D01*
X125578502Y-83898301D01*
X125435916Y-83847626D01*
X125284939Y-83837299D01*
X125284932Y-83837299D01*
X125136779Y-83868085D01*
X125136773Y-83868088D01*
X125002411Y-83937709D01*
X125002409Y-83937710D01*
X125002410Y-83937710D01*
X125002406Y-83937712D01*
X124891814Y-84040998D01*
X124813187Y-84170295D01*
X124813186Y-84170297D01*
X124813186Y-84170298D01*
X124773201Y-84313009D01*
X124772358Y-84316016D01*
X124772358Y-84543460D01*
X124770096Y-84609687D01*
X121850500Y-84609687D01*
X121850500Y-83130003D01*
X124399508Y-83130003D01*
X124419352Y-83255300D01*
X124419352Y-83255301D01*
X124419354Y-83255304D01*
X124476950Y-83368342D01*
X124476952Y-83368344D01*
X124476954Y-83368347D01*
X124566652Y-83458045D01*
X124566654Y-83458046D01*
X124566658Y-83458050D01*
X124679696Y-83515646D01*
X124679697Y-83515646D01*
X124679699Y-83515647D01*
X124804997Y-83535492D01*
X124805000Y-83535492D01*
X124805003Y-83535492D01*
X124930300Y-83515647D01*
X124930301Y-83515647D01*
X124930302Y-83515646D01*
X124930304Y-83515646D01*
X125043342Y-83458050D01*
X125133050Y-83368342D01*
X125190646Y-83255304D01*
X125202028Y-83183439D01*
X125231956Y-83120307D01*
X125291268Y-83083375D01*
X125361130Y-83084373D01*
X125419363Y-83122982D01*
X125434985Y-83146542D01*
X125491950Y-83258342D01*
X125491952Y-83258344D01*
X125491954Y-83258347D01*
X125581652Y-83348045D01*
X125581654Y-83348046D01*
X125581658Y-83348050D01*
X125694696Y-83405646D01*
X125694697Y-83405646D01*
X125694699Y-83405647D01*
X125819997Y-83425492D01*
X125820000Y-83425492D01*
X125820003Y-83425492D01*
X125945300Y-83405647D01*
X125945301Y-83405647D01*
X125945302Y-83405646D01*
X125945304Y-83405646D01*
X126058342Y-83348050D01*
X126148050Y-83258342D01*
X126205646Y-83145304D01*
X126205646Y-83145302D01*
X126205647Y-83145301D01*
X126205647Y-83145300D01*
X126225492Y-83020003D01*
X126225492Y-83019996D01*
X126205647Y-82894699D01*
X126205647Y-82894698D01*
X126204098Y-82891658D01*
X126148050Y-82781658D01*
X126148046Y-82781654D01*
X126148045Y-82781652D01*
X126058347Y-82691954D01*
X126058344Y-82691952D01*
X126058342Y-82691950D01*
X125945304Y-82634354D01*
X125945303Y-82634353D01*
X125945300Y-82634352D01*
X125820003Y-82614508D01*
X125819997Y-82614508D01*
X125694699Y-82634352D01*
X125694698Y-82634352D01*
X125619337Y-82672751D01*
X125581658Y-82691950D01*
X125581656Y-82691951D01*
X125581657Y-82691951D01*
X125581652Y-82691954D01*
X125491954Y-82781652D01*
X125491951Y-82781657D01*
X125491950Y-82781658D01*
X125463149Y-82838183D01*
X125434353Y-82894698D01*
X125422971Y-82966559D01*
X125393041Y-83029693D01*
X125333730Y-83066624D01*
X125263867Y-83065626D01*
X125205635Y-83027016D01*
X125190015Y-83003459D01*
X125133050Y-82891658D01*
X125133046Y-82891654D01*
X125133045Y-82891652D01*
X125043347Y-82801954D01*
X125043344Y-82801952D01*
X125043342Y-82801950D01*
X124930304Y-82744354D01*
X124930303Y-82744353D01*
X124930300Y-82744352D01*
X124805003Y-82724508D01*
X124804997Y-82724508D01*
X124679699Y-82744352D01*
X124679698Y-82744352D01*
X124606495Y-82781652D01*
X124566658Y-82801950D01*
X124566657Y-82801951D01*
X124566652Y-82801954D01*
X124476954Y-82891652D01*
X124476951Y-82891657D01*
X124476950Y-82891658D01*
X124474109Y-82897234D01*
X124419352Y-83004698D01*
X124419352Y-83004699D01*
X124399508Y-83129996D01*
X124399508Y-83130003D01*
X121850500Y-83130003D01*
X121850500Y-80419500D01*
X121870185Y-80352461D01*
X121922989Y-80306706D01*
X121974500Y-80295500D01*
X159485500Y-80295500D01*
X159552539Y-80315185D01*
G37*
%TD.AperFunction*%
%TD*%
%TA.AperFunction,Conductor*%
%TO.N,/5V*%
G36*
X132963039Y-88159685D02*
G01*
X133008794Y-88212489D01*
X133020000Y-88264000D01*
X133020000Y-93209097D01*
X133000315Y-93276136D01*
X132947511Y-93321891D01*
X132910927Y-93329849D01*
X132911168Y-93331213D01*
X132900479Y-93333097D01*
X132785993Y-93374766D01*
X132785986Y-93374770D01*
X132692654Y-93453085D01*
X132692649Y-93453091D01*
X132631732Y-93558603D01*
X132631730Y-93558608D01*
X132610573Y-93678596D01*
X132610572Y-93678598D01*
X132629467Y-93785753D01*
X132621723Y-93855192D01*
X132595032Y-93894966D01*
X132196319Y-94293681D01*
X132134996Y-94327166D01*
X132108638Y-94330000D01*
X130591927Y-94330000D01*
X130524888Y-94310315D01*
X130479133Y-94257511D01*
X130469189Y-94188353D01*
X130470390Y-94180000D01*
X130450931Y-94044658D01*
X130422510Y-93982425D01*
X130394132Y-93920285D01*
X130394130Y-93920283D01*
X130394130Y-93920282D01*
X130342935Y-93861199D01*
X130313912Y-93797648D01*
X130323855Y-93728489D01*
X130342933Y-93698802D01*
X130394130Y-93639718D01*
X130450577Y-93516116D01*
X130496331Y-93463313D01*
X130563371Y-93443628D01*
X130598305Y-93448651D01*
X130621630Y-93455499D01*
X130621632Y-93455500D01*
X130621633Y-93455500D01*
X130758367Y-93455500D01*
X130889561Y-93416978D01*
X131004589Y-93343055D01*
X131094130Y-93239718D01*
X131150931Y-93115342D01*
X131170390Y-92980000D01*
X131158832Y-92899613D01*
X131168775Y-92830457D01*
X131214530Y-92777653D01*
X131281570Y-92757968D01*
X131323979Y-92765446D01*
X131357519Y-92777653D01*
X131379079Y-92785500D01*
X131379081Y-92785500D01*
X131500919Y-92785500D01*
X131500921Y-92785500D01*
X131615415Y-92743828D01*
X131708751Y-92665509D01*
X131769672Y-92559991D01*
X131790830Y-92440000D01*
X131769672Y-92320009D01*
X131708751Y-92214491D01*
X131708749Y-92214489D01*
X131708748Y-92214488D01*
X131655648Y-92169932D01*
X131616946Y-92111761D01*
X131615838Y-92041900D01*
X131627969Y-92012940D01*
X131629672Y-92009991D01*
X131650830Y-91890000D01*
X131629672Y-91770009D01*
X131591850Y-91704500D01*
X131568753Y-91664494D01*
X131568748Y-91664488D01*
X131475416Y-91586173D01*
X131475415Y-91586172D01*
X131475412Y-91586171D01*
X131475409Y-91586169D01*
X131360923Y-91544500D01*
X131360921Y-91544500D01*
X131239079Y-91544500D01*
X131239076Y-91544500D01*
X131124590Y-91586169D01*
X131124583Y-91586173D01*
X131031251Y-91664488D01*
X131031246Y-91664494D01*
X131020699Y-91682763D01*
X130970131Y-91730978D01*
X130901524Y-91744199D01*
X130878378Y-91739738D01*
X130758368Y-91704500D01*
X130758367Y-91704500D01*
X130621633Y-91704500D01*
X130621629Y-91704500D01*
X130598302Y-91711349D01*
X130528432Y-91711347D01*
X130469655Y-91673571D01*
X130450577Y-91643883D01*
X130394130Y-91520282D01*
X130342935Y-91461199D01*
X130313912Y-91397648D01*
X130323855Y-91328489D01*
X130342933Y-91298802D01*
X130394130Y-91239718D01*
X130450931Y-91115342D01*
X130470390Y-90980000D01*
X130450931Y-90844658D01*
X130438677Y-90817827D01*
X130394132Y-90720285D01*
X130394130Y-90720283D01*
X130394130Y-90720282D01*
X130342935Y-90661199D01*
X130313912Y-90597648D01*
X130323855Y-90528489D01*
X130342933Y-90498802D01*
X130394130Y-90439718D01*
X130450577Y-90316116D01*
X130496331Y-90263313D01*
X130563371Y-90243628D01*
X130598305Y-90248651D01*
X130621630Y-90255499D01*
X130621632Y-90255500D01*
X130621633Y-90255500D01*
X130758367Y-90255500D01*
X130889561Y-90216978D01*
X131004589Y-90143055D01*
X131094130Y-90039718D01*
X131150931Y-89915342D01*
X131170390Y-89780000D01*
X131150931Y-89644658D01*
X131138677Y-89617827D01*
X131094132Y-89520285D01*
X131094127Y-89520277D01*
X131070193Y-89492656D01*
X131041168Y-89429100D01*
X131051112Y-89359942D01*
X131076220Y-89323779D01*
X131077837Y-89322162D01*
X131139156Y-89288680D01*
X131208848Y-89293664D01*
X131219484Y-89298675D01*
X131223478Y-89300129D01*
X131223482Y-89300131D01*
X131310645Y-89315500D01*
X131310649Y-89315500D01*
X131369351Y-89315500D01*
X131369355Y-89315500D01*
X131456518Y-89300131D01*
X131558982Y-89240973D01*
X131635034Y-89150338D01*
X131675500Y-89039158D01*
X131675500Y-88920842D01*
X131650123Y-88851120D01*
X131645693Y-88781396D01*
X131678962Y-88721037D01*
X132223680Y-88176318D01*
X132285004Y-88142834D01*
X132311362Y-88140000D01*
X132896000Y-88140000D01*
X132963039Y-88159685D01*
G37*
%TD.AperFunction*%
%TD*%
M02*
