%TF.GenerationSoftware,KiCad,Pcbnew,7.0.6*%
%TF.CreationDate,2024-03-24T10:59:23+08:00*%
%TF.ProjectId,USB3 Hub,55534233-2048-4756-922e-6b696361645f,rev?*%
%TF.SameCoordinates,Original*%
%TF.FileFunction,Soldermask,Top*%
%TF.FilePolarity,Negative*%
%FSLAX46Y46*%
G04 Gerber Fmt 4.6, Leading zero omitted, Abs format (unit mm)*
G04 Created by KiCad (PCBNEW 7.0.6) date 2024-03-24 10:59:23*
%MOMM*%
%LPD*%
G01*
G04 APERTURE LIST*
G04 Aperture macros list*
%AMRoundRect*
0 Rectangle with rounded corners*
0 $1 Rounding radius*
0 $2 $3 $4 $5 $6 $7 $8 $9 X,Y pos of 4 corners*
0 Add a 4 corners polygon primitive as box body*
4,1,4,$2,$3,$4,$5,$6,$7,$8,$9,$2,$3,0*
0 Add four circle primitives for the rounded corners*
1,1,$1+$1,$2,$3*
1,1,$1+$1,$4,$5*
1,1,$1+$1,$6,$7*
1,1,$1+$1,$8,$9*
0 Add four rect primitives between the rounded corners*
20,1,$1+$1,$2,$3,$4,$5,0*
20,1,$1+$1,$4,$5,$6,$7,0*
20,1,$1+$1,$6,$7,$8,$9,0*
20,1,$1+$1,$8,$9,$2,$3,0*%
G04 Aperture macros list end*
%ADD10C,3.800000*%
%ADD11RoundRect,0.100000X0.100000X-0.130000X0.100000X0.130000X-0.100000X0.130000X-0.100000X-0.130000X0*%
%ADD12RoundRect,0.100000X0.130000X0.100000X-0.130000X0.100000X-0.130000X-0.100000X0.130000X-0.100000X0*%
%ADD13RoundRect,0.050800X-0.150000X-0.400000X0.150000X-0.400000X0.150000X0.400000X-0.150000X0.400000X0*%
%ADD14RoundRect,0.050800X-0.200000X-0.400000X0.200000X-0.400000X0.200000X0.400000X-0.200000X0.400000X0*%
%ADD15R,1.400000X1.200000*%
%ADD16R,1.500000X1.500000*%
%ADD17R,0.550000X0.300000*%
%ADD18R,1.750000X2.600000*%
%ADD19RoundRect,0.100000X-0.130000X-0.100000X0.130000X-0.100000X0.130000X0.100000X-0.130000X0.100000X0*%
%ADD20RoundRect,0.225000X0.250000X-0.225000X0.250000X0.225000X-0.250000X0.225000X-0.250000X-0.225000X0*%
%ADD21RoundRect,0.050800X0.400000X-0.150000X0.400000X0.150000X-0.400000X0.150000X-0.400000X-0.150000X0*%
%ADD22RoundRect,0.050800X0.400000X-0.200000X0.400000X0.200000X-0.400000X0.200000X-0.400000X-0.200000X0*%
%ADD23RoundRect,0.147500X0.172500X-0.147500X0.172500X0.147500X-0.172500X0.147500X-0.172500X-0.147500X0*%
%ADD24RoundRect,0.100000X-0.100000X0.130000X-0.100000X-0.130000X0.100000X-0.130000X0.100000X0.130000X0*%
%ADD25R,0.500000X0.200000*%
%ADD26R,0.200000X0.500000*%
%ADD27R,2.000000X3.000000*%
%ADD28R,0.200000X0.450000*%
%ADD29R,0.450000X0.200000*%
%ADD30R,5.700000X5.700000*%
%ADD31RoundRect,0.100000X-0.200000X-0.700000X0.200000X-0.700000X0.200000X0.700000X-0.200000X0.700000X0*%
%ADD32RoundRect,0.085714X-0.214286X-0.714286X0.214286X-0.714286X0.214286X0.714286X-0.214286X0.714286X0*%
%ADD33C,0.650000*%
%ADD34O,0.650000X0.950000*%
%ADD35R,0.700000X0.300000*%
%ADD36O,1.400000X0.800000*%
%ADD37RoundRect,0.225000X-0.250000X0.225000X-0.250000X-0.225000X0.250000X-0.225000X0.250000X0.225000X0*%
%ADD38RoundRect,0.100000X-0.700000X0.200000X-0.700000X-0.200000X0.700000X-0.200000X0.700000X0.200000X0*%
%ADD39RoundRect,0.085714X-0.714286X0.214286X-0.714286X-0.214286X0.714286X-0.214286X0.714286X0.214286X0*%
%ADD40R,0.700000X1.200000*%
%ADD41R,1.900000X2.400000*%
%ADD42RoundRect,0.147500X-0.147500X-0.172500X0.147500X-0.172500X0.147500X0.172500X-0.147500X0.172500X0*%
%ADD43RoundRect,0.050800X0.150000X0.400000X-0.150000X0.400000X-0.150000X-0.400000X0.150000X-0.400000X0*%
%ADD44RoundRect,0.050800X0.200000X0.400000X-0.200000X0.400000X-0.200000X-0.400000X0.200000X-0.400000X0*%
G04 APERTURE END LIST*
D10*
%TO.C,H1*%
X124340000Y-100800000D03*
%TD*%
D11*
%TO.C,C10*%
X137950000Y-86315000D03*
X137950000Y-85675000D03*
%TD*%
D12*
%TO.C,C20*%
X141670000Y-98370000D03*
X141030000Y-98370000D03*
%TD*%
D13*
%TO.C,J5*%
X135260000Y-99310000D03*
X135760000Y-99310000D03*
X136260000Y-99310000D03*
X136760000Y-99310000D03*
X137260000Y-99310000D03*
X137760000Y-99310000D03*
X138260000Y-99310000D03*
X138760000Y-99310000D03*
X139260000Y-99310000D03*
X139760000Y-99310000D03*
X140260000Y-99310000D03*
X140760000Y-99310000D03*
D14*
X134210000Y-101810000D03*
X141810000Y-101810000D03*
%TD*%
D15*
%TO.C,Y1*%
X148540000Y-82330000D03*
X146340000Y-82330000D03*
X146340000Y-84030000D03*
X148540000Y-84030000D03*
%TD*%
D12*
%TO.C,R9*%
X140120000Y-91500000D03*
X139480000Y-91500000D03*
%TD*%
%TO.C,C33*%
X141620000Y-90150000D03*
X140980000Y-90150000D03*
%TD*%
D16*
%TO.C,TP2*%
X131920000Y-81430000D03*
%TD*%
D17*
%TO.C,U3*%
X128690000Y-85390000D03*
X128690000Y-84890000D03*
X128690000Y-84390000D03*
X128690000Y-83890000D03*
X128690000Y-83390000D03*
X125990000Y-83390000D03*
X125990000Y-83890000D03*
X125990000Y-84390000D03*
X125990000Y-84890000D03*
X125990000Y-85390000D03*
D18*
X127340000Y-84390000D03*
%TD*%
D19*
%TO.C,C8*%
X140200000Y-93490000D03*
X140840000Y-93490000D03*
%TD*%
D16*
%TO.C,TP1*%
X134440000Y-81420000D03*
%TD*%
D11*
%TO.C,C9*%
X138600000Y-86320000D03*
X138600000Y-85680000D03*
%TD*%
%TO.C,C13*%
X153860000Y-93830000D03*
X153860000Y-93190000D03*
%TD*%
D20*
%TO.C,C1*%
X130130000Y-86085000D03*
X130130000Y-84535000D03*
%TD*%
D12*
%TO.C,C19*%
X141670000Y-97820000D03*
X141030000Y-97820000D03*
%TD*%
%TO.C,C36*%
X141530000Y-94440000D03*
X140890000Y-94440000D03*
%TD*%
D21*
%TO.C,J3*%
X155630000Y-94960000D03*
X155630000Y-94460000D03*
X155630000Y-93960000D03*
X155630000Y-93460000D03*
X155630000Y-92960000D03*
X155630000Y-92460000D03*
X155630000Y-91960000D03*
X155630000Y-91460000D03*
X155630000Y-90960000D03*
X155630000Y-90460000D03*
X155630000Y-89960000D03*
X155630000Y-89460000D03*
D22*
X158130000Y-96010000D03*
X158130000Y-88410000D03*
%TD*%
D12*
%TO.C,R7*%
X138310000Y-90730000D03*
X137670000Y-90730000D03*
%TD*%
D11*
%TO.C,C14*%
X153150000Y-93820000D03*
X153150000Y-93180000D03*
%TD*%
D12*
%TO.C,C7*%
X140840000Y-92830000D03*
X140200000Y-92830000D03*
%TD*%
%TO.C,R10*%
X144880000Y-85420000D03*
X144240000Y-85420000D03*
%TD*%
D19*
%TO.C,C46*%
X137670000Y-89980000D03*
X138310000Y-89980000D03*
%TD*%
D23*
%TO.C,D12*%
X134730000Y-97705000D03*
X134730000Y-96735000D03*
%TD*%
D24*
%TO.C,R25*%
X153510000Y-86950000D03*
X153510000Y-87590000D03*
%TD*%
D25*
%TO.C,U1*%
X135400000Y-91770000D03*
X135400000Y-92170000D03*
X135400000Y-92570000D03*
X135400000Y-92970000D03*
X135400000Y-93370000D03*
X135400000Y-93770000D03*
X135400000Y-94170000D03*
X135400000Y-94570000D03*
X135400000Y-94970000D03*
X135400000Y-95370000D03*
D26*
X136400000Y-95670000D03*
X136800000Y-95670000D03*
X137200000Y-95670000D03*
X137600000Y-95670000D03*
D25*
X138600000Y-95370000D03*
X138600000Y-94970000D03*
X138600000Y-94570000D03*
X138600000Y-94170000D03*
X138600000Y-93770000D03*
X138600000Y-93370000D03*
X138600000Y-92970000D03*
X138600000Y-92570000D03*
X138600000Y-92170000D03*
X138600000Y-91770000D03*
D26*
X137600000Y-91470000D03*
X137200000Y-91470000D03*
X136800000Y-91470000D03*
X136400000Y-91470000D03*
D27*
X137000000Y-93570000D03*
%TD*%
D19*
%TO.C,R6*%
X136410000Y-96400000D03*
X137050000Y-96400000D03*
%TD*%
D10*
%TO.C,H2*%
X157260000Y-100860000D03*
%TD*%
D28*
%TO.C,U2*%
X143270000Y-95635000D03*
X143670000Y-95635000D03*
X144070000Y-95635000D03*
X144470000Y-95635000D03*
X144870000Y-95635000D03*
X145270000Y-95635000D03*
X145670000Y-95635000D03*
X146070000Y-95635000D03*
X146470000Y-95635000D03*
X146870000Y-95635000D03*
X147270000Y-95635000D03*
X147670000Y-95635000D03*
X148070000Y-95635000D03*
X148470000Y-95635000D03*
X148870000Y-95635000D03*
X149270000Y-95635000D03*
X149670000Y-95635000D03*
X150070000Y-95635000D03*
X150470000Y-95635000D03*
D29*
X151195000Y-94910000D03*
X151195000Y-94510000D03*
X151195000Y-94110000D03*
X151195000Y-93710000D03*
X151195000Y-93310000D03*
X151195000Y-92910000D03*
X151195000Y-92510000D03*
X151195000Y-92110000D03*
X151195000Y-91710000D03*
X151195000Y-91310000D03*
X151195000Y-90910000D03*
X151195000Y-90510000D03*
X151195000Y-90110000D03*
X151195000Y-89710000D03*
X151195000Y-89310000D03*
X151195000Y-88910000D03*
X151195000Y-88510000D03*
X151195000Y-88110000D03*
X151195000Y-87710000D03*
D28*
X150470000Y-86985000D03*
X150070000Y-86985000D03*
X149670000Y-86985000D03*
X149270000Y-86985000D03*
X148870000Y-86985000D03*
X148470000Y-86985000D03*
X148070000Y-86985000D03*
X147670000Y-86985000D03*
X147270000Y-86985000D03*
X146870000Y-86985000D03*
X146470000Y-86985000D03*
X146070000Y-86985000D03*
X145670000Y-86985000D03*
X145270000Y-86985000D03*
X144870000Y-86985000D03*
X144470000Y-86985000D03*
X144070000Y-86985000D03*
X143670000Y-86985000D03*
X143270000Y-86985000D03*
D29*
X142545000Y-87710000D03*
X142545000Y-88110000D03*
X142545000Y-88510000D03*
X142545000Y-88910000D03*
X142545000Y-89310000D03*
X142545000Y-89710000D03*
X142545000Y-90110000D03*
X142545000Y-90510000D03*
X142545000Y-90910000D03*
X142545000Y-91310000D03*
X142545000Y-91710000D03*
X142545000Y-92110000D03*
X142545000Y-92510000D03*
X142545000Y-92910000D03*
X142545000Y-93310000D03*
X142545000Y-93710000D03*
X142545000Y-94110000D03*
X142545000Y-94510000D03*
X142545000Y-94910000D03*
D30*
X146870000Y-91310000D03*
%TD*%
D31*
%TO.C,L2*%
X128500000Y-81790000D03*
D32*
X129900000Y-81790000D03*
%TD*%
D33*
%TO.C,J1*%
X131340000Y-88980000D03*
D34*
X131340000Y-96180000D03*
D35*
X132000000Y-89830000D03*
X132000000Y-90330000D03*
X132000000Y-90830000D03*
X132000000Y-91330000D03*
X132000000Y-91830000D03*
X132000000Y-92330000D03*
X132000000Y-92830000D03*
X132000000Y-93330000D03*
X132000000Y-93830000D03*
X132000000Y-94330000D03*
X132000000Y-94830000D03*
X132000000Y-95330000D03*
D33*
X130690000Y-95380000D03*
X129990000Y-94980000D03*
X129990000Y-94180000D03*
X130690000Y-93780000D03*
X129990000Y-93380000D03*
X130690000Y-92980000D03*
X130690000Y-92180000D03*
X129990000Y-91780000D03*
X130690000Y-91380000D03*
X129990000Y-90980000D03*
X129990000Y-90180000D03*
X130690000Y-89780000D03*
D36*
X125630000Y-88090000D03*
X130090000Y-88450000D03*
X130090000Y-96710000D03*
X125630000Y-97070000D03*
%TD*%
D12*
%TO.C,R8*%
X140120000Y-90740000D03*
X139480000Y-90740000D03*
%TD*%
D23*
%TO.C,L4*%
X128720000Y-100215000D03*
X128720000Y-99245000D03*
%TD*%
D37*
%TO.C,C32*%
X134900000Y-82765000D03*
X134900000Y-84315000D03*
%TD*%
D38*
%TO.C,L1*%
X123620000Y-84240000D03*
D39*
X123620000Y-85640000D03*
%TD*%
D40*
%TO.C,J6*%
X156015000Y-85280000D03*
X154765000Y-85280000D03*
D41*
X158340000Y-82240000D03*
D40*
X153515000Y-85280000D03*
D41*
X151190000Y-82240000D03*
%TD*%
D42*
%TO.C,D1*%
X132785000Y-83190000D03*
X133755000Y-83190000D03*
%TD*%
D24*
%TO.C,C17*%
X149350000Y-96550000D03*
X149350000Y-97190000D03*
%TD*%
D13*
%TO.C,J4*%
X145580000Y-99290000D03*
X146080000Y-99290000D03*
X146580000Y-99290000D03*
X147080000Y-99290000D03*
X147580000Y-99290000D03*
X148080000Y-99290000D03*
X148580000Y-99290000D03*
X149080000Y-99290000D03*
X149580000Y-99290000D03*
X150080000Y-99290000D03*
X150580000Y-99290000D03*
X151080000Y-99290000D03*
D14*
X144530000Y-101790000D03*
X152130000Y-101790000D03*
%TD*%
D19*
%TO.C,R5*%
X134040000Y-95490000D03*
X134680000Y-95490000D03*
%TD*%
D24*
%TO.C,C16*%
X148790000Y-96550000D03*
X148790000Y-97190000D03*
%TD*%
D20*
%TO.C,C2*%
X131610000Y-86105000D03*
X131610000Y-84555000D03*
%TD*%
D11*
%TO.C,C51*%
X152780000Y-88260000D03*
X152780000Y-87620000D03*
%TD*%
D37*
%TO.C,C43*%
X130500000Y-99205000D03*
X130500000Y-100755000D03*
%TD*%
D43*
%TO.C,J2*%
X143020000Y-84160000D03*
X142520000Y-84160000D03*
X142020000Y-84160000D03*
X141520000Y-84160000D03*
X141020000Y-84160000D03*
X140520000Y-84160000D03*
X140020000Y-84160000D03*
X139520000Y-84160000D03*
X139020000Y-84160000D03*
X138520000Y-84160000D03*
X138020000Y-84160000D03*
X137520000Y-84160000D03*
D44*
X144070000Y-81660000D03*
X136470000Y-81660000D03*
%TD*%
M02*
