%TF.GenerationSoftware,KiCad,Pcbnew,7.0.6*%
%TF.CreationDate,2024-03-24T10:59:23+08:00*%
%TF.ProjectId,USB3 Hub,55534233-2048-4756-922e-6b696361645f,rev?*%
%TF.SameCoordinates,Original*%
%TF.FileFunction,Legend,Top*%
%TF.FilePolarity,Positive*%
%FSLAX46Y46*%
G04 Gerber Fmt 4.6, Leading zero omitted, Abs format (unit mm)*
G04 Created by KiCad (PCBNEW 7.0.6) date 2024-03-24 10:59:23*
%MOMM*%
%LPD*%
G01*
G04 APERTURE LIST*
%ADD10C,0.150000*%
%ADD11C,0.152400*%
%ADD12C,0.180416*%
%ADD13C,0.120000*%
%ADD14C,0.100000*%
G04 APERTURE END LIST*
D10*
X121860000Y-80280000D02*
X159640000Y-80280000D01*
X159640000Y-103210000D01*
X121860000Y-103210000D01*
X121860000Y-80280000D01*
X157502969Y-85119819D02*
X157026779Y-85119819D01*
X157026779Y-85119819D02*
X156979160Y-85596009D01*
X156979160Y-85596009D02*
X157026779Y-85548390D01*
X157026779Y-85548390D02*
X157122017Y-85500771D01*
X157122017Y-85500771D02*
X157360112Y-85500771D01*
X157360112Y-85500771D02*
X157455350Y-85548390D01*
X157455350Y-85548390D02*
X157502969Y-85596009D01*
X157502969Y-85596009D02*
X157550588Y-85691247D01*
X157550588Y-85691247D02*
X157550588Y-85929342D01*
X157550588Y-85929342D02*
X157502969Y-86024580D01*
X157502969Y-86024580D02*
X157455350Y-86072200D01*
X157455350Y-86072200D02*
X157360112Y-86119819D01*
X157360112Y-86119819D02*
X157122017Y-86119819D01*
X157122017Y-86119819D02*
X157026779Y-86072200D01*
X157026779Y-86072200D02*
X156979160Y-86024580D01*
X157836303Y-85119819D02*
X158169636Y-86119819D01*
X158169636Y-86119819D02*
X158502969Y-85119819D01*
X151950588Y-85047438D02*
X151855350Y-84999819D01*
X151855350Y-84999819D02*
X151712493Y-84999819D01*
X151712493Y-84999819D02*
X151569636Y-85047438D01*
X151569636Y-85047438D02*
X151474398Y-85142676D01*
X151474398Y-85142676D02*
X151426779Y-85237914D01*
X151426779Y-85237914D02*
X151379160Y-85428390D01*
X151379160Y-85428390D02*
X151379160Y-85571247D01*
X151379160Y-85571247D02*
X151426779Y-85761723D01*
X151426779Y-85761723D02*
X151474398Y-85856961D01*
X151474398Y-85856961D02*
X151569636Y-85952200D01*
X151569636Y-85952200D02*
X151712493Y-85999819D01*
X151712493Y-85999819D02*
X151807731Y-85999819D01*
X151807731Y-85999819D02*
X151950588Y-85952200D01*
X151950588Y-85952200D02*
X151998207Y-85904580D01*
X151998207Y-85904580D02*
X151998207Y-85571247D01*
X151998207Y-85571247D02*
X151807731Y-85571247D01*
X130478095Y-78274819D02*
X131049523Y-78274819D01*
X130763809Y-79274819D02*
X130763809Y-78274819D01*
X131382857Y-79274819D02*
X131382857Y-78274819D01*
X131382857Y-78274819D02*
X131763809Y-78274819D01*
X131763809Y-78274819D02*
X131859047Y-78322438D01*
X131859047Y-78322438D02*
X131906666Y-78370057D01*
X131906666Y-78370057D02*
X131954285Y-78465295D01*
X131954285Y-78465295D02*
X131954285Y-78608152D01*
X131954285Y-78608152D02*
X131906666Y-78703390D01*
X131906666Y-78703390D02*
X131859047Y-78751009D01*
X131859047Y-78751009D02*
X131763809Y-78798628D01*
X131763809Y-78798628D02*
X131382857Y-78798628D01*
X132335238Y-78370057D02*
X132382857Y-78322438D01*
X132382857Y-78322438D02*
X132478095Y-78274819D01*
X132478095Y-78274819D02*
X132716190Y-78274819D01*
X132716190Y-78274819D02*
X132811428Y-78322438D01*
X132811428Y-78322438D02*
X132859047Y-78370057D01*
X132859047Y-78370057D02*
X132906666Y-78465295D01*
X132906666Y-78465295D02*
X132906666Y-78560533D01*
X132906666Y-78560533D02*
X132859047Y-78703390D01*
X132859047Y-78703390D02*
X132287619Y-79274819D01*
X132287619Y-79274819D02*
X132906666Y-79274819D01*
X133398095Y-78344819D02*
X133969523Y-78344819D01*
X133683809Y-79344819D02*
X133683809Y-78344819D01*
X134302857Y-79344819D02*
X134302857Y-78344819D01*
X134302857Y-78344819D02*
X134683809Y-78344819D01*
X134683809Y-78344819D02*
X134779047Y-78392438D01*
X134779047Y-78392438D02*
X134826666Y-78440057D01*
X134826666Y-78440057D02*
X134874285Y-78535295D01*
X134874285Y-78535295D02*
X134874285Y-78678152D01*
X134874285Y-78678152D02*
X134826666Y-78773390D01*
X134826666Y-78773390D02*
X134779047Y-78821009D01*
X134779047Y-78821009D02*
X134683809Y-78868628D01*
X134683809Y-78868628D02*
X134302857Y-78868628D01*
X135826666Y-79344819D02*
X135255238Y-79344819D01*
X135540952Y-79344819D02*
X135540952Y-78344819D01*
X135540952Y-78344819D02*
X135445714Y-78487676D01*
X135445714Y-78487676D02*
X135350476Y-78582914D01*
X135350476Y-78582914D02*
X135255238Y-78630533D01*
D11*
%TO.C,J5*%
X134010000Y-98910000D02*
X134010000Y-103110000D01*
X134010000Y-103110000D02*
X142010000Y-103110000D01*
X142010000Y-98910000D02*
X134010000Y-98910000D01*
X142010000Y-103110000D02*
X142010000Y-98910000D01*
D12*
X138100208Y-101310000D02*
G75*
G03*
X138100208Y-101310000I-90208J0D01*
G01*
D13*
%TO.C,Y1*%
X149440000Y-84830000D02*
X149440000Y-81530000D01*
X149440000Y-81530000D02*
X145440000Y-81530000D01*
%TO.C,TP2*%
X130970000Y-80480000D02*
X132870000Y-80480000D01*
X130970000Y-82380000D02*
X130970000Y-80480000D01*
X132870000Y-80480000D02*
X132870000Y-82380000D01*
X132870000Y-82380000D02*
X130970000Y-82380000D01*
D14*
%TO.C,U3*%
X125840000Y-85890000D02*
X128840000Y-85890000D01*
X128840000Y-85890000D02*
X128840000Y-82890000D01*
X128840000Y-82890000D02*
X125840000Y-82890000D01*
X125840000Y-82890000D02*
X125840000Y-85890000D01*
X129220384Y-85780000D02*
G75*
G03*
X129220384Y-85780000I-130384J0D01*
G01*
D13*
%TO.C,TP1*%
X133490000Y-80470000D02*
X135390000Y-80470000D01*
X133490000Y-82370000D02*
X133490000Y-80470000D01*
X135390000Y-80470000D02*
X135390000Y-82370000D01*
X135390000Y-82370000D02*
X133490000Y-82370000D01*
%TO.C,C1*%
X129620000Y-85450580D02*
X129620000Y-85169420D01*
X130640000Y-85450580D02*
X130640000Y-85169420D01*
D11*
%TO.C,J3*%
X155230000Y-96210000D02*
X159430000Y-96210000D01*
X159430000Y-96210000D02*
X159430000Y-88210000D01*
X155230000Y-88210000D02*
X155230000Y-96210000D01*
X159430000Y-88210000D02*
X155230000Y-88210000D01*
D12*
X157720208Y-92210000D02*
G75*
G03*
X157720208Y-92210000I-90208J0D01*
G01*
D14*
%TO.C,D12*%
X134780000Y-98310000D02*
G75*
G03*
X134780000Y-98310000I-50000J0D01*
G01*
%TO.C,U1*%
X135300000Y-91370000D02*
X138700000Y-91370000D01*
X138700000Y-91370000D02*
X138700000Y-95770000D01*
X138700000Y-95770000D02*
X135300000Y-95770000D01*
X135300000Y-95770000D02*
X135300000Y-91370000D01*
X135216015Y-91500000D02*
G75*
G03*
X135216015Y-91500000I-136015J0D01*
G01*
%TO.C,U2*%
X142420000Y-86860000D02*
X151320000Y-86860000D01*
X151320000Y-86860000D02*
X151320000Y-95760000D01*
X151320000Y-95760000D02*
X142420000Y-95760000D01*
X142420000Y-95760000D02*
X142420000Y-86860000D01*
X142396105Y-95976104D02*
G75*
G03*
X142396105Y-95976104I-306105J0D01*
G01*
D13*
%TO.C,J1*%
X132350000Y-87830000D02*
X125090000Y-87830000D01*
X132350000Y-87830000D02*
X132350000Y-89330000D01*
X132350000Y-95830000D02*
X132350000Y-97330000D01*
X132350000Y-97330000D02*
X125090000Y-97330000D01*
%TO.C,C32*%
X135410000Y-83399420D02*
X135410000Y-83680580D01*
X134390000Y-83399420D02*
X134390000Y-83680580D01*
D14*
%TO.C,J6*%
X159255000Y-84810000D02*
X150205000Y-84810000D01*
X150205000Y-84810000D02*
X150205000Y-80530000D01*
X150205000Y-80530000D02*
X159255000Y-80530000D01*
X159255000Y-80530000D02*
X159255000Y-84810000D01*
%TO.C,D1*%
X132230000Y-83190000D02*
G75*
G03*
X132230000Y-83190000I-50000J0D01*
G01*
D11*
%TO.C,J4*%
X144330000Y-98890000D02*
X144330000Y-103090000D01*
X144330000Y-103090000D02*
X152330000Y-103090000D01*
X152330000Y-98890000D02*
X144330000Y-98890000D01*
X152330000Y-103090000D02*
X152330000Y-98890000D01*
D12*
X148420208Y-101290000D02*
G75*
G03*
X148420208Y-101290000I-90208J0D01*
G01*
D13*
%TO.C,C2*%
X131100000Y-85470580D02*
X131100000Y-85189420D01*
X132120000Y-85470580D02*
X132120000Y-85189420D01*
%TO.C,C43*%
X131010000Y-99839420D02*
X131010000Y-100120580D01*
X129990000Y-99839420D02*
X129990000Y-100120580D01*
D11*
%TO.C,J2*%
X144270000Y-84560000D02*
X144270000Y-80360000D01*
X144270000Y-80360000D02*
X136270000Y-80360000D01*
X136270000Y-84560000D02*
X144270000Y-84560000D01*
X136270000Y-80360000D02*
X136270000Y-84560000D01*
D12*
X140360208Y-82160000D02*
G75*
G03*
X140360208Y-82160000I-90208J0D01*
G01*
%TD*%
M02*
