%TF.GenerationSoftware,KiCad,Pcbnew,7.0.6*%
%TF.CreationDate,2024-03-24T10:59:23+08:00*%
%TF.ProjectId,USB3 Hub,55534233-2048-4756-922e-6b696361645f,rev?*%
%TF.SameCoordinates,Original*%
%TF.FileFunction,Copper,L2,Inr*%
%TF.FilePolarity,Positive*%
%FSLAX46Y46*%
G04 Gerber Fmt 4.6, Leading zero omitted, Abs format (unit mm)*
G04 Created by KiCad (PCBNEW 7.0.6) date 2024-03-24 10:59:23*
%MOMM*%
%LPD*%
G01*
G04 APERTURE LIST*
%TA.AperFunction,ComponentPad*%
%ADD10C,3.800000*%
%TD*%
%TA.AperFunction,ComponentPad*%
%ADD11C,0.650000*%
%TD*%
%TA.AperFunction,ComponentPad*%
%ADD12O,1.400000X0.800000*%
%TD*%
%TA.AperFunction,ViaPad*%
%ADD13C,0.500000*%
%TD*%
%TA.AperFunction,ViaPad*%
%ADD14C,0.390000*%
%TD*%
%TA.AperFunction,ViaPad*%
%ADD15C,0.450000*%
%TD*%
%TA.AperFunction,ViaPad*%
%ADD16C,0.800000*%
%TD*%
%TA.AperFunction,ViaPad*%
%ADD17C,0.750000*%
%TD*%
G04 APERTURE END LIST*
D10*
%TO.N,N/C*%
%TO.C,H1*%
X124340000Y-100800000D03*
%TD*%
%TO.N,N/C*%
%TO.C,H2*%
X157260000Y-100860000D03*
%TD*%
D11*
%TO.N,GND*%
%TO.C,J1*%
X130690000Y-95380000D03*
%TO.N,/USB_TX2+*%
X129990000Y-94980000D03*
%TO.N,/USB_TX2-*%
X129990000Y-94180000D03*
%TO.N,/5V*%
X130690000Y-93780000D03*
%TO.N,/CC2*%
X129990000Y-93380000D03*
%TO.N,/D+*%
X130690000Y-92980000D03*
%TO.N,/D-*%
X130690000Y-92180000D03*
%TO.N,unconnected-(J1-SBU2-PadB8)*%
X129990000Y-91780000D03*
%TO.N,/5V*%
X130690000Y-91380000D03*
%TO.N,/USB_RX1-*%
X129990000Y-90980000D03*
%TO.N,/USB_RX1+*%
X129990000Y-90180000D03*
%TO.N,GND*%
X130690000Y-89780000D03*
D12*
X125630000Y-88090000D03*
X130090000Y-88450000D03*
X130090000Y-96710000D03*
X125630000Y-97070000D03*
%TD*%
D13*
%TO.N,GND*%
X157940000Y-93190000D03*
X122510000Y-89090000D03*
X153067094Y-85479508D03*
X126960000Y-100500000D03*
X148370000Y-94590000D03*
X149810000Y-83527000D03*
X158900000Y-97260000D03*
X158820000Y-89330000D03*
D14*
X154350000Y-89700000D03*
D13*
X132600000Y-102769500D03*
D14*
X143260000Y-96760000D03*
D13*
X148530000Y-80960000D03*
X135365332Y-97015332D03*
X123990000Y-80840000D03*
D14*
X139760000Y-101430000D03*
X152570000Y-93990000D03*
X142441187Y-96699380D03*
X143320000Y-85660000D03*
D13*
X147470000Y-92860000D03*
X126780000Y-84130000D03*
X125060000Y-95250000D03*
X149160000Y-90230000D03*
X147450000Y-91210000D03*
X133790000Y-90670000D03*
D14*
X154400000Y-93900000D03*
D13*
X157880000Y-98220000D03*
D14*
X139080000Y-96870000D03*
D13*
X152030000Y-99370000D03*
X152110000Y-88320000D03*
X129070000Y-91990000D03*
X124390000Y-93860000D03*
X144560000Y-90250000D03*
X158370000Y-90150000D03*
X136220000Y-96850000D03*
D14*
X141350000Y-92410000D03*
D13*
X127930000Y-87210000D03*
X125140000Y-89000000D03*
X127400000Y-84090000D03*
X129550000Y-102340000D03*
D14*
X140310000Y-85860000D03*
D13*
X145420000Y-89340000D03*
X122500000Y-91840000D03*
X149110000Y-92040000D03*
D14*
X144250000Y-96240000D03*
D13*
X157850000Y-83510000D03*
X154650000Y-88800000D03*
D14*
X154690000Y-92360000D03*
D13*
X149140000Y-91170000D03*
X130010000Y-86990000D03*
X127960000Y-83390000D03*
X126730000Y-83480000D03*
X148340000Y-90230000D03*
X145020000Y-82870000D03*
D14*
X141810000Y-100080000D03*
D13*
X134340000Y-91080000D03*
X126180000Y-91730000D03*
X146500000Y-92000000D03*
D14*
X145730220Y-96204502D03*
D13*
X136690000Y-86130000D03*
D14*
X150990000Y-98510000D03*
D13*
X157520000Y-82550000D03*
X132990000Y-95190000D03*
D15*
X137970000Y-94400000D03*
D14*
X137720000Y-101430000D03*
D13*
X127400000Y-92760000D03*
X159090000Y-102630000D03*
X126170000Y-102690000D03*
X127980000Y-84070000D03*
D14*
X139390000Y-94950000D03*
X136780000Y-101180000D03*
D13*
X144000000Y-94420000D03*
D14*
X137690000Y-85090000D03*
D13*
X154017091Y-84644366D03*
D14*
X138710000Y-100190000D03*
X148300000Y-97710000D03*
D13*
X132970000Y-80870000D03*
X148280000Y-92010000D03*
X146580000Y-93640000D03*
X144190000Y-84584500D03*
X149040000Y-89440000D03*
X156810000Y-98180000D03*
X126430000Y-80840000D03*
X133610000Y-92630000D03*
X137420000Y-89920000D03*
D14*
X138870000Y-101410000D03*
D13*
X147420000Y-92050000D03*
X153430000Y-101000000D03*
X143430000Y-94950000D03*
D14*
X153690000Y-90190000D03*
D15*
X145400000Y-88520000D03*
D13*
X133460500Y-98619656D03*
X126840000Y-84710000D03*
D14*
X154660000Y-90770000D03*
D13*
X145630000Y-92810000D03*
X150990000Y-102390000D03*
X128870000Y-97400000D03*
D14*
X141520000Y-101400000D03*
X139310000Y-98390000D03*
X153180000Y-90700000D03*
D13*
X130910000Y-80940000D03*
X122449810Y-97285938D03*
D14*
X139477005Y-100131721D03*
D13*
X135540000Y-100680000D03*
X136010000Y-87990000D03*
X122470000Y-95820000D03*
D15*
X146850000Y-88890000D03*
D13*
X148520000Y-93610000D03*
X149790000Y-102420000D03*
D14*
X140830000Y-96740000D03*
D13*
X145630000Y-91250000D03*
X127920000Y-84750000D03*
D14*
X143240000Y-100770000D03*
D13*
X141520000Y-80750000D03*
D14*
X140640000Y-101420000D03*
D13*
X150350000Y-100380000D03*
D14*
X146550000Y-96930000D03*
D13*
X122700000Y-80980000D03*
X137040000Y-84260000D03*
X126080000Y-82390000D03*
D14*
X138170000Y-88230000D03*
D13*
X130310000Y-83510000D03*
D14*
X149640000Y-98640000D03*
D13*
X135770000Y-80660000D03*
X158810000Y-91130000D03*
D15*
X147100000Y-88060000D03*
D13*
X146560000Y-92850000D03*
X155350000Y-102670000D03*
X149110000Y-92850000D03*
X159010000Y-84120000D03*
D14*
X139790000Y-97800000D03*
D13*
X131310000Y-83150000D03*
D14*
X140350000Y-92180000D03*
D13*
X147439502Y-84470000D03*
X122360000Y-85850000D03*
X125220000Y-98390000D03*
D14*
X137730000Y-87030000D03*
X141420000Y-87300000D03*
X138330000Y-97590000D03*
D13*
X147370000Y-90230000D03*
D14*
X142410000Y-99680000D03*
D13*
X126800000Y-98080000D03*
D14*
X140340000Y-85210000D03*
X139430000Y-93770000D03*
X139230000Y-86070000D03*
D13*
X133840000Y-84570000D03*
X145660000Y-92070000D03*
D14*
X141310000Y-93850000D03*
D13*
X145430000Y-90270000D03*
X136250000Y-92320000D03*
X126760000Y-101600000D03*
X144300000Y-101160000D03*
D14*
X151890000Y-91980000D03*
D13*
X155840000Y-80970500D03*
D14*
X140270000Y-100080000D03*
D15*
X147560000Y-93780000D03*
D14*
X140010000Y-96700000D03*
D13*
X140400000Y-89660000D03*
X147450000Y-89420000D03*
X152430000Y-96660000D03*
D14*
X147940000Y-98270000D03*
X152590000Y-95470000D03*
D13*
X131300000Y-95310000D03*
X126420000Y-99270000D03*
X150310000Y-80790000D03*
X135500000Y-90830000D03*
D14*
X143130000Y-98980000D03*
D13*
X150470000Y-88000000D03*
D14*
X154800000Y-91150000D03*
D13*
X147000000Y-98470000D03*
X138090000Y-80890000D03*
D14*
X139090000Y-88510000D03*
D13*
X153840000Y-86080000D03*
X138920000Y-80930000D03*
X149840000Y-84690000D03*
X131440000Y-86860000D03*
X150210000Y-91240000D03*
X149094664Y-88791032D03*
D14*
X144000000Y-100430000D03*
D13*
X155990000Y-97720000D03*
X148320000Y-88780000D03*
D14*
X141070000Y-100050000D03*
D13*
X122570000Y-87540000D03*
X155411032Y-88169896D03*
X127380000Y-83490000D03*
X158800000Y-95520000D03*
X146480000Y-91230000D03*
X127320000Y-84960000D03*
D15*
X137440000Y-94960000D03*
D13*
X122510000Y-93260000D03*
X122400000Y-84470000D03*
D14*
X143960000Y-93300000D03*
D13*
X150230000Y-90070000D03*
X152270000Y-97990000D03*
D14*
X140930000Y-86510000D03*
D13*
X158900000Y-87890000D03*
X148300000Y-89440000D03*
X122530000Y-90510000D03*
X131140000Y-102720000D03*
X154570000Y-101550000D03*
X122450000Y-82260000D03*
X159010000Y-98870000D03*
X154550000Y-100290000D03*
D14*
X152580000Y-91190000D03*
X143910000Y-96740000D03*
D13*
X127650000Y-88770000D03*
D14*
X143980000Y-89740000D03*
X140170000Y-88940000D03*
X150850000Y-96170000D03*
X141950000Y-85700000D03*
D13*
X143560000Y-80910000D03*
X122560000Y-94710000D03*
X148310000Y-91200000D03*
X155360000Y-98950000D03*
X149590000Y-81030000D03*
X152670000Y-80910000D03*
D14*
X141030000Y-91640000D03*
D13*
X136310000Y-100670000D03*
X158780000Y-92640000D03*
D14*
X142620000Y-101330000D03*
D13*
X152880000Y-102400000D03*
D14*
X151800000Y-95480000D03*
D13*
X122470000Y-102490000D03*
X155940000Y-96330000D03*
D14*
X139290000Y-85410000D03*
D13*
X122580000Y-98980000D03*
X146230000Y-89360000D03*
X149820000Y-93080000D03*
D14*
X137880000Y-100190000D03*
D13*
X158750000Y-85630000D03*
X146140000Y-81060500D03*
X148800000Y-100420000D03*
X129120000Y-93540000D03*
D14*
X140550000Y-87020000D03*
X137730000Y-98240000D03*
D13*
X158930000Y-86840000D03*
X134340000Y-88610000D03*
X125140000Y-90520000D03*
X128160000Y-102580000D03*
X134990000Y-85040000D03*
D15*
X145710000Y-93660000D03*
D13*
X144700000Y-91200000D03*
D14*
X151180000Y-96780000D03*
D13*
X133580000Y-82690000D03*
X127190000Y-90290000D03*
X154130000Y-80950000D03*
X146360000Y-90230000D03*
X140550000Y-95010000D03*
D14*
X139210000Y-86860000D03*
D13*
X123710000Y-98360000D03*
D14*
X141580000Y-96730000D03*
D13*
X148340000Y-92830000D03*
X126820500Y-95750000D03*
X126810000Y-96600000D03*
D14*
X150680000Y-97830000D03*
X145590000Y-85190000D03*
D13*
X158140000Y-80830000D03*
X144520000Y-89340000D03*
D14*
X139720000Y-88380000D03*
D13*
X134930000Y-86950000D03*
D14*
X138850000Y-85070000D03*
X142690000Y-85960000D03*
D13*
%TO.N,/5V*%
X136610000Y-89840000D03*
D16*
X132710000Y-83840000D03*
D13*
X133230000Y-101980000D03*
X132750000Y-101960000D03*
X153400000Y-97650000D03*
X153850000Y-82820000D03*
X148810000Y-101900000D03*
D16*
X132670000Y-88480000D03*
D17*
X125322858Y-84391680D03*
D13*
X148840000Y-102380000D03*
D16*
X132670000Y-87790000D03*
D13*
X136430000Y-83340000D03*
X128940000Y-85780000D03*
D16*
X132670000Y-84460000D03*
D13*
X154202500Y-82827500D03*
X125820000Y-83020000D03*
X153400000Y-98340000D03*
X136050000Y-83590000D03*
%TO.N,/3.3V*%
X148583173Y-86344500D03*
D16*
X131820000Y-98870000D03*
X123770000Y-86350000D03*
D13*
X151700000Y-87080000D03*
X144510000Y-87640000D03*
D16*
X127830000Y-99120000D03*
X124700000Y-86250000D03*
D13*
X151560000Y-83930000D03*
%TO.N,Net-(U3-FB1)*%
X129350000Y-85090000D03*
%TO.N,Net-(U3-FB2)*%
X124805000Y-83130000D03*
%TO.N,/1.2V*%
X127970000Y-81700000D03*
X155360000Y-81770000D03*
X128050000Y-81250000D03*
X154910000Y-81770000D03*
D14*
X147300000Y-86490000D03*
D13*
X152080000Y-90060000D03*
D14*
%TO.N,/TX+*%
X143271403Y-92411403D03*
X141660000Y-92865000D03*
X143271403Y-92411403D03*
%TO.N,/TX-*%
X141660000Y-93455000D03*
X143688597Y-92828597D03*
X143688597Y-92828597D03*
%TO.N,/D_TX_1-*%
X138858597Y-87331403D03*
X141910000Y-87545000D03*
%TO.N,/D_TX_1+*%
X141910000Y-88135000D03*
X138441403Y-87748597D03*
%TO.N,/D_TX_4-*%
X143250000Y-97800000D03*
X144735000Y-96560000D03*
%TO.N,/D_TX_4+*%
X143250000Y-98390000D03*
X145325000Y-96560000D03*
D13*
%TO.N,Net-(D10-A1)*%
X157210000Y-94850000D03*
X156640000Y-94780000D03*
%TO.N,Net-(D11-A1)*%
X145880000Y-98660000D03*
D14*
%TO.N,/CC1*%
X131300000Y-91890000D03*
X134870000Y-91720000D03*
X133470000Y-91960000D03*
%TO.N,/D+*%
X131440000Y-92440000D03*
X141520000Y-90795000D03*
%TO.N,/D-*%
X141520000Y-91385000D03*
%TO.N,/USB_TX2+*%
X134620000Y-93465000D03*
%TO.N,/USB_TX2-*%
X134620000Y-92875000D03*
%TO.N,/CC2*%
X136360000Y-91000000D03*
%TO.N,/USB_RX1-*%
X132961403Y-93678597D03*
%TO.N,/USB_RX1+*%
X133378597Y-93261403D03*
%TO.N,/D_RX_2-*%
X154290000Y-91985000D03*
X152878597Y-92128597D03*
%TO.N,/D_RX_2+*%
X152461403Y-91711403D03*
X154290000Y-91395000D03*
%TO.N,/D_RX_3-*%
X149975000Y-96810000D03*
X148535000Y-98427590D03*
%TO.N,/D_RX_3+*%
X149125000Y-98427590D03*
X150565000Y-96810000D03*
%TO.N,Net-(U2-RESETJ)*%
X146460000Y-87970000D03*
%TO.N,Net-(U2-CHIPEN)*%
X148360000Y-87700000D03*
%TO.N,Net-(U2-RTERM)*%
X147820000Y-87600000D03*
%TO.N,Net-(U2-PGANG)*%
X144843760Y-86480303D03*
%TO.N,Net-(U2-VDDP)*%
X150110341Y-86415918D03*
%TO.N,Net-(U4-HOLD)*%
X152508368Y-86579500D03*
%TO.N,/RX-*%
X139880000Y-94675000D03*
X143680000Y-93830000D03*
%TO.N,/RX+*%
X143135000Y-93820000D03*
X139880000Y-94085000D03*
%TO.N,/SPI_DO*%
X146530000Y-86510000D03*
%TO.N,/SPI_CLK*%
X146140000Y-87530000D03*
D13*
%TO.N,/SPI_DI*%
X152540000Y-85100000D03*
%TO.N,/SPI_CS*%
X150996371Y-84930495D03*
D14*
%TO.N,/DP4_P*%
X146775000Y-96260000D03*
X143161403Y-99551403D03*
%TO.N,/DP2_P*%
X154780000Y-92925000D03*
X151730000Y-93000000D03*
%TO.N,/DP1_P*%
X143125000Y-89200000D03*
X140975000Y-85310000D03*
%TO.N,/DP1_N*%
X141565000Y-85310000D03*
X143680000Y-89200000D03*
%TO.N,/DP2_N*%
X154780000Y-93515000D03*
X151700000Y-92510000D03*
%TO.N,/DP4_N*%
X147365000Y-96260000D03*
X143578597Y-99968597D03*
D16*
%TO.N,/A3.3V*%
X128770000Y-101280000D03*
D13*
X141210000Y-95530000D03*
X143189078Y-90496831D03*
X150310000Y-92240000D03*
X147120000Y-94660000D03*
D16*
X131850000Y-100360000D03*
D13*
%TO.N,/X1*%
X147650000Y-81060500D03*
%TO.N,/X2*%
X146280000Y-84060000D03*
%TO.N,/A1.2V*%
X143500000Y-91120000D03*
X144550000Y-94964750D03*
X150440000Y-94770000D03*
D14*
X141520000Y-88560000D03*
D13*
X156700000Y-86690000D03*
X145700000Y-94860000D03*
D14*
X141900000Y-92130000D03*
D13*
X156810000Y-86220000D03*
%TO.N,Net-(D12-A1)*%
X135280000Y-97770000D03*
X135674419Y-97754916D03*
D14*
%TO.N,Net-(D13-A1)*%
X143300000Y-82800000D03*
X143310000Y-83240000D03*
%TD*%
%TA.AperFunction,Conductor*%
%TO.N,GND*%
G36*
X159552539Y-80315185D02*
G01*
X159598294Y-80367989D01*
X159609500Y-80419500D01*
X159609500Y-103060500D01*
X159589815Y-103127539D01*
X159537011Y-103173294D01*
X159485500Y-103184500D01*
X121974500Y-103184500D01*
X121907461Y-103164815D01*
X121861706Y-103112011D01*
X121850500Y-103060500D01*
X121850500Y-100800000D01*
X122284709Y-100800000D01*
X122303851Y-101079862D01*
X122303852Y-101079864D01*
X122360921Y-101354499D01*
X122360926Y-101354516D01*
X122446165Y-101594353D01*
X122454864Y-101618830D01*
X122583919Y-101867896D01*
X122745688Y-102097069D01*
X122745692Y-102097073D01*
X122745692Y-102097074D01*
X122892903Y-102254699D01*
X122937155Y-102302081D01*
X123154754Y-102479111D01*
X123154756Y-102479112D01*
X123154757Y-102479113D01*
X123394433Y-102624863D01*
X123585950Y-102708050D01*
X123651725Y-102736620D01*
X123921839Y-102812303D01*
X124166159Y-102845884D01*
X124199741Y-102850500D01*
X124199742Y-102850500D01*
X124480259Y-102850500D01*
X124510219Y-102846381D01*
X124758161Y-102812303D01*
X125028275Y-102736620D01*
X125285568Y-102624862D01*
X125525246Y-102479111D01*
X125742845Y-102302081D01*
X125934312Y-102097069D01*
X126031064Y-101960003D01*
X132344508Y-101960003D01*
X132364352Y-102085300D01*
X132364352Y-102085301D01*
X132378539Y-102113143D01*
X132421950Y-102198342D01*
X132421952Y-102198344D01*
X132421954Y-102198347D01*
X132511652Y-102288045D01*
X132511654Y-102288046D01*
X132511658Y-102288050D01*
X132624696Y-102345646D01*
X132624697Y-102345646D01*
X132624699Y-102345647D01*
X132749997Y-102365492D01*
X132750000Y-102365492D01*
X132750003Y-102365492D01*
X132875300Y-102345647D01*
X132875301Y-102345646D01*
X132875304Y-102345646D01*
X132914079Y-102325888D01*
X132982745Y-102312992D01*
X133026665Y-102325887D01*
X133104696Y-102365646D01*
X133104697Y-102365646D01*
X133104699Y-102365647D01*
X133229997Y-102385492D01*
X133230000Y-102385492D01*
X133230003Y-102385492D01*
X133355300Y-102365647D01*
X133355301Y-102365647D01*
X133355302Y-102365646D01*
X133355304Y-102365646D01*
X133468342Y-102308050D01*
X133558050Y-102218342D01*
X133615646Y-102105304D01*
X133615646Y-102105302D01*
X133615647Y-102105301D01*
X133615647Y-102105300D01*
X133635492Y-101980003D01*
X133635492Y-101979996D01*
X133622822Y-101900003D01*
X148404508Y-101900003D01*
X148424352Y-102025300D01*
X148424353Y-102025303D01*
X148424354Y-102025304D01*
X148469111Y-102113144D01*
X148482007Y-102181812D01*
X148469112Y-102225731D01*
X148454353Y-102254697D01*
X148454352Y-102254699D01*
X148434508Y-102379996D01*
X148434508Y-102380003D01*
X148454352Y-102505300D01*
X148454352Y-102505301D01*
X148454354Y-102505304D01*
X148511950Y-102618342D01*
X148511952Y-102618344D01*
X148511954Y-102618347D01*
X148601652Y-102708045D01*
X148601654Y-102708046D01*
X148601658Y-102708050D01*
X148714696Y-102765646D01*
X148714697Y-102765646D01*
X148714699Y-102765647D01*
X148839997Y-102785492D01*
X148840000Y-102785492D01*
X148840003Y-102785492D01*
X148965300Y-102765647D01*
X148965301Y-102765647D01*
X148965302Y-102765646D01*
X148965304Y-102765646D01*
X149078342Y-102708050D01*
X149168050Y-102618342D01*
X149225646Y-102505304D01*
X149225646Y-102505302D01*
X149225647Y-102505301D01*
X149225647Y-102505300D01*
X149245492Y-102380003D01*
X149245492Y-102379996D01*
X149225647Y-102254699D01*
X149225647Y-102254698D01*
X149225646Y-102254696D01*
X149180887Y-102166853D01*
X149167992Y-102098186D01*
X149180888Y-102054266D01*
X149195646Y-102025304D01*
X149202821Y-101980003D01*
X149215492Y-101900003D01*
X149215492Y-101899996D01*
X149195647Y-101774699D01*
X149195647Y-101774698D01*
X149188597Y-101760862D01*
X149138050Y-101661658D01*
X149138046Y-101661654D01*
X149138045Y-101661652D01*
X149048347Y-101571954D01*
X149048344Y-101571952D01*
X149048342Y-101571950D01*
X148935304Y-101514354D01*
X148935303Y-101514353D01*
X148935300Y-101514352D01*
X148810003Y-101494508D01*
X148809997Y-101494508D01*
X148684699Y-101514352D01*
X148684698Y-101514352D01*
X148609337Y-101552751D01*
X148571658Y-101571950D01*
X148571656Y-101571951D01*
X148571657Y-101571951D01*
X148571652Y-101571954D01*
X148481954Y-101661652D01*
X148481951Y-101661657D01*
X148481950Y-101661658D01*
X148462751Y-101699337D01*
X148424352Y-101774698D01*
X148424352Y-101774699D01*
X148404508Y-101899996D01*
X148404508Y-101900003D01*
X133622822Y-101900003D01*
X133615647Y-101854699D01*
X133615647Y-101854698D01*
X133615646Y-101854696D01*
X133558050Y-101741658D01*
X133558046Y-101741654D01*
X133558045Y-101741652D01*
X133468347Y-101651954D01*
X133468344Y-101651952D01*
X133468342Y-101651950D01*
X133355304Y-101594354D01*
X133355303Y-101594353D01*
X133355300Y-101594352D01*
X133230003Y-101574508D01*
X133229998Y-101574508D01*
X133104699Y-101594352D01*
X133104698Y-101594353D01*
X133065918Y-101614112D01*
X132997248Y-101627007D01*
X132953332Y-101614111D01*
X132875304Y-101574354D01*
X132875303Y-101574353D01*
X132875300Y-101574352D01*
X132750003Y-101554508D01*
X132749997Y-101554508D01*
X132624699Y-101574352D01*
X132624698Y-101574352D01*
X132549337Y-101612751D01*
X132511658Y-101631950D01*
X132511656Y-101631951D01*
X132511657Y-101631951D01*
X132511652Y-101631954D01*
X132421954Y-101721652D01*
X132421951Y-101721657D01*
X132421950Y-101721658D01*
X132402751Y-101759337D01*
X132364352Y-101834698D01*
X132364352Y-101834699D01*
X132344508Y-101959996D01*
X132344508Y-101960003D01*
X126031064Y-101960003D01*
X126096081Y-101867896D01*
X126225136Y-101618830D01*
X126319075Y-101354511D01*
X126319076Y-101354504D01*
X126319078Y-101354499D01*
X126334559Y-101280000D01*
X128214750Y-101280000D01*
X128232457Y-101414499D01*
X128233670Y-101423708D01*
X128233671Y-101423712D01*
X128289137Y-101557622D01*
X128289138Y-101557624D01*
X128289139Y-101557625D01*
X128377379Y-101672621D01*
X128492375Y-101760861D01*
X128626291Y-101816330D01*
X128753280Y-101833048D01*
X128769999Y-101835250D01*
X128770000Y-101835250D01*
X128770001Y-101835250D01*
X128784977Y-101833278D01*
X128913709Y-101816330D01*
X129047625Y-101760861D01*
X129162621Y-101672621D01*
X129250861Y-101557625D01*
X129306330Y-101423709D01*
X129325250Y-101280000D01*
X129306330Y-101136291D01*
X129250861Y-101002375D01*
X129162621Y-100887379D01*
X129047625Y-100799139D01*
X129047624Y-100799138D01*
X129047622Y-100799137D01*
X128913712Y-100743671D01*
X128913710Y-100743670D01*
X128913709Y-100743670D01*
X128841854Y-100734210D01*
X128770001Y-100724750D01*
X128769999Y-100724750D01*
X128626291Y-100743670D01*
X128626287Y-100743671D01*
X128492377Y-100799137D01*
X128377379Y-100887379D01*
X128289137Y-101002377D01*
X128233671Y-101136287D01*
X128233670Y-101136291D01*
X128214750Y-101280000D01*
X126334559Y-101280000D01*
X126363679Y-101139864D01*
X126376148Y-101079862D01*
X126395291Y-100800000D01*
X126376148Y-100520138D01*
X126342871Y-100360000D01*
X131294750Y-100360000D01*
X131313670Y-100503708D01*
X131313671Y-100503712D01*
X131369137Y-100637622D01*
X131369138Y-100637624D01*
X131369139Y-100637625D01*
X131457379Y-100752621D01*
X131572375Y-100840861D01*
X131706291Y-100896330D01*
X131833280Y-100913048D01*
X131849999Y-100915250D01*
X131850000Y-100915250D01*
X131850001Y-100915250D01*
X131864977Y-100913278D01*
X131993709Y-100896330D01*
X132081419Y-100860000D01*
X155204709Y-100860000D01*
X155223851Y-101139862D01*
X155223852Y-101139864D01*
X155280921Y-101414499D01*
X155280926Y-101414516D01*
X155368761Y-101661658D01*
X155374864Y-101678830D01*
X155503919Y-101927896D01*
X155665688Y-102157069D01*
X155665692Y-102157073D01*
X155665692Y-102157074D01*
X155788013Y-102288048D01*
X155857155Y-102362081D01*
X156074754Y-102539111D01*
X156074756Y-102539112D01*
X156074757Y-102539113D01*
X156314433Y-102684863D01*
X156500418Y-102765647D01*
X156571725Y-102796620D01*
X156841839Y-102872303D01*
X157086159Y-102905884D01*
X157119741Y-102910500D01*
X157119742Y-102910500D01*
X157400259Y-102910500D01*
X157430219Y-102906381D01*
X157678161Y-102872303D01*
X157948275Y-102796620D01*
X158205568Y-102684862D01*
X158445246Y-102539111D01*
X158662845Y-102362081D01*
X158854312Y-102157069D01*
X159016081Y-101927896D01*
X159145136Y-101678830D01*
X159239075Y-101414511D01*
X159239076Y-101414504D01*
X159239078Y-101414499D01*
X159267027Y-101279999D01*
X159296148Y-101139862D01*
X159315291Y-100860000D01*
X159296148Y-100580138D01*
X159250403Y-100360000D01*
X159239078Y-100305500D01*
X159239073Y-100305483D01*
X159145136Y-100041171D01*
X159145136Y-100041170D01*
X159016081Y-99792104D01*
X158854312Y-99562931D01*
X158854307Y-99562925D01*
X158662845Y-99357919D01*
X158445242Y-99180886D01*
X158205566Y-99035136D01*
X157948276Y-98923380D01*
X157678166Y-98847698D01*
X157678162Y-98847697D01*
X157678161Y-98847697D01*
X157539209Y-98828598D01*
X157400259Y-98809500D01*
X157400258Y-98809500D01*
X157119742Y-98809500D01*
X157119741Y-98809500D01*
X156841839Y-98847697D01*
X156841833Y-98847698D01*
X156571723Y-98923380D01*
X156314433Y-99035136D01*
X156074757Y-99180886D01*
X155857154Y-99357919D01*
X155665692Y-99562925D01*
X155665692Y-99562926D01*
X155665689Y-99562928D01*
X155665688Y-99562931D01*
X155600982Y-99654597D01*
X155503919Y-99792103D01*
X155374863Y-100041171D01*
X155280926Y-100305483D01*
X155280921Y-100305500D01*
X155223852Y-100580135D01*
X155223851Y-100580137D01*
X155204709Y-100860000D01*
X132081419Y-100860000D01*
X132127625Y-100840861D01*
X132242621Y-100752621D01*
X132330861Y-100637625D01*
X132386330Y-100503709D01*
X132405250Y-100360000D01*
X132386330Y-100216291D01*
X132333435Y-100088590D01*
X132330862Y-100082377D01*
X132330861Y-100082376D01*
X132330861Y-100082375D01*
X132242621Y-99967379D01*
X132127625Y-99879139D01*
X132127624Y-99879138D01*
X132127622Y-99879137D01*
X131993712Y-99823671D01*
X131993710Y-99823670D01*
X131993709Y-99823670D01*
X131921854Y-99814210D01*
X131850001Y-99804750D01*
X131849999Y-99804750D01*
X131706291Y-99823670D01*
X131706287Y-99823671D01*
X131572377Y-99879137D01*
X131457379Y-99967379D01*
X131369137Y-100082377D01*
X131313671Y-100216287D01*
X131313670Y-100216291D01*
X131294750Y-100359999D01*
X131294750Y-100360000D01*
X126342871Y-100360000D01*
X126333332Y-100314096D01*
X126319078Y-100245500D01*
X126319073Y-100245483D01*
X126225136Y-99981171D01*
X126225136Y-99981170D01*
X126096081Y-99732104D01*
X125934312Y-99502931D01*
X125934307Y-99502925D01*
X125742845Y-99297919D01*
X125525242Y-99120886D01*
X125523785Y-99120000D01*
X127274750Y-99120000D01*
X127291545Y-99247572D01*
X127293670Y-99263708D01*
X127293671Y-99263712D01*
X127349137Y-99397622D01*
X127349138Y-99397624D01*
X127349139Y-99397625D01*
X127437379Y-99512621D01*
X127552375Y-99600861D01*
X127552376Y-99600861D01*
X127552377Y-99600862D01*
X127597013Y-99619350D01*
X127686291Y-99656330D01*
X127800727Y-99671396D01*
X127829999Y-99675250D01*
X127830000Y-99675250D01*
X127830001Y-99675250D01*
X127859273Y-99671396D01*
X127973709Y-99656330D01*
X128107625Y-99600861D01*
X128172080Y-99551403D01*
X142810573Y-99551403D01*
X142831730Y-99671391D01*
X142831732Y-99671396D01*
X142892649Y-99776908D01*
X142892651Y-99776910D01*
X142892652Y-99776912D01*
X142985988Y-99855231D01*
X142985992Y-99855232D01*
X142985993Y-99855233D01*
X143051675Y-99879139D01*
X143100482Y-99896903D01*
X143100484Y-99896903D01*
X143111077Y-99896903D01*
X143178116Y-99916588D01*
X143223871Y-99969392D01*
X143233193Y-99999370D01*
X143248924Y-100088585D01*
X143248926Y-100088590D01*
X143309843Y-100194102D01*
X143309845Y-100194104D01*
X143309846Y-100194106D01*
X143403182Y-100272425D01*
X143403186Y-100272426D01*
X143403187Y-100272427D01*
X143517673Y-100314096D01*
X143517676Y-100314097D01*
X143517678Y-100314097D01*
X143639516Y-100314097D01*
X143639518Y-100314097D01*
X143754012Y-100272425D01*
X143847348Y-100194106D01*
X143908269Y-100088588D01*
X143929427Y-99968597D01*
X143908269Y-99848606D01*
X143875647Y-99792103D01*
X143847350Y-99743091D01*
X143847345Y-99743085D01*
X143754013Y-99664770D01*
X143754012Y-99664769D01*
X143754009Y-99664768D01*
X143754006Y-99664766D01*
X143639520Y-99623097D01*
X143639518Y-99623097D01*
X143628923Y-99623097D01*
X143561884Y-99603412D01*
X143516129Y-99550608D01*
X143506807Y-99520630D01*
X143491075Y-99431414D01*
X143491075Y-99431412D01*
X143430154Y-99325894D01*
X143430152Y-99325892D01*
X143430151Y-99325891D01*
X143336819Y-99247576D01*
X143336818Y-99247575D01*
X143336815Y-99247574D01*
X143336812Y-99247572D01*
X143222326Y-99205903D01*
X143222324Y-99205903D01*
X143100482Y-99205903D01*
X143100479Y-99205903D01*
X142985993Y-99247572D01*
X142985986Y-99247576D01*
X142892654Y-99325891D01*
X142892649Y-99325897D01*
X142831732Y-99431409D01*
X142831730Y-99431414D01*
X142810573Y-99551402D01*
X142810573Y-99551403D01*
X128172080Y-99551403D01*
X128222621Y-99512621D01*
X128310861Y-99397625D01*
X128366330Y-99263709D01*
X128385250Y-99120000D01*
X128366330Y-98976291D01*
X128329350Y-98887013D01*
X128322303Y-98870000D01*
X131264750Y-98870000D01*
X131283670Y-99013708D01*
X131283671Y-99013712D01*
X131339137Y-99147622D01*
X131339138Y-99147624D01*
X131339139Y-99147625D01*
X131427379Y-99262621D01*
X131542375Y-99350861D01*
X131676291Y-99406330D01*
X131803280Y-99423048D01*
X131819999Y-99425250D01*
X131820000Y-99425250D01*
X131820001Y-99425250D01*
X131834977Y-99423278D01*
X131963709Y-99406330D01*
X132097625Y-99350861D01*
X132212621Y-99262621D01*
X132300861Y-99147625D01*
X132356330Y-99013709D01*
X132375250Y-98870000D01*
X132374378Y-98863380D01*
X132367285Y-98809500D01*
X132356330Y-98726291D01*
X132310442Y-98615505D01*
X132300862Y-98592377D01*
X132300861Y-98592376D01*
X132300861Y-98592375D01*
X132212621Y-98477379D01*
X132098747Y-98390000D01*
X142899170Y-98390000D01*
X142920327Y-98509988D01*
X142920329Y-98509993D01*
X142981246Y-98615505D01*
X142981248Y-98615507D01*
X142981249Y-98615509D01*
X143074585Y-98693828D01*
X143074589Y-98693829D01*
X143074590Y-98693830D01*
X143177869Y-98731420D01*
X143189079Y-98735500D01*
X143189081Y-98735500D01*
X143310919Y-98735500D01*
X143310921Y-98735500D01*
X143425415Y-98693828D01*
X143465726Y-98660003D01*
X145474508Y-98660003D01*
X145494352Y-98785300D01*
X145494352Y-98785301D01*
X145512805Y-98821517D01*
X145551950Y-98898342D01*
X145551952Y-98898344D01*
X145551954Y-98898347D01*
X145641652Y-98988045D01*
X145641654Y-98988046D01*
X145641658Y-98988050D01*
X145754696Y-99045646D01*
X145754697Y-99045646D01*
X145754699Y-99045647D01*
X145879997Y-99065492D01*
X145880000Y-99065492D01*
X145880003Y-99065492D01*
X146005300Y-99045647D01*
X146005301Y-99045647D01*
X146005302Y-99045646D01*
X146005304Y-99045646D01*
X146118342Y-98988050D01*
X146208050Y-98898342D01*
X146265646Y-98785304D01*
X146265646Y-98785302D01*
X146265647Y-98785301D01*
X146265647Y-98785300D01*
X146285492Y-98660003D01*
X146285492Y-98659996D01*
X146265647Y-98534699D01*
X146265647Y-98534698D01*
X146253058Y-98509991D01*
X146211073Y-98427590D01*
X148184170Y-98427590D01*
X148205327Y-98547578D01*
X148205329Y-98547583D01*
X148266246Y-98653095D01*
X148266251Y-98653101D01*
X148299477Y-98680981D01*
X148359585Y-98731418D01*
X148359589Y-98731419D01*
X148359590Y-98731420D01*
X148370800Y-98735500D01*
X148474079Y-98773090D01*
X148474081Y-98773090D01*
X148595919Y-98773090D01*
X148595921Y-98773090D01*
X148710415Y-98731418D01*
X148750295Y-98697953D01*
X148814301Y-98669942D01*
X148883293Y-98680981D01*
X148909701Y-98697951D01*
X148949585Y-98731418D01*
X148949588Y-98731419D01*
X148949590Y-98731420D01*
X148960800Y-98735500D01*
X149064079Y-98773090D01*
X149064081Y-98773090D01*
X149185919Y-98773090D01*
X149185921Y-98773090D01*
X149300415Y-98731418D01*
X149393751Y-98653099D01*
X149454672Y-98547581D01*
X149475830Y-98427590D01*
X149460386Y-98340003D01*
X152994508Y-98340003D01*
X153014352Y-98465300D01*
X153014352Y-98465301D01*
X153032805Y-98501517D01*
X153071950Y-98578342D01*
X153071952Y-98578344D01*
X153071954Y-98578347D01*
X153161652Y-98668045D01*
X153161654Y-98668046D01*
X153161658Y-98668050D01*
X153274696Y-98725646D01*
X153274697Y-98725646D01*
X153274699Y-98725647D01*
X153399997Y-98745492D01*
X153400000Y-98745492D01*
X153400003Y-98745492D01*
X153525300Y-98725647D01*
X153525301Y-98725647D01*
X153525302Y-98725646D01*
X153525304Y-98725646D01*
X153638342Y-98668050D01*
X153728050Y-98578342D01*
X153785646Y-98465304D01*
X153785646Y-98465302D01*
X153785647Y-98465301D01*
X153785647Y-98465300D01*
X153805492Y-98340003D01*
X153805492Y-98339996D01*
X153785647Y-98214699D01*
X153785647Y-98214698D01*
X153779217Y-98202078D01*
X153728050Y-98101658D01*
X153709072Y-98082680D01*
X153675588Y-98021360D01*
X153680571Y-97951669D01*
X153709072Y-97907319D01*
X153728050Y-97888342D01*
X153785646Y-97775304D01*
X153785646Y-97775302D01*
X153785647Y-97775301D01*
X153785647Y-97775300D01*
X153805492Y-97650003D01*
X153805492Y-97649996D01*
X153785647Y-97524699D01*
X153785647Y-97524698D01*
X153785646Y-97524696D01*
X153728050Y-97411658D01*
X153728046Y-97411654D01*
X153728045Y-97411652D01*
X153638347Y-97321954D01*
X153638344Y-97321952D01*
X153638342Y-97321950D01*
X153525304Y-97264354D01*
X153525303Y-97264353D01*
X153525300Y-97264352D01*
X153400003Y-97244508D01*
X153399997Y-97244508D01*
X153274699Y-97264352D01*
X153274698Y-97264352D01*
X153199337Y-97302751D01*
X153161658Y-97321950D01*
X153161657Y-97321950D01*
X153161657Y-97321951D01*
X153161652Y-97321954D01*
X153071954Y-97411652D01*
X153071951Y-97411657D01*
X153071950Y-97411658D01*
X153064201Y-97426866D01*
X153014352Y-97524698D01*
X153014352Y-97524699D01*
X152994508Y-97649996D01*
X152994508Y-97650003D01*
X153014352Y-97775300D01*
X153014352Y-97775301D01*
X153014354Y-97775304D01*
X153071950Y-97888342D01*
X153071952Y-97888344D01*
X153071954Y-97888347D01*
X153090926Y-97907319D01*
X153124411Y-97968642D01*
X153119427Y-98038334D01*
X153090926Y-98082681D01*
X153071954Y-98101652D01*
X153071951Y-98101657D01*
X153071950Y-98101658D01*
X153060687Y-98123763D01*
X153014352Y-98214698D01*
X153014352Y-98214699D01*
X152994508Y-98339996D01*
X152994508Y-98340003D01*
X149460386Y-98340003D01*
X149454672Y-98307599D01*
X149401036Y-98214699D01*
X149393753Y-98202084D01*
X149393748Y-98202078D01*
X149300416Y-98123763D01*
X149300415Y-98123762D01*
X149300412Y-98123761D01*
X149300409Y-98123759D01*
X149185923Y-98082090D01*
X149185921Y-98082090D01*
X149064079Y-98082090D01*
X149064076Y-98082090D01*
X148949590Y-98123759D01*
X148949583Y-98123763D01*
X148909705Y-98157225D01*
X148845697Y-98185237D01*
X148776705Y-98174198D01*
X148750295Y-98157225D01*
X148710416Y-98123763D01*
X148710415Y-98123762D01*
X148710412Y-98123761D01*
X148710409Y-98123759D01*
X148595923Y-98082090D01*
X148595921Y-98082090D01*
X148474079Y-98082090D01*
X148474076Y-98082090D01*
X148359590Y-98123759D01*
X148359583Y-98123763D01*
X148266251Y-98202078D01*
X148266246Y-98202084D01*
X148205329Y-98307596D01*
X148205327Y-98307601D01*
X148184170Y-98427589D01*
X148184170Y-98427590D01*
X146211073Y-98427590D01*
X146208050Y-98421658D01*
X146208046Y-98421654D01*
X146208045Y-98421652D01*
X146118347Y-98331954D01*
X146118344Y-98331952D01*
X146118342Y-98331950D01*
X146005304Y-98274354D01*
X146005303Y-98274353D01*
X146005300Y-98274352D01*
X145880003Y-98254508D01*
X145879997Y-98254508D01*
X145754699Y-98274352D01*
X145754698Y-98274352D01*
X145689455Y-98307596D01*
X145641658Y-98331950D01*
X145641657Y-98331951D01*
X145641652Y-98331954D01*
X145551954Y-98421652D01*
X145551951Y-98421657D01*
X145551950Y-98421658D01*
X145532751Y-98459337D01*
X145494352Y-98534698D01*
X145494352Y-98534699D01*
X145474508Y-98659996D01*
X145474508Y-98660003D01*
X143465726Y-98660003D01*
X143518751Y-98615509D01*
X143579672Y-98509991D01*
X143600830Y-98390000D01*
X143579672Y-98270009D01*
X143518751Y-98164491D01*
X143518750Y-98164490D01*
X143514426Y-98157000D01*
X143497953Y-98089100D01*
X143514426Y-98033000D01*
X143526579Y-98011950D01*
X143579672Y-97919991D01*
X143600830Y-97800000D01*
X143579672Y-97680009D01*
X143518751Y-97574491D01*
X143518749Y-97574489D01*
X143518748Y-97574488D01*
X143425416Y-97496173D01*
X143425415Y-97496172D01*
X143425412Y-97496171D01*
X143425409Y-97496169D01*
X143310923Y-97454500D01*
X143310921Y-97454500D01*
X143189079Y-97454500D01*
X143189076Y-97454500D01*
X143074590Y-97496169D01*
X143074583Y-97496173D01*
X142981251Y-97574488D01*
X142981246Y-97574494D01*
X142920329Y-97680006D01*
X142920327Y-97680011D01*
X142899170Y-97799999D01*
X142899170Y-97800000D01*
X142920327Y-97919988D01*
X142920329Y-97919993D01*
X142985573Y-98032999D01*
X143002046Y-98100899D01*
X142985574Y-98156998D01*
X142920328Y-98270008D01*
X142920327Y-98270011D01*
X142899170Y-98389999D01*
X142899170Y-98390000D01*
X132098747Y-98390000D01*
X132097625Y-98389139D01*
X132097624Y-98389138D01*
X132097622Y-98389137D01*
X131963712Y-98333671D01*
X131963710Y-98333670D01*
X131963709Y-98333670D01*
X131891854Y-98324210D01*
X131820001Y-98314750D01*
X131819999Y-98314750D01*
X131676291Y-98333670D01*
X131676287Y-98333671D01*
X131542377Y-98389137D01*
X131427379Y-98477379D01*
X131339137Y-98592377D01*
X131283671Y-98726287D01*
X131283670Y-98726291D01*
X131264750Y-98869999D01*
X131264750Y-98870000D01*
X128322303Y-98870000D01*
X128310862Y-98842377D01*
X128310861Y-98842376D01*
X128310861Y-98842375D01*
X128222621Y-98727379D01*
X128107625Y-98639139D01*
X128107624Y-98639138D01*
X128107622Y-98639137D01*
X127973712Y-98583671D01*
X127973710Y-98583670D01*
X127973709Y-98583670D01*
X127901854Y-98574210D01*
X127830001Y-98564750D01*
X127829999Y-98564750D01*
X127686291Y-98583670D01*
X127686287Y-98583671D01*
X127552377Y-98639137D01*
X127437379Y-98727379D01*
X127349137Y-98842377D01*
X127293671Y-98976287D01*
X127293670Y-98976291D01*
X127285923Y-99035138D01*
X127274750Y-99120000D01*
X125523785Y-99120000D01*
X125285566Y-98975136D01*
X125028276Y-98863380D01*
X124758166Y-98787698D01*
X124758162Y-98787697D01*
X124758161Y-98787697D01*
X124619209Y-98768598D01*
X124480259Y-98749500D01*
X124480258Y-98749500D01*
X124199742Y-98749500D01*
X124199741Y-98749500D01*
X123921839Y-98787697D01*
X123921833Y-98787698D01*
X123651723Y-98863380D01*
X123394433Y-98975136D01*
X123154757Y-99120886D01*
X122937154Y-99297919D01*
X122745692Y-99502925D01*
X122745692Y-99502926D01*
X122745689Y-99502928D01*
X122745688Y-99502931D01*
X122703339Y-99562926D01*
X122583919Y-99732103D01*
X122454863Y-99981171D01*
X122360926Y-100245483D01*
X122360921Y-100245500D01*
X122303852Y-100520135D01*
X122303851Y-100520137D01*
X122284709Y-100800000D01*
X121850500Y-100800000D01*
X121850500Y-97770003D01*
X134874508Y-97770003D01*
X134894352Y-97895300D01*
X134894352Y-97895301D01*
X134894354Y-97895304D01*
X134951950Y-98008342D01*
X134951952Y-98008344D01*
X134951954Y-98008347D01*
X135041652Y-98098045D01*
X135041654Y-98098046D01*
X135041658Y-98098050D01*
X135154696Y-98155646D01*
X135154697Y-98155646D01*
X135154699Y-98155647D01*
X135279997Y-98175492D01*
X135280000Y-98175492D01*
X135280003Y-98175492D01*
X135405300Y-98155647D01*
X135405301Y-98155646D01*
X135405304Y-98155646D01*
X135435717Y-98140149D01*
X135504383Y-98127253D01*
X135539801Y-98137652D01*
X135539836Y-98137547D01*
X135543533Y-98138748D01*
X135548306Y-98140149D01*
X135549115Y-98140562D01*
X135549119Y-98140562D01*
X135549120Y-98140563D01*
X135549118Y-98140563D01*
X135674416Y-98160408D01*
X135674419Y-98160408D01*
X135674422Y-98160408D01*
X135799719Y-98140563D01*
X135799720Y-98140563D01*
X135799721Y-98140562D01*
X135799723Y-98140562D01*
X135912761Y-98082966D01*
X136002469Y-97993258D01*
X136060065Y-97880220D01*
X136060065Y-97880218D01*
X136060066Y-97880217D01*
X136060066Y-97880216D01*
X136079911Y-97754919D01*
X136079911Y-97754912D01*
X136060066Y-97629615D01*
X136060066Y-97629614D01*
X136060065Y-97629612D01*
X136002469Y-97516574D01*
X136002465Y-97516570D01*
X136002464Y-97516568D01*
X135912766Y-97426870D01*
X135912763Y-97426868D01*
X135912761Y-97426866D01*
X135799723Y-97369270D01*
X135799722Y-97369269D01*
X135799719Y-97369268D01*
X135674422Y-97349424D01*
X135674417Y-97349424D01*
X135549116Y-97369269D01*
X135549114Y-97369269D01*
X135518700Y-97384766D01*
X135450030Y-97397661D01*
X135414622Y-97387264D01*
X135414588Y-97387370D01*
X135410887Y-97386167D01*
X135406117Y-97384767D01*
X135405308Y-97384355D01*
X135405302Y-97384353D01*
X135280002Y-97364508D01*
X135279997Y-97364508D01*
X135154699Y-97384352D01*
X135154698Y-97384352D01*
X135101111Y-97411657D01*
X135041658Y-97441950D01*
X135041657Y-97441950D01*
X135041657Y-97441951D01*
X135041652Y-97441954D01*
X134951954Y-97531652D01*
X134951951Y-97531657D01*
X134894352Y-97644698D01*
X134894352Y-97644699D01*
X134874508Y-97769996D01*
X134874508Y-97770003D01*
X121850500Y-97770003D01*
X121850500Y-96359357D01*
X131004500Y-96359357D01*
X131019868Y-96446515D01*
X131019870Y-96446520D01*
X131079024Y-96548978D01*
X131079029Y-96548984D01*
X131096722Y-96563830D01*
X131169662Y-96625034D01*
X131280842Y-96665500D01*
X131280844Y-96665500D01*
X131399156Y-96665500D01*
X131399158Y-96665500D01*
X131510338Y-96625034D01*
X131587842Y-96560000D01*
X144384170Y-96560000D01*
X144405327Y-96679988D01*
X144405329Y-96679993D01*
X144466246Y-96785505D01*
X144466251Y-96785511D01*
X144495435Y-96809999D01*
X144559585Y-96863828D01*
X144674079Y-96905500D01*
X144674081Y-96905500D01*
X144795919Y-96905500D01*
X144795921Y-96905500D01*
X144910415Y-96863828D01*
X144950295Y-96830363D01*
X145014301Y-96802352D01*
X145083293Y-96813391D01*
X145109701Y-96830361D01*
X145149585Y-96863828D01*
X145264079Y-96905500D01*
X145264081Y-96905500D01*
X145385919Y-96905500D01*
X145385921Y-96905500D01*
X145500415Y-96863828D01*
X145564564Y-96810000D01*
X149624170Y-96810000D01*
X149645327Y-96929988D01*
X149645329Y-96929993D01*
X149706246Y-97035505D01*
X149706251Y-97035511D01*
X149739477Y-97063391D01*
X149799585Y-97113828D01*
X149914079Y-97155500D01*
X149914081Y-97155500D01*
X150035919Y-97155500D01*
X150035921Y-97155500D01*
X150150415Y-97113828D01*
X150190295Y-97080363D01*
X150254301Y-97052352D01*
X150323293Y-97063391D01*
X150349701Y-97080361D01*
X150389585Y-97113828D01*
X150504079Y-97155500D01*
X150504081Y-97155500D01*
X150625919Y-97155500D01*
X150625921Y-97155500D01*
X150740415Y-97113828D01*
X150833751Y-97035509D01*
X150894672Y-96929991D01*
X150915830Y-96810000D01*
X150914481Y-96802352D01*
X150894672Y-96690011D01*
X150894672Y-96690009D01*
X150833751Y-96584491D01*
X150833749Y-96584489D01*
X150833748Y-96584488D01*
X150740416Y-96506173D01*
X150740415Y-96506172D01*
X150740412Y-96506171D01*
X150740409Y-96506169D01*
X150625923Y-96464500D01*
X150625921Y-96464500D01*
X150504079Y-96464500D01*
X150504076Y-96464500D01*
X150389590Y-96506169D01*
X150389583Y-96506173D01*
X150349705Y-96539635D01*
X150285697Y-96567647D01*
X150216705Y-96556608D01*
X150190295Y-96539635D01*
X150150416Y-96506173D01*
X150150415Y-96506172D01*
X150150412Y-96506171D01*
X150150409Y-96506169D01*
X150035923Y-96464500D01*
X150035921Y-96464500D01*
X149914079Y-96464500D01*
X149914076Y-96464500D01*
X149799590Y-96506169D01*
X149799583Y-96506173D01*
X149706251Y-96584488D01*
X149706246Y-96584494D01*
X149645329Y-96690006D01*
X149645327Y-96690011D01*
X149624170Y-96809999D01*
X149624170Y-96810000D01*
X145564564Y-96810000D01*
X145593751Y-96785509D01*
X145654672Y-96679991D01*
X145675830Y-96560000D01*
X145673886Y-96548978D01*
X145666339Y-96506173D01*
X145654672Y-96440009D01*
X145620000Y-96379955D01*
X145593753Y-96334494D01*
X145593748Y-96334488D01*
X145504977Y-96260000D01*
X146424170Y-96260000D01*
X146445327Y-96379988D01*
X146445329Y-96379993D01*
X146506246Y-96485505D01*
X146506251Y-96485511D01*
X146530870Y-96506169D01*
X146599585Y-96563828D01*
X146599589Y-96563829D01*
X146599590Y-96563830D01*
X146656365Y-96584494D01*
X146714079Y-96605500D01*
X146714081Y-96605500D01*
X146835919Y-96605500D01*
X146835921Y-96605500D01*
X146950415Y-96563828D01*
X146990295Y-96530363D01*
X147054301Y-96502352D01*
X147123293Y-96513391D01*
X147149701Y-96530361D01*
X147189585Y-96563828D01*
X147189588Y-96563829D01*
X147189590Y-96563830D01*
X147246365Y-96584494D01*
X147304079Y-96605500D01*
X147304081Y-96605500D01*
X147425919Y-96605500D01*
X147425921Y-96605500D01*
X147540415Y-96563828D01*
X147633751Y-96485509D01*
X147694672Y-96379991D01*
X147715830Y-96260000D01*
X147715154Y-96256169D01*
X147694672Y-96140011D01*
X147694672Y-96140009D01*
X147633751Y-96034491D01*
X147633749Y-96034489D01*
X147633748Y-96034488D01*
X147540416Y-95956173D01*
X147540415Y-95956172D01*
X147540412Y-95956171D01*
X147540409Y-95956169D01*
X147425923Y-95914500D01*
X147425921Y-95914500D01*
X147304079Y-95914500D01*
X147304076Y-95914500D01*
X147189590Y-95956169D01*
X147189583Y-95956173D01*
X147149705Y-95989635D01*
X147085697Y-96017647D01*
X147016705Y-96006608D01*
X146990295Y-95989635D01*
X146950416Y-95956173D01*
X146950415Y-95956172D01*
X146950412Y-95956171D01*
X146950409Y-95956169D01*
X146835923Y-95914500D01*
X146835921Y-95914500D01*
X146714079Y-95914500D01*
X146714076Y-95914500D01*
X146599590Y-95956169D01*
X146599583Y-95956173D01*
X146506251Y-96034488D01*
X146506246Y-96034494D01*
X146445329Y-96140006D01*
X146445327Y-96140011D01*
X146424170Y-96259999D01*
X146424170Y-96260000D01*
X145504977Y-96260000D01*
X145500416Y-96256173D01*
X145500415Y-96256172D01*
X145500412Y-96256171D01*
X145500409Y-96256169D01*
X145385923Y-96214500D01*
X145385921Y-96214500D01*
X145264079Y-96214500D01*
X145264076Y-96214500D01*
X145149590Y-96256169D01*
X145149583Y-96256173D01*
X145109705Y-96289635D01*
X145045697Y-96317647D01*
X144976705Y-96306608D01*
X144950295Y-96289635D01*
X144910416Y-96256173D01*
X144910415Y-96256172D01*
X144910412Y-96256171D01*
X144910409Y-96256169D01*
X144795923Y-96214500D01*
X144795921Y-96214500D01*
X144674079Y-96214500D01*
X144674076Y-96214500D01*
X144559590Y-96256169D01*
X144559583Y-96256173D01*
X144466251Y-96334488D01*
X144466246Y-96334494D01*
X144405329Y-96440006D01*
X144405327Y-96440011D01*
X144384170Y-96559999D01*
X144384170Y-96560000D01*
X131587842Y-96560000D01*
X131600973Y-96548982D01*
X131660131Y-96446518D01*
X131675500Y-96359355D01*
X131675500Y-96000645D01*
X131660131Y-95913482D01*
X131600973Y-95811018D01*
X131600971Y-95811016D01*
X131600970Y-95811015D01*
X131510339Y-95734967D01*
X131510338Y-95734966D01*
X131510336Y-95734965D01*
X131510334Y-95734964D01*
X131399159Y-95694500D01*
X131399158Y-95694500D01*
X131280842Y-95694500D01*
X131280840Y-95694500D01*
X131169665Y-95734964D01*
X131169660Y-95734967D01*
X131079029Y-95811015D01*
X131079024Y-95811021D01*
X131019870Y-95913479D01*
X131019868Y-95913484D01*
X131004500Y-96000642D01*
X131004500Y-96359357D01*
X121850500Y-96359357D01*
X121850500Y-95530003D01*
X140804508Y-95530003D01*
X140824352Y-95655300D01*
X140824352Y-95655301D01*
X140824354Y-95655304D01*
X140881950Y-95768342D01*
X140881952Y-95768344D01*
X140881954Y-95768347D01*
X140971652Y-95858045D01*
X140971654Y-95858046D01*
X140971658Y-95858050D01*
X141084696Y-95915646D01*
X141084697Y-95915646D01*
X141084699Y-95915647D01*
X141209997Y-95935492D01*
X141210000Y-95935492D01*
X141210003Y-95935492D01*
X141335300Y-95915647D01*
X141335301Y-95915647D01*
X141335302Y-95915646D01*
X141335304Y-95915646D01*
X141448342Y-95858050D01*
X141538050Y-95768342D01*
X141595646Y-95655304D01*
X141595646Y-95655302D01*
X141595647Y-95655301D01*
X141595647Y-95655300D01*
X141615492Y-95530003D01*
X141615492Y-95529996D01*
X141595647Y-95404699D01*
X141595647Y-95404698D01*
X141595646Y-95404696D01*
X141538050Y-95291658D01*
X141538046Y-95291654D01*
X141538045Y-95291652D01*
X141448347Y-95201954D01*
X141448344Y-95201952D01*
X141448342Y-95201950D01*
X141335304Y-95144354D01*
X141335303Y-95144353D01*
X141335300Y-95144352D01*
X141210003Y-95124508D01*
X141209997Y-95124508D01*
X141084699Y-95144352D01*
X141084698Y-95144352D01*
X141018574Y-95178045D01*
X140971658Y-95201950D01*
X140971656Y-95201951D01*
X140971657Y-95201951D01*
X140971652Y-95201954D01*
X140881954Y-95291652D01*
X140881951Y-95291657D01*
X140881950Y-95291658D01*
X140862751Y-95329337D01*
X140824352Y-95404698D01*
X140824352Y-95404699D01*
X140804508Y-95529996D01*
X140804508Y-95530003D01*
X121850500Y-95530003D01*
X121850500Y-94980000D01*
X129509610Y-94980000D01*
X129529068Y-95115337D01*
X129529070Y-95115345D01*
X129585867Y-95239714D01*
X129585872Y-95239721D01*
X129675409Y-95343053D01*
X129675413Y-95343057D01*
X129717715Y-95370242D01*
X129790439Y-95416978D01*
X129856035Y-95436238D01*
X129921632Y-95455500D01*
X129921633Y-95455500D01*
X130058367Y-95455500D01*
X130189561Y-95416978D01*
X130304589Y-95343055D01*
X130394130Y-95239718D01*
X130450931Y-95115342D01*
X130470390Y-94980000D01*
X130450931Y-94844658D01*
X130423825Y-94785304D01*
X130394132Y-94720285D01*
X130394130Y-94720283D01*
X130394130Y-94720282D01*
X130354893Y-94675000D01*
X139529170Y-94675000D01*
X139550327Y-94794988D01*
X139550329Y-94794993D01*
X139611246Y-94900505D01*
X139611251Y-94900511D01*
X139616963Y-94905304D01*
X139704585Y-94978828D01*
X139704589Y-94978829D01*
X139704590Y-94978830D01*
X139819076Y-95020499D01*
X139819079Y-95020500D01*
X139819081Y-95020500D01*
X139940919Y-95020500D01*
X139940921Y-95020500D01*
X140055415Y-94978828D01*
X140072189Y-94964753D01*
X144144508Y-94964753D01*
X144164352Y-95090050D01*
X144164352Y-95090051D01*
X144173521Y-95108045D01*
X144221950Y-95203092D01*
X144221952Y-95203094D01*
X144221954Y-95203097D01*
X144311652Y-95292795D01*
X144311654Y-95292796D01*
X144311658Y-95292800D01*
X144424696Y-95350396D01*
X144424697Y-95350396D01*
X144424699Y-95350397D01*
X144549997Y-95370242D01*
X144550000Y-95370242D01*
X144550003Y-95370242D01*
X144675300Y-95350397D01*
X144675301Y-95350397D01*
X144675302Y-95350396D01*
X144675304Y-95350396D01*
X144788342Y-95292800D01*
X144878050Y-95203092D01*
X144935646Y-95090054D01*
X144935646Y-95090052D01*
X144935647Y-95090051D01*
X144935647Y-95090050D01*
X144955492Y-94964753D01*
X144955492Y-94964746D01*
X144938902Y-94860003D01*
X145294508Y-94860003D01*
X145314352Y-94985300D01*
X145314352Y-94985301D01*
X145326095Y-95008347D01*
X145371950Y-95098342D01*
X145371952Y-95098344D01*
X145371954Y-95098347D01*
X145461652Y-95188045D01*
X145461654Y-95188046D01*
X145461658Y-95188050D01*
X145574696Y-95245646D01*
X145574697Y-95245646D01*
X145574699Y-95245647D01*
X145699997Y-95265492D01*
X145700000Y-95265492D01*
X145700003Y-95265492D01*
X145825300Y-95245647D01*
X145825301Y-95245647D01*
X145825302Y-95245646D01*
X145825304Y-95245646D01*
X145938342Y-95188050D01*
X146028050Y-95098342D01*
X146085646Y-94985304D01*
X146085646Y-94985302D01*
X146085647Y-94985301D01*
X146085647Y-94985300D01*
X146105492Y-94860003D01*
X146105492Y-94859996D01*
X146085647Y-94734699D01*
X146085647Y-94734698D01*
X146081423Y-94726408D01*
X146047588Y-94660003D01*
X146714508Y-94660003D01*
X146734352Y-94785300D01*
X146734352Y-94785301D01*
X146752805Y-94821517D01*
X146791950Y-94898342D01*
X146791952Y-94898344D01*
X146791954Y-94898347D01*
X146881652Y-94988045D01*
X146881654Y-94988046D01*
X146881658Y-94988050D01*
X146994696Y-95045646D01*
X146994697Y-95045646D01*
X146994699Y-95045647D01*
X147119997Y-95065492D01*
X147120000Y-95065492D01*
X147120003Y-95065492D01*
X147245300Y-95045647D01*
X147245301Y-95045647D01*
X147245302Y-95045646D01*
X147245304Y-95045646D01*
X147358342Y-94988050D01*
X147448050Y-94898342D01*
X147505646Y-94785304D01*
X147505646Y-94785302D01*
X147505647Y-94785301D01*
X147505647Y-94785300D01*
X147508070Y-94770003D01*
X150034508Y-94770003D01*
X150054352Y-94895300D01*
X150054352Y-94895301D01*
X150059449Y-94905304D01*
X150111950Y-95008342D01*
X150111952Y-95008344D01*
X150111954Y-95008347D01*
X150201652Y-95098045D01*
X150201654Y-95098046D01*
X150201658Y-95098050D01*
X150314696Y-95155646D01*
X150314697Y-95155646D01*
X150314699Y-95155647D01*
X150439997Y-95175492D01*
X150440000Y-95175492D01*
X150440003Y-95175492D01*
X150565300Y-95155647D01*
X150565301Y-95155647D01*
X150565302Y-95155646D01*
X150565304Y-95155646D01*
X150678342Y-95098050D01*
X150768050Y-95008342D01*
X150825646Y-94895304D01*
X150825646Y-94895302D01*
X150825647Y-94895301D01*
X150825647Y-94895300D01*
X150843908Y-94780003D01*
X156234508Y-94780003D01*
X156254352Y-94905300D01*
X156254352Y-94905301D01*
X156254354Y-94905304D01*
X156311950Y-95018342D01*
X156311952Y-95018344D01*
X156311954Y-95018347D01*
X156401652Y-95108045D01*
X156401654Y-95108046D01*
X156401658Y-95108050D01*
X156514696Y-95165646D01*
X156514697Y-95165646D01*
X156514699Y-95165647D01*
X156639997Y-95185492D01*
X156640000Y-95185492D01*
X156640003Y-95185492D01*
X156765300Y-95165647D01*
X156765302Y-95165646D01*
X156765304Y-95165646D01*
X156813516Y-95141080D01*
X156882183Y-95128184D01*
X156946924Y-95154459D01*
X156957491Y-95163884D01*
X156971652Y-95178045D01*
X156971654Y-95178046D01*
X156971658Y-95178050D01*
X157084696Y-95235646D01*
X157084697Y-95235646D01*
X157084699Y-95235647D01*
X157209997Y-95255492D01*
X157210000Y-95255492D01*
X157210003Y-95255492D01*
X157335300Y-95235647D01*
X157335301Y-95235647D01*
X157335302Y-95235646D01*
X157335304Y-95235646D01*
X157448342Y-95178050D01*
X157538050Y-95088342D01*
X157595646Y-94975304D01*
X157595646Y-94975302D01*
X157595647Y-94975301D01*
X157595647Y-94975300D01*
X157615492Y-94850003D01*
X157615492Y-94849996D01*
X157595647Y-94724699D01*
X157595647Y-94724698D01*
X157593396Y-94720281D01*
X157538050Y-94611658D01*
X157538046Y-94611654D01*
X157538045Y-94611652D01*
X157448347Y-94521954D01*
X157448344Y-94521952D01*
X157448342Y-94521950D01*
X157335304Y-94464354D01*
X157335303Y-94464353D01*
X157335300Y-94464352D01*
X157210003Y-94444508D01*
X157209997Y-94444508D01*
X157084699Y-94464352D01*
X157084695Y-94464353D01*
X157036483Y-94488919D01*
X156967814Y-94501815D01*
X156903073Y-94475538D01*
X156892510Y-94466117D01*
X156878343Y-94451951D01*
X156878342Y-94451950D01*
X156765304Y-94394354D01*
X156765303Y-94394353D01*
X156765300Y-94394352D01*
X156640003Y-94374508D01*
X156639997Y-94374508D01*
X156514699Y-94394352D01*
X156514698Y-94394352D01*
X156461111Y-94421657D01*
X156401658Y-94451950D01*
X156401657Y-94451951D01*
X156401652Y-94451954D01*
X156311954Y-94541652D01*
X156311951Y-94541657D01*
X156311950Y-94541658D01*
X156301405Y-94562354D01*
X156254352Y-94654698D01*
X156254352Y-94654699D01*
X156234508Y-94779996D01*
X156234508Y-94780003D01*
X150843908Y-94780003D01*
X150845492Y-94770003D01*
X150845492Y-94769996D01*
X150825647Y-94644699D01*
X150825647Y-94644698D01*
X150808812Y-94611658D01*
X150768050Y-94531658D01*
X150768046Y-94531654D01*
X150768045Y-94531652D01*
X150678347Y-94441954D01*
X150678344Y-94441952D01*
X150678342Y-94441950D01*
X150565304Y-94384354D01*
X150565303Y-94384353D01*
X150565300Y-94384352D01*
X150440003Y-94364508D01*
X150439997Y-94364508D01*
X150314699Y-94384352D01*
X150314698Y-94384352D01*
X150241495Y-94421652D01*
X150201658Y-94441950D01*
X150201657Y-94441950D01*
X150201657Y-94441951D01*
X150201652Y-94441954D01*
X150111954Y-94531652D01*
X150111951Y-94531657D01*
X150111950Y-94531658D01*
X150106855Y-94541658D01*
X150054352Y-94644698D01*
X150054352Y-94644699D01*
X150034508Y-94769996D01*
X150034508Y-94770003D01*
X147508070Y-94770003D01*
X147525492Y-94660003D01*
X147525492Y-94659996D01*
X147505647Y-94534699D01*
X147505647Y-94534698D01*
X147504098Y-94531658D01*
X147448050Y-94421658D01*
X147448046Y-94421654D01*
X147448045Y-94421652D01*
X147358347Y-94331954D01*
X147358344Y-94331952D01*
X147358342Y-94331950D01*
X147245304Y-94274354D01*
X147245303Y-94274353D01*
X147245300Y-94274352D01*
X147120003Y-94254508D01*
X147119997Y-94254508D01*
X146994699Y-94274352D01*
X146994698Y-94274352D01*
X146923738Y-94310509D01*
X146881658Y-94331950D01*
X146881656Y-94331951D01*
X146881657Y-94331951D01*
X146881652Y-94331954D01*
X146791954Y-94421652D01*
X146791951Y-94421657D01*
X146791950Y-94421658D01*
X146782748Y-94439718D01*
X146734352Y-94534698D01*
X146734352Y-94534699D01*
X146714508Y-94659996D01*
X146714508Y-94660003D01*
X146047588Y-94660003D01*
X146028050Y-94621658D01*
X146028046Y-94621654D01*
X146028045Y-94621652D01*
X145938347Y-94531954D01*
X145938344Y-94531952D01*
X145938342Y-94531950D01*
X145825304Y-94474354D01*
X145825303Y-94474353D01*
X145825300Y-94474352D01*
X145700003Y-94454508D01*
X145699997Y-94454508D01*
X145574699Y-94474352D01*
X145574698Y-94474352D01*
X145499337Y-94512751D01*
X145461658Y-94531950D01*
X145461657Y-94531951D01*
X145461652Y-94531954D01*
X145371954Y-94621652D01*
X145371951Y-94621657D01*
X145371950Y-94621658D01*
X145360210Y-94644699D01*
X145314352Y-94734698D01*
X145314352Y-94734699D01*
X145294508Y-94859996D01*
X145294508Y-94860003D01*
X144938902Y-94860003D01*
X144935647Y-94839449D01*
X144935647Y-94839448D01*
X144935646Y-94839446D01*
X144878050Y-94726408D01*
X144878046Y-94726404D01*
X144878045Y-94726402D01*
X144788347Y-94636704D01*
X144788344Y-94636702D01*
X144788342Y-94636700D01*
X144675304Y-94579104D01*
X144675303Y-94579103D01*
X144675300Y-94579102D01*
X144550003Y-94559258D01*
X144549997Y-94559258D01*
X144424699Y-94579102D01*
X144424698Y-94579102D01*
X144360817Y-94611652D01*
X144311658Y-94636700D01*
X144311657Y-94636701D01*
X144311652Y-94636704D01*
X144221954Y-94726402D01*
X144221951Y-94726407D01*
X144164352Y-94839448D01*
X144164352Y-94839449D01*
X144144508Y-94964746D01*
X144144508Y-94964753D01*
X140072189Y-94964753D01*
X140148751Y-94900509D01*
X140209672Y-94794991D01*
X140230830Y-94675000D01*
X140225486Y-94644696D01*
X140219660Y-94611652D01*
X140209672Y-94555009D01*
X140178960Y-94501815D01*
X140144426Y-94441999D01*
X140127953Y-94374098D01*
X140144426Y-94317999D01*
X140148749Y-94310510D01*
X140148751Y-94310509D01*
X140209672Y-94204991D01*
X140230830Y-94085000D01*
X140209672Y-93965009D01*
X140148751Y-93859491D01*
X140148749Y-93859489D01*
X140148748Y-93859488D01*
X140101688Y-93820000D01*
X142784170Y-93820000D01*
X142805327Y-93939988D01*
X142805329Y-93939993D01*
X142866246Y-94045505D01*
X142866251Y-94045511D01*
X142878166Y-94055509D01*
X142959585Y-94123828D01*
X142959589Y-94123829D01*
X142959590Y-94123830D01*
X143074076Y-94165499D01*
X143074079Y-94165500D01*
X143074081Y-94165500D01*
X143195919Y-94165500D01*
X143195921Y-94165500D01*
X143310415Y-94123828D01*
X143321835Y-94114244D01*
X143385841Y-94086232D01*
X143454833Y-94097270D01*
X143481247Y-94114245D01*
X143504585Y-94133828D01*
X143504589Y-94133829D01*
X143504590Y-94133830D01*
X143591601Y-94165499D01*
X143619079Y-94175500D01*
X143619081Y-94175500D01*
X143740919Y-94175500D01*
X143740921Y-94175500D01*
X143855415Y-94133828D01*
X143948751Y-94055509D01*
X144009672Y-93949991D01*
X144030830Y-93830000D01*
X144028860Y-93818830D01*
X144022220Y-93781169D01*
X144009672Y-93710009D01*
X143971944Y-93644662D01*
X143948753Y-93604494D01*
X143948748Y-93604488D01*
X143855416Y-93526173D01*
X143855415Y-93526172D01*
X143855412Y-93526171D01*
X143855409Y-93526169D01*
X143824722Y-93515000D01*
X154429170Y-93515000D01*
X154450327Y-93634988D01*
X154450329Y-93634993D01*
X154511246Y-93740505D01*
X154511251Y-93740511D01*
X154544998Y-93768828D01*
X154604585Y-93818828D01*
X154604589Y-93818829D01*
X154604590Y-93818830D01*
X154716307Y-93859491D01*
X154719079Y-93860500D01*
X154719081Y-93860500D01*
X154840919Y-93860500D01*
X154840921Y-93860500D01*
X154955415Y-93818828D01*
X155048751Y-93740509D01*
X155109672Y-93634991D01*
X155130830Y-93515000D01*
X155109672Y-93395009D01*
X155048751Y-93289491D01*
X155048750Y-93289490D01*
X155044426Y-93282000D01*
X155027953Y-93214100D01*
X155044426Y-93158000D01*
X155054005Y-93141409D01*
X155109672Y-93044991D01*
X155130830Y-92925000D01*
X155109672Y-92805009D01*
X155057839Y-92715231D01*
X155048753Y-92699494D01*
X155048748Y-92699488D01*
X154977250Y-92639494D01*
X154955415Y-92621172D01*
X154955412Y-92621171D01*
X154955409Y-92621169D01*
X154840923Y-92579500D01*
X154840921Y-92579500D01*
X154719079Y-92579500D01*
X154719076Y-92579500D01*
X154604590Y-92621169D01*
X154604583Y-92621173D01*
X154511251Y-92699488D01*
X154511246Y-92699494D01*
X154450329Y-92805006D01*
X154450327Y-92805011D01*
X154429170Y-92924999D01*
X154429170Y-92925000D01*
X154450327Y-93044988D01*
X154450328Y-93044991D01*
X154515574Y-93158001D01*
X154532046Y-93225901D01*
X154515574Y-93281999D01*
X154450328Y-93395008D01*
X154450327Y-93395011D01*
X154429170Y-93514999D01*
X154429170Y-93515000D01*
X143824722Y-93515000D01*
X143740923Y-93484500D01*
X143740921Y-93484500D01*
X143619079Y-93484500D01*
X143619076Y-93484500D01*
X143504590Y-93526169D01*
X143504583Y-93526173D01*
X143493161Y-93535757D01*
X143429151Y-93563768D01*
X143360160Y-93552726D01*
X143333752Y-93535754D01*
X143310416Y-93516173D01*
X143310415Y-93516172D01*
X143310412Y-93516171D01*
X143310409Y-93516169D01*
X143195923Y-93474500D01*
X143195921Y-93474500D01*
X143074079Y-93474500D01*
X143074076Y-93474500D01*
X142959590Y-93516169D01*
X142959583Y-93516173D01*
X142866251Y-93594488D01*
X142866246Y-93594494D01*
X142805329Y-93700006D01*
X142805327Y-93700011D01*
X142784170Y-93819999D01*
X142784170Y-93820000D01*
X140101688Y-93820000D01*
X140055416Y-93781173D01*
X140055415Y-93781172D01*
X140055412Y-93781171D01*
X140055409Y-93781169D01*
X139940923Y-93739500D01*
X139940921Y-93739500D01*
X139819079Y-93739500D01*
X139819076Y-93739500D01*
X139704590Y-93781169D01*
X139704583Y-93781173D01*
X139611251Y-93859488D01*
X139611246Y-93859494D01*
X139550329Y-93965006D01*
X139550327Y-93965011D01*
X139529170Y-94084999D01*
X139529170Y-94085000D01*
X139550327Y-94204988D01*
X139550328Y-94204991D01*
X139615574Y-94318001D01*
X139632046Y-94385901D01*
X139615574Y-94441999D01*
X139550328Y-94555008D01*
X139550327Y-94555011D01*
X139529170Y-94674999D01*
X139529170Y-94675000D01*
X130354893Y-94675000D01*
X130342935Y-94661199D01*
X130313912Y-94597648D01*
X130323855Y-94528489D01*
X130342933Y-94498802D01*
X130394130Y-94439718D01*
X130421403Y-94380000D01*
X130434841Y-94350572D01*
X130450577Y-94316116D01*
X130496331Y-94263313D01*
X130563371Y-94243628D01*
X130598305Y-94248651D01*
X130621630Y-94255499D01*
X130621632Y-94255500D01*
X130621633Y-94255500D01*
X130758367Y-94255500D01*
X130889561Y-94216978D01*
X131004589Y-94143055D01*
X131094130Y-94039718D01*
X131150931Y-93915342D01*
X131170390Y-93780000D01*
X131155811Y-93678597D01*
X132610573Y-93678597D01*
X132631730Y-93798585D01*
X132631732Y-93798590D01*
X132692649Y-93904102D01*
X132692654Y-93904108D01*
X132711933Y-93920285D01*
X132785988Y-93982425D01*
X132900482Y-94024097D01*
X132900484Y-94024097D01*
X133022322Y-94024097D01*
X133022324Y-94024097D01*
X133136818Y-93982425D01*
X133230154Y-93904106D01*
X133291075Y-93798588D01*
X133306806Y-93709370D01*
X133337834Y-93646767D01*
X133397782Y-93610877D01*
X133428923Y-93606903D01*
X133439516Y-93606903D01*
X133439518Y-93606903D01*
X133554012Y-93565231D01*
X133647348Y-93486912D01*
X133659999Y-93465000D01*
X134269170Y-93465000D01*
X134290327Y-93584988D01*
X134290329Y-93584993D01*
X134351246Y-93690505D01*
X134351251Y-93690511D01*
X134362573Y-93700011D01*
X134444585Y-93768828D01*
X134444589Y-93768829D01*
X134444590Y-93768830D01*
X134526356Y-93798590D01*
X134559079Y-93810500D01*
X134559081Y-93810500D01*
X134680919Y-93810500D01*
X134680921Y-93810500D01*
X134795415Y-93768828D01*
X134888751Y-93690509D01*
X134949672Y-93584991D01*
X134970830Y-93465000D01*
X134970160Y-93461203D01*
X134954920Y-93374770D01*
X134949672Y-93345009D01*
X134888751Y-93239491D01*
X134888750Y-93239490D01*
X134884426Y-93232000D01*
X134867953Y-93164100D01*
X134884426Y-93108000D01*
X134890199Y-93098001D01*
X134949672Y-92994991D01*
X134970830Y-92875000D01*
X134949672Y-92755009D01*
X134897997Y-92665505D01*
X134888753Y-92649494D01*
X134888748Y-92649488D01*
X134795416Y-92571173D01*
X134795415Y-92571172D01*
X134795412Y-92571171D01*
X134795409Y-92571169D01*
X134680923Y-92529500D01*
X134680921Y-92529500D01*
X134559079Y-92529500D01*
X134559076Y-92529500D01*
X134444590Y-92571169D01*
X134444583Y-92571173D01*
X134351251Y-92649488D01*
X134351246Y-92649494D01*
X134290329Y-92755006D01*
X134290327Y-92755011D01*
X134269170Y-92874999D01*
X134269170Y-92875000D01*
X134290327Y-92994988D01*
X134290328Y-92994991D01*
X134355574Y-93108001D01*
X134372046Y-93175901D01*
X134355574Y-93231999D01*
X134290328Y-93345008D01*
X134290327Y-93345011D01*
X134269170Y-93464999D01*
X134269170Y-93465000D01*
X133659999Y-93465000D01*
X133708269Y-93381394D01*
X133729427Y-93261403D01*
X133708269Y-93141412D01*
X133657863Y-93054106D01*
X133647350Y-93035897D01*
X133647345Y-93035891D01*
X133554013Y-92957576D01*
X133554012Y-92957575D01*
X133554009Y-92957574D01*
X133554006Y-92957572D01*
X133439520Y-92915903D01*
X133439518Y-92915903D01*
X133317676Y-92915903D01*
X133317673Y-92915903D01*
X133203187Y-92957572D01*
X133203180Y-92957576D01*
X133109848Y-93035891D01*
X133109843Y-93035897D01*
X133048926Y-93141409D01*
X133048924Y-93141414D01*
X133033193Y-93230630D01*
X133002166Y-93293233D01*
X132942218Y-93329123D01*
X132911077Y-93333097D01*
X132900479Y-93333097D01*
X132785993Y-93374766D01*
X132785986Y-93374770D01*
X132692654Y-93453085D01*
X132692649Y-93453091D01*
X132631732Y-93558603D01*
X132631730Y-93558608D01*
X132610573Y-93678596D01*
X132610573Y-93678597D01*
X131155811Y-93678597D01*
X131150931Y-93644658D01*
X131132586Y-93604488D01*
X131094132Y-93520285D01*
X131094130Y-93520283D01*
X131094130Y-93520282D01*
X131042935Y-93461199D01*
X131013912Y-93397648D01*
X131023855Y-93328489D01*
X131042933Y-93298802D01*
X131094130Y-93239718D01*
X131150931Y-93115342D01*
X131170390Y-92980000D01*
X131158832Y-92899613D01*
X131168775Y-92830457D01*
X131214530Y-92777653D01*
X131281570Y-92757968D01*
X131323979Y-92765446D01*
X131357519Y-92777653D01*
X131379079Y-92785500D01*
X131379081Y-92785500D01*
X131500919Y-92785500D01*
X131500921Y-92785500D01*
X131615415Y-92743828D01*
X131708751Y-92665509D01*
X131769672Y-92559991D01*
X131790830Y-92440000D01*
X131785787Y-92411403D01*
X131775931Y-92355505D01*
X131769672Y-92320009D01*
X131728435Y-92248585D01*
X131708753Y-92214494D01*
X131708748Y-92214488D01*
X131655648Y-92169932D01*
X131616946Y-92111761D01*
X131615838Y-92041900D01*
X131627969Y-92012940D01*
X131629672Y-92009991D01*
X131638487Y-91960000D01*
X133119170Y-91960000D01*
X133140327Y-92079988D01*
X133140329Y-92079993D01*
X133201246Y-92185505D01*
X133201251Y-92185511D01*
X133231045Y-92210511D01*
X133294585Y-92263828D01*
X133294589Y-92263829D01*
X133294590Y-92263830D01*
X133409076Y-92305499D01*
X133409079Y-92305500D01*
X133409081Y-92305500D01*
X133530919Y-92305500D01*
X133530921Y-92305500D01*
X133645415Y-92263828D01*
X133738751Y-92185509D01*
X133799672Y-92079991D01*
X133820830Y-91960000D01*
X133799672Y-91840009D01*
X133738751Y-91734491D01*
X133738749Y-91734489D01*
X133738748Y-91734488D01*
X133721482Y-91720000D01*
X134519170Y-91720000D01*
X134540327Y-91839988D01*
X134540329Y-91839993D01*
X134601246Y-91945505D01*
X134601251Y-91945511D01*
X134647916Y-91984668D01*
X134694585Y-92023828D01*
X134694589Y-92023829D01*
X134694590Y-92023830D01*
X134809076Y-92065499D01*
X134809079Y-92065500D01*
X134809081Y-92065500D01*
X134930919Y-92065500D01*
X134930921Y-92065500D01*
X135045415Y-92023828D01*
X135138751Y-91945509D01*
X135199672Y-91839991D01*
X135220830Y-91720000D01*
X135199672Y-91600009D01*
X135167624Y-91544500D01*
X135138753Y-91494494D01*
X135138748Y-91494488D01*
X135068749Y-91435751D01*
X135045415Y-91416172D01*
X135045412Y-91416171D01*
X135045409Y-91416169D01*
X134959772Y-91385000D01*
X141169170Y-91385000D01*
X141190327Y-91504988D01*
X141190329Y-91504993D01*
X141251246Y-91610505D01*
X141251251Y-91610511D01*
X141297916Y-91649668D01*
X141344585Y-91688828D01*
X141344589Y-91688829D01*
X141344590Y-91688830D01*
X141406607Y-91711402D01*
X141459079Y-91730500D01*
X141459081Y-91730500D01*
X141516928Y-91730500D01*
X141583967Y-91750185D01*
X141629722Y-91802989D01*
X141639666Y-91872147D01*
X141624315Y-91916499D01*
X141570330Y-92010003D01*
X141570327Y-92010011D01*
X141549170Y-92129999D01*
X141549170Y-92130000D01*
X141570327Y-92249988D01*
X141570328Y-92249991D01*
X141630013Y-92353369D01*
X141646485Y-92421269D01*
X141623632Y-92487296D01*
X141568710Y-92530486D01*
X141565035Y-92531890D01*
X141484589Y-92561169D01*
X141484583Y-92561173D01*
X141391251Y-92639488D01*
X141391246Y-92639494D01*
X141330329Y-92745006D01*
X141330327Y-92745011D01*
X141309170Y-92864999D01*
X141309170Y-92865000D01*
X141330327Y-92984988D01*
X141330328Y-92984991D01*
X141395574Y-93098001D01*
X141412046Y-93165901D01*
X141395574Y-93221999D01*
X141330328Y-93335008D01*
X141330327Y-93335011D01*
X141309170Y-93454999D01*
X141309170Y-93455000D01*
X141330327Y-93574988D01*
X141330329Y-93574993D01*
X141391246Y-93680505D01*
X141391251Y-93680511D01*
X141403166Y-93690509D01*
X141484585Y-93758828D01*
X141484589Y-93758829D01*
X141484590Y-93758830D01*
X141593826Y-93798588D01*
X141599079Y-93800500D01*
X141599081Y-93800500D01*
X141720919Y-93800500D01*
X141720921Y-93800500D01*
X141835415Y-93758828D01*
X141928751Y-93680509D01*
X141989672Y-93574991D01*
X142010830Y-93455000D01*
X142010493Y-93453091D01*
X141997851Y-93381394D01*
X141989672Y-93335009D01*
X141928751Y-93229491D01*
X141928750Y-93229490D01*
X141924426Y-93222000D01*
X141907953Y-93154100D01*
X141924426Y-93098000D01*
X141949768Y-93054106D01*
X141989672Y-92984991D01*
X142010830Y-92865000D01*
X141989672Y-92745009D01*
X141943773Y-92665509D01*
X141929987Y-92641631D01*
X141913514Y-92573730D01*
X141936367Y-92507704D01*
X141991288Y-92464513D01*
X141994965Y-92463109D01*
X142075415Y-92433828D01*
X142102140Y-92411403D01*
X142920573Y-92411403D01*
X142941730Y-92531391D01*
X142941732Y-92531396D01*
X143002649Y-92636908D01*
X143002654Y-92636914D01*
X143049319Y-92676071D01*
X143095988Y-92715231D01*
X143095992Y-92715232D01*
X143095993Y-92715233D01*
X143210479Y-92756902D01*
X143210482Y-92756903D01*
X143210484Y-92756903D01*
X143221077Y-92756903D01*
X143288116Y-92776588D01*
X143333871Y-92829392D01*
X143343193Y-92859370D01*
X143358924Y-92948585D01*
X143358926Y-92948590D01*
X143419843Y-93054102D01*
X143419845Y-93054104D01*
X143419846Y-93054106D01*
X143513182Y-93132425D01*
X143513186Y-93132426D01*
X143513187Y-93132427D01*
X143572734Y-93154100D01*
X143627676Y-93174097D01*
X143627678Y-93174097D01*
X143749516Y-93174097D01*
X143749518Y-93174097D01*
X143864012Y-93132425D01*
X143957348Y-93054106D01*
X144018269Y-92948588D01*
X144039427Y-92828597D01*
X144018269Y-92708606D01*
X143978364Y-92639488D01*
X143957350Y-92603091D01*
X143957345Y-92603085D01*
X143864013Y-92524770D01*
X143864012Y-92524769D01*
X143864009Y-92524768D01*
X143864006Y-92524766D01*
X143749520Y-92483097D01*
X143749518Y-92483097D01*
X143738923Y-92483097D01*
X143671884Y-92463412D01*
X143626129Y-92410608D01*
X143616807Y-92380630D01*
X143606118Y-92320011D01*
X143601075Y-92291412D01*
X143571394Y-92240003D01*
X149904508Y-92240003D01*
X149924352Y-92365300D01*
X149924352Y-92365301D01*
X149924354Y-92365304D01*
X149981950Y-92478342D01*
X149981952Y-92478344D01*
X149981954Y-92478347D01*
X150071652Y-92568045D01*
X150071654Y-92568046D01*
X150071658Y-92568050D01*
X150184696Y-92625646D01*
X150184697Y-92625646D01*
X150184699Y-92625647D01*
X150309997Y-92645492D01*
X150310000Y-92645492D01*
X150310003Y-92645492D01*
X150435300Y-92625647D01*
X150435301Y-92625647D01*
X150435302Y-92625646D01*
X150435304Y-92625646D01*
X150548342Y-92568050D01*
X150606392Y-92510000D01*
X151349170Y-92510000D01*
X151370327Y-92629988D01*
X151370329Y-92629993D01*
X151421706Y-92718980D01*
X151438179Y-92786880D01*
X151421707Y-92842978D01*
X151400330Y-92880005D01*
X151400327Y-92880011D01*
X151379170Y-92999999D01*
X151379170Y-93000000D01*
X151400327Y-93119988D01*
X151400329Y-93119993D01*
X151461246Y-93225505D01*
X151461251Y-93225511D01*
X151484074Y-93244662D01*
X151554585Y-93303828D01*
X151554589Y-93303829D01*
X151554590Y-93303830D01*
X151667727Y-93345008D01*
X151669079Y-93345500D01*
X151669081Y-93345500D01*
X151790919Y-93345500D01*
X151790921Y-93345500D01*
X151905415Y-93303828D01*
X151998751Y-93225509D01*
X152059672Y-93119991D01*
X152080830Y-93000000D01*
X152078183Y-92984991D01*
X152071765Y-92948590D01*
X152059672Y-92880009D01*
X152008292Y-92791017D01*
X151991820Y-92723119D01*
X152008294Y-92667018D01*
X152009166Y-92665509D01*
X152029672Y-92629991D01*
X152050830Y-92510000D01*
X152029672Y-92390009D01*
X151971254Y-92288826D01*
X151968753Y-92284494D01*
X151968748Y-92284488D01*
X151885329Y-92214491D01*
X151875415Y-92206172D01*
X151875412Y-92206171D01*
X151875409Y-92206169D01*
X151760923Y-92164500D01*
X151760921Y-92164500D01*
X151639079Y-92164500D01*
X151639076Y-92164500D01*
X151524590Y-92206169D01*
X151524583Y-92206173D01*
X151431251Y-92284488D01*
X151431246Y-92284494D01*
X151370329Y-92390006D01*
X151370327Y-92390011D01*
X151349170Y-92509999D01*
X151349170Y-92510000D01*
X150606392Y-92510000D01*
X150638050Y-92478342D01*
X150695646Y-92365304D01*
X150695646Y-92365302D01*
X150695647Y-92365301D01*
X150695647Y-92365300D01*
X150715492Y-92240003D01*
X150715492Y-92239996D01*
X150695647Y-92114699D01*
X150695647Y-92114698D01*
X150695646Y-92114696D01*
X150638050Y-92001658D01*
X150638046Y-92001654D01*
X150638045Y-92001652D01*
X150548347Y-91911954D01*
X150548344Y-91911952D01*
X150548342Y-91911950D01*
X150435304Y-91854354D01*
X150435303Y-91854353D01*
X150435300Y-91854352D01*
X150310003Y-91834508D01*
X150309997Y-91834508D01*
X150184699Y-91854352D01*
X150184698Y-91854352D01*
X150114739Y-91889999D01*
X150071658Y-91911950D01*
X150071656Y-91911951D01*
X150071657Y-91911951D01*
X150071652Y-91911954D01*
X149981954Y-92001652D01*
X149981951Y-92001657D01*
X149981950Y-92001658D01*
X149975034Y-92015231D01*
X149924352Y-92114698D01*
X149924352Y-92114699D01*
X149904508Y-92239996D01*
X149904508Y-92240003D01*
X143571394Y-92240003D01*
X143564411Y-92227909D01*
X143540156Y-92185897D01*
X143540151Y-92185891D01*
X143455304Y-92114696D01*
X143446818Y-92107575D01*
X143446815Y-92107574D01*
X143446812Y-92107572D01*
X143332326Y-92065903D01*
X143332324Y-92065903D01*
X143210482Y-92065903D01*
X143210479Y-92065903D01*
X143095993Y-92107572D01*
X143095986Y-92107576D01*
X143002654Y-92185891D01*
X143002649Y-92185897D01*
X142941732Y-92291409D01*
X142941730Y-92291414D01*
X142920573Y-92411402D01*
X142920573Y-92411403D01*
X142102140Y-92411403D01*
X142168751Y-92355509D01*
X142229672Y-92249991D01*
X142250830Y-92130000D01*
X142250582Y-92128596D01*
X142239457Y-92065500D01*
X142229672Y-92010009D01*
X142192431Y-91945505D01*
X142168753Y-91904494D01*
X142168748Y-91904488D01*
X142098749Y-91845751D01*
X142075415Y-91826172D01*
X142075412Y-91826171D01*
X142075409Y-91826169D01*
X141960923Y-91784500D01*
X141960921Y-91784500D01*
X141903072Y-91784500D01*
X141836033Y-91764815D01*
X141790278Y-91712011D01*
X141790191Y-91711403D01*
X152110573Y-91711403D01*
X152131730Y-91831391D01*
X152131732Y-91831396D01*
X152192649Y-91936908D01*
X152192654Y-91936914D01*
X152220166Y-91959999D01*
X152285988Y-92015231D01*
X152285992Y-92015232D01*
X152285993Y-92015233D01*
X152353255Y-92039714D01*
X152400482Y-92056903D01*
X152400484Y-92056903D01*
X152411077Y-92056903D01*
X152478116Y-92076588D01*
X152523871Y-92129392D01*
X152533193Y-92159370D01*
X152548924Y-92248585D01*
X152548926Y-92248590D01*
X152609843Y-92354102D01*
X152609848Y-92354108D01*
X152652633Y-92390009D01*
X152703182Y-92432425D01*
X152703186Y-92432426D01*
X152703187Y-92432427D01*
X152787486Y-92463109D01*
X152817676Y-92474097D01*
X152817678Y-92474097D01*
X152939516Y-92474097D01*
X152939518Y-92474097D01*
X153054012Y-92432425D01*
X153147348Y-92354106D01*
X153208269Y-92248588D01*
X153229427Y-92128597D01*
X153227571Y-92118074D01*
X153214140Y-92041900D01*
X153208269Y-92008606D01*
X153194640Y-91985000D01*
X153939170Y-91985000D01*
X153960327Y-92104988D01*
X153960329Y-92104993D01*
X154021246Y-92210505D01*
X154021251Y-92210511D01*
X154025998Y-92214494D01*
X154114585Y-92288828D01*
X154114589Y-92288829D01*
X154114590Y-92288830D01*
X154200255Y-92320009D01*
X154229079Y-92330500D01*
X154229081Y-92330500D01*
X154350919Y-92330500D01*
X154350921Y-92330500D01*
X154465415Y-92288828D01*
X154558751Y-92210509D01*
X154619672Y-92104991D01*
X154640830Y-91985000D01*
X154619672Y-91865009D01*
X154558751Y-91759491D01*
X154558750Y-91759490D01*
X154554426Y-91752000D01*
X154537953Y-91684100D01*
X154554426Y-91628000D01*
X154564523Y-91610511D01*
X154619672Y-91514991D01*
X154640830Y-91395000D01*
X154619672Y-91275009D01*
X154558751Y-91169491D01*
X154558749Y-91169489D01*
X154558748Y-91169488D01*
X154465416Y-91091173D01*
X154465415Y-91091172D01*
X154465412Y-91091171D01*
X154465409Y-91091169D01*
X154350923Y-91049500D01*
X154350921Y-91049500D01*
X154229079Y-91049500D01*
X154229076Y-91049500D01*
X154114590Y-91091169D01*
X154114583Y-91091173D01*
X154021251Y-91169488D01*
X154021246Y-91169494D01*
X153960329Y-91275006D01*
X153960327Y-91275011D01*
X153939170Y-91394999D01*
X153939170Y-91395000D01*
X153960327Y-91514988D01*
X153960328Y-91514991D01*
X154025574Y-91628001D01*
X154042046Y-91695901D01*
X154025574Y-91751999D01*
X153960328Y-91865008D01*
X153960327Y-91865011D01*
X153939170Y-91984999D01*
X153939170Y-91985000D01*
X153194640Y-91985000D01*
X153171838Y-91945505D01*
X153147350Y-91903091D01*
X153147345Y-91903085D01*
X153077345Y-91844348D01*
X153054012Y-91824769D01*
X153054009Y-91824768D01*
X153054006Y-91824766D01*
X152939520Y-91783097D01*
X152939518Y-91783097D01*
X152928923Y-91783097D01*
X152861884Y-91763412D01*
X152816129Y-91710608D01*
X152806807Y-91680630D01*
X152797527Y-91628001D01*
X152791075Y-91591412D01*
X152746953Y-91514991D01*
X152730156Y-91485897D01*
X152730151Y-91485891D01*
X152647985Y-91416945D01*
X152636818Y-91407575D01*
X152636815Y-91407574D01*
X152636812Y-91407572D01*
X152522326Y-91365903D01*
X152522324Y-91365903D01*
X152400482Y-91365903D01*
X152400479Y-91365903D01*
X152285993Y-91407572D01*
X152285986Y-91407576D01*
X152192654Y-91485891D01*
X152192649Y-91485897D01*
X152131732Y-91591409D01*
X152131730Y-91591414D01*
X152110573Y-91711402D01*
X152110573Y-91711403D01*
X141790191Y-91711403D01*
X141780334Y-91642853D01*
X141795685Y-91598501D01*
X141849669Y-91504996D01*
X141849668Y-91504996D01*
X141849672Y-91504991D01*
X141870830Y-91385000D01*
X141869948Y-91380000D01*
X141856517Y-91303828D01*
X141849672Y-91265009D01*
X141788751Y-91159491D01*
X141788750Y-91159490D01*
X141784426Y-91152000D01*
X141767953Y-91084100D01*
X141784426Y-91028000D01*
X141812139Y-90980000D01*
X141849672Y-90914991D01*
X141870830Y-90795000D01*
X141849672Y-90675009D01*
X141813954Y-90613144D01*
X141788753Y-90569494D01*
X141788748Y-90569488D01*
X141702163Y-90496834D01*
X142783586Y-90496834D01*
X142803430Y-90622131D01*
X142803430Y-90622132D01*
X142803432Y-90622135D01*
X142861028Y-90735173D01*
X142861030Y-90735175D01*
X142861032Y-90735178D01*
X142950730Y-90824876D01*
X142950733Y-90824878D01*
X142950736Y-90824881D01*
X143046751Y-90873803D01*
X143097547Y-90921776D01*
X143114342Y-90989597D01*
X143112930Y-91003684D01*
X143109079Y-91028000D01*
X143094510Y-91119991D01*
X143094508Y-91120002D01*
X143094508Y-91120003D01*
X143114352Y-91245300D01*
X143114352Y-91245301D01*
X143132805Y-91281517D01*
X143171950Y-91358342D01*
X143171952Y-91358344D01*
X143171954Y-91358347D01*
X143261652Y-91448045D01*
X143261654Y-91448046D01*
X143261658Y-91448050D01*
X143374696Y-91505646D01*
X143374697Y-91505646D01*
X143374699Y-91505647D01*
X143499997Y-91525492D01*
X143500000Y-91525492D01*
X143500003Y-91525492D01*
X143625300Y-91505647D01*
X143625301Y-91505647D01*
X143625302Y-91505646D01*
X143625304Y-91505646D01*
X143738342Y-91448050D01*
X143828050Y-91358342D01*
X143885646Y-91245304D01*
X143885646Y-91245302D01*
X143885647Y-91245301D01*
X143885647Y-91245300D01*
X143905492Y-91120003D01*
X143905492Y-91119996D01*
X143885647Y-90994699D01*
X143885647Y-90994698D01*
X143878158Y-90980000D01*
X143828050Y-90881658D01*
X143828046Y-90881654D01*
X143828045Y-90881652D01*
X143738347Y-90791954D01*
X143738343Y-90791951D01*
X143738342Y-90791950D01*
X143704071Y-90774488D01*
X143642325Y-90743026D01*
X143591530Y-90695052D01*
X143574735Y-90627230D01*
X143576148Y-90613144D01*
X143594570Y-90496833D01*
X143594570Y-90496827D01*
X143574725Y-90371530D01*
X143574725Y-90371529D01*
X143574724Y-90371527D01*
X143517128Y-90258489D01*
X143517124Y-90258485D01*
X143517123Y-90258483D01*
X143427425Y-90168785D01*
X143427422Y-90168783D01*
X143427420Y-90168781D01*
X143314382Y-90111185D01*
X143314381Y-90111184D01*
X143314378Y-90111183D01*
X143189081Y-90091339D01*
X143189075Y-90091339D01*
X143063777Y-90111183D01*
X143063776Y-90111183D01*
X142988415Y-90149582D01*
X142950736Y-90168781D01*
X142950735Y-90168781D01*
X142950735Y-90168782D01*
X142950730Y-90168785D01*
X142861032Y-90258483D01*
X142861029Y-90258488D01*
X142803430Y-90371529D01*
X142803430Y-90371530D01*
X142783586Y-90496827D01*
X142783586Y-90496834D01*
X141702163Y-90496834D01*
X141695416Y-90491173D01*
X141695415Y-90491172D01*
X141695412Y-90491171D01*
X141695409Y-90491169D01*
X141580923Y-90449500D01*
X141580921Y-90449500D01*
X141459079Y-90449500D01*
X141459076Y-90449500D01*
X141344590Y-90491169D01*
X141344583Y-90491173D01*
X141251251Y-90569488D01*
X141251246Y-90569494D01*
X141190329Y-90675006D01*
X141190327Y-90675011D01*
X141169170Y-90794999D01*
X141169170Y-90795000D01*
X141190327Y-90914988D01*
X141190328Y-90914991D01*
X141255574Y-91028001D01*
X141272046Y-91095901D01*
X141255574Y-91151999D01*
X141190328Y-91265008D01*
X141190327Y-91265011D01*
X141169170Y-91384999D01*
X141169170Y-91385000D01*
X134959772Y-91385000D01*
X134930923Y-91374500D01*
X134930921Y-91374500D01*
X134809079Y-91374500D01*
X134809076Y-91374500D01*
X134694590Y-91416169D01*
X134694583Y-91416173D01*
X134601251Y-91494488D01*
X134601246Y-91494494D01*
X134540329Y-91600006D01*
X134540327Y-91600011D01*
X134519170Y-91719999D01*
X134519170Y-91720000D01*
X133721482Y-91720000D01*
X133655329Y-91664491D01*
X133645415Y-91656172D01*
X133645412Y-91656171D01*
X133645409Y-91656169D01*
X133530923Y-91614500D01*
X133530921Y-91614500D01*
X133409079Y-91614500D01*
X133409076Y-91614500D01*
X133294590Y-91656169D01*
X133294583Y-91656173D01*
X133201251Y-91734488D01*
X133201246Y-91734494D01*
X133140329Y-91840006D01*
X133140327Y-91840011D01*
X133119170Y-91959999D01*
X133119170Y-91960000D01*
X131638487Y-91960000D01*
X131650830Y-91890000D01*
X131629672Y-91770009D01*
X131568751Y-91664491D01*
X131568749Y-91664489D01*
X131568748Y-91664488D01*
X131498749Y-91605751D01*
X131475415Y-91586172D01*
X131475412Y-91586171D01*
X131475409Y-91586169D01*
X131360923Y-91544500D01*
X131360921Y-91544500D01*
X131289842Y-91544500D01*
X131222803Y-91524815D01*
X131177048Y-91472011D01*
X131167104Y-91402853D01*
X131167104Y-91402852D01*
X131168233Y-91394999D01*
X131170390Y-91380000D01*
X131150931Y-91244658D01*
X131116602Y-91169488D01*
X131094132Y-91120285D01*
X131094127Y-91120278D01*
X131004590Y-91016946D01*
X131004586Y-91016942D01*
X130978223Y-91000000D01*
X136009170Y-91000000D01*
X136030327Y-91119988D01*
X136030329Y-91119993D01*
X136091246Y-91225505D01*
X136091251Y-91225511D01*
X136137916Y-91264668D01*
X136184585Y-91303828D01*
X136299079Y-91345500D01*
X136299081Y-91345500D01*
X136420919Y-91345500D01*
X136420921Y-91345500D01*
X136535415Y-91303828D01*
X136628751Y-91225509D01*
X136689672Y-91119991D01*
X136710830Y-91000000D01*
X136689672Y-90880009D01*
X136638831Y-90791950D01*
X136628753Y-90774494D01*
X136628748Y-90774488D01*
X136535416Y-90696173D01*
X136535415Y-90696172D01*
X136535412Y-90696171D01*
X136535409Y-90696169D01*
X136420923Y-90654500D01*
X136420921Y-90654500D01*
X136299079Y-90654500D01*
X136299076Y-90654500D01*
X136184590Y-90696169D01*
X136184583Y-90696173D01*
X136091251Y-90774488D01*
X136091246Y-90774494D01*
X136030329Y-90880006D01*
X136030327Y-90880011D01*
X136009170Y-90999999D01*
X136009170Y-91000000D01*
X130978223Y-91000000D01*
X130889559Y-90943021D01*
X130758368Y-90904500D01*
X130758367Y-90904500D01*
X130621633Y-90904500D01*
X130621629Y-90904500D01*
X130598302Y-90911349D01*
X130528432Y-90911347D01*
X130469655Y-90873571D01*
X130450577Y-90843883D01*
X130428252Y-90794999D01*
X130394130Y-90720282D01*
X130342935Y-90661199D01*
X130313912Y-90597648D01*
X130323855Y-90528489D01*
X130342933Y-90498802D01*
X130394130Y-90439718D01*
X130450931Y-90315342D01*
X130470390Y-90180000D01*
X130450931Y-90044658D01*
X130414690Y-89965301D01*
X130394132Y-89920285D01*
X130394127Y-89920278D01*
X130324569Y-89840003D01*
X136204508Y-89840003D01*
X136224352Y-89965300D01*
X136224352Y-89965301D01*
X136224354Y-89965304D01*
X136281950Y-90078342D01*
X136281952Y-90078344D01*
X136281954Y-90078347D01*
X136371652Y-90168045D01*
X136371654Y-90168046D01*
X136371658Y-90168050D01*
X136484696Y-90225646D01*
X136484697Y-90225646D01*
X136484699Y-90225647D01*
X136609997Y-90245492D01*
X136610000Y-90245492D01*
X136610003Y-90245492D01*
X136735300Y-90225647D01*
X136735301Y-90225647D01*
X136735302Y-90225646D01*
X136735304Y-90225646D01*
X136848342Y-90168050D01*
X136938050Y-90078342D01*
X136947394Y-90060003D01*
X151674508Y-90060003D01*
X151694352Y-90185300D01*
X151694352Y-90185301D01*
X151694354Y-90185304D01*
X151751950Y-90298342D01*
X151751952Y-90298344D01*
X151751954Y-90298347D01*
X151841652Y-90388045D01*
X151841654Y-90388046D01*
X151841658Y-90388050D01*
X151954696Y-90445646D01*
X151954697Y-90445646D01*
X151954699Y-90445647D01*
X152079997Y-90465492D01*
X152080000Y-90465492D01*
X152080003Y-90465492D01*
X152205300Y-90445647D01*
X152205301Y-90445647D01*
X152205302Y-90445646D01*
X152205304Y-90445646D01*
X152318342Y-90388050D01*
X152408050Y-90298342D01*
X152465646Y-90185304D01*
X152465646Y-90185302D01*
X152465647Y-90185301D01*
X152465647Y-90185300D01*
X152485492Y-90060003D01*
X152485492Y-90059996D01*
X152465647Y-89934699D01*
X152465647Y-89934698D01*
X152458303Y-89920285D01*
X152408050Y-89821658D01*
X152408046Y-89821654D01*
X152408045Y-89821652D01*
X152318347Y-89731954D01*
X152318344Y-89731952D01*
X152318342Y-89731950D01*
X152205304Y-89674354D01*
X152205303Y-89674353D01*
X152205300Y-89674352D01*
X152080003Y-89654508D01*
X152079997Y-89654508D01*
X151954699Y-89674352D01*
X151954698Y-89674352D01*
X151895531Y-89704500D01*
X151841658Y-89731950D01*
X151841657Y-89731951D01*
X151841652Y-89731954D01*
X151751954Y-89821652D01*
X151751951Y-89821657D01*
X151751950Y-89821658D01*
X151742604Y-89840000D01*
X151694352Y-89934698D01*
X151694352Y-89934699D01*
X151674508Y-90059996D01*
X151674508Y-90060003D01*
X136947394Y-90060003D01*
X136995646Y-89965304D01*
X136995646Y-89965302D01*
X136995647Y-89965301D01*
X136995647Y-89965300D01*
X137015492Y-89840003D01*
X137015492Y-89839996D01*
X136995647Y-89714699D01*
X136995647Y-89714698D01*
X136990451Y-89704500D01*
X136938050Y-89601658D01*
X136938046Y-89601654D01*
X136938045Y-89601652D01*
X136848347Y-89511954D01*
X136848344Y-89511952D01*
X136848342Y-89511950D01*
X136735304Y-89454354D01*
X136735303Y-89454353D01*
X136735300Y-89454352D01*
X136610003Y-89434508D01*
X136609997Y-89434508D01*
X136484699Y-89454352D01*
X136484698Y-89454352D01*
X136424452Y-89485050D01*
X136371658Y-89511950D01*
X136371656Y-89511951D01*
X136371657Y-89511951D01*
X136371652Y-89511954D01*
X136281954Y-89601652D01*
X136281951Y-89601657D01*
X136224352Y-89714698D01*
X136224352Y-89714699D01*
X136204508Y-89839996D01*
X136204508Y-89840003D01*
X130324569Y-89840003D01*
X130304590Y-89816946D01*
X130304586Y-89816942D01*
X130189559Y-89743021D01*
X130058368Y-89704500D01*
X130058367Y-89704500D01*
X129921633Y-89704500D01*
X129921632Y-89704500D01*
X129790440Y-89743021D01*
X129675413Y-89816942D01*
X129675409Y-89816946D01*
X129585872Y-89920278D01*
X129585867Y-89920285D01*
X129529070Y-90044654D01*
X129529068Y-90044662D01*
X129509610Y-90180000D01*
X129529068Y-90315337D01*
X129529070Y-90315345D01*
X129585867Y-90439714D01*
X129585870Y-90439718D01*
X129637062Y-90498798D01*
X129666086Y-90562354D01*
X129656142Y-90631513D01*
X129637062Y-90661202D01*
X129585870Y-90720281D01*
X129585867Y-90720285D01*
X129529070Y-90844654D01*
X129529068Y-90844662D01*
X129509610Y-90980000D01*
X129529068Y-91115337D01*
X129529070Y-91115345D01*
X129585867Y-91239714D01*
X129585870Y-91239718D01*
X129637062Y-91298798D01*
X129666086Y-91362354D01*
X129656142Y-91431513D01*
X129637062Y-91461202D01*
X129585870Y-91520281D01*
X129585867Y-91520285D01*
X129529070Y-91644654D01*
X129529068Y-91644662D01*
X129509610Y-91780000D01*
X129529068Y-91915337D01*
X129529070Y-91915345D01*
X129585867Y-92039714D01*
X129585872Y-92039721D01*
X129675409Y-92143053D01*
X129675413Y-92143057D01*
X129717233Y-92169932D01*
X129790439Y-92216978D01*
X129827667Y-92227909D01*
X129921632Y-92255500D01*
X129921633Y-92255500D01*
X130058366Y-92255500D01*
X130058367Y-92255500D01*
X130081692Y-92248650D01*
X130151559Y-92248649D01*
X130210338Y-92286421D01*
X130229422Y-92316115D01*
X130285869Y-92439716D01*
X130285870Y-92439718D01*
X130337062Y-92498798D01*
X130366086Y-92562354D01*
X130356142Y-92631513D01*
X130337062Y-92661202D01*
X130285870Y-92720281D01*
X130285869Y-92720283D01*
X130229422Y-92843884D01*
X130183667Y-92896688D01*
X130116627Y-92916372D01*
X130081693Y-92911349D01*
X130058368Y-92904500D01*
X130058367Y-92904500D01*
X129921633Y-92904500D01*
X129921632Y-92904500D01*
X129790440Y-92943021D01*
X129675413Y-93016942D01*
X129675409Y-93016946D01*
X129585872Y-93120278D01*
X129585867Y-93120285D01*
X129529070Y-93244654D01*
X129529068Y-93244662D01*
X129509610Y-93380000D01*
X129529068Y-93515337D01*
X129529070Y-93515345D01*
X129585867Y-93639714D01*
X129585870Y-93639718D01*
X129637062Y-93698798D01*
X129666086Y-93762354D01*
X129656142Y-93831513D01*
X129637062Y-93861202D01*
X129585870Y-93920281D01*
X129585867Y-93920285D01*
X129529070Y-94044654D01*
X129529068Y-94044662D01*
X129509610Y-94180000D01*
X129529068Y-94315337D01*
X129529070Y-94315345D01*
X129585867Y-94439714D01*
X129585870Y-94439718D01*
X129637062Y-94498798D01*
X129666086Y-94562354D01*
X129656142Y-94631513D01*
X129637062Y-94661202D01*
X129585870Y-94720281D01*
X129585867Y-94720285D01*
X129529070Y-94844654D01*
X129529068Y-94844662D01*
X129509610Y-94980000D01*
X121850500Y-94980000D01*
X121850500Y-89039159D01*
X131004500Y-89039159D01*
X131044964Y-89150334D01*
X131044967Y-89150339D01*
X131086636Y-89199999D01*
X131121018Y-89240973D01*
X131223482Y-89300131D01*
X131310645Y-89315500D01*
X131310649Y-89315500D01*
X131369351Y-89315500D01*
X131369355Y-89315500D01*
X131456518Y-89300131D01*
X131558982Y-89240973D01*
X131593363Y-89200000D01*
X142774170Y-89200000D01*
X142795327Y-89319988D01*
X142795329Y-89319993D01*
X142856246Y-89425505D01*
X142856248Y-89425507D01*
X142856249Y-89425509D01*
X142949585Y-89503828D01*
X143064079Y-89545500D01*
X143064081Y-89545500D01*
X143185919Y-89545500D01*
X143185921Y-89545500D01*
X143300415Y-89503828D01*
X143322795Y-89485048D01*
X143386800Y-89457036D01*
X143455792Y-89468074D01*
X143482201Y-89485045D01*
X143504585Y-89503828D01*
X143619079Y-89545500D01*
X143619081Y-89545500D01*
X143740919Y-89545500D01*
X143740921Y-89545500D01*
X143855415Y-89503828D01*
X143948751Y-89425509D01*
X144009672Y-89319991D01*
X144030830Y-89200000D01*
X144009672Y-89080009D01*
X143948751Y-88974491D01*
X143948749Y-88974489D01*
X143948748Y-88974488D01*
X143877794Y-88914950D01*
X143855415Y-88896172D01*
X143855412Y-88896171D01*
X143855409Y-88896169D01*
X143740923Y-88854500D01*
X143740921Y-88854500D01*
X143619079Y-88854500D01*
X143619076Y-88854500D01*
X143504590Y-88896169D01*
X143504583Y-88896173D01*
X143482206Y-88914950D01*
X143418198Y-88942963D01*
X143349206Y-88931924D01*
X143322794Y-88914950D01*
X143300416Y-88896173D01*
X143300415Y-88896172D01*
X143300412Y-88896171D01*
X143300409Y-88896169D01*
X143185923Y-88854500D01*
X143185921Y-88854500D01*
X143064079Y-88854500D01*
X143064076Y-88854500D01*
X142949590Y-88896169D01*
X142949583Y-88896173D01*
X142856251Y-88974488D01*
X142856246Y-88974494D01*
X142795329Y-89080006D01*
X142795327Y-89080011D01*
X142774170Y-89199999D01*
X142774170Y-89200000D01*
X131593363Y-89200000D01*
X131635034Y-89150338D01*
X131675500Y-89039158D01*
X131675500Y-88920842D01*
X131635034Y-88809662D01*
X131558982Y-88719027D01*
X131558980Y-88719026D01*
X131558978Y-88719024D01*
X131456520Y-88659870D01*
X131456515Y-88659868D01*
X131369357Y-88644500D01*
X131369355Y-88644500D01*
X131310645Y-88644500D01*
X131310642Y-88644500D01*
X131223484Y-88659868D01*
X131223479Y-88659870D01*
X131121021Y-88719024D01*
X131121015Y-88719029D01*
X131044967Y-88809660D01*
X131044964Y-88809665D01*
X131004500Y-88920840D01*
X131004500Y-89039159D01*
X121850500Y-89039159D01*
X121850500Y-88480000D01*
X132114750Y-88480000D01*
X132133670Y-88623708D01*
X132133671Y-88623712D01*
X132189137Y-88757622D01*
X132189138Y-88757624D01*
X132189139Y-88757625D01*
X132277379Y-88872621D01*
X132392375Y-88960861D01*
X132526291Y-89016330D01*
X132653280Y-89033048D01*
X132669999Y-89035250D01*
X132670000Y-89035250D01*
X132670001Y-89035250D01*
X132684977Y-89033278D01*
X132813709Y-89016330D01*
X132947625Y-88960861D01*
X133062621Y-88872621D01*
X133150861Y-88757625D01*
X133206330Y-88623709D01*
X133214718Y-88560000D01*
X141169170Y-88560000D01*
X141190327Y-88679988D01*
X141190329Y-88679993D01*
X141251246Y-88785505D01*
X141251248Y-88785507D01*
X141251249Y-88785509D01*
X141344585Y-88863828D01*
X141344589Y-88863829D01*
X141344590Y-88863830D01*
X141433442Y-88896169D01*
X141459079Y-88905500D01*
X141459081Y-88905500D01*
X141580919Y-88905500D01*
X141580921Y-88905500D01*
X141695415Y-88863828D01*
X141788751Y-88785509D01*
X141849672Y-88679991D01*
X141867009Y-88581667D01*
X141898034Y-88519067D01*
X141957981Y-88483177D01*
X141967599Y-88481085D01*
X141970913Y-88480500D01*
X141970921Y-88480500D01*
X142085415Y-88438828D01*
X142178751Y-88360509D01*
X142239672Y-88254991D01*
X142260830Y-88135000D01*
X142239672Y-88015009D01*
X142178751Y-87909491D01*
X142178750Y-87909490D01*
X142174426Y-87902000D01*
X142157953Y-87834100D01*
X142174426Y-87778000D01*
X142187411Y-87755509D01*
X142239672Y-87664991D01*
X142244078Y-87640003D01*
X144104508Y-87640003D01*
X144124352Y-87765300D01*
X144124352Y-87765301D01*
X144124354Y-87765304D01*
X144181950Y-87878342D01*
X144181952Y-87878344D01*
X144181954Y-87878347D01*
X144271652Y-87968045D01*
X144271654Y-87968046D01*
X144271658Y-87968050D01*
X144384696Y-88025646D01*
X144384697Y-88025646D01*
X144384699Y-88025647D01*
X144509997Y-88045492D01*
X144510000Y-88045492D01*
X144510003Y-88045492D01*
X144635300Y-88025647D01*
X144635301Y-88025647D01*
X144635302Y-88025646D01*
X144635304Y-88025646D01*
X144748342Y-87968050D01*
X144838050Y-87878342D01*
X144895646Y-87765304D01*
X144895646Y-87765302D01*
X144895647Y-87765301D01*
X144895647Y-87765300D01*
X144915492Y-87640003D01*
X144915492Y-87639996D01*
X144898070Y-87530000D01*
X145789170Y-87530000D01*
X145810327Y-87649988D01*
X145810329Y-87649993D01*
X145871246Y-87755505D01*
X145871251Y-87755511D01*
X145899685Y-87779370D01*
X145964585Y-87833828D01*
X145964589Y-87833829D01*
X145964590Y-87833830D01*
X146027579Y-87856756D01*
X146083844Y-87898181D01*
X146107205Y-87959330D01*
X146107286Y-87959316D01*
X146107359Y-87959731D01*
X146108780Y-87963450D01*
X146109002Y-87969048D01*
X146130327Y-88089988D01*
X146130329Y-88089993D01*
X146191246Y-88195505D01*
X146191251Y-88195511D01*
X146199431Y-88202375D01*
X146284585Y-88273828D01*
X146399079Y-88315500D01*
X146399081Y-88315500D01*
X146520919Y-88315500D01*
X146520921Y-88315500D01*
X146635415Y-88273828D01*
X146728751Y-88195509D01*
X146789672Y-88089991D01*
X146810830Y-87970000D01*
X146789672Y-87850009D01*
X146755025Y-87789999D01*
X146728753Y-87744494D01*
X146728748Y-87744488D01*
X146652940Y-87680877D01*
X146635415Y-87666172D01*
X146635414Y-87666171D01*
X146635412Y-87666170D01*
X146572419Y-87643243D01*
X146516156Y-87601817D01*
X146515462Y-87600000D01*
X147469170Y-87600000D01*
X147490327Y-87719988D01*
X147490329Y-87719993D01*
X147551246Y-87825505D01*
X147551251Y-87825511D01*
X147575551Y-87845901D01*
X147644585Y-87903828D01*
X147644589Y-87903829D01*
X147644590Y-87903830D01*
X147704159Y-87925511D01*
X147759079Y-87945500D01*
X147759081Y-87945500D01*
X147880919Y-87945500D01*
X147880921Y-87945500D01*
X147976963Y-87910543D01*
X148046688Y-87906113D01*
X148099076Y-87932077D01*
X148184585Y-88003828D01*
X148184589Y-88003829D01*
X148184590Y-88003830D01*
X148299057Y-88045492D01*
X148299079Y-88045500D01*
X148299081Y-88045500D01*
X148420919Y-88045500D01*
X148420921Y-88045500D01*
X148535415Y-88003828D01*
X148628751Y-87925509D01*
X148689672Y-87819991D01*
X148710830Y-87700000D01*
X148689672Y-87580009D01*
X148650623Y-87512375D01*
X148628753Y-87474494D01*
X148628748Y-87474488D01*
X148552049Y-87410130D01*
X148535415Y-87396172D01*
X148535412Y-87396171D01*
X148535409Y-87396169D01*
X148420923Y-87354500D01*
X148420921Y-87354500D01*
X148299079Y-87354500D01*
X148299076Y-87354500D01*
X148203037Y-87389455D01*
X148133308Y-87393886D01*
X148080922Y-87367922D01*
X148064926Y-87354500D01*
X147995415Y-87296172D01*
X147995412Y-87296171D01*
X147995409Y-87296169D01*
X147880923Y-87254500D01*
X147880921Y-87254500D01*
X147759079Y-87254500D01*
X147759076Y-87254500D01*
X147644590Y-87296169D01*
X147644583Y-87296173D01*
X147551251Y-87374488D01*
X147551246Y-87374494D01*
X147490329Y-87480006D01*
X147490327Y-87480011D01*
X147469170Y-87599999D01*
X147469170Y-87600000D01*
X146515462Y-87600000D01*
X146492794Y-87540669D01*
X146492714Y-87540684D01*
X146492640Y-87540265D01*
X146491220Y-87536548D01*
X146490997Y-87530951D01*
X146490829Y-87530001D01*
X146490830Y-87530000D01*
X146469672Y-87410009D01*
X146413058Y-87311951D01*
X146408753Y-87304494D01*
X146408748Y-87304488D01*
X146315416Y-87226173D01*
X146315415Y-87226172D01*
X146315412Y-87226171D01*
X146315409Y-87226169D01*
X146200923Y-87184500D01*
X146200921Y-87184500D01*
X146079079Y-87184500D01*
X146079076Y-87184500D01*
X145964590Y-87226169D01*
X145964583Y-87226173D01*
X145871251Y-87304488D01*
X145871246Y-87304494D01*
X145810329Y-87410006D01*
X145810327Y-87410011D01*
X145789170Y-87529999D01*
X145789170Y-87530000D01*
X144898070Y-87530000D01*
X144895647Y-87514699D01*
X144895647Y-87514698D01*
X144894463Y-87512375D01*
X144838050Y-87401658D01*
X144838046Y-87401654D01*
X144838045Y-87401652D01*
X144748347Y-87311954D01*
X144748344Y-87311952D01*
X144748342Y-87311950D01*
X144635304Y-87254354D01*
X144635303Y-87254353D01*
X144635300Y-87254352D01*
X144510003Y-87234508D01*
X144509997Y-87234508D01*
X144384699Y-87254352D01*
X144384698Y-87254352D01*
X144309337Y-87292751D01*
X144271658Y-87311950D01*
X144271656Y-87311951D01*
X144271657Y-87311951D01*
X144271652Y-87311954D01*
X144181954Y-87401652D01*
X144181951Y-87401657D01*
X144181950Y-87401658D01*
X144170054Y-87425006D01*
X144124352Y-87514698D01*
X144124352Y-87514699D01*
X144104508Y-87639996D01*
X144104508Y-87640003D01*
X142244078Y-87640003D01*
X142260830Y-87545000D01*
X142255486Y-87514696D01*
X142248397Y-87474491D01*
X142239672Y-87425009D01*
X142198964Y-87354500D01*
X142178753Y-87319494D01*
X142178748Y-87319488D01*
X142108749Y-87260751D01*
X142085415Y-87241172D01*
X142085412Y-87241171D01*
X142085409Y-87241169D01*
X141970923Y-87199500D01*
X141970921Y-87199500D01*
X141849079Y-87199500D01*
X141849076Y-87199500D01*
X141734590Y-87241169D01*
X141734583Y-87241173D01*
X141641251Y-87319488D01*
X141641246Y-87319494D01*
X141580329Y-87425006D01*
X141580327Y-87425011D01*
X141559170Y-87544999D01*
X141559170Y-87545000D01*
X141580327Y-87664988D01*
X141580328Y-87664991D01*
X141645574Y-87778001D01*
X141662046Y-87845901D01*
X141645574Y-87901999D01*
X141580328Y-88015008D01*
X141580327Y-88015011D01*
X141562991Y-88113330D01*
X141531964Y-88175933D01*
X141472017Y-88211823D01*
X141462410Y-88213913D01*
X141459075Y-88214500D01*
X141344590Y-88256169D01*
X141344583Y-88256173D01*
X141251251Y-88334488D01*
X141251246Y-88334494D01*
X141190329Y-88440006D01*
X141190327Y-88440011D01*
X141169170Y-88559999D01*
X141169170Y-88560000D01*
X133214718Y-88560000D01*
X133225250Y-88480000D01*
X133206330Y-88336291D01*
X133150861Y-88202375D01*
X133150858Y-88202371D01*
X133147760Y-88197005D01*
X133131284Y-88129106D01*
X133147760Y-88072995D01*
X133150855Y-88067631D01*
X133150861Y-88067625D01*
X133206330Y-87933709D01*
X133225250Y-87790000D01*
X133219799Y-87748597D01*
X138090573Y-87748597D01*
X138111730Y-87868585D01*
X138111732Y-87868590D01*
X138172649Y-87974102D01*
X138172654Y-87974108D01*
X138208073Y-88003828D01*
X138265988Y-88052425D01*
X138265992Y-88052426D01*
X138265993Y-88052427D01*
X138369206Y-88089993D01*
X138380482Y-88094097D01*
X138380484Y-88094097D01*
X138502322Y-88094097D01*
X138502324Y-88094097D01*
X138616818Y-88052425D01*
X138710154Y-87974106D01*
X138771075Y-87868588D01*
X138782494Y-87803823D01*
X138786807Y-87779370D01*
X138817834Y-87716767D01*
X138877782Y-87680877D01*
X138908923Y-87676903D01*
X138919516Y-87676903D01*
X138919518Y-87676903D01*
X139034012Y-87635231D01*
X139127348Y-87556912D01*
X139188269Y-87451394D01*
X139209427Y-87331403D01*
X139188269Y-87211412D01*
X139127348Y-87105894D01*
X139127346Y-87105892D01*
X139127345Y-87105891D01*
X139096493Y-87080003D01*
X151294508Y-87080003D01*
X151314352Y-87205300D01*
X151314352Y-87205301D01*
X151332628Y-87241169D01*
X151371950Y-87318342D01*
X151371952Y-87318344D01*
X151371954Y-87318347D01*
X151461652Y-87408045D01*
X151461654Y-87408046D01*
X151461658Y-87408050D01*
X151574696Y-87465646D01*
X151574697Y-87465646D01*
X151574699Y-87465647D01*
X151699997Y-87485492D01*
X151700000Y-87485492D01*
X151700003Y-87485492D01*
X151825300Y-87465647D01*
X151825301Y-87465647D01*
X151825302Y-87465646D01*
X151825304Y-87465646D01*
X151938342Y-87408050D01*
X152028050Y-87318342D01*
X152085646Y-87205304D01*
X152085646Y-87205302D01*
X152085647Y-87205301D01*
X152085647Y-87205300D01*
X152105492Y-87080003D01*
X152105492Y-87079998D01*
X152086587Y-86960638D01*
X152095541Y-86891345D01*
X152140538Y-86837893D01*
X152207289Y-86817253D01*
X152274603Y-86835978D01*
X152288763Y-86846247D01*
X152332953Y-86883328D01*
X152332956Y-86883329D01*
X152332958Y-86883330D01*
X152447444Y-86924999D01*
X152447447Y-86925000D01*
X152447449Y-86925000D01*
X152569287Y-86925000D01*
X152569289Y-86925000D01*
X152683783Y-86883328D01*
X152777119Y-86805009D01*
X152838040Y-86699491D01*
X152839713Y-86690003D01*
X156294508Y-86690003D01*
X156314352Y-86815300D01*
X156314352Y-86815301D01*
X156327782Y-86841658D01*
X156371950Y-86928342D01*
X156371952Y-86928344D01*
X156371954Y-86928347D01*
X156461652Y-87018045D01*
X156461654Y-87018046D01*
X156461658Y-87018050D01*
X156574696Y-87075646D01*
X156574697Y-87075646D01*
X156574699Y-87075647D01*
X156699997Y-87095492D01*
X156700000Y-87095492D01*
X156700003Y-87095492D01*
X156825300Y-87075647D01*
X156825301Y-87075647D01*
X156825302Y-87075646D01*
X156825304Y-87075646D01*
X156938342Y-87018050D01*
X157028050Y-86928342D01*
X157085646Y-86815304D01*
X157085646Y-86815302D01*
X157085647Y-86815301D01*
X157085647Y-86815300D01*
X157105492Y-86690003D01*
X157105492Y-86689998D01*
X157088153Y-86580525D01*
X157097107Y-86511232D01*
X157122945Y-86473446D01*
X157138050Y-86458342D01*
X157195646Y-86345304D01*
X157195646Y-86345302D01*
X157195647Y-86345301D01*
X157195647Y-86345300D01*
X157215492Y-86220003D01*
X157215492Y-86219996D01*
X157195647Y-86094699D01*
X157195647Y-86094698D01*
X157184273Y-86072375D01*
X157138050Y-85981658D01*
X157138046Y-85981654D01*
X157138045Y-85981652D01*
X157048347Y-85891954D01*
X157048344Y-85891952D01*
X157048342Y-85891950D01*
X156935304Y-85834354D01*
X156935303Y-85834353D01*
X156935300Y-85834352D01*
X156810003Y-85814508D01*
X156809997Y-85814508D01*
X156684699Y-85834352D01*
X156684698Y-85834352D01*
X156616431Y-85869137D01*
X156571658Y-85891950D01*
X156571656Y-85891951D01*
X156571657Y-85891951D01*
X156571652Y-85891954D01*
X156481954Y-85981652D01*
X156481951Y-85981657D01*
X156481950Y-85981658D01*
X156463258Y-86018342D01*
X156424352Y-86094698D01*
X156424352Y-86094699D01*
X156404508Y-86219996D01*
X156404508Y-86220003D01*
X156421846Y-86329475D01*
X156412891Y-86398768D01*
X156387056Y-86436551D01*
X156371951Y-86451656D01*
X156314352Y-86564698D01*
X156314352Y-86564699D01*
X156294508Y-86689996D01*
X156294508Y-86690003D01*
X152839713Y-86690003D01*
X152859198Y-86579500D01*
X152838040Y-86459509D01*
X152780770Y-86360314D01*
X152777121Y-86353994D01*
X152777116Y-86353988D01*
X152700665Y-86289838D01*
X152683783Y-86275672D01*
X152683780Y-86275671D01*
X152683777Y-86275669D01*
X152569291Y-86234000D01*
X152569289Y-86234000D01*
X152447447Y-86234000D01*
X152447444Y-86234000D01*
X152332958Y-86275669D01*
X152332951Y-86275673D01*
X152239619Y-86353988D01*
X152239614Y-86353994D01*
X152178697Y-86459506D01*
X152178695Y-86459511D01*
X152157538Y-86579499D01*
X152157538Y-86579501D01*
X152173087Y-86667684D01*
X152165343Y-86737123D01*
X152121287Y-86791352D01*
X152054905Y-86813154D01*
X151987275Y-86795606D01*
X151963290Y-86776897D01*
X151938347Y-86751954D01*
X151938344Y-86751952D01*
X151938342Y-86751950D01*
X151825304Y-86694354D01*
X151825303Y-86694353D01*
X151825300Y-86694352D01*
X151700003Y-86674508D01*
X151699997Y-86674508D01*
X151574699Y-86694352D01*
X151574698Y-86694352D01*
X151503047Y-86730861D01*
X151461658Y-86751950D01*
X151461657Y-86751951D01*
X151461652Y-86751954D01*
X151371954Y-86841652D01*
X151371951Y-86841657D01*
X151371950Y-86841658D01*
X151364898Y-86855499D01*
X151314352Y-86954698D01*
X151314352Y-86954699D01*
X151294508Y-87079996D01*
X151294508Y-87080003D01*
X139096493Y-87080003D01*
X139034013Y-87027576D01*
X139034012Y-87027575D01*
X139034009Y-87027574D01*
X139034006Y-87027572D01*
X138919520Y-86985903D01*
X138919518Y-86985903D01*
X138797676Y-86985903D01*
X138797673Y-86985903D01*
X138683187Y-87027572D01*
X138683180Y-87027576D01*
X138589848Y-87105891D01*
X138589843Y-87105897D01*
X138528926Y-87211409D01*
X138528924Y-87211414D01*
X138513193Y-87300630D01*
X138482166Y-87363233D01*
X138422218Y-87399123D01*
X138391077Y-87403097D01*
X138380479Y-87403097D01*
X138265993Y-87444766D01*
X138265986Y-87444770D01*
X138172654Y-87523085D01*
X138172649Y-87523091D01*
X138111732Y-87628603D01*
X138111730Y-87628608D01*
X138090573Y-87748596D01*
X138090573Y-87748597D01*
X133219799Y-87748597D01*
X133206330Y-87646291D01*
X133158555Y-87530951D01*
X133150862Y-87512377D01*
X133150861Y-87512376D01*
X133150861Y-87512375D01*
X133062621Y-87397379D01*
X132947625Y-87309139D01*
X132947624Y-87309138D01*
X132947622Y-87309137D01*
X132813712Y-87253671D01*
X132813710Y-87253670D01*
X132813709Y-87253670D01*
X132718779Y-87241172D01*
X132670001Y-87234750D01*
X132669999Y-87234750D01*
X132526291Y-87253670D01*
X132526287Y-87253671D01*
X132392377Y-87309137D01*
X132277379Y-87397379D01*
X132189137Y-87512377D01*
X132133671Y-87646287D01*
X132133670Y-87646291D01*
X132114750Y-87790000D01*
X132132590Y-87925509D01*
X132133670Y-87933708D01*
X132133671Y-87933712D01*
X132189137Y-88067621D01*
X132192243Y-88073001D01*
X132208714Y-88140902D01*
X132192243Y-88196999D01*
X132189137Y-88202378D01*
X132133671Y-88336287D01*
X132133670Y-88336291D01*
X132114750Y-88479999D01*
X132114750Y-88480000D01*
X121850500Y-88480000D01*
X121850500Y-86350000D01*
X123214750Y-86350000D01*
X123230522Y-86469801D01*
X123233670Y-86493708D01*
X123233671Y-86493712D01*
X123289137Y-86627622D01*
X123289138Y-86627624D01*
X123289139Y-86627625D01*
X123377379Y-86742621D01*
X123492375Y-86830861D01*
X123492376Y-86830861D01*
X123492377Y-86830862D01*
X123529528Y-86846250D01*
X123626291Y-86886330D01*
X123753280Y-86903048D01*
X123769999Y-86905250D01*
X123770000Y-86905250D01*
X123770001Y-86905250D01*
X123784977Y-86903278D01*
X123913709Y-86886330D01*
X124047625Y-86830861D01*
X124162621Y-86742621D01*
X124189077Y-86708141D01*
X124245503Y-86666940D01*
X124315249Y-86662785D01*
X124362935Y-86685251D01*
X124422375Y-86730861D01*
X124422376Y-86730861D01*
X124422377Y-86730862D01*
X124467013Y-86749350D01*
X124556291Y-86786330D01*
X124683280Y-86803048D01*
X124699999Y-86805250D01*
X124700000Y-86805250D01*
X124700001Y-86805250D01*
X124714977Y-86803278D01*
X124843709Y-86786330D01*
X124977625Y-86730861D01*
X125092621Y-86642621D01*
X125180861Y-86527625D01*
X125200462Y-86480303D01*
X144492930Y-86480303D01*
X144514087Y-86600291D01*
X144514089Y-86600296D01*
X144575006Y-86705808D01*
X144575011Y-86705814D01*
X144612324Y-86737123D01*
X144668345Y-86784131D01*
X144668349Y-86784132D01*
X144668350Y-86784133D01*
X144753993Y-86815304D01*
X144782839Y-86825803D01*
X144782841Y-86825803D01*
X144904679Y-86825803D01*
X144904681Y-86825803D01*
X145019175Y-86784131D01*
X145112511Y-86705812D01*
X145173432Y-86600294D01*
X145189354Y-86510000D01*
X146179170Y-86510000D01*
X146200327Y-86629988D01*
X146200329Y-86629993D01*
X146261246Y-86735505D01*
X146261251Y-86735511D01*
X146280847Y-86751954D01*
X146354585Y-86813828D01*
X146354589Y-86813829D01*
X146354590Y-86813830D01*
X146469076Y-86855499D01*
X146469079Y-86855500D01*
X146469081Y-86855500D01*
X146590919Y-86855500D01*
X146590921Y-86855500D01*
X146705415Y-86813828D01*
X146798751Y-86735509D01*
X146813387Y-86710157D01*
X146863950Y-86661945D01*
X146932557Y-86648720D01*
X146997423Y-86674687D01*
X147028160Y-86710159D01*
X147031246Y-86715505D01*
X147031251Y-86715511D01*
X147049546Y-86730862D01*
X147124585Y-86793828D01*
X147124589Y-86793829D01*
X147124590Y-86793830D01*
X147212436Y-86825803D01*
X147239079Y-86835500D01*
X147239081Y-86835500D01*
X147360919Y-86835500D01*
X147360921Y-86835500D01*
X147475415Y-86793828D01*
X147568751Y-86715509D01*
X147629672Y-86609991D01*
X147650830Y-86490000D01*
X147629672Y-86370009D01*
X147614946Y-86344503D01*
X148177681Y-86344503D01*
X148197525Y-86469800D01*
X148197525Y-86469801D01*
X148207817Y-86489999D01*
X148255123Y-86582842D01*
X148255125Y-86582844D01*
X148255127Y-86582847D01*
X148344825Y-86672545D01*
X148344827Y-86672546D01*
X148344831Y-86672550D01*
X148457869Y-86730146D01*
X148457870Y-86730146D01*
X148457872Y-86730147D01*
X148583170Y-86749992D01*
X148583173Y-86749992D01*
X148583176Y-86749992D01*
X148708473Y-86730147D01*
X148708474Y-86730147D01*
X148708475Y-86730146D01*
X148708477Y-86730146D01*
X148821515Y-86672550D01*
X148911223Y-86582842D01*
X148968819Y-86469804D01*
X148968819Y-86469802D01*
X148968820Y-86469801D01*
X148968820Y-86469800D01*
X148977354Y-86415918D01*
X149759511Y-86415918D01*
X149780668Y-86535906D01*
X149780670Y-86535911D01*
X149841587Y-86641423D01*
X149841592Y-86641429D01*
X149881014Y-86674508D01*
X149934926Y-86719746D01*
X149934930Y-86719747D01*
X149934931Y-86719748D01*
X150049417Y-86761417D01*
X150049420Y-86761418D01*
X150049422Y-86761418D01*
X150171260Y-86761418D01*
X150171262Y-86761418D01*
X150285756Y-86719746D01*
X150379092Y-86641427D01*
X150440013Y-86535909D01*
X150461171Y-86415918D01*
X150456602Y-86390009D01*
X150449548Y-86350000D01*
X150440013Y-86295927D01*
X150396178Y-86220003D01*
X150379094Y-86190412D01*
X150379089Y-86190406D01*
X150285757Y-86112091D01*
X150285756Y-86112090D01*
X150285753Y-86112089D01*
X150285750Y-86112087D01*
X150171264Y-86070418D01*
X150171262Y-86070418D01*
X150049420Y-86070418D01*
X150049417Y-86070418D01*
X149934931Y-86112087D01*
X149934924Y-86112091D01*
X149841592Y-86190406D01*
X149841587Y-86190412D01*
X149780670Y-86295924D01*
X149780668Y-86295929D01*
X149759511Y-86415917D01*
X149759511Y-86415918D01*
X148977354Y-86415918D01*
X148988665Y-86344503D01*
X148988665Y-86344496D01*
X148968820Y-86219199D01*
X148968820Y-86219198D01*
X148968819Y-86219196D01*
X148911223Y-86106158D01*
X148911219Y-86106154D01*
X148911218Y-86106152D01*
X148821520Y-86016454D01*
X148821517Y-86016452D01*
X148821515Y-86016450D01*
X148708477Y-85958854D01*
X148708476Y-85958853D01*
X148708473Y-85958852D01*
X148583176Y-85939008D01*
X148583170Y-85939008D01*
X148457872Y-85958852D01*
X148457871Y-85958852D01*
X148382510Y-85997251D01*
X148344831Y-86016450D01*
X148344830Y-86016450D01*
X148344830Y-86016451D01*
X148344825Y-86016454D01*
X148255127Y-86106152D01*
X148255124Y-86106157D01*
X148255123Y-86106158D01*
X148252100Y-86112091D01*
X148197525Y-86219198D01*
X148197525Y-86219199D01*
X148177681Y-86344496D01*
X148177681Y-86344503D01*
X147614946Y-86344503D01*
X147580298Y-86284491D01*
X147568753Y-86264494D01*
X147568748Y-86264488D01*
X147475416Y-86186173D01*
X147475415Y-86186172D01*
X147475412Y-86186171D01*
X147475409Y-86186169D01*
X147360923Y-86144500D01*
X147360921Y-86144500D01*
X147239079Y-86144500D01*
X147239076Y-86144500D01*
X147124590Y-86186169D01*
X147124583Y-86186173D01*
X147031251Y-86264488D01*
X147031244Y-86264496D01*
X147016612Y-86289841D01*
X146966045Y-86338056D01*
X146897438Y-86351278D01*
X146832573Y-86325310D01*
X146801840Y-86289841D01*
X146798751Y-86284491D01*
X146798748Y-86284488D01*
X146705416Y-86206173D01*
X146705415Y-86206172D01*
X146705412Y-86206171D01*
X146705409Y-86206169D01*
X146590923Y-86164500D01*
X146590921Y-86164500D01*
X146469079Y-86164500D01*
X146469076Y-86164500D01*
X146354590Y-86206169D01*
X146354583Y-86206173D01*
X146261251Y-86284488D01*
X146261246Y-86284494D01*
X146200329Y-86390006D01*
X146200327Y-86390011D01*
X146179170Y-86509999D01*
X146179170Y-86510000D01*
X145189354Y-86510000D01*
X145194590Y-86480303D01*
X145190717Y-86458341D01*
X145173432Y-86360314D01*
X145173432Y-86360312D01*
X145136259Y-86295927D01*
X145112513Y-86254797D01*
X145112508Y-86254791D01*
X145019175Y-86176475D01*
X145019169Y-86176472D01*
X144904683Y-86134803D01*
X144904681Y-86134803D01*
X144782839Y-86134803D01*
X144782836Y-86134803D01*
X144668350Y-86176472D01*
X144668345Y-86176475D01*
X144575011Y-86254791D01*
X144575006Y-86254797D01*
X144514089Y-86360309D01*
X144514087Y-86360314D01*
X144492930Y-86480302D01*
X144492930Y-86480303D01*
X125200462Y-86480303D01*
X125236330Y-86393709D01*
X125255250Y-86250000D01*
X125236330Y-86106291D01*
X125180861Y-85972375D01*
X125092621Y-85857379D01*
X124991783Y-85780003D01*
X128534508Y-85780003D01*
X128554352Y-85905300D01*
X128554352Y-85905301D01*
X128571527Y-85939008D01*
X128611950Y-86018342D01*
X128611952Y-86018344D01*
X128611954Y-86018347D01*
X128701652Y-86108045D01*
X128701654Y-86108046D01*
X128701658Y-86108050D01*
X128814696Y-86165646D01*
X128814697Y-86165646D01*
X128814699Y-86165647D01*
X128939997Y-86185492D01*
X128940000Y-86185492D01*
X128940003Y-86185492D01*
X129065300Y-86165647D01*
X129065301Y-86165647D01*
X129065302Y-86165646D01*
X129065304Y-86165646D01*
X129178342Y-86108050D01*
X129268050Y-86018342D01*
X129325646Y-85905304D01*
X129325646Y-85905302D01*
X129325647Y-85905301D01*
X129325647Y-85905300D01*
X129345492Y-85780003D01*
X129345492Y-85779996D01*
X129325647Y-85654699D01*
X129322631Y-85645417D01*
X129326368Y-85644202D01*
X129316978Y-85594470D01*
X129343191Y-85529704D01*
X129400259Y-85489391D01*
X129420966Y-85484252D01*
X129475304Y-85475646D01*
X129588342Y-85418050D01*
X129678050Y-85328342D01*
X129687396Y-85310000D01*
X140624170Y-85310000D01*
X140645327Y-85429988D01*
X140645329Y-85429993D01*
X140706246Y-85535505D01*
X140706251Y-85535511D01*
X140739477Y-85563391D01*
X140799585Y-85613828D01*
X140799589Y-85613829D01*
X140799590Y-85613830D01*
X140911878Y-85654699D01*
X140914079Y-85655500D01*
X140914081Y-85655500D01*
X141035919Y-85655500D01*
X141035921Y-85655500D01*
X141150415Y-85613828D01*
X141190295Y-85580363D01*
X141254301Y-85552352D01*
X141323293Y-85563391D01*
X141349701Y-85580361D01*
X141389585Y-85613828D01*
X141389588Y-85613829D01*
X141389590Y-85613830D01*
X141501878Y-85654699D01*
X141504079Y-85655500D01*
X141504081Y-85655500D01*
X141625919Y-85655500D01*
X141625921Y-85655500D01*
X141740415Y-85613828D01*
X141833751Y-85535509D01*
X141894672Y-85429991D01*
X141915830Y-85310000D01*
X141909774Y-85275658D01*
X141906756Y-85258540D01*
X141894672Y-85190009D01*
X141842703Y-85099996D01*
X141833753Y-85084494D01*
X141833748Y-85084488D01*
X141740416Y-85006173D01*
X141740415Y-85006172D01*
X141740412Y-85006171D01*
X141740409Y-85006169D01*
X141625923Y-84964500D01*
X141625921Y-84964500D01*
X141504079Y-84964500D01*
X141504076Y-84964500D01*
X141389590Y-85006169D01*
X141389583Y-85006172D01*
X141349703Y-85039636D01*
X141285695Y-85067648D01*
X141216703Y-85056607D01*
X141190293Y-85039634D01*
X141150415Y-85006172D01*
X141150412Y-85006171D01*
X141150409Y-85006169D01*
X141035923Y-84964500D01*
X141035921Y-84964500D01*
X140914079Y-84964500D01*
X140914076Y-84964500D01*
X140799590Y-85006169D01*
X140799583Y-85006173D01*
X140706251Y-85084488D01*
X140706246Y-85084494D01*
X140645329Y-85190006D01*
X140645327Y-85190011D01*
X140624170Y-85309999D01*
X140624170Y-85310000D01*
X129687396Y-85310000D01*
X129735646Y-85215304D01*
X129735646Y-85215302D01*
X129735647Y-85215301D01*
X129735647Y-85215300D01*
X129755492Y-85090003D01*
X129755492Y-85089996D01*
X129735647Y-84964699D01*
X129735647Y-84964698D01*
X129718221Y-84930498D01*
X129678050Y-84851658D01*
X129678046Y-84851654D01*
X129678045Y-84851652D01*
X129588347Y-84761954D01*
X129588344Y-84761952D01*
X129588342Y-84761950D01*
X129475304Y-84704354D01*
X129475303Y-84704353D01*
X129475300Y-84704352D01*
X129350003Y-84684508D01*
X129349997Y-84684508D01*
X129224699Y-84704352D01*
X129224698Y-84704352D01*
X129159404Y-84737622D01*
X129111658Y-84761950D01*
X129111656Y-84761951D01*
X129111657Y-84761951D01*
X129111652Y-84761954D01*
X129021954Y-84851652D01*
X129021951Y-84851657D01*
X129021950Y-84851658D01*
X129016855Y-84861658D01*
X128964352Y-84964698D01*
X128964352Y-84964699D01*
X128944508Y-85089996D01*
X128944508Y-85090003D01*
X128964352Y-85215300D01*
X128967369Y-85224583D01*
X128963647Y-85225792D01*
X128973008Y-85275658D01*
X128946727Y-85340397D01*
X128889618Y-85380650D01*
X128869026Y-85385748D01*
X128814699Y-85394352D01*
X128814698Y-85394352D01*
X128748574Y-85428045D01*
X128701658Y-85451950D01*
X128701656Y-85451951D01*
X128701657Y-85451951D01*
X128701652Y-85451954D01*
X128611954Y-85541652D01*
X128611951Y-85541657D01*
X128611950Y-85541658D01*
X128592751Y-85579337D01*
X128554352Y-85654698D01*
X128554352Y-85654699D01*
X128534508Y-85779996D01*
X128534508Y-85780003D01*
X124991783Y-85780003D01*
X124977625Y-85769139D01*
X124977624Y-85769138D01*
X124977622Y-85769137D01*
X124843712Y-85713671D01*
X124843710Y-85713670D01*
X124843709Y-85713670D01*
X124771854Y-85704210D01*
X124700001Y-85694750D01*
X124699999Y-85694750D01*
X124556291Y-85713670D01*
X124556287Y-85713671D01*
X124422377Y-85769137D01*
X124388998Y-85794750D01*
X124307379Y-85857379D01*
X124307377Y-85857380D01*
X124307376Y-85857382D01*
X124280921Y-85891858D01*
X124224493Y-85933060D01*
X124154747Y-85937213D01*
X124107062Y-85914747D01*
X124047625Y-85869139D01*
X124047624Y-85869138D01*
X124047622Y-85869137D01*
X123913712Y-85813671D01*
X123913710Y-85813670D01*
X123913709Y-85813670D01*
X123841854Y-85804210D01*
X123770001Y-85794750D01*
X123769999Y-85794750D01*
X123626291Y-85813670D01*
X123626287Y-85813671D01*
X123492377Y-85869137D01*
X123377379Y-85957379D01*
X123289137Y-86072377D01*
X123233671Y-86206287D01*
X123233670Y-86206291D01*
X123218001Y-86325310D01*
X123214750Y-86350000D01*
X121850500Y-86350000D01*
X121850500Y-84391680D01*
X124792823Y-84391680D01*
X124810884Y-84528861D01*
X124810885Y-84528866D01*
X124863832Y-84656695D01*
X124863833Y-84656697D01*
X124863834Y-84656698D01*
X124948067Y-84766471D01*
X125057840Y-84850704D01*
X125057841Y-84850704D01*
X125057842Y-84850705D01*
X125062468Y-84852621D01*
X125185675Y-84903654D01*
X125308560Y-84919832D01*
X125322857Y-84921715D01*
X125322858Y-84921715D01*
X125322859Y-84921715D01*
X125335805Y-84920010D01*
X125460041Y-84903654D01*
X125587876Y-84850704D01*
X125697649Y-84766471D01*
X125781882Y-84656698D01*
X125834832Y-84528863D01*
X125843898Y-84460000D01*
X132114750Y-84460000D01*
X132133670Y-84603708D01*
X132133671Y-84603712D01*
X132189137Y-84737622D01*
X132189138Y-84737624D01*
X132189139Y-84737625D01*
X132277379Y-84852621D01*
X132392375Y-84940861D01*
X132526291Y-84996330D01*
X132653280Y-85013048D01*
X132669999Y-85015250D01*
X132670000Y-85015250D01*
X132670001Y-85015250D01*
X132684977Y-85013278D01*
X132813709Y-84996330D01*
X132947625Y-84940861D01*
X132961130Y-84930498D01*
X150590879Y-84930498D01*
X150610723Y-85055795D01*
X150610723Y-85055796D01*
X150616762Y-85067648D01*
X150668321Y-85168837D01*
X150668323Y-85168839D01*
X150668325Y-85168842D01*
X150758023Y-85258540D01*
X150758025Y-85258541D01*
X150758029Y-85258545D01*
X150871067Y-85316141D01*
X150871068Y-85316141D01*
X150871070Y-85316142D01*
X150996368Y-85335987D01*
X150996371Y-85335987D01*
X150996374Y-85335987D01*
X151121671Y-85316142D01*
X151121672Y-85316142D01*
X151121673Y-85316141D01*
X151121675Y-85316141D01*
X151234713Y-85258545D01*
X151324421Y-85168837D01*
X151359494Y-85100003D01*
X152134508Y-85100003D01*
X152154352Y-85225300D01*
X152154352Y-85225301D01*
X152171289Y-85258540D01*
X152211950Y-85338342D01*
X152211952Y-85338344D01*
X152211954Y-85338347D01*
X152301652Y-85428045D01*
X152301654Y-85428046D01*
X152301658Y-85428050D01*
X152414696Y-85485646D01*
X152414697Y-85485646D01*
X152414699Y-85485647D01*
X152539997Y-85505492D01*
X152540000Y-85505492D01*
X152540003Y-85505492D01*
X152665300Y-85485647D01*
X152665301Y-85485647D01*
X152665302Y-85485646D01*
X152665304Y-85485646D01*
X152778342Y-85428050D01*
X152868050Y-85338342D01*
X152925646Y-85225304D01*
X152925646Y-85225302D01*
X152925647Y-85225301D01*
X152925647Y-85225300D01*
X152945492Y-85100003D01*
X152945492Y-85099996D01*
X152925647Y-84974699D01*
X152925647Y-84974698D01*
X152920451Y-84964500D01*
X152868050Y-84861658D01*
X152868046Y-84861654D01*
X152868045Y-84861652D01*
X152778347Y-84771954D01*
X152778344Y-84771952D01*
X152778342Y-84771950D01*
X152665304Y-84714354D01*
X152665303Y-84714353D01*
X152665300Y-84714352D01*
X152540003Y-84694508D01*
X152539997Y-84694508D01*
X152414699Y-84714352D01*
X152414698Y-84714352D01*
X152369024Y-84737625D01*
X152301658Y-84771950D01*
X152301656Y-84771951D01*
X152301657Y-84771951D01*
X152301652Y-84771954D01*
X152211954Y-84861652D01*
X152211951Y-84861657D01*
X152154352Y-84974698D01*
X152154352Y-84974699D01*
X152134508Y-85099996D01*
X152134508Y-85100003D01*
X151359494Y-85100003D01*
X151382017Y-85055799D01*
X151382017Y-85055797D01*
X151382018Y-85055796D01*
X151382018Y-85055795D01*
X151401863Y-84930498D01*
X151401863Y-84930491D01*
X151382018Y-84805194D01*
X151382018Y-84805193D01*
X151382017Y-84805191D01*
X151324421Y-84692153D01*
X151324417Y-84692149D01*
X151324416Y-84692147D01*
X151234718Y-84602449D01*
X151234715Y-84602447D01*
X151234713Y-84602445D01*
X151121675Y-84544849D01*
X151121674Y-84544848D01*
X151121671Y-84544847D01*
X150996374Y-84525003D01*
X150996368Y-84525003D01*
X150871070Y-84544847D01*
X150871069Y-84544847D01*
X150795708Y-84583246D01*
X150758029Y-84602445D01*
X150758028Y-84602445D01*
X150758028Y-84602446D01*
X150758023Y-84602449D01*
X150668325Y-84692147D01*
X150668322Y-84692152D01*
X150668321Y-84692153D01*
X150657010Y-84714352D01*
X150610723Y-84805193D01*
X150610723Y-84805194D01*
X150590879Y-84930491D01*
X150590879Y-84930498D01*
X132961130Y-84930498D01*
X133062621Y-84852621D01*
X133150861Y-84737625D01*
X133206330Y-84603709D01*
X133225250Y-84460000D01*
X133206330Y-84316291D01*
X133180735Y-84254498D01*
X133174862Y-84240319D01*
X133167393Y-84170850D01*
X133187618Y-84125138D01*
X133186797Y-84124664D01*
X133190856Y-84117631D01*
X133190861Y-84117625D01*
X133214728Y-84060003D01*
X145874508Y-84060003D01*
X145894352Y-84185300D01*
X145894352Y-84185301D01*
X145894354Y-84185304D01*
X145951950Y-84298342D01*
X145951952Y-84298344D01*
X145951954Y-84298347D01*
X146041652Y-84388045D01*
X146041654Y-84388046D01*
X146041658Y-84388050D01*
X146154696Y-84445646D01*
X146154697Y-84445646D01*
X146154699Y-84445647D01*
X146279997Y-84465492D01*
X146280000Y-84465492D01*
X146280003Y-84465492D01*
X146405300Y-84445647D01*
X146405301Y-84445647D01*
X146405302Y-84445646D01*
X146405304Y-84445646D01*
X146518342Y-84388050D01*
X146608050Y-84298342D01*
X146665646Y-84185304D01*
X146665646Y-84185302D01*
X146665647Y-84185301D01*
X146665647Y-84185300D01*
X146685492Y-84060003D01*
X146685492Y-84059996D01*
X146665647Y-83934699D01*
X146665647Y-83934698D01*
X146664607Y-83932656D01*
X146663255Y-83930003D01*
X151154508Y-83930003D01*
X151174352Y-84055300D01*
X151174352Y-84055301D01*
X151176748Y-84060003D01*
X151231950Y-84168342D01*
X151231952Y-84168344D01*
X151231954Y-84168347D01*
X151321652Y-84258045D01*
X151321654Y-84258046D01*
X151321658Y-84258050D01*
X151434696Y-84315646D01*
X151434697Y-84315646D01*
X151434699Y-84315647D01*
X151559997Y-84335492D01*
X151560000Y-84335492D01*
X151560003Y-84335492D01*
X151685300Y-84315647D01*
X151685301Y-84315647D01*
X151685302Y-84315646D01*
X151685304Y-84315646D01*
X151798342Y-84258050D01*
X151888050Y-84168342D01*
X151945646Y-84055304D01*
X151945646Y-84055302D01*
X151945647Y-84055301D01*
X151945647Y-84055300D01*
X151965492Y-83930003D01*
X151965492Y-83929996D01*
X151945647Y-83804699D01*
X151945647Y-83804698D01*
X151945019Y-83803465D01*
X151888050Y-83691658D01*
X151888046Y-83691654D01*
X151888045Y-83691652D01*
X151798347Y-83601954D01*
X151798344Y-83601952D01*
X151798342Y-83601950D01*
X151685304Y-83544354D01*
X151685303Y-83544353D01*
X151685300Y-83544352D01*
X151560003Y-83524508D01*
X151559997Y-83524508D01*
X151434699Y-83544352D01*
X151434698Y-83544352D01*
X151367991Y-83578342D01*
X151321658Y-83601950D01*
X151321657Y-83601950D01*
X151321657Y-83601951D01*
X151321652Y-83601954D01*
X151231954Y-83691652D01*
X151231951Y-83691657D01*
X151231950Y-83691658D01*
X151219904Y-83715300D01*
X151174352Y-83804698D01*
X151174352Y-83804699D01*
X151154508Y-83929996D01*
X151154508Y-83930003D01*
X146663255Y-83930003D01*
X146608050Y-83821658D01*
X146608046Y-83821654D01*
X146608045Y-83821652D01*
X146518347Y-83731954D01*
X146518344Y-83731952D01*
X146518342Y-83731950D01*
X146405304Y-83674354D01*
X146405303Y-83674353D01*
X146405300Y-83674352D01*
X146280003Y-83654508D01*
X146279997Y-83654508D01*
X146154699Y-83674352D01*
X146154698Y-83674352D01*
X146111642Y-83696291D01*
X146041658Y-83731950D01*
X146041656Y-83731951D01*
X146041657Y-83731951D01*
X146041652Y-83731954D01*
X145951954Y-83821652D01*
X145951951Y-83821657D01*
X145951950Y-83821658D01*
X145948542Y-83828347D01*
X145894352Y-83934698D01*
X145894352Y-83934699D01*
X145874508Y-84059996D01*
X145874508Y-84060003D01*
X133214728Y-84060003D01*
X133246330Y-83983709D01*
X133265250Y-83840000D01*
X133246330Y-83696291D01*
X133202305Y-83590003D01*
X135644508Y-83590003D01*
X135664352Y-83715300D01*
X135664352Y-83715301D01*
X135679736Y-83745492D01*
X135721950Y-83828342D01*
X135721952Y-83828344D01*
X135721954Y-83828347D01*
X135811652Y-83918045D01*
X135811654Y-83918046D01*
X135811658Y-83918050D01*
X135924696Y-83975646D01*
X135924697Y-83975646D01*
X135924699Y-83975647D01*
X136049997Y-83995492D01*
X136050000Y-83995492D01*
X136050003Y-83995492D01*
X136175300Y-83975647D01*
X136175301Y-83975647D01*
X136175302Y-83975646D01*
X136175304Y-83975646D01*
X136288342Y-83918050D01*
X136378050Y-83828342D01*
X136390725Y-83803464D01*
X136438699Y-83752669D01*
X136481809Y-83737286D01*
X136555304Y-83725646D01*
X136668342Y-83668050D01*
X136758050Y-83578342D01*
X136815646Y-83465304D01*
X136815646Y-83465302D01*
X136815647Y-83465301D01*
X136815647Y-83465300D01*
X136835492Y-83340003D01*
X136835492Y-83339996D01*
X136815647Y-83214699D01*
X136815647Y-83214698D01*
X136799721Y-83183442D01*
X136758050Y-83101658D01*
X136758046Y-83101654D01*
X136758045Y-83101652D01*
X136668347Y-83011954D01*
X136668344Y-83011952D01*
X136668342Y-83011950D01*
X136555304Y-82954354D01*
X136555303Y-82954353D01*
X136555300Y-82954352D01*
X136430003Y-82934508D01*
X136429997Y-82934508D01*
X136304699Y-82954352D01*
X136304698Y-82954352D01*
X136229337Y-82992751D01*
X136191658Y-83011950D01*
X136191656Y-83011951D01*
X136191657Y-83011951D01*
X136191652Y-83011954D01*
X136101951Y-83101655D01*
X136089273Y-83126537D01*
X136041298Y-83177332D01*
X135998188Y-83192713D01*
X135924698Y-83204353D01*
X135924696Y-83204353D01*
X135924696Y-83204354D01*
X135811658Y-83261950D01*
X135811657Y-83261951D01*
X135811652Y-83261954D01*
X135721954Y-83351652D01*
X135721951Y-83351657D01*
X135721950Y-83351658D01*
X135702751Y-83389337D01*
X135664352Y-83464698D01*
X135664352Y-83464699D01*
X135644508Y-83589996D01*
X135644508Y-83590003D01*
X133202305Y-83590003D01*
X133190862Y-83562377D01*
X133190861Y-83562376D01*
X133190861Y-83562375D01*
X133102621Y-83447379D01*
X132987625Y-83359139D01*
X132987624Y-83359138D01*
X132987622Y-83359137D01*
X132853712Y-83303671D01*
X132853710Y-83303670D01*
X132853709Y-83303670D01*
X132781854Y-83294210D01*
X132710001Y-83284750D01*
X132709999Y-83284750D01*
X132566291Y-83303670D01*
X132566287Y-83303671D01*
X132432377Y-83359137D01*
X132317379Y-83447379D01*
X132229137Y-83562377D01*
X132173671Y-83696287D01*
X132173670Y-83696291D01*
X132157166Y-83821652D01*
X132154750Y-83840000D01*
X132172608Y-83975646D01*
X132173670Y-83983708D01*
X132173671Y-83983712D01*
X132205137Y-84059679D01*
X132212606Y-84129148D01*
X132192385Y-84174862D01*
X132193203Y-84175335D01*
X132189138Y-84182374D01*
X132133671Y-84316287D01*
X132133670Y-84316291D01*
X132114750Y-84459999D01*
X132114750Y-84460000D01*
X125843898Y-84460000D01*
X125852893Y-84391680D01*
X125852414Y-84388045D01*
X125845495Y-84335492D01*
X125834832Y-84254497D01*
X125781882Y-84126663D01*
X125697649Y-84016889D01*
X125697647Y-84016888D01*
X125697647Y-84016887D01*
X125590537Y-83934698D01*
X125587876Y-83932656D01*
X125587875Y-83932655D01*
X125587873Y-83932654D01*
X125460044Y-83879707D01*
X125460042Y-83879706D01*
X125460041Y-83879706D01*
X125368585Y-83867665D01*
X125322859Y-83861645D01*
X125322857Y-83861645D01*
X125254266Y-83870675D01*
X125185675Y-83879706D01*
X125185674Y-83879706D01*
X125185671Y-83879707D01*
X125057843Y-83932654D01*
X124948067Y-84016889D01*
X124863832Y-84126665D01*
X124810885Y-84254493D01*
X124810884Y-84254496D01*
X124810884Y-84254497D01*
X124810416Y-84258050D01*
X124792823Y-84391679D01*
X124792823Y-84391680D01*
X121850500Y-84391680D01*
X121850500Y-83130003D01*
X124399508Y-83130003D01*
X124419352Y-83255300D01*
X124419352Y-83255301D01*
X124437805Y-83291517D01*
X124476950Y-83368342D01*
X124476952Y-83368344D01*
X124476954Y-83368347D01*
X124566652Y-83458045D01*
X124566654Y-83458046D01*
X124566658Y-83458050D01*
X124679696Y-83515646D01*
X124679697Y-83515646D01*
X124679699Y-83515647D01*
X124804997Y-83535492D01*
X124805000Y-83535492D01*
X124805003Y-83535492D01*
X124930300Y-83515647D01*
X124930301Y-83515647D01*
X124930302Y-83515646D01*
X124930304Y-83515646D01*
X125043342Y-83458050D01*
X125133050Y-83368342D01*
X125190646Y-83255304D01*
X125202028Y-83183439D01*
X125231956Y-83120307D01*
X125291268Y-83083375D01*
X125361130Y-83084373D01*
X125419363Y-83122982D01*
X125434985Y-83146542D01*
X125491950Y-83258342D01*
X125491952Y-83258344D01*
X125491954Y-83258347D01*
X125581652Y-83348045D01*
X125581654Y-83348046D01*
X125581658Y-83348050D01*
X125694696Y-83405646D01*
X125694697Y-83405646D01*
X125694699Y-83405647D01*
X125819997Y-83425492D01*
X125820000Y-83425492D01*
X125820003Y-83425492D01*
X125945300Y-83405647D01*
X125945301Y-83405647D01*
X125945302Y-83405646D01*
X125945304Y-83405646D01*
X126058342Y-83348050D01*
X126148050Y-83258342D01*
X126205646Y-83145304D01*
X126205646Y-83145302D01*
X126205647Y-83145301D01*
X126205647Y-83145300D01*
X126225492Y-83020003D01*
X126225492Y-83019996D01*
X126205647Y-82894699D01*
X126205647Y-82894698D01*
X126204098Y-82891658D01*
X126157396Y-82800000D01*
X142949170Y-82800000D01*
X142970327Y-82919988D01*
X142970329Y-82919993D01*
X142997272Y-82966659D01*
X143013745Y-83034559D01*
X142997273Y-83090658D01*
X142980329Y-83120005D01*
X142980328Y-83120009D01*
X142959170Y-83239999D01*
X142959170Y-83240000D01*
X142980327Y-83359988D01*
X142980329Y-83359993D01*
X143041246Y-83465505D01*
X143041248Y-83465507D01*
X143041249Y-83465509D01*
X143134585Y-83543828D01*
X143134589Y-83543829D01*
X143134590Y-83543830D01*
X143136030Y-83544354D01*
X143249079Y-83585500D01*
X143249081Y-83585500D01*
X143370919Y-83585500D01*
X143370921Y-83585500D01*
X143485415Y-83543828D01*
X143578751Y-83465509D01*
X143639672Y-83359991D01*
X143660830Y-83240000D01*
X143639672Y-83120009D01*
X143612727Y-83073339D01*
X143596254Y-83005439D01*
X143612726Y-82949340D01*
X143629672Y-82919991D01*
X143647303Y-82820003D01*
X153444508Y-82820003D01*
X153464352Y-82945300D01*
X153464352Y-82945301D01*
X153464354Y-82945304D01*
X153521950Y-83058342D01*
X153521952Y-83058344D01*
X153521954Y-83058347D01*
X153611652Y-83148045D01*
X153611654Y-83148046D01*
X153611658Y-83148050D01*
X153724696Y-83205646D01*
X153724697Y-83205646D01*
X153724699Y-83205647D01*
X153849997Y-83225492D01*
X153850000Y-83225492D01*
X153850003Y-83225492D01*
X153975295Y-83205648D01*
X153975298Y-83205646D01*
X153975304Y-83205646D01*
X153975309Y-83205643D01*
X153979674Y-83204225D01*
X154049515Y-83202224D01*
X154074294Y-83211667D01*
X154077196Y-83213146D01*
X154077200Y-83213146D01*
X154077201Y-83213147D01*
X154077199Y-83213147D01*
X154202497Y-83232992D01*
X154202500Y-83232992D01*
X154202503Y-83232992D01*
X154327800Y-83213147D01*
X154327801Y-83213147D01*
X154327802Y-83213146D01*
X154327804Y-83213146D01*
X154440842Y-83155550D01*
X154530550Y-83065842D01*
X154588146Y-82952804D01*
X154588146Y-82952802D01*
X154588147Y-82952801D01*
X154588147Y-82952800D01*
X154607992Y-82827503D01*
X154607992Y-82827496D01*
X154588147Y-82702199D01*
X154588147Y-82702198D01*
X154584326Y-82694699D01*
X154530550Y-82589158D01*
X154530546Y-82589154D01*
X154530545Y-82589152D01*
X154440847Y-82499454D01*
X154440844Y-82499452D01*
X154440842Y-82499450D01*
X154327804Y-82441854D01*
X154327803Y-82441853D01*
X154327800Y-82441852D01*
X154202503Y-82422008D01*
X154202498Y-82422008D01*
X154077196Y-82441853D01*
X154072812Y-82443278D01*
X154002971Y-82445271D01*
X153978205Y-82435832D01*
X153975304Y-82434354D01*
X153975303Y-82434353D01*
X153975300Y-82434352D01*
X153850003Y-82414508D01*
X153849997Y-82414508D01*
X153724699Y-82434352D01*
X153724698Y-82434352D01*
X153685157Y-82454500D01*
X153611658Y-82491950D01*
X153611657Y-82491951D01*
X153611652Y-82491954D01*
X153521954Y-82581652D01*
X153521951Y-82581657D01*
X153464352Y-82694698D01*
X153464352Y-82694699D01*
X153444508Y-82819996D01*
X153444508Y-82820003D01*
X143647303Y-82820003D01*
X143650830Y-82800000D01*
X143629672Y-82680009D01*
X143577219Y-82589158D01*
X143568753Y-82574494D01*
X143568748Y-82574488D01*
X143479323Y-82499451D01*
X143475415Y-82496172D01*
X143475412Y-82496171D01*
X143475409Y-82496169D01*
X143360923Y-82454500D01*
X143360921Y-82454500D01*
X143239079Y-82454500D01*
X143239076Y-82454500D01*
X143124590Y-82496169D01*
X143124583Y-82496173D01*
X143031251Y-82574488D01*
X143031246Y-82574494D01*
X142970329Y-82680006D01*
X142970327Y-82680011D01*
X142949170Y-82799999D01*
X142949170Y-82800000D01*
X126157396Y-82800000D01*
X126148050Y-82781658D01*
X126148046Y-82781654D01*
X126148045Y-82781652D01*
X126058347Y-82691954D01*
X126058344Y-82691952D01*
X126058342Y-82691950D01*
X125945304Y-82634354D01*
X125945303Y-82634353D01*
X125945300Y-82634352D01*
X125820003Y-82614508D01*
X125819997Y-82614508D01*
X125694699Y-82634352D01*
X125694698Y-82634352D01*
X125619337Y-82672751D01*
X125581658Y-82691950D01*
X125581656Y-82691951D01*
X125581657Y-82691951D01*
X125581652Y-82691954D01*
X125491954Y-82781652D01*
X125491951Y-82781657D01*
X125491950Y-82781658D01*
X125468591Y-82827503D01*
X125434353Y-82894698D01*
X125422971Y-82966559D01*
X125393041Y-83029693D01*
X125333730Y-83066624D01*
X125263867Y-83065626D01*
X125205635Y-83027016D01*
X125190015Y-83003459D01*
X125133050Y-82891658D01*
X125133046Y-82891654D01*
X125133045Y-82891652D01*
X125043347Y-82801954D01*
X125043344Y-82801952D01*
X125043342Y-82801950D01*
X124930304Y-82744354D01*
X124930303Y-82744353D01*
X124930300Y-82744352D01*
X124805003Y-82724508D01*
X124804997Y-82724508D01*
X124679699Y-82744352D01*
X124679698Y-82744352D01*
X124606495Y-82781652D01*
X124566658Y-82801950D01*
X124566657Y-82801951D01*
X124566652Y-82801954D01*
X124476954Y-82891652D01*
X124476951Y-82891657D01*
X124476950Y-82891658D01*
X124475401Y-82894698D01*
X124419352Y-83004698D01*
X124419352Y-83004699D01*
X124399508Y-83129996D01*
X124399508Y-83130003D01*
X121850500Y-83130003D01*
X121850500Y-81700003D01*
X127564508Y-81700003D01*
X127584352Y-81825300D01*
X127584352Y-81825301D01*
X127584354Y-81825304D01*
X127641950Y-81938342D01*
X127641952Y-81938344D01*
X127641954Y-81938347D01*
X127731652Y-82028045D01*
X127731654Y-82028046D01*
X127731658Y-82028050D01*
X127844696Y-82085646D01*
X127844697Y-82085646D01*
X127844699Y-82085647D01*
X127969997Y-82105492D01*
X127970000Y-82105492D01*
X127970003Y-82105492D01*
X128095300Y-82085647D01*
X128095301Y-82085647D01*
X128095302Y-82085646D01*
X128095304Y-82085646D01*
X128208342Y-82028050D01*
X128298050Y-81938342D01*
X128355646Y-81825304D01*
X128355646Y-81825302D01*
X128355647Y-81825301D01*
X128355647Y-81825300D01*
X128364405Y-81770003D01*
X154504508Y-81770003D01*
X154524352Y-81895300D01*
X154524352Y-81895301D01*
X154524354Y-81895304D01*
X154581950Y-82008342D01*
X154581952Y-82008344D01*
X154581954Y-82008347D01*
X154671652Y-82098045D01*
X154671654Y-82098046D01*
X154671658Y-82098050D01*
X154784696Y-82155646D01*
X154784697Y-82155646D01*
X154784699Y-82155647D01*
X154909997Y-82175492D01*
X154910000Y-82175492D01*
X154910003Y-82175492D01*
X155035300Y-82155647D01*
X155035302Y-82155646D01*
X155035304Y-82155646D01*
X155078705Y-82133531D01*
X155147373Y-82120635D01*
X155191293Y-82133531D01*
X155234696Y-82155646D01*
X155234699Y-82155647D01*
X155359997Y-82175492D01*
X155360000Y-82175492D01*
X155360003Y-82175492D01*
X155485300Y-82155647D01*
X155485301Y-82155647D01*
X155485302Y-82155646D01*
X155485304Y-82155646D01*
X155598342Y-82098050D01*
X155688050Y-82008342D01*
X155745646Y-81895304D01*
X155745646Y-81895302D01*
X155745647Y-81895301D01*
X155745647Y-81895300D01*
X155765492Y-81770003D01*
X155765492Y-81769996D01*
X155745647Y-81644699D01*
X155745647Y-81644698D01*
X155745646Y-81644696D01*
X155688050Y-81531658D01*
X155688046Y-81531654D01*
X155688045Y-81531652D01*
X155598347Y-81441954D01*
X155598344Y-81441952D01*
X155598342Y-81441950D01*
X155485304Y-81384354D01*
X155485303Y-81384353D01*
X155485300Y-81384352D01*
X155360003Y-81364508D01*
X155359998Y-81364508D01*
X155234697Y-81384353D01*
X155234693Y-81384354D01*
X155191294Y-81406467D01*
X155122624Y-81419363D01*
X155078706Y-81406467D01*
X155035306Y-81384354D01*
X155035302Y-81384353D01*
X154910002Y-81364508D01*
X154909997Y-81364508D01*
X154784699Y-81384352D01*
X154784698Y-81384352D01*
X154719314Y-81417668D01*
X154671658Y-81441950D01*
X154671656Y-81441950D01*
X154671657Y-81441951D01*
X154671652Y-81441954D01*
X154581954Y-81531652D01*
X154581951Y-81531657D01*
X154581950Y-81531658D01*
X154562751Y-81569337D01*
X154524352Y-81644698D01*
X154524352Y-81644699D01*
X154504508Y-81769996D01*
X154504508Y-81770003D01*
X128364405Y-81770003D01*
X128375492Y-81700003D01*
X128375492Y-81699996D01*
X128356462Y-81579843D01*
X128365417Y-81510550D01*
X128377109Y-81490187D01*
X128378048Y-81488343D01*
X128378050Y-81488342D01*
X128435646Y-81375304D01*
X128435646Y-81375302D01*
X128435647Y-81375301D01*
X128435647Y-81375300D01*
X128455492Y-81250003D01*
X128455492Y-81249996D01*
X128435647Y-81124699D01*
X128435647Y-81124698D01*
X128435646Y-81124696D01*
X128402938Y-81060503D01*
X147244508Y-81060503D01*
X147264352Y-81185800D01*
X147264352Y-81185801D01*
X147264354Y-81185804D01*
X147321950Y-81298842D01*
X147321952Y-81298844D01*
X147321954Y-81298847D01*
X147411652Y-81388545D01*
X147411654Y-81388546D01*
X147411658Y-81388550D01*
X147524696Y-81446146D01*
X147524697Y-81446146D01*
X147524699Y-81446147D01*
X147649997Y-81465992D01*
X147650000Y-81465992D01*
X147650003Y-81465992D01*
X147775300Y-81446147D01*
X147775301Y-81446147D01*
X147775302Y-81446146D01*
X147775304Y-81446146D01*
X147888342Y-81388550D01*
X147978050Y-81298842D01*
X148035646Y-81185804D01*
X148035646Y-81185802D01*
X148035647Y-81185801D01*
X148035647Y-81185800D01*
X148055492Y-81060503D01*
X148055492Y-81060496D01*
X148035647Y-80935199D01*
X148035647Y-80935198D01*
X148028897Y-80921950D01*
X147978050Y-80822158D01*
X147978046Y-80822154D01*
X147978045Y-80822152D01*
X147888347Y-80732454D01*
X147888344Y-80732452D01*
X147888342Y-80732450D01*
X147775304Y-80674854D01*
X147775303Y-80674853D01*
X147775300Y-80674852D01*
X147650003Y-80655008D01*
X147649997Y-80655008D01*
X147524699Y-80674852D01*
X147524698Y-80674852D01*
X147449337Y-80713251D01*
X147411658Y-80732450D01*
X147411656Y-80732451D01*
X147411657Y-80732451D01*
X147411652Y-80732454D01*
X147321954Y-80822152D01*
X147321951Y-80822157D01*
X147264352Y-80935198D01*
X147264352Y-80935199D01*
X147244508Y-81060496D01*
X147244508Y-81060503D01*
X128402938Y-81060503D01*
X128378050Y-81011658D01*
X128378046Y-81011654D01*
X128378045Y-81011652D01*
X128288347Y-80921954D01*
X128288344Y-80921952D01*
X128288342Y-80921950D01*
X128175304Y-80864354D01*
X128175303Y-80864353D01*
X128175300Y-80864352D01*
X128050003Y-80844508D01*
X128049997Y-80844508D01*
X127924699Y-80864352D01*
X127924698Y-80864352D01*
X127849337Y-80902751D01*
X127811658Y-80921950D01*
X127811656Y-80921951D01*
X127811657Y-80921951D01*
X127811652Y-80921954D01*
X127721954Y-81011652D01*
X127721951Y-81011657D01*
X127664352Y-81124698D01*
X127664352Y-81124699D01*
X127644508Y-81249996D01*
X127644508Y-81249997D01*
X127644508Y-81250000D01*
X127652244Y-81298842D01*
X127663538Y-81370155D01*
X127654582Y-81439449D01*
X127642884Y-81459824D01*
X127584352Y-81574698D01*
X127584352Y-81574699D01*
X127564508Y-81699996D01*
X127564508Y-81700003D01*
X121850500Y-81700003D01*
X121850500Y-80419500D01*
X121870185Y-80352461D01*
X121922989Y-80306706D01*
X121974500Y-80295500D01*
X159485500Y-80295500D01*
X159552539Y-80315185D01*
G37*
%TD.AperFunction*%
%TD*%
M02*
