M48
; DRILL file {KiCad 7.0.6} date Sun Mar 24 10:59:27 2024
; FORMAT={-:-/ absolute / inch / decimal}
; #@! TF.CreationDate,2024-03-24T10:59:27+08:00
; #@! TF.GenerationSoftware,Kicad,Pcbnew,7.0.6
; #@! TF.FileFunction,Plated,1,4,PTH
FMAT,2
INCH
; #@! TA.AperFunction,Plated,PTH,ViaDrill
T1C0.0079
; #@! TA.AperFunction,Plated,PTH,ViaDrill
T2C0.0098
; #@! TA.AperFunction,Plated,PTH,ViaDrill
T3C0.0118
; #@! TA.AperFunction,Plated,PTH,ViaDrill
T4C0.0157
; #@! TA.AperFunction,Plated,PTH,ComponentDrill
T5C0.0157
; #@! TA.AperFunction,Plated,PTH,ComponentDrill
T6C0.0197
; #@! TA.AperFunction,Plated,PTH,ComponentDrill
T7C0.0866
%
G90
G05
T1
X5.1693Y-3.6177
X5.1748Y-3.6394
X5.2347Y-3.6881
X5.2511Y-3.6717
X5.2547Y-3.6205
X5.3Y-3.6565
X5.3Y-3.6797
X5.3098Y-3.611
X5.3685Y-3.5827
X5.385Y-3.9835
X5.4209Y-3.35
X5.422Y-3.9933
X5.4224Y-3.4264
X5.4224Y-3.8677
X5.4283Y-3.9445
X5.4398Y-3.4736
X5.4461Y-3.8421
X5.4504Y-3.4547
X5.461Y-3.9445
X5.4665Y-3.3492
X5.4669Y-3.4382
X5.4673Y-3.9925
X5.4756Y-3.8138
X5.476Y-3.4846
X5.4807Y-3.4197
X5.4815Y-3.3886
X5.4839Y-3.3626
X5.4846Y-3.8736
X5.4878Y-3.7382
X5.4894Y-3.6917
X5.4912Y-3.9422
X5.5008Y-3.4795
X5.5024Y-3.9933
X5.5035Y-3.8504
X5.5071Y-3.7041
X5.5071Y-3.7274
X5.5122Y-3.8071
X5.5185Y-3.5016
X5.5224Y-3.9402
X5.524Y-3.3803
X5.5252Y-3.3547
X5.5256Y-3.6291
X5.5335Y-3.426
X5.537Y-3.9929
X5.5445Y-3.8087
X5.5484Y-3.4059
X5.5502Y-3.3587
X5.5524Y-3.6079
X5.5539Y-3.939
X5.5634Y-3.6949
X5.565Y-3.6382
X5.5677Y-3.437
X5.5717Y-3.4866
X5.5717Y-3.5746
X5.5717Y-3.5978
X5.5717Y-3.9921
X5.5734Y-3.3587
X5.574Y-3.8083
X5.5772Y-3.6561
X5.5772Y-3.6793
X5.5831Y-3.9402
X5.5866Y-3.6272
X5.587Y-3.4467
X5.587Y-3.4699
X5.5886Y-3.374
X5.6067Y-3.9244
X5.6079Y-3.8071
X5.615Y-3.9894
X5.6177Y-3.3843
X5.6348Y-3.5118
X5.635Y-3.8969
X5.6352Y-3.6937
X5.6363Y-3.9193
X5.6394Y-3.9673
X5.6398Y-3.8504
X5.6398Y-3.8736
X5.6402Y-3.8094
X5.6406Y-3.6382
X5.6406Y-3.6382
X5.6417Y-3.2598
X5.6421Y-3.2772
X5.6425Y-3.3724
X5.6527Y-3.9358
X5.6567Y-3.5118
X5.6567Y-3.6941
X5.657Y-3.6547
X5.657Y-3.6547
X5.6657Y-3.8087
X5.6677Y-3.6732
X5.6685Y-3.5331
X5.6693Y-3.9539
X5.6791Y-3.789
X5.6982Y-3.8016
X5.7025Y-3.4047
X5.7215Y-3.8016
X5.7319Y-3.3539
X5.7374Y-3.7876
X5.7535Y-3.4461
X5.7661Y-3.4634
X5.7689Y-3.4059
X5.7697Y-3.8161
X5.7785Y-3.7898
X5.7992Y-3.4051
X5.8018Y-3.7898
X5.8197Y-3.4488
X5.8244Y-3.8689
X5.8386Y-3.8469
X5.8409Y-3.4528
X5.8478Y-3.8751
X5.8711Y-3.8751
X5.8913Y-3.8835
X5.9045Y-3.8114
X5.9099Y-3.4022
X5.9278Y-3.8114
X5.9323Y-3.8516
X5.939Y-3.7862
X5.9445Y-3.8783
X5.952Y-3.8102
X5.9724Y-3.6421
X5.9736Y-3.6614
X5.9764Y-3.7591
X5.9799Y-3.6213
X6.0024Y-3.6107
X6.0043Y-3.4086
X6.0067Y-3.7004
X6.0071Y-3.5902
X6.0075Y-3.7587
X6.0188Y-3.6271
X6.0307Y-3.5709
X6.0508Y-3.5508
X6.0744Y-3.5982
X6.0744Y-3.6215
X6.0768Y-3.5315
X6.0787Y-3.6969
X6.089Y-3.5736
X6.0902Y-3.6362
X6.0937Y-3.6585
X6.0937Y-3.6817
X6.0945Y-3.5886
T2
X5.411Y-3.7386
X5.4319Y-3.7165
X5.7244Y-3.485
X5.7366Y-3.6874
X5.7815Y-3.4996
X5.7913Y-3.4669
X5.8094Y-3.6921
T3
X4.8173Y-3.3799
X4.8189Y-3.3256
X4.8209Y-3.8302
X4.8209Y-3.2386
X4.8217Y-3.7724
X4.8217Y-4.035
X4.8228Y-3.6157
X4.8232Y-3.5075
X4.8232Y-3.6717
X4.824Y-3.5634
X4.8252Y-3.7287
X4.8256Y-3.4465
X4.826Y-3.8969
X4.8307Y-3.1882
X4.8705Y-3.8724
X4.8815Y-3.1827
X4.8972Y-3.6953
X4.9136Y-3.2728
X4.9236Y-3.75
X4.9268Y-3.5039
X4.9268Y-3.5638
X4.9299Y-3.8736
X4.9535Y-3.2685
X4.9638Y-3.2437
X4.9673Y-4.0429
X4.9677Y-3.6114
X4.9772Y-3.9083
X4.9776Y-3.1827
X4.9894Y-3.2866
X4.9906Y-4.0
X4.9913Y-3.3122
X4.9921Y-3.8614
X4.9925Y-3.8031
X4.9929Y-3.7697
X4.9937Y-3.335
X4.9984Y-3.9567
X5.0075Y-3.5547
X5.0126Y-3.3449
X5.015Y-3.287
X5.0157Y-3.3106
X5.0157Y-3.652
X5.0256Y-3.4949
X5.0362Y-3.3366
X5.0366Y-3.4335
X5.0378Y-3.2831
X5.0382Y-3.2165
X5.0386Y-3.3098
X5.0413Y-3.1988
X5.0457Y-4.0386
X5.0736Y-3.8346
X5.0764Y-3.3772
X5.0815Y-3.6217
X5.0835Y-3.6827
X5.0925Y-3.35
X5.1004Y-4.0291
X5.1185Y-3.4248
X5.1303Y-3.2878
X5.1539Y-3.1866
X5.163Y-4.0441
X5.1693Y-3.7524
X5.1697Y-3.2736
X5.1748Y-3.4197
X5.2205Y-4.046
X5.2264Y-4.0142
X5.235Y-3.1839
X5.2358Y-3.7476
X5.2453Y-4.015
X5.2544Y-3.8827
X5.2591Y-3.2555
X5.2602Y-3.6469
X5.2673Y-3.5697
X5.2693Y-3.3295
X5.289Y-3.4886
X5.289Y-3.5858
X5.3122Y-3.4232
X5.3146Y-3.348
X5.326Y-3.8492
X5.3293Y-3.8195
X5.3346Y-3.576
X5.3362Y-3.9638
X5.3415Y-3.8486
X5.3453Y-3.1756
X5.3547Y-3.4642
X5.3563Y-3.2909
X5.363Y-3.813
X5.3642Y-3.6346
X5.3665Y-3.9634
X5.3713Y-3.2811
X5.3783Y-3.537
X5.3815Y-3.3909
X5.3953Y-3.3173
X5.4102Y-3.5402
X5.4366Y-3.1846
X5.4693Y-3.1862
X5.5276Y-3.5299
X5.5335Y-3.7406
X5.5594Y-3.761
X5.5717Y-3.1791
X5.6374Y-3.5629
X5.6469Y-3.7382
X5.6496Y-3.5874
X5.652Y-3.1854
X5.6693Y-3.7173
X5.6768Y-3.3301
X5.6811Y-3.9827
X5.6894Y-3.4504
X5.6898Y-3.5173
X5.6909Y-3.7388
X5.6913Y-3.5531
X5.6969Y-3.5906
X5.7094Y-3.2626
X5.7252Y-3.5173
X5.7256Y-3.5539
X5.7335Y-3.5925
X5.7335Y-3.6539
X5.7346Y-3.6248
X5.7362Y-3.7346
X5.7433Y-3.8843
X5.7535Y-3.1914
X5.7571Y-3.5181
X5.7591Y-3.3094
X5.7622Y-3.5524
X5.7669Y-3.5917
X5.7677Y-3.622
X5.7701Y-3.6555
X5.7709Y-3.6866
X5.7874Y-3.8768
X5.7921Y-3.7268
X5.802Y-3.5524
X5.8039Y-3.624
X5.8047Y-3.3256
X5.8051Y-3.5205
X5.8051Y-3.5909
X5.8059Y-3.6559
X5.813Y-3.1914
X5.8378Y-3.6224
X5.8386Y-3.5213
X5.839Y-3.5906
X5.8394Y-3.4953
X5.8402Y-3.5524
X5.8402Y-3.6547
X5.8413Y-3.724
X5.8472Y-3.6854
X5.8476Y-3.1874
X5.8497Y-3.3994
X5.8583Y-3.9535
X5.8587Y-4.0118
X5.8598Y-4.0307
X5.8677Y-3.5213
X5.8699Y-3.4957
X5.8705Y-3.6236
X5.8705Y-3.6555
X5.8717Y-3.5894
X5.8724Y-3.5524
X5.8894Y-3.1902
X5.8972Y-4.0323
X5.898Y-3.2885
X5.8984Y-3.6646
X5.8992Y-3.3343
X5.9138Y-3.5921
X5.9146Y-3.5461
X5.9177Y-3.1807
X5.9177Y-3.6315
X5.9193Y-3.952
X5.9228Y-3.7311
X5.924Y-3.4646
X5.9445Y-4.0311
X5.9447Y-3.3437
X5.9669Y-3.3043
X5.9724Y-3.4283
X5.9854Y-3.9122
X5.9874Y-3.5457
X5.9886Y-3.4772
X5.9949Y-3.8579
X6.0012Y-3.8055
X6.0055Y-3.3504
X6.0106Y-3.1854
X6.0189Y-4.0315
X6.0263Y-3.3653
X6.0394Y-3.8445
X6.0394Y-3.8717
X6.0406Y-3.9764
X6.0567Y-3.389
X6.0571Y-3.2606
X6.0637Y-3.3325
X6.0681Y-3.187
X6.071Y-3.2609
X6.0846Y-3.9484
X6.0854Y-3.998
X6.0886Y-3.4961
X6.0988Y-3.2193
X6.1161Y-4.0421
X6.1165Y-3.2193
X6.1165Y-3.8957
X6.1185Y-3.4713
X6.1354Y-3.1878
X6.1394Y-3.7925
X6.1413Y-3.8472
X6.1669Y-3.7315
X6.1693Y-3.413
X6.1736Y-3.3945
X6.1736Y-3.8654
X6.1894Y-3.7343
X6.2016Y-3.25
X6.2146Y-3.2878
X6.2157Y-3.8669
X6.2181Y-3.6689
X6.226Y-3.1823
X6.235Y-3.5492
X6.25Y-3.3713
X6.2512Y-3.6472
X6.252Y-3.7606
X6.2524Y-3.5878
X6.2528Y-3.5169
X6.2559Y-3.4602
X6.2559Y-3.8291
X6.2571Y-3.4189
X6.2602Y-3.3118
X6.2602Y-3.8925
X6.2634Y-4.0406
T4
X4.8728Y-3.3996
X4.9094Y-3.3957
X4.934Y-3.3225
X5.0327Y-3.9024
X5.0697Y-3.9874
X5.1898Y-3.8925
X5.1909Y-3.9512
X5.2232Y-3.3252
X5.2232Y-3.4563
X5.2232Y-3.4835
X5.2248Y-3.3008
T5
X5.1177Y-3.5504
X5.1177Y-3.5819
X5.1177Y-3.6134
X5.1177Y-3.6764
X5.1177Y-3.7079
X5.1177Y-3.7394
X5.1453Y-3.5346
X5.1453Y-3.5976
X5.1453Y-3.6291
X5.1453Y-3.6606
X5.1453Y-3.6921
X5.1453Y-3.7551
T7
X4.8953Y-3.9685
X6.1913Y-3.9709
T6
G00X4.9579Y-3.4681
M15
G01X4.9343Y-3.4681
M16
G05
G00X4.9579Y-3.8217
M15
G01X4.9343Y-3.8217
M16
G05
G00X5.1335Y-3.4823
M15
G01X5.1098Y-3.4823
M16
G05
G00X5.1335Y-3.8075
M15
G01X5.1098Y-3.8075
M16
G05
T0
M30
