%TF.GenerationSoftware,KiCad,Pcbnew,7.0.6*%
%TF.CreationDate,2024-03-24T10:59:23+08:00*%
%TF.ProjectId,USB3 Hub,55534233-2048-4756-922e-6b696361645f,rev?*%
%TF.SameCoordinates,Original*%
%TF.FileFunction,Legend,Bot*%
%TF.FilePolarity,Positive*%
%FSLAX46Y46*%
G04 Gerber Fmt 4.6, Leading zero omitted, Abs format (unit mm)*
G04 Created by KiCad (PCBNEW 7.0.6) date 2024-03-24 10:59:23*
%MOMM*%
%LPD*%
G01*
G04 APERTURE LIST*
%ADD10C,0.150000*%
%ADD11C,0.100000*%
%ADD12C,0.120000*%
%ADD13C,0.050000*%
G04 APERTURE END LIST*
D10*
X134970180Y-81687030D02*
X134970180Y-82163220D01*
X134970180Y-82163220D02*
X134493990Y-82210839D01*
X134493990Y-82210839D02*
X134541609Y-82163220D01*
X134541609Y-82163220D02*
X134589228Y-82067982D01*
X134589228Y-82067982D02*
X134589228Y-81829887D01*
X134589228Y-81829887D02*
X134541609Y-81734649D01*
X134541609Y-81734649D02*
X134493990Y-81687030D01*
X134493990Y-81687030D02*
X134398752Y-81639411D01*
X134398752Y-81639411D02*
X134160657Y-81639411D01*
X134160657Y-81639411D02*
X134065419Y-81687030D01*
X134065419Y-81687030D02*
X134017800Y-81734649D01*
X134017800Y-81734649D02*
X133970180Y-81829887D01*
X133970180Y-81829887D02*
X133970180Y-82067982D01*
X133970180Y-82067982D02*
X134017800Y-82163220D01*
X134017800Y-82163220D02*
X134065419Y-82210839D01*
X134970180Y-81353696D02*
X133970180Y-81020363D01*
X133970180Y-81020363D02*
X134970180Y-80687030D01*
X132382561Y-82649411D02*
X132430180Y-82744649D01*
X132430180Y-82744649D02*
X132430180Y-82887506D01*
X132430180Y-82887506D02*
X132382561Y-83030363D01*
X132382561Y-83030363D02*
X132287323Y-83125601D01*
X132287323Y-83125601D02*
X132192085Y-83173220D01*
X132192085Y-83173220D02*
X132001609Y-83220839D01*
X132001609Y-83220839D02*
X131858752Y-83220839D01*
X131858752Y-83220839D02*
X131668276Y-83173220D01*
X131668276Y-83173220D02*
X131573038Y-83125601D01*
X131573038Y-83125601D02*
X131477800Y-83030363D01*
X131477800Y-83030363D02*
X131430180Y-82887506D01*
X131430180Y-82887506D02*
X131430180Y-82792268D01*
X131430180Y-82792268D02*
X131477800Y-82649411D01*
X131477800Y-82649411D02*
X131525419Y-82601792D01*
X131525419Y-82601792D02*
X131858752Y-82601792D01*
X131858752Y-82601792D02*
X131858752Y-82792268D01*
X131430180Y-82173220D02*
X132430180Y-82173220D01*
X132430180Y-82173220D02*
X131430180Y-81601792D01*
X131430180Y-81601792D02*
X132430180Y-81601792D01*
X131430180Y-81125601D02*
X132430180Y-81125601D01*
X132430180Y-81125601D02*
X132430180Y-80887506D01*
X132430180Y-80887506D02*
X132382561Y-80744649D01*
X132382561Y-80744649D02*
X132287323Y-80649411D01*
X132287323Y-80649411D02*
X132192085Y-80601792D01*
X132192085Y-80601792D02*
X132001609Y-80554173D01*
X132001609Y-80554173D02*
X131858752Y-80554173D01*
X131858752Y-80554173D02*
X131668276Y-80601792D01*
X131668276Y-80601792D02*
X131573038Y-80649411D01*
X131573038Y-80649411D02*
X131477800Y-80744649D01*
X131477800Y-80744649D02*
X131430180Y-80887506D01*
X131430180Y-80887506D02*
X131430180Y-81125601D01*
X132616779Y-96390180D02*
X132616779Y-95580657D01*
X132616779Y-95580657D02*
X132664398Y-95485419D01*
X132664398Y-95485419D02*
X132712017Y-95437800D01*
X132712017Y-95437800D02*
X132807255Y-95390180D01*
X132807255Y-95390180D02*
X132997731Y-95390180D01*
X132997731Y-95390180D02*
X133092969Y-95437800D01*
X133092969Y-95437800D02*
X133140588Y-95485419D01*
X133140588Y-95485419D02*
X133188207Y-95580657D01*
X133188207Y-95580657D02*
X133188207Y-96390180D01*
X133616779Y-95437800D02*
X133759636Y-95390180D01*
X133759636Y-95390180D02*
X133997731Y-95390180D01*
X133997731Y-95390180D02*
X134092969Y-95437800D01*
X134092969Y-95437800D02*
X134140588Y-95485419D01*
X134140588Y-95485419D02*
X134188207Y-95580657D01*
X134188207Y-95580657D02*
X134188207Y-95675895D01*
X134188207Y-95675895D02*
X134140588Y-95771133D01*
X134140588Y-95771133D02*
X134092969Y-95818752D01*
X134092969Y-95818752D02*
X133997731Y-95866371D01*
X133997731Y-95866371D02*
X133807255Y-95913990D01*
X133807255Y-95913990D02*
X133712017Y-95961609D01*
X133712017Y-95961609D02*
X133664398Y-96009228D01*
X133664398Y-96009228D02*
X133616779Y-96104466D01*
X133616779Y-96104466D02*
X133616779Y-96199704D01*
X133616779Y-96199704D02*
X133664398Y-96294942D01*
X133664398Y-96294942D02*
X133712017Y-96342561D01*
X133712017Y-96342561D02*
X133807255Y-96390180D01*
X133807255Y-96390180D02*
X134045350Y-96390180D01*
X134045350Y-96390180D02*
X134188207Y-96342561D01*
X134950112Y-95913990D02*
X135092969Y-95866371D01*
X135092969Y-95866371D02*
X135140588Y-95818752D01*
X135140588Y-95818752D02*
X135188207Y-95723514D01*
X135188207Y-95723514D02*
X135188207Y-95580657D01*
X135188207Y-95580657D02*
X135140588Y-95485419D01*
X135140588Y-95485419D02*
X135092969Y-95437800D01*
X135092969Y-95437800D02*
X134997731Y-95390180D01*
X134997731Y-95390180D02*
X134616779Y-95390180D01*
X134616779Y-95390180D02*
X134616779Y-96390180D01*
X134616779Y-96390180D02*
X134950112Y-96390180D01*
X134950112Y-96390180D02*
X135045350Y-96342561D01*
X135045350Y-96342561D02*
X135092969Y-96294942D01*
X135092969Y-96294942D02*
X135140588Y-96199704D01*
X135140588Y-96199704D02*
X135140588Y-96104466D01*
X135140588Y-96104466D02*
X135092969Y-96009228D01*
X135092969Y-96009228D02*
X135045350Y-95961609D01*
X135045350Y-95961609D02*
X134950112Y-95913990D01*
X134950112Y-95913990D02*
X134616779Y-95913990D01*
X135521541Y-96390180D02*
X136140588Y-96390180D01*
X136140588Y-96390180D02*
X135807255Y-96009228D01*
X135807255Y-96009228D02*
X135950112Y-96009228D01*
X135950112Y-96009228D02*
X136045350Y-95961609D01*
X136045350Y-95961609D02*
X136092969Y-95913990D01*
X136092969Y-95913990D02*
X136140588Y-95818752D01*
X136140588Y-95818752D02*
X136140588Y-95580657D01*
X136140588Y-95580657D02*
X136092969Y-95485419D01*
X136092969Y-95485419D02*
X136045350Y-95437800D01*
X136045350Y-95437800D02*
X135950112Y-95390180D01*
X135950112Y-95390180D02*
X135664398Y-95390180D01*
X135664398Y-95390180D02*
X135569160Y-95437800D01*
X135569160Y-95437800D02*
X135521541Y-95485419D01*
X137331065Y-95390180D02*
X137331065Y-96390180D01*
X137331065Y-95913990D02*
X137902493Y-95913990D01*
X137902493Y-95390180D02*
X137902493Y-96390180D01*
X138807255Y-96056847D02*
X138807255Y-95390180D01*
X138378684Y-96056847D02*
X138378684Y-95533038D01*
X138378684Y-95533038D02*
X138426303Y-95437800D01*
X138426303Y-95437800D02*
X138521541Y-95390180D01*
X138521541Y-95390180D02*
X138664398Y-95390180D01*
X138664398Y-95390180D02*
X138759636Y-95437800D01*
X138759636Y-95437800D02*
X138807255Y-95485419D01*
X139283446Y-95390180D02*
X139283446Y-96390180D01*
X139283446Y-96009228D02*
X139378684Y-96056847D01*
X139378684Y-96056847D02*
X139569160Y-96056847D01*
X139569160Y-96056847D02*
X139664398Y-96009228D01*
X139664398Y-96009228D02*
X139712017Y-95961609D01*
X139712017Y-95961609D02*
X139759636Y-95866371D01*
X139759636Y-95866371D02*
X139759636Y-95580657D01*
X139759636Y-95580657D02*
X139712017Y-95485419D01*
X139712017Y-95485419D02*
X139664398Y-95437800D01*
X139664398Y-95437800D02*
X139569160Y-95390180D01*
X139569160Y-95390180D02*
X139378684Y-95390180D01*
X139378684Y-95390180D02*
X139283446Y-95437800D01*
X140807256Y-96390180D02*
X141140589Y-95390180D01*
X141140589Y-95390180D02*
X141473922Y-96390180D01*
X142331065Y-95390180D02*
X141759637Y-95390180D01*
X142045351Y-95390180D02*
X142045351Y-96390180D01*
X142045351Y-96390180D02*
X141950113Y-96247323D01*
X141950113Y-96247323D02*
X141854875Y-96152085D01*
X141854875Y-96152085D02*
X141759637Y-96104466D01*
X142759637Y-95485419D02*
X142807256Y-95437800D01*
X142807256Y-95437800D02*
X142759637Y-95390180D01*
X142759637Y-95390180D02*
X142712018Y-95437800D01*
X142712018Y-95437800D02*
X142759637Y-95485419D01*
X142759637Y-95485419D02*
X142759637Y-95390180D01*
X143712017Y-96390180D02*
X143235827Y-96390180D01*
X143235827Y-96390180D02*
X143188208Y-95913990D01*
X143188208Y-95913990D02*
X143235827Y-95961609D01*
X143235827Y-95961609D02*
X143331065Y-96009228D01*
X143331065Y-96009228D02*
X143569160Y-96009228D01*
X143569160Y-96009228D02*
X143664398Y-95961609D01*
X143664398Y-95961609D02*
X143712017Y-95913990D01*
X143712017Y-95913990D02*
X143759636Y-95818752D01*
X143759636Y-95818752D02*
X143759636Y-95580657D01*
X143759636Y-95580657D02*
X143712017Y-95485419D01*
X143712017Y-95485419D02*
X143664398Y-95437800D01*
X143664398Y-95437800D02*
X143569160Y-95390180D01*
X143569160Y-95390180D02*
X143331065Y-95390180D01*
X143331065Y-95390180D02*
X143235827Y-95437800D01*
X143235827Y-95437800D02*
X143188208Y-95485419D01*
D11*
%TO.C,D13*%
X143700000Y-83440000D02*
G75*
G03*
X143700000Y-83440000I-50000J0D01*
G01*
D12*
%TO.C,C42*%
X130790000Y-101264420D02*
X130790000Y-101545580D01*
X129770000Y-101264420D02*
X129770000Y-101545580D01*
%TO.C,C23*%
X154330000Y-84380580D02*
X154330000Y-84099420D01*
X155350000Y-84380580D02*
X155350000Y-84099420D01*
%TO.C,C48*%
X147520000Y-101480580D02*
X147520000Y-101199420D01*
X148540000Y-101480580D02*
X148540000Y-101199420D01*
D11*
%TO.C,D10*%
X157950000Y-95280000D02*
G75*
G03*
X157950000Y-95280000I-50000J0D01*
G01*
D12*
%TO.C,L6*%
X144940000Y-101499622D02*
X144940000Y-100700378D01*
X146060000Y-101499622D02*
X146060000Y-100700378D01*
%TO.C,C15*%
X154359420Y-95770000D02*
X154640580Y-95770000D01*
X154359420Y-96790000D02*
X154640580Y-96790000D01*
D13*
%TO.C,U4*%
X153820000Y-84330000D02*
X151820000Y-84330000D01*
X151820000Y-84330000D02*
X151820000Y-87330000D01*
X153820000Y-87330000D02*
X153820000Y-84330000D01*
X151820000Y-87330000D02*
X153820000Y-87330000D01*
X151720000Y-84130000D02*
G75*
G03*
X151720000Y-84130000I-100000J0D01*
G01*
D12*
%TO.C,C41*%
X157119420Y-81260000D02*
X157400580Y-81260000D01*
X157119420Y-82280000D02*
X157400580Y-82280000D01*
%TO.C,C44*%
X133610580Y-86050000D02*
X133329420Y-86050000D01*
X133610580Y-85030000D02*
X133329420Y-85030000D01*
%TO.C,C12*%
X154349420Y-97080000D02*
X154630580Y-97080000D01*
X154349420Y-98100000D02*
X154630580Y-98100000D01*
%TO.C,C40*%
X157149420Y-84600000D02*
X157430580Y-84600000D01*
X157149420Y-85620000D02*
X157430580Y-85620000D01*
%TO.C,C5*%
X123590580Y-87270000D02*
X123309420Y-87270000D01*
X123590580Y-86250000D02*
X123309420Y-86250000D01*
%TO.C,C11*%
X138810000Y-82630580D02*
X138810000Y-82349420D01*
X139830000Y-82630580D02*
X139830000Y-82349420D01*
%TO.C,L8*%
X141150378Y-82660000D02*
X141949622Y-82660000D01*
X141150378Y-83780000D02*
X141949622Y-83780000D01*
%TO.C,L7*%
X134960378Y-97920000D02*
X135759622Y-97920000D01*
X134960378Y-99040000D02*
X135759622Y-99040000D01*
%TO.C,C49*%
X134909420Y-99450000D02*
X135190580Y-99450000D01*
X134909420Y-100470000D02*
X135190580Y-100470000D01*
%TO.C,C47*%
X137360000Y-82600580D02*
X137360000Y-82319420D01*
X138380000Y-82600580D02*
X138380000Y-82319420D01*
%TO.C,C6*%
X126700000Y-82510580D02*
X126700000Y-82229420D01*
X127720000Y-82510580D02*
X127720000Y-82229420D01*
%TO.C,L5*%
X154320378Y-94310000D02*
X155119622Y-94310000D01*
X154320378Y-95430000D02*
X155119622Y-95430000D01*
%TO.C,C45*%
X133570580Y-87490000D02*
X133289420Y-87490000D01*
X133570580Y-86470000D02*
X133289420Y-86470000D01*
D11*
%TO.C,D11*%
X145377500Y-99050000D02*
G75*
G03*
X145377500Y-99050000I-50000J0D01*
G01*
D12*
%TO.C,C18*%
X146380000Y-101500580D02*
X146380000Y-101219420D01*
X147400000Y-101500580D02*
X147400000Y-101219420D01*
%TO.C,C50*%
X134949420Y-100900000D02*
X135230580Y-100900000D01*
X134949420Y-101920000D02*
X135230580Y-101920000D01*
%TD*%
M02*
